<?xml version='1.0' encoding='UTF-8' standalone='no'?>
<svg xmlns:xlink="http://www.w3.org/1999/xlink" xmlns="http://www.w3.org/2000/svg" viewBox="0 0 576 432" height="432pt" width="576pt">
 <title>gl2ps_renderer figure</title>
 <desc>
Creator: GL2PS 1.4.0, (C) 1999-2017 C. Geuzaine
For: Octave
CreationDate: Tue May 07 22:38:16 2019
</desc>
 <defs/>
 <polygon points="0,0 576,0 576,432 0,432" fill="#ffffff"/>
 <g>
  <polygon points="0,432 576,432 576,0 0,0" fill="#ffffff" shape-rendering="crispEdges"/>
  <clipPath id="cp00576432">
   <polygon points="0,432 576,432 576,0 0,0"/>
  </clipPath>
  <g clip-path="url(#cp00576432)">
   <polyline points="343.372,248.223 235.165,248.223 235.165,310.854 343.372,310.854 343.372,248.223" stroke-linecap="butt" stroke="#0000ff" fill="none" stroke-linejoin="round" stroke-width="0.5"/>
   <polyline points="239.205,256.186 270.758,256.186 270.758,302.891 239.205,302.891 239.205,256.186" stroke-linecap="butt" stroke="#0000ff" fill="none" stroke-linejoin="round" stroke-width="0.5"/>
   <polyline points="262.2,276.042 262.053,276.546 261.815,277.014 261.496,277.43 261.105,277.781 260.657,278.054 260.166,278.239 259.649,278.332 259.125,278.328 258.61,278.227 258.122,278.034 257.678,277.754 257.292,277.398 256.979,276.977 256.749,276.505 256.609,275.999 256.565,275.476 256.617,274.954 256.713,274.461 256.952,273.363 257.236,272.276 257.567,271.202 257.942,270.143 258.362,269.1 258.826,268.077 259.333,267.074 259.882,266.093 260.471,265.136 261.101,264.206 261.77,263.302 262.476,262.428 263.218,261.585 263.996,260.773 264.807,259.996 265.651,259.253 266.525,258.547 267.428,257.878 268.359,257.249 269.316,256.659 270.296,256.11 271.299,255.603 272.323,255.14 273.365,254.72 274.425,254.344 275.499,254.014 276.586,253.729 277.684,253.491 278.177,253.395 278.699,253.342 279.222,253.387 279.728,253.526 280.199,253.757 280.62,254.07 280.977,254.455 281.257,254.899 281.45,255.387 281.55,255.902 281.555,256.427 281.462,256.943 281.276,257.434 281.003,257.882 280.653,258.273 280.237,258.593 279.769,258.83 279.265,258.978 278.772,259.074 277.91,259.261 277.055,259.484 276.211,259.744 275.379,260.039 274.56,260.369 273.756,260.733 272.968,261.132 272.198,261.563 271.446,262.026 270.715,262.521 270.005,263.046 269.318,263.601 268.655,264.184 268.018,264.795 267.407,265.433 266.824,266.095 266.269,266.782 265.744,267.492 265.249,268.223 264.785,268.975 264.354,269.745 263.956,270.533 263.592,271.338 263.262,272.157 262.967,272.989 262.707,273.833 262.484,274.687 262.296,275.55 262.2,276.042" stroke-linecap="butt" stroke="#0000ff" fill="none" stroke-linejoin="round" stroke-width="0.5"/>
   <polyline points="262.2,283.035 262.296,283.528 262.484,284.391 262.707,285.245 262.967,286.089 263.262,286.921 263.592,287.74 263.956,288.544 264.354,289.332 264.785,290.103 265.249,290.854 265.744,291.586 266.269,292.295 266.824,292.982 267.407,293.645 268.018,294.282 268.655,294.893 269.318,295.477 270.005,296.031 270.715,296.557 271.446,297.051 272.198,297.515 272.968,297.946 273.756,298.344 274.56,298.708 275.379,299.038 276.211,299.333 277.055,299.593 277.91,299.817 278.772,300.004 279.265,300.1 279.769,300.247 280.237,300.485 280.653,300.804 281.003,301.195 281.276,301.643 281.462,302.134 281.555,302.651 281.55,303.176 281.45,303.691 281.257,304.179 280.977,304.623 280.62,305.008 280.199,305.321 279.728,305.551 279.222,305.691 278.699,305.735 278.177,305.683 277.684,305.587 276.586,305.348 275.499,305.064 274.425,304.733 273.365,304.358 272.323,303.938 271.299,303.474 270.296,302.967 269.316,302.419 268.359,301.829 267.428,301.199 266.525,300.531 265.651,299.824 264.807,299.082 263.996,298.304 263.218,297.493 262.476,296.649 261.77,295.775 261.101,294.872 260.471,293.941 259.882,292.984 259.333,292.004 258.826,291.001 258.362,289.977 257.942,288.935 257.567,287.876 257.236,286.801 256.952,285.714 256.713,284.616 256.617,284.124 256.565,283.601 256.609,283.078 256.749,282.573 256.979,282.101 257.292,281.68 257.678,281.323 258.122,281.043 258.61,280.85 259.125,280.75 259.649,280.746 260.166,280.838 260.657,281.024 261.105,281.297 261.496,281.647 261.815,282.064 262.053,282.532 262.2,283.035" stroke-linecap="butt" stroke="#0000ff" fill="none" stroke-linejoin="round" stroke-width="0.5"/>
   <polyline points="284.183,279.539 284.181,279.462 284.175,279.385 284.165,279.309 284.15,279.233 284.132,279.158 284.109,279.085 284.082,279.012 284.052,278.942 284.018,278.873 283.98,278.806 283.938,278.741 283.893,278.678 283.845,278.618 283.794,278.561 283.739,278.506 283.682,278.455 283.622,278.407 283.559,278.362 283.495,278.32 283.428,278.282 283.359,278.248 283.288,278.218 283.216,278.191 283.142,278.169 283.067,278.15 282.992,278.135 282.915,278.125 282.838,278.119 282.761,278.117 282.761,278.117 282.684,278.119 282.608,278.125 282.531,278.135 282.456,278.15 282.381,278.169 282.307,278.191 282.235,278.218 282.164,278.248 282.095,278.282 282.028,278.32 281.963,278.362 281.901,278.407 281.841,278.455 281.784,278.506 281.729,278.561 281.678,278.618 281.629,278.678 281.585,278.741 281.543,278.806 281.505,278.873 281.471,278.942 281.44,279.012 281.414,279.085 281.391,279.158 281.373,279.233 281.358,279.309 281.348,279.385 281.342,279.462 281.339,279.539 281.339,279.539 281.342,279.616 281.348,279.693 281.358,279.769 281.373,279.844 281.391,279.919 281.414,279.993 281.44,280.065 281.471,280.136 281.505,280.205 281.543,280.272 281.585,280.337 281.629,280.399 281.678,280.459 281.729,280.517 281.784,280.571 281.841,280.623 281.901,280.671 281.963,280.716 282.028,280.757 282.095,280.795 282.164,280.829 282.235,280.86 282.307,280.886 282.381,280.909 282.456,280.927 282.531,280.942 282.608,280.952 282.684,280.959 282.761,280.961 282.761,280.961 282.838,280.959 282.915,280.952 282.992,280.942 283.067,280.927 283.142,280.909 283.216,280.886 283.288,280.86 283.359,280.829 283.428,280.795 283.495,280.757 283.559,280.716 283.622,280.671 283.682,280.623 283.739,280.571 283.794,280.517 283.845,280.459 283.893,280.399 283.938,280.337 283.98,280.272 284.018,280.205 284.052,280.136 284.082,280.065 284.109,279.993 284.132,279.919 284.15,279.844 284.165,279.769 284.175,279.693 284.181,279.616 284.183,279.539" stroke-linecap="butt" stroke="#0000ff" fill="none" stroke-linejoin="round" stroke-width="0.5"/>
   <polyline points="278.721,211.059 278.798,211.061 278.875,211.067 278.951,211.077 279.026,211.092 279.101,211.111 279.175,211.133 279.247,211.16 279.318,211.19 279.387,211.224 279.454,211.262 279.519,211.304 279.581,211.349 279.641,211.397 279.699,211.448 279.753,211.503 279.805,211.56 279.853,211.62 279.898,211.683 279.939,211.748 279.977,211.815 280.011,211.884 280.042,211.954 280.068,212.027 280.091,212.1 280.109,212.175 280.124,212.251 280.134,212.327 280.141,212.404 280.143,212.481 280.143,231.793 280.141,231.87 280.134,231.946 280.124,232.023 280.109,232.098 280.091,232.173 280.068,232.247 280.042,232.319 280.011,232.39 279.977,232.459 279.939,232.526 279.898,232.591 279.853,232.653 279.805,232.713 279.753,232.77 279.699,232.825 279.641,232.876 279.581,232.925 279.519,232.97 279.454,233.011 279.387,233.049 279.318,233.083 279.247,233.114 279.175,233.14 279.101,233.163 279.026,233.181 278.951,233.196 278.875,233.206 278.798,233.212 278.721,233.215 278.721,233.215 278.644,233.212 278.567,233.206 278.491,233.196 278.415,233.181 278.34,233.163 278.267,233.14 278.194,233.114 278.124,233.083 278.055,233.049 277.988,233.011 277.923,232.97 277.86,232.925 277.8,232.876 277.743,232.825 277.688,232.77 277.637,232.713 277.589,232.653 277.544,232.591 277.502,232.526 277.464,232.459 277.43,232.39 277.4,232.319 277.373,232.247 277.351,232.173 277.332,232.098 277.318,232.023 277.307,231.946 277.301,231.87 277.299,231.793 277.299,212.481 277.301,212.404 277.307,212.327 277.318,212.251 277.332,212.175 277.351,212.1 277.373,212.027 277.4,211.954 277.43,211.884 277.464,211.815 277.502,211.748 277.544,211.683 277.589,211.62 277.637,211.56 277.688,211.503 277.743,211.448 277.8,211.397 277.86,211.349 277.923,211.304 277.988,211.262 278.055,211.224 278.124,211.19 278.194,211.16 278.267,211.133 278.34,211.111 278.415,211.092 278.491,211.077 278.567,211.067 278.644,211.061 278.721,211.059 278.721,211.059" stroke-linecap="butt" stroke="#00ff00" fill="none" stroke-linejoin="round" stroke-width="0.5"/>
   <polyline points="274.68,202.977 282.761,211.059 282.761,235.833 254.477,235.833 254.477,181.047 274.68,181.047 274.68,202.977" stroke-linecap="butt" stroke="#00ff00" fill="none" stroke-linejoin="round" stroke-width="0.5"/>
   <polyline points="258.813,185.087 270.758,185.087 270.758,231.793 258.813,231.793 258.813,185.087" stroke-linecap="butt" stroke="#00ff00" fill="none" stroke-linejoin="round" stroke-width="0.5"/>
   <polyline points="287.999,208.44 288.003,208.594 288.016,208.747 288.036,208.9 288.065,209.051 288.103,209.201 288.148,209.348 288.201,209.493 288.262,209.634 288.33,209.772 288.406,209.906 288.489,210.036 288.579,210.161 288.675,210.281 288.778,210.396 288.887,210.505 289.002,210.608 289.122,210.704 289.247,210.794 289.377,210.877 289.511,210.953 289.649,211.021 289.79,211.082 289.935,211.135 290.082,211.18 290.231,211.217 290.383,211.247 290.535,211.267 290.689,211.28 290.843,211.284 323.464,211.284 324.542,211.288 325.617,211.301 326.685,211.321 327.744,211.35 328.79,211.388 329.821,211.433 330.833,211.486 331.823,211.547 332.789,211.615 333.728,211.691 334.636,211.774 335.512,211.864 336.352,211.96 337.155,212.063 337.917,212.172 338.637,212.287 339.313,212.407 339.942,212.532 340.522,212.662 341.053,212.796 341.532,212.934 341.958,213.075 342.33,213.22 342.646,213.367 342.906,213.517 343.11,213.668 343.255,213.82 343.343,213.974 343.372,214.128 343.372,239.756 235.165,239.756 235.165,235.833 282.761,235.833 282.761,211.059 274.68,202.977 274.68,181.047 235.165,181.047 235.165,177.124 343.372,177.124 343.372,202.752 343.343,202.906 343.255,203.06 343.11,203.212 342.906,203.363 342.646,203.513 342.33,203.66 341.958,203.805 341.532,203.946 341.053,204.084 340.522,204.218 339.942,204.348 339.313,204.473 338.637,204.593 337.917,204.708 337.155,204.817 336.352,204.92 335.512,205.016 334.636,205.106 333.728,205.189 332.789,205.265 331.823,205.333 330.833,205.394 329.821,205.447 328.79,205.492 327.744,205.53 326.685,205.559 325.617,205.579 324.542,205.592 323.464,205.596 290.843,205.596 290.689,205.6 290.535,205.613 290.383,205.634 290.231,205.663 290.082,205.7 289.935,205.745 289.79,205.798 289.649,205.859 289.511,205.927 289.377,206.003 289.247,206.086 289.122,206.176 289.002,206.272 288.887,206.375 288.778,206.484 288.675,206.599 288.579,206.719 288.489,206.844 288.406,206.974 288.33,207.108 288.262,207.246 288.201,207.387 288.148,207.532 288.103,207.679 288.065,207.829 288.036,207.98 288.016,208.133 288.003,208.286 287.999,208.44 287.999,208.44" stroke-linecap="butt" stroke="#00ff00" fill="none" stroke-linejoin="round" stroke-width="0.5"/>
   <polyline points="286.258,229.001 285.754,229.149 285.286,229.386 284.87,229.706 284.52,230.096 284.247,230.545 284.061,231.035 283.968,231.552 283.972,232.077 284.073,232.592 284.266,233.08 284.546,233.524 284.902,233.909 285.324,234.222 285.795,234.452 286.301,234.592 286.824,234.636 287.346,234.584 287.839,234.488 288.937,234.25 290.024,233.965 291.098,233.635 292.158,233.259 293.2,232.839 294.223,232.375 295.227,231.869 296.207,231.32 297.164,230.73 298.095,230.1 298.998,229.432 299.872,228.726 300.716,227.983 301.527,227.205 302.304,226.394 303.047,225.551 303.753,224.676 304.422,223.773 305.052,222.842 305.641,221.886 306.19,220.905 306.697,219.902 307.161,218.878 307.581,217.836 307.956,216.777 308.287,215.703 308.571,214.616 308.809,213.517 308.905,213.025 308.958,212.503 308.914,211.98 308.774,211.474 308.543,211.002 308.23,210.581 307.845,210.224 307.401,209.945 306.913,209.751 306.398,209.651 305.873,209.647 305.357,209.739 304.866,209.925 304.418,210.198 304.027,210.549 303.708,210.965 303.47,211.433 303.323,211.937 303.227,212.429 303.039,213.292 302.816,214.146 302.556,214.99 302.261,215.822 301.931,216.641 301.567,217.445 301.169,218.233 300.738,219.004 300.274,219.756 299.779,220.487 299.254,221.197 298.699,221.883 298.116,222.546 297.505,223.183 296.867,223.794 296.205,224.378 295.518,224.933 294.808,225.458 294.077,225.953 293.325,226.416 292.555,226.847 291.767,227.245 290.963,227.61 290.144,227.94 289.311,228.235 288.468,228.494 287.613,228.718 286.751,228.905 286.258,229.001" stroke-linecap="butt" stroke="#00ff00" fill="none" stroke-linejoin="round" stroke-width="0.5"/>
   <polyline points="294.699,228.955 294.181,229.037 293.686,229.213 293.233,229.477 292.835,229.82 292.508,230.229 292.261,230.693 292.103,231.193 292.041,231.714 292.075,232.238 292.204,232.747 292.425,233.223 292.73,233.65 293.108,234.014 293.546,234.303 294.03,234.506 294.543,234.616 295.068,234.631 296.546,234.535 299.529,234.319 302.483,234.061 305.404,233.762 308.285,233.421 311.122,233.04 313.911,232.619 316.646,232.158 319.323,231.659 321.937,231.122 324.484,230.547 326.961,229.936 329.362,229.29 331.684,228.608 333.924,227.892 336.078,227.143 338.142,226.362 340.114,225.548 341.99,224.703 343.77,223.826 345.448,222.919 347.025,221.979 348.497,221.008 349.863,220.003 351.119,218.964 352.264,217.887 353.294,216.771 354.203,215.612 354.986,214.409 355.274,213.916 355.496,213.441 355.627,212.933 355.662,212.409 355.601,211.888 355.444,211.387 355.199,210.923 354.872,210.512 354.475,210.169 354.022,209.904 353.528,209.727 353.01,209.643 352.485,209.656 351.972,209.766 351.488,209.968 351.049,210.255 350.67,210.618 350.364,211.045 350.076,211.538 349.583,212.295 348.967,213.078 348.227,213.88 347.36,214.695 346.367,215.516 345.248,216.34 344.005,217.159 342.642,217.971 341.162,218.772 339.567,219.557 337.863,220.325 336.051,221.072 334.137,221.797 332.125,222.496 330.019,223.169 327.823,223.814 325.541,224.428 323.178,225.011 320.74,225.561 318.229,226.077 315.653,226.558 313.014,227.002 310.319,227.409 307.573,227.778 304.78,228.108 301.946,228.398 299.077,228.649 296.177,228.859 294.699,228.955" stroke-linecap="butt" stroke="#00ff00" fill="none" stroke-linejoin="round" stroke-width="0.5"/>
   <polyline points="294.699,187.925 296.177,188.021 299.077,188.231 301.946,188.482 304.78,188.772 307.573,189.102 310.319,189.471 313.014,189.878 315.653,190.322 318.229,190.803 320.74,191.319 323.178,191.869 325.541,192.452 327.823,193.066 330.019,193.711 332.125,194.384 334.137,195.083 336.051,195.808 337.863,196.555 339.567,197.323 341.162,198.109 342.642,198.909 344.005,199.721 345.248,200.54 346.367,201.364 347.36,202.185 348.227,203 348.967,203.802 349.583,204.585 350.076,205.342 350.364,205.835 350.67,206.262 351.049,206.625 351.488,206.912 351.972,207.114 352.485,207.224 353.01,207.237 353.528,207.153 354.022,206.976 354.475,206.711 354.872,206.368 355.199,205.957 355.444,205.493 355.601,204.992 355.662,204.471 355.627,203.948 355.496,203.439 355.274,202.964 354.986,202.471 354.203,201.268 353.294,200.109 352.264,198.993 351.119,197.916 349.863,196.877 348.497,195.872 347.025,194.901 345.448,193.961 343.77,193.054 341.99,192.177 340.114,191.332 338.142,190.518 336.078,189.737 333.924,188.988 331.684,188.272 329.362,187.591 326.961,186.944 324.484,186.333 321.937,185.758 319.323,185.221 316.646,184.722 313.911,184.261 311.122,183.84 308.285,183.459 305.404,183.118 302.483,182.819 299.529,182.561 296.546,182.345 295.068,182.249 294.543,182.264 294.03,182.375 293.546,182.577 293.108,182.866 292.73,183.23 292.425,183.657 292.204,184.133 292.075,184.642 292.041,185.166 292.103,185.687 292.261,186.187 292.508,186.651 292.835,187.06 293.233,187.403 293.686,187.667 294.181,187.843 294.699,187.925" stroke-linecap="butt" stroke="#00ff00" fill="none" stroke-linejoin="round" stroke-width="0.5"/>
   <polyline points="286.258,187.879 286.751,187.975 287.613,188.162 288.468,188.386 289.311,188.645 290.144,188.94 290.963,189.27 291.767,189.635 292.555,190.033 293.325,190.464 294.077,190.927 294.808,191.422 295.518,191.947 296.205,192.502 296.867,193.086 297.505,193.697 298.116,194.334 298.699,194.997 299.254,195.684 299.779,196.393 300.274,197.124 300.738,197.876 301.169,198.647 301.567,199.435 301.931,200.239 302.261,201.058 302.556,201.89 302.816,202.734 303.039,203.588 303.227,204.451 303.323,204.943 303.47,205.447 303.708,205.915 304.027,206.331 304.418,206.682 304.866,206.955 305.357,207.141 305.873,207.233 306.398,207.229 306.913,207.129 307.401,206.935 307.845,206.656 308.23,206.299 308.543,205.878 308.774,205.406 308.914,204.9 308.958,204.377 308.905,203.855 308.809,203.363 308.571,202.264 308.287,201.177 307.956,200.103 307.581,199.044 307.161,198.002 306.697,196.978 306.19,195.975 305.641,194.994 305.052,194.038 304.422,193.107 303.753,192.204 303.047,191.329 302.304,190.486 301.527,189.675 300.716,188.897 299.872,188.154 298.998,187.448 298.095,186.78 297.164,186.15 296.207,185.56 295.227,185.011 294.223,184.505 293.2,184.041 292.158,183.621 291.098,183.245 290.024,182.915 288.937,182.63 287.839,182.392 287.346,182.296 286.824,182.244 286.301,182.288 285.795,182.428 285.324,182.658 284.902,182.971 284.546,183.356 284.266,183.8 284.073,184.288 283.972,184.803 283.968,185.328 284.061,185.845 284.247,186.335 284.52,186.784 284.87,187.174 285.286,187.494 285.754,187.731 286.258,187.879" stroke-linecap="butt" stroke="#00ff00" fill="none" stroke-linejoin="round" stroke-width="0.5"/>
   <polyline points="294.699,228.955 294.181,229.037 293.686,229.213 293.233,229.477 292.835,229.82 292.508,230.229 292.261,230.693 292.103,231.193 292.041,231.714 292.075,232.238 292.204,232.747 292.425,233.223 292.73,233.65 293.108,234.014 293.546,234.303 294.03,234.506 294.543,234.616 295.068,234.631 296.546,234.535 299.529,234.319 302.483,234.061 305.404,233.762 308.285,233.421 311.122,233.04 313.911,232.619 316.646,232.158 319.323,231.659 321.937,231.122 324.484,230.547 326.961,229.936 329.362,229.29 331.684,228.608 333.924,227.892 336.078,227.143 338.142,226.362 340.114,225.548 341.99,224.703 343.77,223.826 345.448,222.919 347.025,221.979 348.497,221.008 349.863,220.003 351.119,218.964 352.264,217.887 353.294,216.771 354.203,215.612 354.986,214.409 355.274,213.916 355.496,213.441 355.627,212.933 355.662,212.409 355.601,211.888 355.444,211.387 355.199,210.923 354.872,210.512 354.475,210.169 354.022,209.904 353.528,209.727 353.01,209.643 352.485,209.656 351.972,209.766 351.488,209.968 351.049,210.255 350.67,210.618 350.364,211.045 350.076,211.538 349.583,212.295 348.967,213.078 348.227,213.88 347.36,214.695 346.367,215.516 345.248,216.34 344.005,217.159 342.642,217.971 341.162,218.772 339.567,219.557 337.863,220.325 336.051,221.072 334.137,221.797 332.125,222.496 330.019,223.169 327.823,223.814 325.541,224.428 323.178,225.011 320.74,225.561 318.229,226.077 315.653,226.558 313.014,227.002 310.319,227.409 307.573,227.778 304.78,228.108 301.946,228.398 299.077,228.649 296.177,228.859 294.699,228.955" stroke-linecap="butt" stroke="#00ff00" fill="none" stroke-linejoin="round" stroke-width="0.5"/>
   <polyline points="284.183,208.44 284.181,208.517 284.175,208.594 284.165,208.67 284.15,208.746 284.132,208.82 284.109,208.894 284.082,208.966 284.052,209.037 284.018,209.106 283.98,209.173 283.938,209.238 283.893,209.301 283.845,209.361 283.794,209.418 283.739,209.472 283.682,209.524 283.622,209.572 283.559,209.617 283.495,209.658 283.428,209.696 283.359,209.731 283.288,209.761 283.216,209.788 283.142,209.81 283.067,209.829 282.992,209.843 282.915,209.854 282.838,209.86 282.761,209.862 282.761,209.862 282.684,209.86 282.608,209.854 282.531,209.843 282.456,209.829 282.381,209.81 282.307,209.788 282.235,209.761 282.164,209.731 282.095,209.696 282.028,209.658 281.963,209.617 281.901,209.572 281.841,209.524 281.784,209.472 281.729,209.418 281.678,209.361 281.629,209.301 281.585,209.238 281.543,209.173 281.505,209.106 281.471,209.037 281.44,208.966 281.414,208.894 281.391,208.82 281.373,208.746 281.358,208.67 281.348,208.594 281.342,208.517 281.339,208.44 281.339,208.44 281.342,208.363 281.348,208.286 281.358,208.21 281.373,208.134 281.391,208.06 281.414,207.986 281.44,207.914 281.471,207.843 281.505,207.774 281.543,207.707 281.585,207.642 281.629,207.579 281.678,207.519 281.729,207.462 281.784,207.408 281.841,207.356 281.901,207.308 281.963,207.263 282.028,207.222 282.095,207.184 282.164,207.149 282.235,207.119 282.307,207.092 282.381,207.07 282.456,207.051 282.531,207.037 282.608,207.026 282.684,207.02 282.761,207.018 282.761,207.018 282.838,207.02 282.915,207.026 282.992,207.037 283.067,207.051 283.142,207.07 283.216,207.092 283.288,207.119 283.359,207.149 283.428,207.184 283.495,207.222 283.559,207.263 283.622,207.308 283.682,207.356 283.739,207.408 283.794,207.462 283.845,207.519 283.893,207.579 283.938,207.642 283.98,207.707 284.018,207.774 284.052,207.843 284.082,207.914 284.109,207.986 284.132,208.06 284.15,208.134 284.165,208.21 284.175,208.286 284.181,208.363 284.183,208.44" stroke-linecap="butt" stroke="#00ff00" fill="none" stroke-linejoin="round" stroke-width="0.5"/>
   <polyline points="274.68,113.989 274.756,113.639 274.861,113.297 274.995,112.965 275.156,112.645 275.344,112.341 275.557,112.053 275.794,111.784 276.052,111.537 276.331,111.312 276.627,111.111 276.939,110.936 277.265,110.789 277.603,110.669 277.949,110.578 278.302,110.517 278.658,110.486 279.016,110.486 279.373,110.515 279.726,110.575 280.073,110.664 280.41,110.782 280.737,110.929 281.05,111.102 281.347,111.302 281.627,111.526 281.886,111.772 282.123,112.04 282.338,112.327 282.527,112.631 290.843,160.694 290.767,161.044 290.662,161.386 290.528,161.718 290.367,162.037 290.179,162.342 289.966,162.63 289.729,162.898 289.471,163.146 289.192,163.371 288.896,163.572 288.584,163.746 288.258,163.894 287.92,164.014 287.574,164.104 287.221,164.165 286.865,164.196 286.507,164.197 286.15,164.167 285.797,164.108 285.45,164.018 285.113,163.9 284.786,163.754 284.473,163.58 284.176,163.381 283.896,163.157 283.637,162.91 283.399,162.642 283.185,162.355 282.996,162.052 274.68,113.989" stroke-linecap="butt" stroke="#ff0000" fill="none" stroke-linejoin="round" stroke-width="0.5"/>
   <polyline points="288.203,160.451 288.188,160.376 288.169,160.301 288.146,160.228 288.118,160.156 288.087,160.085 288.053,160.017 288.014,159.95 287.972,159.885 287.927,159.823 287.878,159.764 287.826,159.707 287.771,159.653 287.713,159.602 287.653,159.554 287.59,159.51 287.524,159.469 287.457,159.432 287.388,159.398 287.317,159.368 287.244,159.342 287.17,159.32 287.096,159.302 287.02,159.289 286.943,159.279 286.867,159.273 286.79,159.272 286.713,159.275 286.636,159.282 286.56,159.293 286.56,159.293 286.484,159.308 286.41,159.327 286.336,159.35 286.264,159.378 286.194,159.409 286.125,159.443 286.058,159.482 285.994,159.524 285.932,159.569 285.872,159.618 285.815,159.67 285.761,159.725 285.71,159.783 285.663,159.843 285.618,159.906 285.577,159.972 285.54,160.039 285.506,160.108 285.477,160.179 285.451,160.252 285.429,160.326 285.411,160.4 285.397,160.476 285.387,160.553 285.382,160.629 285.38,160.706 285.383,160.783 285.39,160.86 285.401,160.936 285.401,160.936 285.416,161.012 285.435,161.086 285.459,161.16 285.486,161.232 285.517,161.302 285.552,161.371 285.59,161.438 285.632,161.502 285.678,161.564 285.727,161.624 285.779,161.681 285.833,161.735 285.891,161.786 285.952,161.833 286.015,161.878 286.08,161.919 286.147,161.956 286.217,161.99 286.288,162.019 286.36,162.045 286.434,162.067 286.509,162.085 286.585,162.099 286.661,162.109 286.738,162.114 286.815,162.116 286.892,162.113 286.968,162.106 287.045,162.095 287.045,162.095 287.12,162.08 287.195,162.061 287.268,162.037 287.34,162.01 287.411,161.979 287.479,161.944 287.546,161.906 287.611,161.864 287.673,161.818 287.732,161.769 287.789,161.718 287.843,161.663 287.894,161.605 287.942,161.544 287.986,161.481 288.027,161.416 288.064,161.349 288.098,161.28 288.128,161.208 288.154,161.136 288.176,161.062 288.194,160.987 288.207,160.911 288.217,160.835 288.223,160.758 288.224,160.681 288.221,160.604 288.214,160.528 288.203,160.451" stroke-linecap="butt" stroke="#ff0000" fill="none" stroke-linejoin="round" stroke-width="0.5"/>
   <polyline points="284.163,137.099 284.147,137.023 284.128,136.949 284.105,136.875 284.078,136.803 284.047,136.733 284.012,136.664 283.973,136.597 283.931,136.533 283.886,136.471 283.837,136.411 283.785,136.354 283.73,136.3 283.672,136.249 283.612,136.202 283.549,136.157 283.484,136.116 283.416,136.079 283.347,136.046 283.276,136.016 283.204,135.99 283.13,135.968 283.055,135.95 282.979,135.936 282.903,135.926 282.826,135.921 282.749,135.919 282.672,135.922 282.595,135.929 282.519,135.94 282.519,135.94 282.444,135.955 282.369,135.975 282.296,135.998 282.223,136.025 282.153,136.056 282.084,136.091 282.018,136.129 281.953,136.171 281.891,136.217 281.831,136.266 281.774,136.318 281.721,136.373 281.67,136.43 281.622,136.491 281.578,136.554 281.537,136.619 281.499,136.686 281.466,136.756 281.436,136.827 281.41,136.899 281.388,136.973 281.37,137.048 281.356,137.124 281.347,137.2 281.341,137.277 281.34,137.354 281.342,137.431 281.349,137.508 281.36,137.584 281.36,137.584 281.375,137.659 281.395,137.734 281.418,137.807 281.445,137.879 281.476,137.95 281.511,138.018 281.55,138.085 281.592,138.15 281.637,138.212 281.686,138.271 281.738,138.328 281.793,138.382 281.85,138.433 281.911,138.481 281.974,138.525 282.039,138.566 282.107,138.603 282.176,138.637 282.247,138.667 282.319,138.693 282.393,138.715 282.468,138.733 282.544,138.747 282.62,138.756 282.697,138.762 282.774,138.763 282.851,138.76 282.928,138.754 283.004,138.742 283.004,138.742 283.079,138.727 283.154,138.708 283.227,138.685 283.299,138.658 283.37,138.626 283.439,138.592 283.505,138.553 283.57,138.511 283.632,138.466 283.692,138.417 283.748,138.365 283.802,138.31 283.853,138.252 283.901,138.192 283.945,138.129 283.986,138.064 284.024,137.996 284.057,137.927 284.087,137.856 284.113,137.783 284.135,137.71 284.153,137.635 284.167,137.559 284.176,137.483 284.182,137.406 284.183,137.329 284.181,137.252 284.174,137.175 284.163,137.099" stroke-linecap="butt" stroke="#ff0000" fill="none" stroke-linejoin="round" stroke-width="0.5"/>
   <polyline points="280.122,113.746 280.107,113.671 280.087,113.596 280.064,113.523 280.037,113.451 280.006,113.38 279.971,113.312 279.933,113.245 279.891,113.18 279.845,113.118 279.796,113.059 279.744,113.002 279.69,112.948 279.632,112.897 279.571,112.849 279.508,112.805 279.443,112.764 279.376,112.727 279.306,112.693 279.235,112.663 279.163,112.637 279.089,112.615 279.014,112.597 278.938,112.583 278.862,112.574 278.785,112.568 278.708,112.567 278.631,112.57 278.555,112.576 278.478,112.588 278.478,112.588 278.403,112.603 278.328,112.622 278.255,112.645 278.183,112.672 278.112,112.703 278.044,112.738 277.977,112.777 277.912,112.819 277.85,112.864 277.791,112.913 277.734,112.965 277.68,113.02 277.629,113.078 277.581,113.138 277.537,113.201 277.496,113.266 277.459,113.334 277.425,113.403 277.395,113.474 277.369,113.547 277.347,113.62 277.329,113.695 277.316,113.771 277.306,113.847 277.3,113.924 277.299,114.001 277.302,114.078 277.309,114.155 277.32,114.231 277.32,114.231 277.335,114.307 277.354,114.381 277.377,114.455 277.404,114.527 277.436,114.597 277.47,114.666 277.509,114.733 277.551,114.797 277.596,114.859 277.645,114.919 277.697,114.976 277.752,115.03 277.81,115.081 277.87,115.128 277.933,115.173 277.998,115.214 278.066,115.251 278.135,115.284 278.206,115.314 278.279,115.34 278.352,115.362 278.427,115.38 278.503,115.394 278.58,115.404 278.656,115.409 278.733,115.411 278.81,115.408 278.887,115.401 278.963,115.39 278.963,115.39 279.039,115.375 279.113,115.355 279.187,115.332 279.259,115.305 279.329,115.274 279.398,115.239 279.465,115.201 279.529,115.159 279.591,115.113 279.651,115.064 279.708,115.012 279.762,114.957 279.813,114.9 279.86,114.839 279.905,114.776 279.946,114.711 279.983,114.644 280.017,114.574 280.046,114.503 280.072,114.431 280.094,114.357 280.112,114.282 280.126,114.206 280.136,114.13 280.141,114.053 280.143,113.976 280.14,113.899 280.133,113.822 280.122,113.746" stroke-linecap="butt" stroke="#ff0000" fill="none" stroke-linejoin="round" stroke-width="0.5"/>
   <polyline points="282.761,113.989 282.837,113.639 282.943,113.297 283.076,112.965 283.238,112.645 283.426,112.341 283.639,112.053 283.875,111.784 284.133,111.537 284.412,111.312 284.708,111.111 285.021,110.936 285.347,110.789 285.684,110.669 286.03,110.578 286.383,110.517 286.74,110.486 287.098,110.486 287.454,110.515 287.807,110.575 288.154,110.664 288.492,110.782 288.818,110.929 289.131,111.102 289.429,111.302 289.708,111.526 289.967,111.772 290.205,112.04 290.419,112.327 290.608,112.631 298.924,160.694 298.848,161.044 298.743,161.386 298.609,161.718 298.448,162.037 298.26,162.342 298.047,162.63 297.811,162.898 297.552,163.146 297.274,163.371 296.977,163.572 296.665,163.746 296.339,163.894 296.002,164.014 295.655,164.104 295.303,164.165 294.946,164.196 294.588,164.197 294.231,164.167 293.878,164.108 293.532,164.018 293.194,163.9 292.867,163.754 292.554,163.58 292.257,163.381 291.978,163.157 291.718,162.91 291.481,162.642 291.267,162.355 291.078,162.052 282.761,113.989" stroke-linecap="butt" stroke="#ff0000" fill="none" stroke-linejoin="round" stroke-width="0.5"/>
   <polyline points="296.285,160.451 296.27,160.376 296.25,160.301 296.227,160.228 296.2,160.156 296.169,160.085 296.134,160.017 296.095,159.95 296.053,159.885 296.008,159.823 295.959,159.764 295.907,159.707 295.852,159.653 295.794,159.602 295.734,159.554 295.671,159.51 295.606,159.469 295.538,159.432 295.469,159.398 295.398,159.368 295.326,159.342 295.252,159.32 295.177,159.302 295.101,159.289 295.025,159.279 294.948,159.273 294.871,159.272 294.794,159.275 294.717,159.282 294.641,159.293 294.641,159.293 294.566,159.308 294.491,159.327 294.418,159.35 294.346,159.378 294.275,159.409 294.206,159.443 294.14,159.482 294.075,159.524 294.013,159.569 293.953,159.618 293.897,159.67 293.843,159.725 293.792,159.783 293.744,159.843 293.7,159.906 293.659,159.972 293.621,160.039 293.588,160.108 293.558,160.179 293.532,160.252 293.51,160.326 293.492,160.4 293.478,160.476 293.469,160.553 293.463,160.629 293.462,160.706 293.464,160.783 293.471,160.86 293.482,160.936 293.482,160.936 293.498,161.012 293.517,161.086 293.54,161.16 293.567,161.232 293.598,161.302 293.633,161.371 293.672,161.438 293.714,161.502 293.759,161.564 293.808,161.624 293.86,161.681 293.915,161.735 293.973,161.786 294.033,161.833 294.096,161.878 294.161,161.919 294.229,161.956 294.298,161.99 294.369,162.019 294.441,162.045 294.515,162.067 294.59,162.085 294.666,162.099 294.742,162.109 294.819,162.114 294.896,162.116 294.973,162.113 295.05,162.106 295.126,162.095 295.126,162.095 295.201,162.08 295.276,162.061 295.349,162.037 295.422,162.01 295.492,161.979 295.561,161.944 295.627,161.906 295.692,161.864 295.754,161.818 295.814,161.769 295.871,161.718 295.924,161.663 295.975,161.605 296.023,161.544 296.068,161.481 296.108,161.416 296.146,161.349 296.179,161.28 296.209,161.208 296.235,161.136 296.257,161.062 296.275,160.987 296.289,160.911 296.298,160.835 296.304,160.758 296.305,160.681 296.303,160.604 296.296,160.528 296.285,160.451" stroke-linecap="butt" stroke="#ff0000" fill="none" stroke-linejoin="round" stroke-width="0.5"/>
   <polyline points="292.244,137.099 292.229,137.023 292.21,136.949 292.186,136.875 292.159,136.803 292.128,136.733 292.093,136.664 292.055,136.597 292.013,136.533 291.967,136.471 291.918,136.411 291.867,136.354 291.812,136.3 291.754,136.249 291.693,136.202 291.63,136.157 291.565,136.116 291.498,136.079 291.428,136.046 291.357,136.016 291.285,135.99 291.211,135.968 291.136,135.95 291.06,135.936 290.984,135.926 290.907,135.921 290.83,135.919 290.753,135.922 290.677,135.929 290.6,135.94 290.6,135.94 290.525,135.955 290.45,135.975 290.377,135.998 290.305,136.025 290.234,136.056 290.166,136.091 290.099,136.129 290.034,136.171 289.972,136.217 289.913,136.266 289.856,136.318 289.802,136.373 289.751,136.43 289.703,136.491 289.659,136.554 289.618,136.619 289.581,136.686 289.547,136.756 289.517,136.827 289.491,136.899 289.469,136.973 289.451,137.048 289.438,137.124 289.428,137.2 289.422,137.277 289.421,137.354 289.424,137.431 289.431,137.508 289.442,137.584 289.442,137.584 289.457,137.659 289.476,137.734 289.499,137.807 289.527,137.879 289.558,137.95 289.592,138.018 289.631,138.085 289.673,138.15 289.718,138.212 289.767,138.271 289.819,138.328 289.874,138.382 289.932,138.433 289.992,138.481 290.055,138.525 290.121,138.566 290.188,138.603 290.257,138.637 290.328,138.667 290.401,138.693 290.475,138.715 290.549,138.733 290.625,138.747 290.702,138.756 290.778,138.762 290.855,138.763 290.932,138.76 291.009,138.754 291.085,138.742 291.085,138.742 291.161,138.727 291.235,138.708 291.309,138.685 291.381,138.658 291.451,138.626 291.52,138.592 291.587,138.553 291.651,138.511 291.713,138.466 291.773,138.417 291.83,138.365 291.884,138.31 291.935,138.252 291.982,138.192 292.027,138.129 292.068,138.064 292.105,137.996 292.139,137.927 292.168,137.856 292.194,137.783 292.216,137.71 292.234,137.635 292.248,137.559 292.258,137.483 292.263,137.406 292.265,137.329 292.262,137.252 292.255,137.175 292.244,137.099" stroke-linecap="butt" stroke="#ff0000" fill="none" stroke-linejoin="round" stroke-width="0.5"/>
   <polyline points="288.203,113.746 288.188,113.671 288.169,113.596 288.146,113.523 288.118,113.451 288.087,113.38 288.053,113.312 288.014,113.245 287.972,113.18 287.927,113.118 287.878,113.059 287.826,113.002 287.771,112.948 287.713,112.897 287.653,112.849 287.59,112.805 287.524,112.764 287.457,112.727 287.388,112.693 287.317,112.663 287.244,112.637 287.17,112.615 287.096,112.597 287.02,112.583 286.943,112.574 286.867,112.568 286.79,112.567 286.713,112.57 286.636,112.576 286.56,112.588 286.56,112.588 286.484,112.603 286.41,112.622 286.336,112.645 286.264,112.672 286.194,112.703 286.125,112.738 286.058,112.777 285.994,112.819 285.932,112.864 285.872,112.913 285.815,112.965 285.761,113.02 285.71,113.078 285.663,113.138 285.618,113.201 285.577,113.266 285.54,113.334 285.506,113.403 285.477,113.474 285.451,113.547 285.429,113.62 285.411,113.695 285.397,113.771 285.387,113.847 285.382,113.924 285.38,114.001 285.383,114.078 285.39,114.155 285.401,114.231 285.401,114.231 285.416,114.307 285.435,114.381 285.459,114.455 285.486,114.527 285.517,114.597 285.552,114.666 285.59,114.733 285.632,114.797 285.678,114.859 285.727,114.919 285.779,114.976 285.833,115.03 285.891,115.081 285.952,115.128 286.015,115.173 286.08,115.214 286.147,115.251 286.217,115.284 286.288,115.314 286.36,115.34 286.434,115.362 286.509,115.38 286.585,115.394 286.661,115.404 286.738,115.409 286.815,115.411 286.892,115.408 286.968,115.401 287.045,115.39 287.045,115.39 287.12,115.375 287.195,115.355 287.268,115.332 287.34,115.305 287.411,115.274 287.479,115.239 287.546,115.201 287.611,115.159 287.673,115.113 287.732,115.064 287.789,115.012 287.843,114.957 287.894,114.9 287.942,114.839 287.986,114.776 288.027,114.711 288.064,114.644 288.098,114.574 288.128,114.503 288.154,114.431 288.176,114.357 288.194,114.282 288.207,114.206 288.217,114.13 288.223,114.053 288.224,113.976 288.221,113.899 288.214,113.822 288.203,113.746" stroke-linecap="butt" stroke="#ff0000" fill="none" stroke-linejoin="round" stroke-width="0.5"/>
   <polyline points="290.843,113.989 290.919,113.639 291.024,113.297 291.158,112.965 291.319,112.645 291.507,112.341 291.72,112.053 291.956,111.784 292.215,111.537 292.493,111.312 292.79,111.111 293.102,110.936 293.428,110.789 293.766,110.669 294.112,110.578 294.465,110.517 294.821,110.486 295.179,110.486 295.536,110.515 295.889,110.575 296.235,110.664 296.573,110.782 296.9,110.929 297.213,111.102 297.51,111.302 297.789,111.526 298.049,111.772 298.286,112.04 298.5,112.327 298.689,112.631 307.006,160.694 306.93,161.044 306.824,161.386 306.691,161.718 306.529,162.037 306.341,162.342 306.129,162.63 305.892,162.898 305.634,163.146 305.355,163.371 305.059,163.572 304.746,163.746 304.42,163.894 304.083,164.014 303.737,164.104 303.384,164.165 303.027,164.196 302.669,164.197 302.313,164.167 301.96,164.108 301.613,164.018 301.275,163.9 300.949,163.754 300.636,163.58 300.338,163.381 300.059,163.157 299.8,162.91 299.562,162.642 299.348,162.355 299.159,162.052 290.843,113.989" stroke-linecap="butt" stroke="#ff0000" fill="none" stroke-linejoin="round" stroke-width="0.5"/>
   <polyline points="304.366,160.451 304.351,160.376 304.332,160.301 304.308,160.228 304.281,160.156 304.25,160.085 304.215,160.017 304.177,159.95 304.135,159.885 304.089,159.823 304.041,159.764 303.989,159.707 303.934,159.653 303.876,159.602 303.815,159.554 303.752,159.51 303.687,159.469 303.62,159.432 303.551,159.398 303.48,159.368 303.407,159.342 303.333,159.32 303.258,159.302 303.183,159.289 303.106,159.279 303.029,159.273 302.952,159.272 302.875,159.275 302.799,159.282 302.722,159.293 302.722,159.293 302.647,159.308 302.572,159.327 302.499,159.35 302.427,159.378 302.356,159.409 302.288,159.443 302.221,159.482 302.157,159.524 302.094,159.569 302.035,159.618 301.978,159.67 301.924,159.725 301.873,159.783 301.825,159.843 301.781,159.906 301.74,159.972 301.703,160.039 301.669,160.108 301.639,160.179 301.613,160.252 301.591,160.326 301.574,160.4 301.56,160.476 301.55,160.553 301.544,160.629 301.543,160.706 301.546,160.783 301.553,160.86 301.564,160.936 301.564,160.936 301.579,161.012 301.598,161.086 301.621,161.16 301.649,161.232 301.68,161.302 301.715,161.371 301.753,161.438 301.795,161.502 301.841,161.564 301.889,161.624 301.941,161.681 301.996,161.735 302.054,161.786 302.114,161.833 302.177,161.878 302.243,161.919 302.31,161.956 302.379,161.99 302.45,162.019 302.523,162.045 302.597,162.067 302.672,162.085 302.747,162.099 302.824,162.109 302.9,162.114 302.977,162.116 303.054,162.113 303.131,162.106 303.207,162.095 303.207,162.095 303.283,162.08 303.357,162.061 303.431,162.037 303.503,162.01 303.573,161.979 303.642,161.944 303.709,161.906 303.773,161.864 303.835,161.818 303.895,161.769 303.952,161.718 304.006,161.663 304.057,161.605 304.104,161.544 304.149,161.481 304.19,161.416 304.227,161.349 304.261,161.28 304.29,161.208 304.316,161.136 304.338,161.062 304.356,160.987 304.37,160.911 304.38,160.835 304.385,160.758 304.387,160.681 304.384,160.604 304.377,160.528 304.366,160.451" stroke-linecap="butt" stroke="#ff0000" fill="none" stroke-linejoin="round" stroke-width="0.5"/>
   <polyline points="300.325,137.099 300.31,137.023 300.291,136.949 300.268,136.875 300.241,136.803 300.209,136.733 300.175,136.664 300.136,136.597 300.094,136.533 300.049,136.471 300,136.411 299.948,136.354 299.893,136.3 299.835,136.249 299.775,136.202 299.712,136.157 299.647,136.116 299.579,136.079 299.51,136.046 299.439,136.016 299.366,135.99 299.293,135.968 299.218,135.95 299.142,135.936 299.065,135.926 298.989,135.921 298.912,135.919 298.835,135.922 298.758,135.929 298.682,135.94 298.682,135.94 298.606,135.955 298.532,135.975 298.458,135.998 298.386,136.025 298.316,136.056 298.247,136.091 298.18,136.129 298.116,136.171 298.054,136.217 297.994,136.266 297.937,136.318 297.883,136.373 297.832,136.43 297.785,136.491 297.74,136.554 297.699,136.619 297.662,136.686 297.628,136.756 297.599,136.827 297.573,136.899 297.551,136.973 297.533,137.048 297.519,137.124 297.509,137.2 297.504,137.277 297.502,137.354 297.505,137.431 297.512,137.508 297.523,137.584 297.523,137.584 297.538,137.659 297.557,137.734 297.581,137.807 297.608,137.879 297.639,137.95 297.674,138.018 297.712,138.085 297.754,138.15 297.8,138.212 297.849,138.271 297.901,138.328 297.956,138.382 298.013,138.433 298.074,138.481 298.137,138.525 298.202,138.566 298.269,138.603 298.339,138.637 298.41,138.667 298.482,138.693 298.556,138.715 298.631,138.733 298.707,138.747 298.783,138.756 298.86,138.762 298.937,138.763 299.014,138.76 299.09,138.754 299.167,138.742 299.167,138.742 299.242,138.727 299.317,138.708 299.39,138.685 299.462,138.658 299.533,138.626 299.601,138.592 299.668,138.553 299.733,138.511 299.795,138.466 299.854,138.417 299.911,138.365 299.965,138.31 300.016,138.252 300.064,138.192 300.108,138.129 300.149,138.064 300.186,137.996 300.22,137.927 300.25,137.856 300.276,137.783 300.298,137.71 300.316,137.635 300.329,137.559 300.339,137.483 300.345,137.406 300.346,137.329 300.343,137.252 300.336,137.175 300.325,137.099" stroke-linecap="butt" stroke="#ff0000" fill="none" stroke-linejoin="round" stroke-width="0.5"/>
   <polyline points="296.285,113.746 296.27,113.671 296.25,113.596 296.227,113.523 296.2,113.451 296.169,113.38 296.134,113.312 296.095,113.245 296.053,113.18 296.008,113.118 295.959,113.059 295.907,113.002 295.852,112.948 295.794,112.897 295.734,112.849 295.671,112.805 295.606,112.764 295.538,112.727 295.469,112.693 295.398,112.663 295.326,112.637 295.252,112.615 295.177,112.597 295.101,112.583 295.025,112.574 294.948,112.568 294.871,112.567 294.794,112.57 294.717,112.576 294.641,112.588 294.641,112.588 294.566,112.603 294.491,112.622 294.418,112.645 294.346,112.672 294.275,112.703 294.206,112.738 294.14,112.777 294.075,112.819 294.013,112.864 293.953,112.913 293.897,112.965 293.843,113.02 293.792,113.078 293.744,113.138 293.7,113.201 293.659,113.266 293.621,113.334 293.588,113.403 293.558,113.474 293.532,113.547 293.51,113.62 293.492,113.695 293.478,113.771 293.469,113.847 293.463,113.924 293.462,114.001 293.464,114.078 293.471,114.155 293.482,114.231 293.482,114.231 293.498,114.307 293.517,114.381 293.54,114.455 293.567,114.527 293.598,114.597 293.633,114.666 293.672,114.733 293.714,114.797 293.759,114.859 293.808,114.919 293.86,114.976 293.915,115.03 293.973,115.081 294.033,115.128 294.096,115.173 294.161,115.214 294.229,115.251 294.298,115.284 294.369,115.314 294.441,115.34 294.515,115.362 294.59,115.38 294.666,115.394 294.742,115.404 294.819,115.409 294.896,115.411 294.973,115.408 295.05,115.401 295.126,115.39 295.126,115.39 295.201,115.375 295.276,115.355 295.349,115.332 295.422,115.305 295.492,115.274 295.561,115.239 295.627,115.201 295.692,115.159 295.754,115.113 295.814,115.064 295.871,115.012 295.924,114.957 295.975,114.9 296.023,114.839 296.068,114.776 296.108,114.711 296.146,114.644 296.179,114.574 296.209,114.503 296.235,114.431 296.257,114.357 296.275,114.282 296.289,114.206 296.298,114.13 296.304,114.053 296.305,113.976 296.303,113.899 296.296,113.822 296.285,113.746" stroke-linecap="butt" stroke="#ff0000" fill="none" stroke-linejoin="round" stroke-width="0.5"/>
   <polyline points="298.924,113.989 299,113.639 299.105,113.297 299.239,112.965 299.401,112.645 299.588,112.341 299.801,112.053 300.038,111.784 300.296,111.537 300.575,111.312 300.871,111.111 301.184,110.936 301.51,110.789 301.847,110.669 302.193,110.578 302.546,110.517 302.902,110.486 303.26,110.486 303.617,110.515 303.97,110.575 304.317,110.664 304.655,110.782 304.981,110.929 305.294,111.102 305.591,111.302 305.871,111.526 306.13,111.772 306.368,112.04 306.582,112.327 306.771,112.631 315.087,160.694 315.011,161.044 314.906,161.386 314.772,161.718 314.611,162.037 314.423,162.342 314.21,162.63 313.973,162.898 313.715,163.146 313.437,163.371 313.14,163.572 312.828,163.746 312.502,163.894 312.164,164.014 311.818,164.104 311.465,164.165 311.109,164.196 310.751,164.197 310.394,164.167 310.041,164.108 309.695,164.018 309.357,163.9 309.03,163.754 308.717,163.58 308.42,163.381 308.141,163.157 307.881,162.91 307.644,162.642 307.43,162.355 307.241,162.052 298.924,113.989" stroke-linecap="butt" stroke="#ff0000" fill="none" stroke-linejoin="round" stroke-width="0.5"/>
   <polyline points="312.447,160.451 312.432,160.376 312.413,160.301 312.39,160.228 312.363,160.156 312.332,160.085 312.297,160.017 312.258,159.95 312.216,159.885 312.171,159.823 312.122,159.764 312.07,159.707 312.015,159.653 311.957,159.602 311.897,159.554 311.834,159.51 311.769,159.469 311.701,159.432 311.632,159.398 311.561,159.368 311.488,159.342 311.415,159.32 311.34,159.302 311.264,159.289 311.188,159.279 311.111,159.273 311.034,159.272 310.957,159.275 310.88,159.282 310.804,159.293 310.804,159.293 310.728,159.308 310.654,159.327 310.58,159.35 310.508,159.378 310.438,159.409 310.369,159.443 310.302,159.482 310.238,159.524 310.176,159.569 310.116,159.618 310.059,159.67 310.005,159.725 309.954,159.783 309.907,159.843 309.862,159.906 309.821,159.972 309.784,160.039 309.751,160.108 309.721,160.179 309.695,160.252 309.673,160.326 309.655,160.4 309.641,160.476 309.631,160.553 309.626,160.629 309.624,160.706 309.627,160.783 309.634,160.86 309.645,160.936 309.645,160.936 309.66,161.012 309.68,161.086 309.703,161.16 309.73,161.232 309.761,161.302 309.796,161.371 309.834,161.438 309.876,161.502 309.922,161.564 309.971,161.624 310.023,161.681 310.078,161.735 310.135,161.786 310.196,161.833 310.259,161.878 310.324,161.919 310.391,161.956 310.461,161.99 310.532,162.019 310.604,162.045 310.678,162.067 310.753,162.085 310.829,162.099 310.905,162.109 310.982,162.114 311.059,162.116 311.136,162.113 311.213,162.106 311.289,162.095 311.289,162.095 311.364,162.08 311.439,162.061 311.512,162.037 311.584,162.01 311.655,161.979 311.723,161.944 311.79,161.906 311.855,161.864 311.917,161.818 311.976,161.769 312.033,161.718 312.087,161.663 312.138,161.605 312.186,161.544 312.23,161.481 312.271,161.416 312.308,161.349 312.342,161.28 312.372,161.208 312.398,161.136 312.42,161.062 312.438,160.987 312.452,160.911 312.461,160.835 312.467,160.758 312.468,160.681 312.465,160.604 312.459,160.528 312.447,160.451" stroke-linecap="butt" stroke="#ff0000" fill="none" stroke-linejoin="round" stroke-width="0.5"/>
   <polyline points="308.407,137.099 308.392,137.023 308.372,136.949 308.349,136.875 308.322,136.803 308.291,136.733 308.256,136.664 308.218,136.597 308.175,136.533 308.13,136.471 308.081,136.411 308.029,136.354 307.974,136.3 307.917,136.249 307.856,136.202 307.793,136.157 307.728,136.116 307.661,136.079 307.591,136.046 307.52,136.016 307.448,135.99 307.374,135.968 307.299,135.95 307.223,135.936 307.147,135.926 307.07,135.921 306.993,135.919 306.916,135.922 306.839,135.929 306.763,135.94 306.763,135.94 306.688,135.955 306.613,135.975 306.54,135.998 306.468,136.025 306.397,136.056 306.328,136.091 306.262,136.129 306.197,136.171 306.135,136.217 306.076,136.266 306.019,136.318 305.965,136.373 305.914,136.43 305.866,136.491 305.822,136.554 305.781,136.619 305.743,136.686 305.71,136.756 305.68,136.827 305.654,136.899 305.632,136.973 305.614,137.048 305.6,137.124 305.591,137.2 305.585,137.277 305.584,137.354 305.586,137.431 305.593,137.508 305.604,137.584 305.604,137.584 305.62,137.659 305.639,137.734 305.662,137.807 305.689,137.879 305.72,137.95 305.755,138.018 305.794,138.085 305.836,138.15 305.881,138.212 305.93,138.271 305.982,138.328 306.037,138.382 306.095,138.433 306.155,138.481 306.218,138.525 306.283,138.566 306.351,138.603 306.42,138.637 306.491,138.667 306.564,138.693 306.637,138.715 306.712,138.733 306.788,138.747 306.864,138.756 306.941,138.762 307.018,138.763 307.095,138.76 307.172,138.754 307.248,138.742 307.248,138.742 307.324,138.727 307.398,138.708 307.472,138.685 307.544,138.658 307.614,138.626 307.683,138.592 307.749,138.553 307.814,138.511 307.876,138.466 307.936,138.417 307.993,138.365 308.047,138.31 308.097,138.252 308.145,138.192 308.19,138.129 308.23,138.064 308.268,137.996 308.301,137.927 308.331,137.856 308.357,137.783 308.379,137.71 308.397,137.635 308.411,137.559 308.421,137.483 308.426,137.406 308.428,137.329 308.425,137.252 308.418,137.175 308.407,137.099" stroke-linecap="butt" stroke="#ff0000" fill="none" stroke-linejoin="round" stroke-width="0.5"/>
   <polyline points="304.366,113.746 304.351,113.671 304.332,113.596 304.308,113.523 304.281,113.451 304.25,113.38 304.215,113.312 304.177,113.245 304.135,113.18 304.089,113.118 304.041,113.059 303.989,113.002 303.934,112.948 303.876,112.897 303.815,112.849 303.752,112.805 303.687,112.764 303.62,112.727 303.551,112.693 303.48,112.663 303.407,112.637 303.333,112.615 303.258,112.597 303.183,112.583 303.106,112.574 303.029,112.568 302.952,112.567 302.875,112.57 302.799,112.576 302.722,112.588 302.722,112.588 302.647,112.603 302.572,112.622 302.499,112.645 302.427,112.672 302.356,112.703 302.288,112.738 302.221,112.777 302.157,112.819 302.094,112.864 302.035,112.913 301.978,112.965 301.924,113.02 301.873,113.078 301.825,113.138 301.781,113.201 301.74,113.266 301.703,113.334 301.669,113.403 301.639,113.474 301.613,113.547 301.591,113.62 301.574,113.695 301.56,113.771 301.55,113.847 301.544,113.924 301.543,114.001 301.546,114.078 301.553,114.155 301.564,114.231 301.564,114.231 301.579,114.307 301.598,114.381 301.621,114.455 301.649,114.527 301.68,114.597 301.715,114.666 301.753,114.733 301.795,114.797 301.841,114.859 301.889,114.919 301.941,114.976 301.996,115.03 302.054,115.081 302.114,115.128 302.177,115.173 302.243,115.214 302.31,115.251 302.379,115.284 302.45,115.314 302.523,115.34 302.597,115.362 302.672,115.38 302.747,115.394 302.824,115.404 302.9,115.409 302.977,115.411 303.054,115.408 303.131,115.401 303.207,115.39 303.207,115.39 303.283,115.375 303.357,115.355 303.431,115.332 303.503,115.305 303.573,115.274 303.642,115.239 303.709,115.201 303.773,115.159 303.835,115.113 303.895,115.064 303.952,115.012 304.006,114.957 304.057,114.9 304.104,114.839 304.149,114.776 304.19,114.711 304.227,114.644 304.261,114.574 304.29,114.503 304.316,114.431 304.338,114.357 304.356,114.282 304.37,114.206 304.38,114.13 304.385,114.053 304.387,113.976 304.384,113.899 304.377,113.822 304.366,113.746" stroke-linecap="butt" stroke="#ff0000" fill="none" stroke-linejoin="round" stroke-width="0.5"/>
   <polyline points="307.006,113.989 307.082,113.639 307.187,113.297 307.321,112.965 307.482,112.645 307.67,112.341 307.883,112.053 308.119,111.784 308.378,111.537 308.656,111.312 308.953,111.111 309.265,110.936 309.591,110.789 309.928,110.669 310.275,110.578 310.627,110.517 310.984,110.486 311.342,110.486 311.699,110.515 312.051,110.575 312.398,110.664 312.736,110.782 313.063,110.929 313.376,111.102 313.673,111.302 313.952,111.526 314.211,111.772 314.449,112.04 314.663,112.327 314.852,112.631 323.168,160.694 323.092,161.044 322.987,161.386 322.853,161.718 322.692,162.037 322.504,162.342 322.291,162.63 322.055,162.898 321.796,163.146 321.518,163.371 321.221,163.572 320.909,163.746 320.583,163.894 320.246,164.014 319.899,164.104 319.547,164.165 319.19,164.196 318.832,164.197 318.475,164.167 318.123,164.108 317.776,164.018 317.438,163.9 317.112,163.754 316.798,163.58 316.501,163.381 316.222,163.157 315.963,162.91 315.725,162.642 315.511,162.355 315.322,162.052 307.006,113.989" stroke-linecap="butt" stroke="#ff0000" fill="none" stroke-linejoin="round" stroke-width="0.5"/>
   <polyline points="320.529,160.451 320.514,160.376 320.494,160.301 320.471,160.228 320.444,160.156 320.413,160.085 320.378,160.017 320.34,159.95 320.298,159.885 320.252,159.823 320.203,159.764 320.151,159.707 320.096,159.653 320.039,159.602 319.978,159.554 319.915,159.51 319.85,159.469 319.783,159.432 319.713,159.398 319.642,159.368 319.57,159.342 319.496,159.32 319.421,159.302 319.345,159.289 319.269,159.279 319.192,159.273 319.115,159.272 319.038,159.275 318.961,159.282 318.885,159.293 318.885,159.293 318.81,159.308 318.735,159.327 318.662,159.35 318.59,159.378 318.519,159.409 318.451,159.443 318.384,159.482 318.319,159.524 318.257,159.569 318.198,159.618 318.141,159.67 318.087,159.725 318.036,159.783 317.988,159.843 317.944,159.906 317.903,159.972 317.866,160.039 317.832,160.108 317.802,160.179 317.776,160.252 317.754,160.326 317.736,160.4 317.722,160.476 317.713,160.553 317.707,160.629 317.706,160.706 317.709,160.783 317.715,160.86 317.727,160.936 317.727,160.936 317.742,161.012 317.761,161.086 317.784,161.16 317.811,161.232 317.842,161.302 317.877,161.371 317.916,161.438 317.958,161.502 318.003,161.564 318.052,161.624 318.104,161.681 318.159,161.735 318.217,161.786 318.277,161.833 318.34,161.878 318.405,161.919 318.473,161.956 318.542,161.99 318.613,162.019 318.686,162.045 318.759,162.067 318.834,162.085 318.91,162.099 318.986,162.109 319.063,162.114 319.14,162.116 319.217,162.113 319.294,162.106 319.37,162.095 319.37,162.095 319.446,162.08 319.52,162.061 319.594,162.037 319.666,162.01 319.736,161.979 319.805,161.944 319.872,161.906 319.936,161.864 319.998,161.818 320.058,161.769 320.115,161.718 320.169,161.663 320.22,161.605 320.267,161.544 320.312,161.481 320.353,161.416 320.39,161.349 320.423,161.28 320.453,161.208 320.479,161.136 320.501,161.062 320.519,160.987 320.533,160.911 320.543,160.835 320.548,160.758 320.55,160.681 320.547,160.604 320.54,160.528 320.529,160.451" stroke-linecap="butt" stroke="#ff0000" fill="none" stroke-linejoin="round" stroke-width="0.5"/>
   <polyline points="316.488,137.099 316.473,137.023 316.454,136.949 316.43,136.875 316.403,136.803 316.372,136.733 316.337,136.664 316.299,136.597 316.257,136.533 316.211,136.471 316.163,136.411 316.111,136.354 316.056,136.3 315.998,136.249 315.938,136.202 315.875,136.157 315.809,136.116 315.742,136.079 315.673,136.046 315.602,136.016 315.529,135.99 315.455,135.968 315.38,135.95 315.305,135.936 315.228,135.926 315.151,135.921 315.074,135.919 314.997,135.922 314.921,135.929 314.845,135.94 314.845,135.94 314.769,135.955 314.694,135.975 314.621,135.998 314.549,136.025 314.479,136.056 314.41,136.091 314.343,136.129 314.279,136.171 314.216,136.217 314.157,136.266 314.1,136.318 314.046,136.373 313.995,136.43 313.947,136.491 313.903,136.554 313.862,136.619 313.825,136.686 313.791,136.756 313.761,136.827 313.736,136.899 313.714,136.973 313.696,137.048 313.682,137.124 313.672,137.2 313.666,137.277 313.665,137.354 313.668,137.431 313.675,137.508 313.686,137.584 313.686,137.584 313.701,137.659 313.72,137.734 313.744,137.807 313.771,137.879 313.802,137.95 313.837,138.018 313.875,138.085 313.917,138.15 313.963,138.212 314.011,138.271 314.063,138.328 314.118,138.382 314.176,138.433 314.236,138.481 314.299,138.525 314.365,138.566 314.432,138.603 314.501,138.637 314.572,138.667 314.645,138.693 314.719,138.715 314.794,138.733 314.869,138.747 314.946,138.756 315.023,138.762 315.1,138.763 315.177,138.76 315.253,138.754 315.329,138.742 315.329,138.742 315.405,138.727 315.479,138.708 315.553,138.685 315.625,138.658 315.695,138.626 315.764,138.592 315.831,138.553 315.895,138.511 315.958,138.466 316.017,138.417 316.074,138.365 316.128,138.31 316.179,138.252 316.227,138.192 316.271,138.129 316.312,138.064 316.349,137.996 316.383,137.927 316.413,137.856 316.439,137.783 316.46,137.71 316.478,137.635 316.492,137.559 316.502,137.483 316.508,137.406 316.509,137.329 316.506,137.252 316.499,137.175 316.488,137.099" stroke-linecap="butt" stroke="#ff0000" fill="none" stroke-linejoin="round" stroke-width="0.5"/>
   <polyline points="312.447,113.746 312.432,113.671 312.413,113.596 312.39,113.523 312.363,113.451 312.332,113.38 312.297,113.312 312.258,113.245 312.216,113.18 312.171,113.118 312.122,113.059 312.07,113.002 312.015,112.948 311.957,112.897 311.897,112.849 311.834,112.805 311.769,112.764 311.701,112.727 311.632,112.693 311.561,112.663 311.488,112.637 311.415,112.615 311.34,112.597 311.264,112.583 311.188,112.574 311.111,112.568 311.034,112.567 310.957,112.57 310.88,112.576 310.804,112.588 310.804,112.588 310.728,112.603 310.654,112.622 310.58,112.645 310.508,112.672 310.438,112.703 310.369,112.738 310.302,112.777 310.238,112.819 310.176,112.864 310.116,112.913 310.059,112.965 310.005,113.02 309.954,113.078 309.907,113.138 309.862,113.201 309.821,113.266 309.784,113.334 309.751,113.403 309.721,113.474 309.695,113.547 309.673,113.62 309.655,113.695 309.641,113.771 309.631,113.847 309.626,113.924 309.624,114.001 309.627,114.078 309.634,114.155 309.645,114.231 309.645,114.231 309.66,114.307 309.68,114.381 309.703,114.455 309.73,114.527 309.761,114.597 309.796,114.666 309.834,114.733 309.876,114.797 309.922,114.859 309.971,114.919 310.023,114.976 310.078,115.03 310.135,115.081 310.196,115.128 310.259,115.173 310.324,115.214 310.391,115.251 310.461,115.284 310.532,115.314 310.604,115.34 310.678,115.362 310.753,115.38 310.829,115.394 310.905,115.404 310.982,115.409 311.059,115.411 311.136,115.408 311.213,115.401 311.289,115.39 311.289,115.39 311.364,115.375 311.439,115.355 311.512,115.332 311.584,115.305 311.655,115.274 311.723,115.239 311.79,115.201 311.855,115.159 311.917,115.113 311.976,115.064 312.033,115.012 312.087,114.957 312.138,114.9 312.186,114.839 312.23,114.776 312.271,114.711 312.308,114.644 312.342,114.574 312.372,114.503 312.398,114.431 312.42,114.357 312.438,114.282 312.452,114.206 312.461,114.13 312.467,114.053 312.468,113.976 312.465,113.899 312.459,113.822 312.447,113.746" stroke-linecap="butt" stroke="#ff0000" fill="none" stroke-linejoin="round" stroke-width="0.5"/>
   <polyline points="315.087,113.989 315.163,113.639 315.268,113.297 315.402,112.965 315.563,112.645 315.751,112.341 315.964,112.053 316.201,111.784 316.459,111.537 316.737,111.312 317.034,111.111 317.346,110.936 317.672,110.789 318.01,110.669 318.356,110.578 318.709,110.517 319.065,110.486 319.423,110.486 319.78,110.515 320.133,110.575 320.479,110.664 320.817,110.782 321.144,110.929 321.457,111.102 321.754,111.302 322.033,111.526 322.293,111.772 322.53,112.04 322.744,112.327 322.933,112.631 331.25,160.694 331.174,161.044 331.069,161.386 330.935,161.718 330.773,162.037 330.586,162.342 330.373,162.63 330.136,162.898 329.878,163.146 329.599,163.371 329.303,163.572 328.99,163.746 328.664,163.894 328.327,164.014 327.981,164.104 327.628,164.165 327.272,164.196 326.914,164.197 326.557,164.167 326.204,164.108 325.857,164.018 325.519,163.9 325.193,163.754 324.88,163.58 324.583,163.381 324.303,163.157 324.044,162.91 323.806,162.642 323.592,162.355 323.403,162.052 315.087,113.989" stroke-linecap="butt" stroke="#ff0000" fill="none" stroke-linejoin="round" stroke-width="0.5"/>
   <polyline points="328.61,160.451 328.595,160.376 328.576,160.301 328.553,160.228 328.525,160.156 328.494,160.085 328.459,160.017 328.421,159.95 328.379,159.885 328.333,159.823 328.285,159.764 328.233,159.707 328.178,159.653 328.12,159.602 328.06,159.554 327.997,159.51 327.931,159.469 327.864,159.432 327.795,159.398 327.724,159.368 327.651,159.342 327.577,159.32 327.502,159.302 327.427,159.289 327.35,159.279 327.273,159.273 327.197,159.272 327.12,159.275 327.043,159.282 326.967,159.293 326.967,159.293 326.891,159.308 326.817,159.327 326.743,159.35 326.671,159.378 326.601,159.409 326.532,159.443 326.465,159.482 326.401,159.524 326.339,159.569 326.279,159.618 326.222,159.67 326.168,159.725 326.117,159.783 326.069,159.843 326.025,159.906 325.984,159.972 325.947,160.039 325.913,160.108 325.883,160.179 325.858,160.252 325.836,160.326 325.818,160.4 325.804,160.476 325.794,160.553 325.789,160.629 325.787,160.706 325.79,160.783 325.797,160.86 325.808,160.936 325.808,160.936 325.823,161.012 325.842,161.086 325.866,161.16 325.893,161.232 325.924,161.302 325.959,161.371 325.997,161.438 326.039,161.502 326.085,161.564 326.133,161.624 326.185,161.681 326.24,161.735 326.298,161.786 326.359,161.833 326.422,161.878 326.487,161.919 326.554,161.956 326.623,161.99 326.694,162.019 326.767,162.045 326.841,162.067 326.916,162.085 326.991,162.099 327.068,162.109 327.145,162.114 327.222,162.116 327.299,162.113 327.375,162.106 327.452,162.095 327.452,162.095 327.527,162.08 327.602,162.061 327.675,162.037 327.747,162.01 327.818,161.979 327.886,161.944 327.953,161.906 328.017,161.864 328.08,161.818 328.139,161.769 328.196,161.718 328.25,161.663 328.301,161.605 328.349,161.544 328.393,161.481 328.434,161.416 328.471,161.349 328.505,161.28 328.535,161.208 328.561,161.136 328.583,161.062 328.6,160.987 328.614,160.911 328.624,160.835 328.63,160.758 328.631,160.681 328.628,160.604 328.621,160.528 328.61,160.451" stroke-linecap="butt" stroke="#ff0000" fill="none" stroke-linejoin="round" stroke-width="0.5"/>
   <polyline points="324.57,137.099 324.554,137.023 324.535,136.949 324.512,136.875 324.485,136.803 324.454,136.733 324.419,136.664 324.38,136.597 324.338,136.533 324.293,136.471 324.244,136.411 324.192,136.354 324.137,136.3 324.079,136.249 324.019,136.202 323.956,136.157 323.891,136.116 323.823,136.079 323.754,136.046 323.683,136.016 323.611,135.99 323.537,135.968 323.462,135.95 323.386,135.936 323.31,135.926 323.233,135.921 323.156,135.919 323.079,135.922 323.002,135.929 322.926,135.94 322.926,135.94 322.85,135.955 322.776,135.975 322.702,135.998 322.63,136.025 322.56,136.056 322.491,136.091 322.425,136.129 322.36,136.171 322.298,136.217 322.238,136.266 322.181,136.318 322.127,136.373 322.077,136.43 322.029,136.491 321.984,136.554 321.944,136.619 321.906,136.686 321.873,136.756 321.843,136.827 321.817,136.899 321.795,136.973 321.777,137.048 321.763,137.124 321.753,137.2 321.748,137.277 321.746,137.354 321.749,137.431 321.756,137.508 321.767,137.584 321.767,137.584 321.782,137.659 321.802,137.734 321.825,137.807 321.852,137.879 321.883,137.95 321.918,138.018 321.956,138.085 321.999,138.15 322.044,138.212 322.093,138.271 322.145,138.328 322.2,138.382 322.257,138.433 322.318,138.481 322.381,138.525 322.446,138.566 322.513,138.603 322.583,138.637 322.654,138.667 322.726,138.693 322.8,138.715 322.875,138.733 322.951,138.747 323.027,138.756 323.104,138.762 323.181,138.763 323.258,138.76 323.335,138.754 323.411,138.742 323.411,138.742 323.486,138.727 323.561,138.708 323.634,138.685 323.706,138.658 323.777,138.626 323.846,138.592 323.912,138.553 323.977,138.511 324.039,138.466 324.098,138.417 324.155,138.365 324.209,138.31 324.26,138.252 324.308,138.192 324.352,138.129 324.393,138.064 324.431,137.996 324.464,137.927 324.494,137.856 324.52,137.783 324.542,137.71 324.56,137.635 324.574,137.559 324.583,137.483 324.589,137.406 324.59,137.329 324.588,137.252 324.581,137.175 324.57,137.099" stroke-linecap="butt" stroke="#ff0000" fill="none" stroke-linejoin="round" stroke-width="0.5"/>
   <polyline points="320.529,113.746 320.514,113.671 320.494,113.596 320.471,113.523 320.444,113.451 320.413,113.38 320.378,113.312 320.34,113.245 320.298,113.18 320.252,113.118 320.203,113.059 320.151,113.002 320.096,112.948 320.039,112.897 319.978,112.849 319.915,112.805 319.85,112.764 319.783,112.727 319.713,112.693 319.642,112.663 319.57,112.637 319.496,112.615 319.421,112.597 319.345,112.583 319.269,112.574 319.192,112.568 319.115,112.567 319.038,112.57 318.961,112.576 318.885,112.588 318.885,112.588 318.81,112.603 318.735,112.622 318.662,112.645 318.59,112.672 318.519,112.703 318.451,112.738 318.384,112.777 318.319,112.819 318.257,112.864 318.198,112.913 318.141,112.965 318.087,113.02 318.036,113.078 317.988,113.138 317.944,113.201 317.903,113.266 317.866,113.334 317.832,113.403 317.802,113.474 317.776,113.547 317.754,113.62 317.736,113.695 317.722,113.771 317.713,113.847 317.707,113.924 317.706,114.001 317.709,114.078 317.715,114.155 317.727,114.231 317.727,114.231 317.742,114.307 317.761,114.381 317.784,114.455 317.811,114.527 317.842,114.597 317.877,114.666 317.916,114.733 317.958,114.797 318.003,114.859 318.052,114.919 318.104,114.976 318.159,115.03 318.217,115.081 318.277,115.128 318.34,115.173 318.405,115.214 318.473,115.251 318.542,115.284 318.613,115.314 318.686,115.34 318.759,115.362 318.834,115.38 318.91,115.394 318.986,115.404 319.063,115.409 319.14,115.411 319.217,115.408 319.294,115.401 319.37,115.39 319.37,115.39 319.446,115.375 319.52,115.355 319.594,115.332 319.666,115.305 319.736,115.274 319.805,115.239 319.872,115.201 319.936,115.159 319.998,115.113 320.058,115.064 320.115,115.012 320.169,114.957 320.22,114.9 320.267,114.839 320.312,114.776 320.353,114.711 320.39,114.644 320.423,114.574 320.453,114.503 320.479,114.431 320.501,114.357 320.519,114.282 320.533,114.206 320.543,114.13 320.548,114.053 320.55,113.976 320.547,113.899 320.54,113.822 320.529,113.746" stroke-linecap="butt" stroke="#ff0000" fill="none" stroke-linejoin="round" stroke-width="0.5"/>
   <polyline points="323.168,113.989 323.244,113.639 323.35,113.297 323.483,112.965 323.645,112.645 323.833,112.341 324.045,112.053 324.282,111.784 324.54,111.537 324.819,111.312 325.115,111.111 325.428,110.936 325.754,110.789 326.091,110.669 326.437,110.578 326.79,110.517 327.147,110.486 327.505,110.486 327.861,110.515 328.214,110.575 328.561,110.664 328.899,110.782 329.225,110.929 329.538,111.102 329.836,111.302 330.115,111.526 330.374,111.772 330.612,112.04 330.826,112.327 331.015,112.631 339.331,160.694 339.255,161.044 339.15,161.386 339.016,161.718 338.855,162.037 338.667,162.342 338.454,162.63 338.218,162.898 337.959,163.146 337.681,163.371 337.384,163.572 337.072,163.746 336.746,163.894 336.408,164.014 336.062,164.104 335.709,164.165 335.353,164.196 334.995,164.197 334.638,164.167 334.285,164.108 333.939,164.018 333.601,163.9 333.274,163.754 332.961,163.58 332.664,163.381 332.385,163.157 332.125,162.91 331.888,162.642 331.674,162.355 331.485,162.052 323.168,113.989" stroke-linecap="butt" stroke="#ff0000" fill="none" stroke-linejoin="round" stroke-width="0.5"/>
   <polyline points="336.692,160.451 336.676,160.376 336.657,160.301 336.634,160.228 336.607,160.156 336.576,160.085 336.541,160.017 336.502,159.95 336.46,159.885 336.415,159.823 336.366,159.764 336.314,159.707 336.259,159.653 336.201,159.602 336.141,159.554 336.078,159.51 336.013,159.469 335.945,159.432 335.876,159.398 335.805,159.368 335.733,159.342 335.659,159.32 335.584,159.302 335.508,159.289 335.432,159.279 335.355,159.273 335.278,159.272 335.201,159.275 335.124,159.282 335.048,159.293 335.048,159.293 334.973,159.308 334.898,159.327 334.825,159.35 334.752,159.378 334.682,159.409 334.613,159.443 334.547,159.482 334.482,159.524 334.42,159.569 334.36,159.618 334.303,159.67 334.25,159.725 334.199,159.783 334.151,159.843 334.107,159.906 334.066,159.972 334.028,160.039 333.995,160.108 333.965,160.179 333.939,160.252 333.917,160.326 333.899,160.4 333.885,160.476 333.876,160.553 333.87,160.629 333.869,160.706 333.871,160.783 333.878,160.86 333.889,160.936 333.889,160.936 333.904,161.012 333.924,161.086 333.947,161.16 333.974,161.232 334.005,161.302 334.04,161.371 334.079,161.438 334.121,161.502 334.166,161.564 334.215,161.624 334.267,161.681 334.322,161.735 334.38,161.786 334.44,161.833 334.503,161.878 334.568,161.919 334.635,161.956 334.705,161.99 334.776,162.019 334.848,162.045 334.922,162.067 334.997,162.085 335.073,162.099 335.149,162.109 335.226,162.114 335.303,162.116 335.38,162.113 335.457,162.106 335.533,162.095 335.533,162.095 335.608,162.08 335.683,162.061 335.756,162.037 335.828,162.01 335.899,161.979 335.968,161.944 336.034,161.906 336.099,161.864 336.161,161.818 336.221,161.769 336.277,161.718 336.331,161.663 336.382,161.605 336.43,161.544 336.474,161.481 336.515,161.416 336.553,161.349 336.586,161.28 336.616,161.208 336.642,161.136 336.664,161.062 336.682,160.987 336.696,160.911 336.705,160.835 336.711,160.758 336.712,160.681 336.71,160.604 336.703,160.528 336.692,160.451" stroke-linecap="butt" stroke="#ff0000" fill="none" stroke-linejoin="round" stroke-width="0.5"/>
   <polyline points="332.651,137.099 332.636,137.023 332.616,136.949 332.593,136.875 332.566,136.803 332.535,136.733 332.5,136.664 332.462,136.597 332.42,136.533 332.374,136.471 332.325,136.411 332.273,136.354 332.219,136.3 332.161,136.249 332.1,136.202 332.037,136.157 331.972,136.116 331.905,136.079 331.835,136.046 331.764,136.016 331.692,135.99 331.618,135.968 331.543,135.95 331.467,135.936 331.391,135.926 331.314,135.921 331.237,135.919 331.16,135.922 331.084,135.929 331.007,135.94 331.007,135.94 330.932,135.955 330.857,135.975 330.784,135.998 330.712,136.025 330.641,136.056 330.573,136.091 330.506,136.129 330.441,136.171 330.379,136.217 330.32,136.266 330.263,136.318 330.209,136.373 330.158,136.43 330.11,136.491 330.066,136.554 330.025,136.619 329.988,136.686 329.954,136.756 329.924,136.827 329.898,136.899 329.876,136.973 329.858,137.048 329.845,137.124 329.835,137.2 329.829,137.277 329.828,137.354 329.831,137.431 329.838,137.508 329.849,137.584 329.849,137.584 329.864,137.659 329.883,137.734 329.906,137.807 329.933,137.879 329.965,137.95 329.999,138.018 330.038,138.085 330.08,138.15 330.125,138.212 330.174,138.271 330.226,138.328 330.281,138.382 330.339,138.433 330.399,138.481 330.462,138.525 330.527,138.566 330.595,138.603 330.664,138.637 330.735,138.667 330.808,138.693 330.881,138.715 330.956,138.733 331.032,138.747 331.109,138.756 331.185,138.762 331.262,138.763 331.339,138.76 331.416,138.754 331.492,138.742 331.492,138.742 331.568,138.727 331.642,138.708 331.716,138.685 331.788,138.658 331.858,138.626 331.927,138.592 331.994,138.553 332.058,138.511 332.12,138.466 332.18,138.417 332.237,138.365 332.291,138.31 332.342,138.252 332.389,138.192 332.434,138.129 332.475,138.064 332.512,137.996 332.546,137.927 332.575,137.856 332.601,137.783 332.623,137.71 332.641,137.635 332.655,137.559 332.665,137.483 332.67,137.406 332.672,137.329 332.669,137.252 332.662,137.175 332.651,137.099" stroke-linecap="butt" stroke="#ff0000" fill="none" stroke-linejoin="round" stroke-width="0.5"/>
   <polyline points="328.61,113.746 328.595,113.671 328.576,113.596 328.553,113.523 328.525,113.451 328.494,113.38 328.459,113.312 328.421,113.245 328.379,113.18 328.333,113.118 328.285,113.059 328.233,113.002 328.178,112.948 328.12,112.897 328.06,112.849 327.997,112.805 327.931,112.764 327.864,112.727 327.795,112.693 327.724,112.663 327.651,112.637 327.577,112.615 327.502,112.597 327.427,112.583 327.35,112.574 327.273,112.568 327.197,112.567 327.12,112.57 327.043,112.576 326.967,112.588 326.967,112.588 326.891,112.603 326.817,112.622 326.743,112.645 326.671,112.672 326.601,112.703 326.532,112.738 326.465,112.777 326.401,112.819 326.339,112.864 326.279,112.913 326.222,112.965 326.168,113.02 326.117,113.078 326.069,113.138 326.025,113.201 325.984,113.266 325.947,113.334 325.913,113.403 325.883,113.474 325.858,113.547 325.836,113.62 325.818,113.695 325.804,113.771 325.794,113.847 325.789,113.924 325.787,114.001 325.79,114.078 325.797,114.155 325.808,114.231 325.808,114.231 325.823,114.307 325.842,114.381 325.866,114.455 325.893,114.527 325.924,114.597 325.959,114.666 325.997,114.733 326.039,114.797 326.085,114.859 326.133,114.919 326.185,114.976 326.24,115.03 326.298,115.081 326.359,115.128 326.422,115.173 326.487,115.214 326.554,115.251 326.623,115.284 326.694,115.314 326.767,115.34 326.841,115.362 326.916,115.38 326.991,115.394 327.068,115.404 327.145,115.409 327.222,115.411 327.299,115.408 327.375,115.401 327.452,115.39 327.452,115.39 327.527,115.375 327.602,115.355 327.675,115.332 327.747,115.305 327.818,115.274 327.886,115.239 327.953,115.201 328.017,115.159 328.08,115.113 328.139,115.064 328.196,115.012 328.25,114.957 328.301,114.9 328.349,114.839 328.393,114.776 328.434,114.711 328.471,114.644 328.505,114.574 328.535,114.503 328.561,114.431 328.583,114.357 328.6,114.282 328.614,114.206 328.624,114.13 328.63,114.053 328.631,113.976 328.628,113.899 328.621,113.822 328.61,113.746" stroke-linecap="butt" stroke="#ff0000" fill="none" stroke-linejoin="round" stroke-width="0.5"/>
   <polyline points="339.096,112.631 338.907,112.327 338.693,112.04 338.456,111.772 338.196,111.526 337.917,111.302 337.62,111.102 337.307,110.929 336.98,110.782 336.642,110.664 336.296,110.575 335.943,110.515 335.586,110.486 335.228,110.486 334.871,110.517 334.519,110.578 334.172,110.669 333.835,110.789 333.509,110.936 333.197,111.111 332.9,111.312 332.622,111.537 332.363,111.784 332.127,112.053 331.914,112.341 331.726,112.645 331.565,112.965 331.431,113.297 331.326,113.639 331.25,113.989 335.827,140.442 356.407,154.251 360.995,147.743 342.835,134.24 339.096,112.631" stroke-linecap="butt" stroke="#ff0000" fill="none" stroke-linejoin="round" stroke-width="0.5"/>
   <polyline points="340.732,137.099 340.717,137.023 340.698,136.949 340.675,136.875 340.647,136.803 340.616,136.733 340.582,136.664 340.543,136.597 340.501,136.533 340.456,136.471 340.407,136.411 340.355,136.354 340.3,136.3 340.242,136.249 340.182,136.202 340.119,136.157 340.053,136.116 339.986,136.079 339.917,136.046 339.846,136.016 339.773,135.99 339.699,135.968 339.625,135.95 339.549,135.936 339.472,135.926 339.396,135.921 339.319,135.919 339.242,135.922 339.165,135.929 339.089,135.94 339.089,135.94 339.013,135.955 338.939,135.975 338.865,135.998 338.793,136.025 338.723,136.056 338.654,136.091 338.587,136.129 338.523,136.171 338.461,136.217 338.401,136.266 338.344,136.318 338.29,136.373 338.239,136.43 338.192,136.491 338.147,136.554 338.106,136.619 338.069,136.686 338.035,136.756 338.006,136.827 337.98,136.899 337.958,136.973 337.94,137.048 337.926,137.124 337.916,137.2 337.911,137.277 337.909,137.354 337.912,137.431 337.919,137.508 337.93,137.584 337.93,137.584 337.945,137.659 337.964,137.734 337.988,137.807 338.015,137.879 338.046,137.95 338.081,138.018 338.119,138.085 338.161,138.15 338.207,138.212 338.256,138.271 338.307,138.328 338.362,138.382 338.42,138.433 338.481,138.481 338.544,138.525 338.609,138.566 338.676,138.603 338.745,138.637 338.817,138.667 338.889,138.693 338.963,138.715 339.038,138.733 339.113,138.747 339.19,138.756 339.267,138.762 339.344,138.763 339.421,138.76 339.497,138.754 339.574,138.742 339.574,138.742 339.649,138.727 339.724,138.708 339.797,138.685 339.869,138.658 339.94,138.626 340.008,138.592 340.075,138.553 340.139,138.511 340.202,138.466 340.261,138.417 340.318,138.365 340.372,138.31 340.423,138.252 340.471,138.192 340.515,138.129 340.556,138.064 340.593,137.996 340.627,137.927 340.657,137.856 340.683,137.783 340.705,137.71 340.723,137.635 340.736,137.559 340.746,137.483 340.752,137.406 340.753,137.329 340.75,137.252 340.743,137.175 340.732,137.099" stroke-linecap="butt" stroke="#ff0000" fill="none" stroke-linejoin="round" stroke-width="0.5"/>
   <polyline points="336.692,113.746 336.676,113.671 336.657,113.596 336.634,113.523 336.607,113.451 336.576,113.38 336.541,113.312 336.502,113.245 336.46,113.18 336.415,113.118 336.366,113.059 336.314,113.002 336.259,112.948 336.201,112.897 336.141,112.849 336.078,112.805 336.013,112.764 335.945,112.727 335.876,112.693 335.805,112.663 335.733,112.637 335.659,112.615 335.584,112.597 335.508,112.583 335.432,112.574 335.355,112.568 335.278,112.567 335.201,112.57 335.124,112.576 335.048,112.588 335.048,112.588 334.973,112.603 334.898,112.622 334.825,112.645 334.752,112.672 334.682,112.703 334.613,112.738 334.547,112.777 334.482,112.819 334.42,112.864 334.36,112.913 334.303,112.965 334.25,113.02 334.199,113.078 334.151,113.138 334.107,113.201 334.066,113.266 334.028,113.334 333.995,113.403 333.965,113.474 333.939,113.547 333.917,113.62 333.899,113.695 333.885,113.771 333.876,113.847 333.87,113.924 333.869,114.001 333.871,114.078 333.878,114.155 333.889,114.231 333.889,114.231 333.904,114.307 333.924,114.381 333.947,114.455 333.974,114.527 334.005,114.597 334.04,114.666 334.079,114.733 334.121,114.797 334.166,114.859 334.215,114.919 334.267,114.976 334.322,115.03 334.38,115.081 334.44,115.128 334.503,115.173 334.568,115.214 334.635,115.251 334.705,115.284 334.776,115.314 334.848,115.34 334.922,115.362 334.997,115.38 335.073,115.394 335.149,115.404 335.226,115.409 335.303,115.411 335.38,115.408 335.457,115.401 335.533,115.39 335.533,115.39 335.608,115.375 335.683,115.355 335.756,115.332 335.828,115.305 335.899,115.274 335.968,115.239 336.034,115.201 336.099,115.159 336.161,115.113 336.221,115.064 336.277,115.012 336.331,114.957 336.382,114.9 336.43,114.839 336.474,114.776 336.515,114.711 336.553,114.644 336.586,114.574 336.616,114.503 336.642,114.431 336.664,114.357 336.682,114.282 336.696,114.206 336.705,114.13 336.711,114.053 336.712,113.976 336.71,113.899 336.703,113.822 336.692,113.746" stroke-linecap="butt" stroke="#ff0000" fill="none" stroke-linejoin="round" stroke-width="0.5"/>
   <polyline points="254.477,164.735 274.68,164.735 274.68,109.948 254.477,109.948 254.477,164.735" stroke-linecap="butt" stroke="#ff0000" fill="none" stroke-linejoin="round" stroke-width="0.5"/>
   <polyline points="258.813,113.989 270.758,113.989 270.758,160.694 258.813,160.694 258.813,113.989" stroke-linecap="butt" stroke="#ff0000" fill="none" stroke-linejoin="round" stroke-width="0.5"/>
   <polyline points="343.372,106.026 235.165,106.026 235.165,109.948 343.372,109.948 343.372,106.026" stroke-linecap="butt" stroke="#ff0000" fill="none" stroke-linejoin="round" stroke-width="0.5"/>
   <polyline points="343.372,168.657 343.372,164.735 235.165,164.735 235.165,168.657 343.372,168.657" stroke-linecap="butt" stroke="#ff0000" fill="none" stroke-linejoin="round" stroke-width="0.5"/>
  </g>
 </g>
</svg>
