<?xml version='1.0' encoding='UTF-8' standalone='no'?>
<svg xmlns="http://www.w3.org/2000/svg" width="576pt" height="432pt" viewBox="0 0 576 432" xmlns:xlink="http://www.w3.org/1999/xlink">
 <title>gl2ps_renderer figure</title>
 <desc>
Creator: GL2PS 1.4.0, (C) 1999-2017 C. Geuzaine
For: Octave
CreationDate: Mon May 06 00:04:30 2019
</desc>
 <defs/>
 <polygon fill="#ffffff" points="0,0 576,0 576,432 0,432"/>
 <g>
  <polygon fill="#ffffff" shape-rendering="crispEdges" points="0,432 576,432 576,0 0,0"/>
  <clipPath id="cp00576432">
   <polygon points="0,432 576,432 576,0 0,0"/>
  </clipPath>
  <g clip-path="url(#cp00576432)">
   <polyline fill="none" stroke="#0071bc" stroke-width="0.5" stroke-linejoin="round" stroke-linecap="butt" points="74.88,177.447 75.0856,176.94 75.3334,176.452 75.6216,175.986 75.9481,175.547 76.3107,175.137 76.7066,174.758 77.1331,174.415 77.5871,174.109 78.0654,173.843 78.5645,173.618 79.0808,173.436 79.6106,173.298 80.1502,173.206 80.6957,173.16 81.2431,173.16 81.7886,173.206 82.3282,173.298 82.8581,173.436 83.3744,173.618 83.8735,173.843 84.3517,174.109 84.8058,174.415 85.2323,174.758 85.6282,175.137 85.9907,175.547 86.3173,175.986 86.6055,176.452 86.8533,176.94 87.0589,177.447 87.0589,252.048 86.8533,252.555 86.6055,253.043 86.3173,253.509 85.9907,253.948 85.6282,254.358 85.2323,254.736 84.8058,255.079 84.3517,255.385 83.8735,255.652 83.3744,255.877 82.8581,256.059 82.3282,256.196 81.7886,256.288 81.2431,256.335 80.6957,256.335 80.1502,256.288 79.6106,256.196 79.0808,256.059 78.5645,255.877 78.0654,255.652 77.5871,255.385 77.1331,255.079 76.7066,254.736 76.3107,254.358 75.9481,253.948 75.6216,253.509 75.3334,253.043 75.0856,252.555 74.88,252.048 74.88,177.447"/>
   <polyline fill="none" stroke="#0071bc" stroke-width="0.5" stroke-linejoin="round" stroke-linecap="butt" points="83.1442,250.994 83.141,250.876 83.1315,250.759 83.1156,250.642 83.0934,250.526 83.0649,250.412 83.0304,250.3 82.9898,250.189 82.9432,250.081 82.8909,249.975 82.8329,249.873 82.7695,249.773 82.7008,249.678 82.627,249.586 82.5483,249.498 82.465,249.415 82.3774,249.336 82.2856,249.263 82.1899,249.194 82.0907,249.13 81.9881,249.072 81.8826,249.02 81.7744,248.974 81.6638,248.933 81.5513,248.898 81.437,248.87 81.3213,248.848 81.2046,248.832 81.0872,248.822 80.9694,248.819 80.9694,248.819 80.8517,248.822 80.7343,248.832 80.6176,248.848 80.5019,248.87 80.3876,248.898 80.275,248.933 80.1645,248.974 80.0563,249.02 79.9507,249.072 79.8482,249.13 79.749,249.194 79.6533,249.263 79.5615,249.336 79.4738,249.415 79.3905,249.498 79.3119,249.586 79.2381,249.678 79.1694,249.773 79.1059,249.873 79.048,249.975 78.9956,250.081 78.9491,250.189 78.9085,250.3 78.8739,250.412 78.8455,250.526 78.8233,250.642 78.8074,250.759 78.7978,250.876 78.7946,250.994 78.7946,250.994 78.7978,251.112 78.8074,251.229 78.8233,251.346 78.8455,251.461 78.8739,251.576 78.9085,251.688 78.9491,251.799 78.9956,251.907 79.048,252.013 79.1059,252.115 79.1694,252.214 79.2381,252.31 79.3119,252.402 79.3905,252.49 79.4738,252.573 79.5615,252.652 79.6533,252.725 79.749,252.794 79.8482,252.857 79.9507,252.915 80.0563,252.968 80.1645,253.014 80.275,253.055 80.3876,253.089 80.5019,253.118 80.6176,253.14 80.7343,253.156 80.8517,253.166 80.9694,253.169 80.9694,253.169 81.0872,253.166 81.2046,253.156 81.3213,253.14 81.437,253.118 81.5513,253.089 81.6638,253.055 81.7744,253.014 81.8826,252.968 81.9881,252.915 82.0907,252.857 82.1899,252.794 82.2856,252.725 82.3774,252.652 82.465,252.573 82.5483,252.49 82.627,252.402 82.7008,252.31 82.7695,252.214 82.8329,252.115 82.8909,252.013 82.9432,251.907 82.9898,251.799 83.0304,251.688 83.0649,251.576 83.0934,251.461 83.1156,251.346 83.1315,251.229 83.141,251.112 83.1442,250.994"/>
   <polyline fill="none" stroke="#0071bc" stroke-width="0.5" stroke-linejoin="round" stroke-linecap="butt" points="83.1442,214.747 83.141,214.63 83.1315,214.512 83.1156,214.395 83.0934,214.28 83.0649,214.166 83.0304,214.053 82.9898,213.942 82.9432,213.834 82.8909,213.729 82.8329,213.626 82.7695,213.527 82.7008,213.431 82.627,213.339 82.5483,213.252 82.465,213.168 82.3774,213.09 82.2856,213.016 82.1899,212.947 82.0907,212.884 81.9881,212.826 81.8826,212.774 81.7744,212.727 81.6638,212.686 81.5513,212.652 81.437,212.623 81.3213,212.601 81.2046,212.585 81.0872,212.576 80.9694,212.573 80.9694,212.573 80.8517,212.576 80.7343,212.585 80.6176,212.601 80.5019,212.623 80.3876,212.652 80.275,212.686 80.1645,212.727 80.0563,212.774 79.9507,212.826 79.8482,212.884 79.749,212.947 79.6533,213.016 79.5615,213.09 79.4738,213.168 79.3905,213.252 79.3119,213.339 79.2381,213.431 79.1694,213.527 79.1059,213.626 79.048,213.729 78.9956,213.834 78.9491,213.942 78.9085,214.053 78.8739,214.166 78.8455,214.28 78.8233,214.395 78.8074,214.512 78.7978,214.63 78.7946,214.747 78.7946,214.747 78.7978,214.865 78.8074,214.982 78.8233,215.099 78.8455,215.215 78.8739,215.329 78.9085,215.442 78.9491,215.552 78.9956,215.661 79.048,215.766 79.1059,215.869 79.1694,215.968 79.2381,216.063 79.3119,216.155 79.3905,216.243 79.4738,216.326 79.5615,216.405 79.6533,216.479 79.749,216.547 79.8482,216.611 79.9507,216.669 80.0563,216.721 80.1645,216.768 80.275,216.808 80.3876,216.843 80.5019,216.871 80.6176,216.893 80.7343,216.909 80.8517,216.919 80.9694,216.922 80.9694,216.922 81.0872,216.919 81.2046,216.909 81.3213,216.893 81.437,216.871 81.5513,216.843 81.6638,216.808 81.7744,216.768 81.8826,216.721 81.9881,216.669 82.0907,216.611 82.1899,216.547 82.2856,216.479 82.3774,216.405 82.465,216.326 82.5483,216.243 82.627,216.155 82.7008,216.063 82.7695,215.968 82.8329,215.869 82.8909,215.766 82.9432,215.661 82.9898,215.552 83.0304,215.442 83.0649,215.329 83.0934,215.215 83.1156,215.099 83.1315,214.982 83.141,214.865 83.1442,214.747"/>
   <polyline fill="none" stroke="#0071bc" stroke-width="0.5" stroke-linejoin="round" stroke-linecap="butt" points="83.1442,178.501 83.141,178.383 83.1315,178.266 83.1156,178.149 83.0934,178.033 83.0649,177.919 83.0304,177.806 82.9898,177.696 82.9432,177.588 82.8909,177.482 82.8329,177.379 82.7695,177.28 82.7008,177.185 82.627,177.093 82.5483,177.005 82.465,176.922 82.3774,176.843 82.2856,176.769 82.1899,176.701 82.0907,176.637 81.9881,176.579 81.8826,176.527 81.7744,176.48 81.6638,176.44 81.5513,176.405 81.437,176.377 81.3213,176.355 81.2046,176.339 81.0872,176.329 80.9694,176.326 80.9694,176.326 80.8517,176.329 80.7343,176.339 80.6176,176.355 80.5019,176.377 80.3876,176.405 80.275,176.44 80.1645,176.48 80.0563,176.527 79.9507,176.579 79.8482,176.637 79.749,176.701 79.6533,176.769 79.5615,176.843 79.4738,176.922 79.3905,177.005 79.3119,177.093 79.2381,177.185 79.1694,177.28 79.1059,177.379 79.048,177.482 78.9956,177.588 78.9491,177.696 78.9085,177.806 78.8739,177.919 78.8455,178.033 78.8233,178.149 78.8074,178.266 78.7978,178.383 78.7946,178.501 78.7946,178.501 78.7978,178.618 78.8074,178.736 78.8233,178.853 78.8455,178.968 78.8739,179.083 78.9085,179.195 78.9491,179.306 78.9956,179.414 79.048,179.519 79.1059,179.622 79.1694,179.721 79.2381,179.817 79.3119,179.909 79.3905,179.996 79.4738,180.08 79.5615,180.158 79.6533,180.232 79.749,180.301 79.8482,180.364 79.9507,180.422 80.0563,180.475 80.1645,180.521 80.275,180.562 80.3876,180.596 80.5019,180.625 80.6176,180.647 80.7343,180.663 80.8517,180.672 80.9694,180.676 80.9694,180.676 81.0872,180.672 81.2046,180.663 81.3213,180.647 81.437,180.625 81.5513,180.596 81.6638,180.562 81.7744,180.521 81.8826,180.475 81.9881,180.422 82.0907,180.364 82.1899,180.301 82.2856,180.232 82.3774,180.158 82.465,180.08 82.5483,179.996 82.627,179.909 82.7008,179.817 82.7695,179.721 82.8329,179.622 82.8909,179.519 82.9432,179.414 82.9898,179.306 83.0304,179.195 83.0649,179.083 83.0934,178.968 83.1156,178.853 83.1315,178.736 83.141,178.618 83.1442,178.501"/>
   <polyline fill="none" stroke="#d85218" stroke-width="0.5" stroke-linejoin="round" stroke-linecap="butt" points="94.3082,252.048 94.5138,252.555 94.7616,253.043 95.0498,253.509 95.3763,253.948 95.7388,254.358 96.1348,254.736 96.5613,255.079 97.0153,255.385 97.4936,255.652 97.9926,255.877 98.509,256.059 99.0388,256.196 99.5784,256.288 100.124,256.335 100.671,256.335 101.217,256.288 101.756,256.196 102.286,256.059 102.803,255.877 103.302,255.652 103.78,255.385 104.234,255.079 104.66,254.736 105.056,254.358 105.419,253.948 105.745,253.509 106.034,253.043 106.281,252.555 106.487,252.048 106.487,213.694 106.281,213.186 106.034,212.698 105.745,212.233 105.419,211.793 105.056,211.383 104.66,211.005 104.234,210.662 103.78,210.356 103.302,210.09 102.803,209.865 102.286,209.683 101.756,209.545 101.217,209.453 100.671,209.407 100.124,209.407 99.5784,209.453 99.0388,209.545 98.509,209.683 97.9926,209.865 97.4936,210.09 97.0153,210.356 96.5613,210.662 96.1348,211.005 95.7388,211.383 95.3763,211.793 95.0498,212.233 94.7616,212.698 94.5138,213.186 94.3082,213.694 94.3082,252.048"/>
   <polyline fill="none" stroke="#d85218" stroke-width="0.5" stroke-linejoin="round" stroke-linecap="butt" points="102.572,250.994 102.569,250.876 102.56,250.759 102.544,250.642 102.522,250.526 102.493,250.412 102.459,250.3 102.418,250.189 102.371,250.081 102.319,249.975 102.261,249.873 102.198,249.773 102.129,249.678 102.055,249.586 101.977,249.498 101.893,249.415 101.806,249.336 101.714,249.263 101.618,249.194 101.519,249.13 101.416,249.072 101.311,249.02 101.203,248.974 101.092,248.933 100.979,248.898 100.865,248.87 100.749,248.848 100.633,248.832 100.515,248.822 100.398,248.819 100.398,248.819 100.28,248.822 100.162,248.832 100.046,248.848 99.9301,248.87 99.8158,248.898 99.7032,248.933 99.5927,248.974 99.4845,249.02 99.3789,249.072 99.2764,249.13 99.1772,249.194 99.0815,249.263 98.9897,249.336 98.902,249.415 98.8187,249.498 98.7401,249.586 98.6663,249.678 98.5976,249.773 98.5341,249.873 98.4762,249.975 98.4238,250.081 98.3773,250.189 98.3367,250.3 98.3021,250.412 98.2737,250.526 98.2515,250.642 98.2356,250.759 98.226,250.876 98.2228,250.994 98.2228,250.994 98.226,251.112 98.2356,251.229 98.2515,251.346 98.2737,251.461 98.3021,251.576 98.3367,251.688 98.3773,251.799 98.4238,251.907 98.4762,252.013 98.5341,252.115 98.5976,252.214 98.6663,252.31 98.7401,252.402 98.8187,252.49 98.902,252.573 98.9897,252.652 99.0815,252.725 99.1772,252.794 99.2764,252.857 99.3789,252.915 99.4845,252.968 99.5927,253.014 99.7032,253.055 99.8158,253.089 99.9301,253.118 100.046,253.14 100.162,253.156 100.28,253.166 100.398,253.169 100.398,253.169 100.515,253.166 100.633,253.156 100.749,253.14 100.865,253.118 100.979,253.089 101.092,253.055 101.203,253.014 101.311,252.968 101.416,252.915 101.519,252.857 101.618,252.794 101.714,252.725 101.806,252.652 101.893,252.573 101.977,252.49 102.055,252.402 102.129,252.31 102.198,252.214 102.261,252.115 102.319,252.013 102.371,251.907 102.418,251.799 102.459,251.688 102.493,251.576 102.522,251.461 102.544,251.346 102.56,251.229 102.569,251.112 102.572,250.994"/>
   <polyline fill="none" stroke="#d85218" stroke-width="0.5" stroke-linejoin="round" stroke-linecap="butt" points="102.572,214.747 102.569,214.63 102.56,214.512 102.544,214.395 102.522,214.28 102.493,214.166 102.459,214.053 102.418,213.942 102.371,213.834 102.319,213.729 102.261,213.626 102.198,213.527 102.129,213.431 102.055,213.339 101.977,213.252 101.893,213.168 101.806,213.09 101.714,213.016 101.618,212.947 101.519,212.884 101.416,212.826 101.311,212.774 101.203,212.727 101.092,212.686 100.979,212.652 100.865,212.623 100.749,212.601 100.633,212.585 100.515,212.576 100.398,212.573 100.398,212.573 100.28,212.576 100.162,212.585 100.046,212.601 99.9301,212.623 99.8158,212.652 99.7032,212.686 99.5927,212.727 99.4845,212.774 99.3789,212.826 99.2764,212.884 99.1772,212.947 99.0815,213.016 98.9897,213.09 98.902,213.168 98.8187,213.252 98.7401,213.339 98.6663,213.431 98.5976,213.527 98.5341,213.626 98.4762,213.729 98.4238,213.834 98.3773,213.942 98.3367,214.053 98.3021,214.166 98.2737,214.28 98.2515,214.395 98.2356,214.512 98.226,214.63 98.2228,214.747 98.2228,214.747 98.226,214.865 98.2356,214.982 98.2515,215.099 98.2737,215.215 98.3021,215.329 98.3367,215.442 98.3773,215.552 98.4238,215.661 98.4762,215.766 98.5341,215.869 98.5976,215.968 98.6663,216.063 98.7401,216.155 98.8187,216.243 98.902,216.326 98.9897,216.405 99.0815,216.479 99.1772,216.547 99.2764,216.611 99.3789,216.669 99.4845,216.721 99.5927,216.768 99.7032,216.808 99.8158,216.843 99.9301,216.871 100.046,216.893 100.162,216.909 100.28,216.919 100.398,216.922 100.398,216.922 100.515,216.919 100.633,216.909 100.749,216.893 100.865,216.871 100.979,216.843 101.092,216.808 101.203,216.768 101.311,216.721 101.416,216.669 101.519,216.611 101.618,216.547 101.714,216.479 101.806,216.405 101.893,216.326 101.977,216.243 102.055,216.155 102.129,216.063 102.198,215.968 102.261,215.869 102.319,215.766 102.371,215.661 102.418,215.552 102.459,215.442 102.493,215.329 102.522,215.215 102.544,215.099 102.56,214.982 102.569,214.865 102.572,214.747"/>
   <polyline fill="none" stroke="#ecb01f" stroke-width="0.5" stroke-linejoin="round" stroke-linecap="butt" points="194.542,208.44 194.548,208.205 194.568,207.97 194.599,207.736 194.644,207.505 194.701,207.276 194.77,207.051 194.851,206.83 194.944,206.614 195.049,206.403 195.165,206.198 195.292,205.999 195.429,205.808 195.577,205.624 195.734,205.449 195.9,205.282 196.076,205.125 196.259,204.977 196.451,204.84 196.649,204.713 196.854,204.597 197.065,204.492 197.282,204.399 197.503,204.318 197.728,204.249 197.957,204.192 198.188,204.148 198.421,204.116 198.656,204.097 198.892,204.09 279.231,204.09 279.231,160.545 113.736,160.545 113.736,166.544 186.532,166.544 186.532,202.26 180.352,208.44 180.352,208.44 186.532,214.62 186.532,250.336 113.736,250.336 113.736,256.335 279.231,256.335 279.231,212.79 198.892,212.79 198.656,212.783 198.421,212.764 198.188,212.732 197.957,212.688 197.728,212.631 197.503,212.562 197.282,212.481 197.065,212.388 196.854,212.283 196.649,212.167 196.451,212.04 196.259,211.903 196.076,211.755 195.9,211.598 195.734,211.431 195.577,211.256 195.429,211.072 195.292,210.881 195.165,210.682 195.049,210.477 194.944,210.266 194.851,210.05 194.77,209.829 194.701,209.604 194.644,209.375 194.599,209.144 194.568,208.91 194.548,208.675 194.542,208.44 194.542,208.44"/>
   <polyline fill="none" stroke="#ecb01f" stroke-width="0.5" stroke-linejoin="round" stroke-linecap="butt" points="191.88,176.993 191.109,176.768 190.393,176.404 189.757,175.916 189.221,175.318 188.803,174.633 188.519,173.882 188.378,173.092 188.384,172.289 188.537,171.502 188.833,170.755 189.261,170.076 189.806,169.487 190.451,169.008 191.172,168.656 191.945,168.443 192.745,168.375 193.544,168.455 194.297,168.602 195.977,168.966 197.64,169.401 199.282,169.907 200.902,170.481 202.496,171.123 204.062,171.833 205.596,172.608 207.096,173.447 208.559,174.349 209.983,175.312 211.364,176.335 212.701,177.415 213.991,178.551 215.232,179.74 216.421,180.981 217.557,182.271 218.637,183.608 219.66,184.989 220.623,186.413 221.525,187.876 222.364,189.376 223.139,190.91 223.848,192.475 224.491,194.07 225.065,195.689 225.57,197.332 226.006,198.995 226.37,200.675 226.517,201.428 226.597,202.227 226.529,203.026 226.316,203.8 225.963,204.521 225.485,205.166 224.896,205.711 224.216,206.139 223.47,206.434 222.682,206.588 221.88,206.594 221.09,206.453 220.339,206.169 219.653,205.751 219.056,205.215 218.567,204.578 218.204,203.863 217.978,203.092 217.832,202.339 217.545,201.019 217.203,199.713 216.806,198.422 216.355,197.15 215.85,195.897 215.293,194.667 214.684,193.462 214.025,192.283 213.316,191.134 212.559,190.015 211.756,188.93 210.907,187.88 210.015,186.866 209.081,185.891 208.106,184.957 207.092,184.064 206.042,183.216 204.956,182.412 203.838,181.656 202.689,180.947 201.51,180.288 200.305,179.679 199.075,179.121 197.822,178.617 196.55,178.165 195.259,177.769 193.952,177.427 192.633,177.14 191.88,176.993"/>
   <polyline fill="none" stroke="#ecb01f" stroke-width="0.5" stroke-linejoin="round" stroke-linecap="butt" points="204.79,177.065 203.997,176.939 203.241,176.67 202.547,176.266 201.939,175.742 201.438,175.115 201.06,174.406 200.82,173.641 200.724,172.844 200.776,172.043 200.974,171.265 201.312,170.537 201.778,169.883 202.356,169.326 203.026,168.885 203.767,168.575 204.551,168.406 205.354,168.384 207.613,168.53 212.176,168.861 216.695,169.255 221.161,169.713 225.568,170.234 229.907,170.816 234.172,171.461 238.355,172.165 242.449,172.929 246.448,173.75 250.344,174.629 254.131,175.563 257.804,176.552 261.355,177.595 264.781,178.689 268.074,179.835 271.232,181.03 274.247,182.274 277.118,183.567 279.839,184.908 282.407,186.296 284.818,187.733 287.069,189.219 289.158,190.755 291.079,192.345 292.83,193.992 294.405,195.699 295.796,197.471 296.994,199.311 297.434,200.064 297.774,200.792 297.974,201.569 298.028,202.37 297.934,203.167 297.694,203.933 297.319,204.643 296.819,205.271 296.212,205.796 295.519,206.201 294.764,206.472 293.971,206.6 293.169,206.58 292.384,206.412 291.643,206.103 290.971,205.664 290.392,205.108 289.925,204.456 289.484,203.702 288.729,202.544 287.789,201.347 286.657,200.12 285.331,198.874 283.811,197.617 282.099,196.358 280.199,195.105 278.115,193.863 275.85,192.639 273.412,191.437 270.805,190.263 268.034,189.12 265.107,188.012 262.03,186.942 258.808,185.913 255.449,184.927 251.959,183.987 248.346,183.096 244.616,182.254 240.777,181.466 236.836,180.731 232.801,180.051 228.679,179.429 224.479,178.864 220.207,178.359 215.873,177.915 211.485,177.532 207.049,177.211 204.79,177.065"/>
   <polyline fill="none" stroke="#ecb01f" stroke-width="0.5" stroke-linejoin="round" stroke-linecap="butt" points="204.79,239.815 207.049,239.669 211.485,239.348 215.873,238.965 220.207,238.521 224.479,238.016 228.679,237.452 232.801,236.829 236.836,236.149 240.777,235.414 244.616,234.626 248.346,233.784 251.959,232.893 255.449,231.953 258.808,230.967 262.03,229.938 265.107,228.868 268.034,227.76 270.805,226.617 273.412,225.443 275.85,224.241 278.115,223.017 280.199,221.775 282.099,220.522 283.811,219.263 285.331,218.006 286.657,216.76 287.789,215.533 288.729,214.336 289.484,213.178 289.925,212.424 290.392,211.772 290.971,211.216 291.643,210.777 292.384,210.468 293.169,210.3 293.971,210.28 294.764,210.408 295.519,210.679 296.212,211.084 296.819,211.609 297.319,212.238 297.694,212.947 297.934,213.713 298.028,214.51 297.974,215.311 297.774,216.088 297.434,216.816 296.994,217.569 295.796,219.409 294.405,221.181 292.83,222.888 291.079,224.535 289.158,226.125 287.069,227.661 284.818,229.147 282.407,230.584 279.839,231.972 277.118,233.313 274.247,234.606 271.232,235.85 268.074,237.045 264.781,238.191 261.355,239.285 257.804,240.328 254.131,241.317 250.344,242.251 246.448,243.13 242.449,243.951 238.355,244.715 234.172,245.419 229.907,246.064 225.568,246.646 221.161,247.167 216.695,247.625 212.176,248.02 207.613,248.35 205.354,248.496 204.551,248.474 203.767,248.305 203.026,247.995 202.356,247.554 201.778,246.997 201.312,246.343 200.974,245.615 200.776,244.837 200.724,244.036 200.82,243.239 201.06,242.474 201.438,241.765 201.939,241.138 202.547,240.614 203.241,240.21 203.997,239.941 204.79,239.815"/>
   <polyline fill="none" stroke="#ecb01f" stroke-width="0.5" stroke-linejoin="round" stroke-linecap="butt" points="191.88,239.887 192.633,239.74 193.952,239.453 195.259,239.112 196.55,238.715 197.822,238.263 199.075,237.759 200.305,237.201 201.51,236.592 202.689,235.933 203.838,235.224 204.956,234.468 206.042,233.664 207.092,232.816 208.106,231.923 209.081,230.989 210.015,230.014 210.907,229 211.756,227.95 212.559,226.865 213.316,225.746 214.025,224.597 214.684,223.418 215.293,222.213 215.85,220.983 216.355,219.73 216.806,218.458 217.203,217.167 217.545,215.861 217.832,214.541 217.978,213.788 218.204,213.017 218.567,212.302 219.056,211.665 219.653,211.129 220.339,210.712 221.09,210.427 221.88,210.286 222.682,210.292 223.47,210.446 224.216,210.741 224.896,211.169 225.485,211.714 225.963,212.359 226.316,213.08 226.529,213.854 226.597,214.653 226.517,215.452 226.37,216.205 226.006,217.885 225.57,219.548 225.065,221.191 224.491,222.81 223.848,224.405 223.139,225.97 222.364,227.504 221.525,229.004 220.623,230.467 219.66,231.891 218.637,233.272 217.557,234.609 216.421,235.899 215.232,237.14 213.991,238.329 212.701,239.465 211.364,240.545 209.983,241.568 208.559,242.531 207.096,243.433 205.596,244.272 204.062,245.047 202.496,245.757 200.902,246.399 199.282,246.973 197.64,247.479 195.977,247.914 194.297,248.278 193.544,248.425 192.745,248.505 191.945,248.437 191.172,248.224 190.451,247.872 189.806,247.393 189.261,246.804 188.833,246.125 188.537,245.378 188.384,244.591 188.378,243.788 188.519,242.998 188.803,242.247 189.221,241.562 189.757,240.964 190.393,240.476 191.109,240.112 191.88,239.887"/>
   <polyline fill="none" stroke="#ecb01f" stroke-width="0.5" stroke-linejoin="round" stroke-linecap="butt" points="204.79,177.065 203.997,176.939 203.241,176.67 202.547,176.266 201.939,175.742 201.438,175.115 201.06,174.406 200.82,173.641 200.724,172.844 200.776,172.043 200.974,171.265 201.312,170.537 201.778,169.883 202.356,169.326 203.026,168.885 203.767,168.575 204.551,168.406 205.354,168.384 207.613,168.53 212.176,168.861 216.695,169.255 221.161,169.713 225.568,170.234 229.907,170.816 234.172,171.461 238.355,172.165 242.449,172.929 246.448,173.75 250.344,174.629 254.131,175.563 257.804,176.552 261.355,177.595 264.781,178.689 268.074,179.835 271.232,181.03 274.247,182.274 277.118,183.567 279.839,184.908 282.407,186.296 284.818,187.733 287.069,189.219 289.158,190.755 291.079,192.345 292.83,193.992 294.405,195.699 295.796,197.471 296.994,199.311 297.434,200.064 297.774,200.792 297.974,201.569 298.028,202.37 297.934,203.167 297.694,203.933 297.319,204.643 296.819,205.271 296.212,205.796 295.519,206.201 294.764,206.472 293.971,206.6 293.169,206.58 292.384,206.412 291.643,206.103 290.971,205.664 290.392,205.108 289.925,204.456 289.484,203.702 288.729,202.544 287.789,201.347 286.657,200.12 285.331,198.874 283.811,197.617 282.099,196.358 280.199,195.105 278.115,193.863 275.85,192.639 273.412,191.437 270.805,190.263 268.034,189.12 265.107,188.012 262.03,186.942 258.808,185.913 255.449,184.927 251.959,183.987 248.346,183.096 244.616,182.254 240.777,181.466 236.836,180.731 232.801,180.051 228.679,179.429 224.479,178.864 220.207,178.359 215.873,177.915 211.485,177.532 207.049,177.211 204.79,177.065"/>
   <polyline fill="none" stroke="#ecb01f" stroke-width="0.5" stroke-linejoin="round" stroke-linecap="butt" points="188.707,208.44 188.703,208.322 188.694,208.205 188.678,208.088 188.656,207.972 188.627,207.858 188.593,207.746 188.552,207.635 188.506,207.527 188.453,207.421 188.395,207.319 188.332,207.22 188.263,207.124 188.189,207.032 188.111,206.944 188.027,206.861 187.94,206.782 187.848,206.709 187.752,206.64 187.653,206.577 187.55,206.519 187.445,206.466 187.337,206.42 187.226,206.379 187.114,206.344 186.999,206.316 186.884,206.294 186.767,206.278 186.65,206.268 186.532,206.265 186.532,206.265 186.414,206.268 186.297,206.278 186.18,206.294 186.064,206.316 185.95,206.344 185.837,206.379 185.727,206.42 185.619,206.466 185.513,206.519 185.411,206.577 185.311,206.64 185.216,206.709 185.124,206.782 185.036,206.861 184.953,206.944 184.874,207.032 184.8,207.124 184.732,207.22 184.668,207.319 184.61,207.421 184.558,207.527 184.511,207.635 184.471,207.746 184.436,207.858 184.408,207.972 184.386,208.088 184.37,208.205 184.36,208.322 184.357,208.44 184.357,208.44 184.36,208.558 184.37,208.675 184.386,208.792 184.408,208.908 184.436,209.022 184.471,209.134 184.511,209.245 184.558,209.353 184.61,209.459 184.668,209.561 184.732,209.66 184.8,209.756 184.874,209.848 184.953,209.936 185.036,210.019 185.124,210.098 185.216,210.171 185.311,210.24 185.411,210.303 185.513,210.361 185.619,210.414 185.727,210.46 185.837,210.501 185.95,210.536 186.064,210.564 186.18,210.586 186.297,210.602 186.414,210.612 186.532,210.615 186.532,210.615 186.65,210.612 186.767,210.602 186.884,210.586 186.999,210.564 187.114,210.536 187.226,210.501 187.337,210.46 187.445,210.414 187.55,210.361 187.653,210.303 187.752,210.24 187.848,210.171 187.94,210.098 188.027,210.019 188.111,209.936 188.189,209.848 188.263,209.756 188.332,209.66 188.395,209.561 188.453,209.459 188.506,209.353 188.552,209.245 188.593,209.134 188.627,209.022 188.656,208.908 188.678,208.792 188.694,208.675 188.703,208.558 188.707,208.44"/>
   <polyline fill="none" stroke="#7d2e8d" stroke-width="0.5" stroke-linejoin="round" stroke-linecap="butt" points="470.771,160.545 305.277,160.545 305.277,256.335 470.771,256.335 470.771,160.545"/>
   <polyline fill="none" stroke="#7d2e8d" stroke-width="0.5" stroke-linejoin="round" stroke-linecap="butt" points="311.457,172.724 359.714,172.724 359.714,244.156 311.457,244.156 311.457,172.724"/>
   <polyline fill="none" stroke="#7d2e8d" stroke-width="0.5" stroke-linejoin="round" stroke-linecap="butt" points="346.626,203.092 346.4,203.863 346.037,204.578 345.548,205.215 344.951,205.751 344.265,206.169 343.515,206.453 342.724,206.594 341.922,206.588 341.134,206.434 340.388,206.139 339.709,205.711 339.12,205.166 338.641,204.521 338.289,203.8 338.075,203.026 338.007,202.227 338.087,201.428 338.234,200.675 338.599,198.995 339.034,197.332 339.539,195.689 340.114,194.07 340.756,192.475 341.465,190.91 342.24,189.376 343.08,187.876 343.982,186.413 344.945,184.989 345.967,183.608 347.047,182.271 348.183,180.981 349.372,179.74 350.613,178.551 351.903,177.415 353.24,176.335 354.622,175.312 356.045,174.349 357.508,173.447 359.008,172.608 360.542,171.833 362.108,171.123 363.702,170.481 365.322,169.907 366.965,169.401 368.627,168.966 370.307,168.602 371.06,168.455 371.859,168.375 372.659,168.443 373.432,168.656 374.154,169.008 374.798,169.487 375.343,170.076 375.771,170.755 376.067,171.502 376.22,172.289 376.227,173.092 376.085,173.882 375.801,174.633 375.384,175.318 374.848,175.916 374.211,176.404 373.495,176.768 372.725,176.993 371.971,177.14 370.652,177.427 369.345,177.769 368.055,178.165 366.782,178.617 365.53,179.121 364.299,179.679 363.094,180.288 361.916,180.947 360.766,181.656 359.648,182.412 358.562,183.216 357.512,184.064 356.498,184.957 355.524,185.891 354.589,186.866 353.697,187.88 352.848,188.93 352.045,190.015 351.288,191.134 350.58,192.283 349.92,193.462 349.311,194.667 348.754,195.897 348.249,197.15 347.798,198.422 347.401,199.713 347.059,201.019 346.773,202.339 346.626,203.092 346.626,213.788 346.773,214.541 347.059,215.861 347.401,217.167 347.798,218.458 348.249,219.73 348.754,220.983 349.311,222.213 349.92,223.418 350.58,224.597 351.288,225.746 352.045,226.865 352.848,227.95 353.697,229 354.589,230.014 355.524,230.989 356.498,231.923 357.512,232.816 358.562,233.664 359.648,234.468 360.766,235.224 361.916,235.933 363.094,236.592 364.299,237.201 365.53,237.759 366.782,238.263 368.055,238.715 369.345,239.112 370.652,239.453 371.971,239.74 372.725,239.887 373.495,240.112 374.211,240.476 374.848,240.964 375.384,241.562 375.801,242.247 376.085,242.998 376.227,243.788 376.22,244.591 376.067,245.378 375.771,246.125 375.343,246.804 374.798,247.393 374.154,247.872 373.432,248.224 372.659,248.437 371.859,248.505 371.06,248.425 370.307,248.278 368.627,247.914 366.965,247.479 365.322,246.973 363.702,246.399 362.108,245.757 360.542,245.047 359.008,244.272 357.508,243.433 356.045,242.531 354.622,241.568 353.24,240.545 351.903,239.465 350.613,238.329 349.372,237.14 348.183,235.899 347.047,234.609 345.967,233.272 344.945,231.891 343.982,230.467 343.08,229.004 342.24,227.504 341.465,225.97 340.756,224.405 340.114,222.81 339.539,221.191 339.034,219.548 338.599,217.885 338.234,216.205 338.087,215.452 338.007,214.653 338.075,213.854 338.289,213.08 338.641,212.359 339.12,211.714 339.709,211.169 340.388,210.741 341.134,210.446 341.922,210.292 342.724,210.286 343.515,210.427 344.265,210.712 344.951,211.129 345.548,211.665 346.037,212.302 346.4,213.017 346.626,213.788"/>
   <polyline fill="none" stroke="#7d2e8d" stroke-width="0.5" stroke-linejoin="round" stroke-linecap="butt" points="470.771,160.545 305.277,160.545 305.277,166.635 470.771,166.635 470.771,160.545 470.771,256.335 470.771,250.245 305.277,250.245 305.277,256.335 470.771,256.335"/>
   <polyline fill="none" stroke="#7d2e8d" stroke-width="0.5" stroke-linejoin="round" stroke-linecap="butt" points="380.247,208.44 380.244,208.322 380.234,208.205 380.219,208.088 380.196,207.972 380.168,207.858 380.133,207.746 380.093,207.635 380.046,207.527 379.994,207.421 379.936,207.319 379.872,207.22 379.804,207.124 379.73,207.032 379.651,206.944 379.568,206.861 379.48,206.782 379.389,206.709 379.293,206.64 379.194,206.577 379.091,206.519 378.986,206.466 378.877,206.42 378.767,206.379 378.654,206.344 378.54,206.316 378.424,206.294 378.308,206.278 378.19,206.268 378.072,206.265 378.072,206.265 377.955,206.268 377.837,206.278 377.721,206.294 377.605,206.316 377.491,206.344 377.378,206.379 377.267,206.42 377.159,206.466 377.054,206.519 376.951,206.577 376.852,206.64 376.756,206.709 376.665,206.782 376.577,206.861 376.494,206.944 376.415,207.032 376.341,207.124 376.272,207.22 376.209,207.319 376.151,207.421 376.099,207.527 376.052,207.635 376.012,207.746 375.977,207.858 375.949,207.972 375.926,208.088 375.91,208.205 375.901,208.322 375.898,208.44 375.898,208.44 375.901,208.558 375.91,208.675 375.926,208.792 375.949,208.908 375.977,209.022 376.012,209.134 376.052,209.245 376.099,209.353 376.151,209.459 376.209,209.561 376.272,209.66 376.341,209.756 376.415,209.848 376.494,209.936 376.577,210.019 376.665,210.098 376.756,210.171 376.852,210.24 376.951,210.303 377.054,210.361 377.159,210.414 377.267,210.46 377.378,210.501 377.491,210.536 377.605,210.564 377.721,210.586 377.837,210.602 377.955,210.612 378.072,210.615 378.072,210.615 378.19,210.612 378.308,210.602 378.424,210.586 378.54,210.564 378.654,210.536 378.767,210.501 378.877,210.46 378.986,210.414 379.091,210.361 379.194,210.303 379.293,210.24 379.389,210.171 379.48,210.098 379.568,210.019 379.651,209.936 379.73,209.848 379.804,209.756 379.872,209.66 379.936,209.561 379.994,209.459 380.046,209.353 380.093,209.245 380.133,209.134 380.168,209.022 380.196,208.908 380.219,208.792 380.234,208.675 380.244,208.558 380.247,208.44"/>
   <polyline fill="none" stroke="#76ab2f" stroke-width="0.5" stroke-linejoin="round" stroke-linecap="butt" points="515.1,210.434 515.218,210.431 515.335,210.421 515.452,210.405 515.568,210.383 515.682,210.355 515.794,210.32 515.905,210.279 516.013,210.233 516.119,210.18 516.221,210.123 516.32,210.059 516.416,209.99 516.508,209.917 516.596,209.838 516.679,209.755 516.758,209.667 516.831,209.575 516.9,209.48 516.964,209.38 517.022,209.278 517.074,209.172 517.12,209.064 517.161,208.953 517.196,208.841 517.224,208.727 517.246,208.611 517.262,208.494 517.272,208.377 517.275,208.259 517.275,178.723 517.272,178.605 517.262,178.488 517.246,178.371 517.224,178.256 517.196,178.141 517.161,178.029 517.12,177.918 517.074,177.81 517.022,177.704 516.964,177.602 516.9,177.503 516.831,177.407 516.758,177.315 516.679,177.227 516.596,177.144 516.508,177.065 516.416,176.992 516.32,176.923 516.221,176.86 516.119,176.802 516.013,176.749 515.905,176.703 515.794,176.662 515.682,176.628 515.568,176.599 515.452,176.577 515.335,176.561 515.218,176.551 515.1,176.548 515.1,176.548 514.982,176.551 514.865,176.561 514.748,176.577 514.633,176.599 514.518,176.628 514.406,176.662 514.295,176.703 514.187,176.749 514.081,176.802 513.979,176.86 513.88,176.923 513.784,176.992 513.692,177.065 513.604,177.144 513.521,177.227 513.443,177.315 513.369,177.407 513.3,177.503 513.237,177.602 513.179,177.704 513.126,177.81 513.08,177.918 513.039,178.029 513.005,178.141 512.976,178.256 512.954,178.371 512.938,178.488 512.928,178.605 512.925,178.723 512.925,208.259 512.928,208.377 512.938,208.494 512.954,208.611 512.976,208.727 513.005,208.841 513.039,208.953 513.08,209.064 513.126,209.172 513.179,209.278 513.237,209.38 513.3,209.48 513.369,209.575 513.443,209.667 513.521,209.755 513.604,209.838 513.692,209.917 513.784,209.99 513.88,210.059 513.979,210.123 514.081,210.18 514.187,210.233 514.295,210.279 514.406,210.32 514.518,210.355 514.633,210.383 514.748,210.405 514.865,210.421 514.982,210.431 515.1,210.434 515.1,210.434"/>
   <polyline fill="none" stroke="#76ab2f" stroke-width="0.5" stroke-linejoin="round" stroke-linecap="butt" points="508.92,214.439 515.1,214.439 521.28,208.259 521.28,172.543 478.021,172.543 478.021,256.335 508.92,256.335 508.92,214.439"/>
   <polyline fill="none" stroke="#76ab2f" stroke-width="0.5" stroke-linejoin="round" stroke-linecap="butt" points="484.653,250.155 502.921,250.155 502.921,178.723 484.653,178.723 484.653,250.155"/>
  </g>
 </g>
</svg>
