<?xml version='1.0' encoding='UTF-8' standalone='no'?>
<svg height="432pt" xmlns="http://www.w3.org/2000/svg" viewBox="0 0 576 432" xmlns:xlink="http://www.w3.org/1999/xlink" width="576pt">
 <title>gl2ps_renderer figure</title>
 <desc>
Creator: GL2PS 1.4.0, (C) 1999-2017 C. Geuzaine
For: Octave
CreationDate: Wed Jul 24 23:27:27 2019
</desc>
 <defs/>
 <polygon points="0,0 576,0 576,432 0,432" fill="#ffffff"/>
 <g>
  <polygon points="0,432 576,432 576,0 0,0" fill="#ffffff" shape-rendering="crispEdges"/>
  <clipPath id="cp00576432">
   <polygon points="0,432 576,432 576,0 0,0"/>
  </clipPath>
  <g clip-path="url(#cp00576432)">
   <polyline stroke-width="0.5" stroke-linecap="butt" points="261.97,320.524 333.383,320.524 333.383,382.558 261.97,382.558 261.97,320.524" fill="none" stroke="#00ff00" stroke-linejoin="round"/>
   <polyline stroke-width="0.5" stroke-linecap="butt" points="298.835,351.541 298.833,351.47 298.827,351.399 298.817,351.329 298.804,351.259 298.787,351.19 298.766,351.123 298.742,351.056 298.714,350.991 298.682,350.927 298.647,350.866 298.609,350.806 298.568,350.748 298.523,350.693 298.476,350.64 298.426,350.59 298.373,350.543 298.318,350.498 298.26,350.457 298.2,350.419 298.139,350.384 298.075,350.352 298.01,350.324 297.943,350.3 297.875,350.279 297.807,350.262 297.737,350.248 297.667,350.239 297.596,350.233 297.525,350.231 297.525,350.231 297.454,350.233 297.383,350.239 297.313,350.248 297.244,350.262 297.175,350.279 297.107,350.3 297.04,350.324 296.975,350.352 296.912,350.384 296.85,350.419 296.79,350.457 296.732,350.498 296.677,350.543 296.624,350.59 296.574,350.64 296.527,350.693 296.482,350.748 296.441,350.806 296.403,350.866 296.368,350.927 296.336,350.991 296.308,351.056 296.284,351.123 296.263,351.19 296.246,351.259 296.233,351.329 296.223,351.399 296.217,351.47 296.215,351.541 296.215,351.541 296.217,351.612 296.223,351.682 296.233,351.753 296.246,351.822 296.263,351.891 296.284,351.959 296.308,352.026 296.336,352.091 296.368,352.154 296.403,352.216 296.441,352.276 296.482,352.333 296.527,352.389 296.574,352.441 296.624,352.492 296.677,352.539 296.732,352.583 296.79,352.625 296.85,352.663 296.912,352.698 296.975,352.729 297.04,352.757 297.107,352.782 297.175,352.803 297.244,352.82 297.313,352.833 297.383,352.843 297.454,352.849 297.525,352.85 297.525,352.85 297.596,352.849 297.667,352.843 297.737,352.833 297.807,352.82 297.875,352.803 297.943,352.782 298.01,352.757 298.075,352.729 298.139,352.698 298.2,352.663 298.26,352.625 298.318,352.583 298.373,352.539 298.426,352.492 298.476,352.441 298.523,352.389 298.568,352.333 298.609,352.276 298.647,352.216 298.682,352.154 298.714,352.091 298.742,352.026 298.766,351.959 298.787,351.891 298.804,351.822 298.817,351.753 298.827,351.682 298.833,351.612 298.835,351.541" fill="none" stroke="#00ff00" stroke-linejoin="round"/>
   <polyline stroke-width="0.5" stroke-linecap="butt" points="261.97,318.602 259.198,318.602 259.198,384.48 261.97,384.48 261.97,318.602" fill="none" stroke="#00ff00" stroke-linejoin="round"/>
   <polyline stroke-width="0.5" stroke-linecap="butt" points="261.97,382.558 333.383,382.558 333.383,320.524 261.97,320.524 261.97,382.558" fill="none" stroke="#00ff00" stroke-linejoin="round"/>
   <polyline stroke-width="0.5" stroke-linecap="butt" points="298.835,351.541 298.833,351.612 298.827,351.682 298.817,351.753 298.804,351.822 298.787,351.891 298.766,351.959 298.742,352.026 298.714,352.091 298.682,352.154 298.647,352.216 298.609,352.276 298.568,352.333 298.523,352.389 298.476,352.441 298.426,352.492 298.373,352.539 298.318,352.583 298.26,352.625 298.2,352.663 298.139,352.698 298.075,352.729 298.01,352.757 297.943,352.782 297.875,352.803 297.807,352.82 297.737,352.833 297.667,352.843 297.596,352.849 297.525,352.85 297.525,352.85 297.454,352.849 297.383,352.843 297.313,352.833 297.244,352.82 297.175,352.803 297.107,352.782 297.04,352.757 296.975,352.729 296.912,352.698 296.85,352.663 296.79,352.625 296.732,352.583 296.677,352.539 296.624,352.492 296.574,352.441 296.527,352.389 296.482,352.333 296.441,352.276 296.403,352.216 296.368,352.154 296.336,352.091 296.308,352.026 296.284,351.959 296.263,351.891 296.246,351.822 296.233,351.753 296.223,351.682 296.217,351.612 296.215,351.541 296.215,351.541 296.217,351.47 296.223,351.399 296.233,351.329 296.246,351.259 296.263,351.19 296.284,351.123 296.308,351.056 296.336,350.991 296.368,350.927 296.403,350.866 296.441,350.806 296.482,350.748 296.527,350.693 296.574,350.64 296.624,350.59 296.677,350.543 296.732,350.498 296.79,350.457 296.85,350.419 296.912,350.384 296.975,350.352 297.04,350.324 297.107,350.3 297.175,350.279 297.244,350.262 297.313,350.248 297.383,350.239 297.454,350.233 297.525,350.231 297.525,350.231 297.596,350.233 297.667,350.239 297.737,350.248 297.807,350.262 297.875,350.279 297.943,350.3 298.01,350.324 298.075,350.352 298.139,350.384 298.2,350.419 298.26,350.457 298.318,350.498 298.373,350.543 298.426,350.59 298.476,350.64 298.523,350.693 298.568,350.748 298.609,350.806 298.647,350.866 298.682,350.927 298.714,350.991 298.742,351.056 298.766,351.123 298.787,351.19 298.804,351.259 298.817,351.329 298.827,351.399 298.833,351.47 298.835,351.541" fill="none" stroke="#00ff00" stroke-linejoin="round"/>
   <polyline stroke-width="0.5" stroke-linecap="butt" points="261.97,384.48 259.198,384.48 259.198,318.602 261.97,318.602 261.97,384.48" fill="none" stroke="#00ff00" stroke-linejoin="round"/>
   <polyline stroke-width="0.5" stroke-linecap="butt" points="324.613,255.499 324.573,254.033 324.454,252.571 324.256,251.117 323.98,249.676 323.626,248.253 323.195,246.85 322.689,245.473 322.109,244.126 321.457,242.811 320.735,241.534 319.945,240.298 319.089,239.107 318.17,237.963 317.191,236.871 316.153,235.834 315.061,234.854 313.918,233.935 312.726,233.079 311.49,232.289 310.213,231.567 308.899,230.915 307.551,230.335 306.174,229.83 304.772,229.399 303.348,229.045 301.907,228.768 300.454,228.57 298.992,228.451 297.525,228.412 269.828,228.412 269.615,228.415 269.403,228.424 269.193,228.439 268.984,228.459 268.777,228.486 268.574,228.518 268.374,228.557 268.178,228.6 267.988,228.649 267.803,228.704 267.623,228.763 267.45,228.828 267.285,228.897 267.126,228.971 266.976,229.049 266.834,229.131 266.7,229.217 266.576,229.307 266.462,229.4 266.357,229.496 266.262,229.596 266.178,229.697 266.105,229.801 266.042,229.906 265.991,230.014 265.951,230.122 265.922,230.232 265.905,230.342 265.899,230.452 265.899,230.452 265.893,230.563 265.876,230.673 265.847,230.783 265.807,230.891 265.756,230.998 265.694,231.104 265.62,231.208 265.536,231.309 265.442,231.408 265.337,231.505 265.222,231.598 265.098,231.687 264.965,231.774 264.823,231.856 264.672,231.934 264.514,232.008 264.348,232.077 264.175,232.142 263.996,232.201 263.811,232.255 263.62,232.305 263.424,232.348 263.225,232.386 263.021,232.419 262.815,232.445 262.606,232.466 262.395,232.481 262.183,232.49 261.97,232.493 261.97,224.483 333.383,224.483 333.383,286.516 261.97,286.516 261.97,278.506 262.183,278.509 262.395,278.518 262.606,278.533 262.815,278.553 263.021,278.58 263.225,278.613 263.424,278.651 263.62,278.694 263.811,278.743 263.996,278.798 264.175,278.857 264.348,278.922 264.514,278.991 264.672,279.065 264.823,279.143 264.965,279.225 265.098,279.311 265.222,279.401 265.337,279.494 265.442,279.591 265.536,279.69 265.62,279.791 265.694,279.895 265.756,280 265.807,280.108 265.847,280.216 265.876,280.326 265.893,280.436 265.899,280.546 265.899,280.546 265.905,280.657 265.922,280.767 265.951,280.877 265.991,280.985 266.042,281.092 266.105,281.198 266.178,281.302 266.262,281.403 266.357,281.502 266.462,281.599 266.576,281.692 266.7,281.781 266.834,281.868 266.976,281.95 267.126,282.028 267.285,282.102 267.45,282.171 267.623,282.236 267.803,282.295 267.988,282.35 268.178,282.399 268.374,282.442 268.574,282.48 268.777,282.513 268.984,282.54 269.193,282.56 269.403,282.575 269.615,282.584 269.828,282.587 297.525,282.587 298.992,282.548 300.454,282.428 301.907,282.23 303.348,281.954 304.772,281.6 306.174,281.169 307.551,280.663 308.899,280.084 310.213,279.432 311.49,278.71 312.726,277.92 313.918,277.064 315.061,276.145 316.153,275.165 317.191,274.128 318.17,273.036 319.089,271.892 319.945,270.701 320.735,269.465 321.457,268.188 322.109,266.873 322.689,265.526 323.195,264.149 323.626,262.746 323.98,261.323 324.256,259.882 324.454,258.428 324.573,256.966 324.613,255.499 324.613,255.499" fill="none" stroke="#000000" stroke-linejoin="round"/>
   <polyline stroke-width="0.5" stroke-linecap="butt" points="297.744,230.518 297.744,228.412 293.596,228.412 293.383,228.415 293.171,228.424 292.96,228.439 292.751,228.459 292.545,228.486 292.342,228.518 292.142,228.557 291.946,228.6 291.756,228.649 291.57,228.704 291.391,228.763 291.218,228.828 291.053,228.897 290.894,228.971 290.744,229.049 290.602,229.131 290.468,229.217 290.344,229.307 290.23,229.4 290.125,229.496 290.03,229.596 289.946,229.697 289.873,229.801 289.81,229.906 289.759,230.014 289.719,230.122 289.69,230.232 289.673,230.342 289.667,230.452 289.667,230.452 289.661,230.563 289.644,230.673 289.615,230.783 289.575,230.891 289.524,230.998 289.461,231.104 289.388,231.208 289.304,231.309 289.209,231.408 289.105,231.505 288.99,231.598 288.866,231.687 288.733,231.774 288.591,231.856 288.44,231.934 288.282,232.008 288.116,232.077 287.943,232.142 287.764,232.201 287.579,232.255 287.388,232.305 287.192,232.348 286.993,232.386 286.789,232.419 286.583,232.445 286.374,232.466 286.163,232.481 285.951,232.49 285.738,232.493 285.738,278.506 285.951,278.509 286.163,278.518 286.374,278.533 286.583,278.553 286.789,278.58 286.993,278.613 287.192,278.651 287.388,278.694 287.579,278.743 287.764,278.798 287.943,278.857 288.116,278.922 288.282,278.991 288.44,279.065 288.591,279.143 288.733,279.225 288.866,279.311 288.99,279.401 289.105,279.494 289.209,279.591 289.304,279.69 289.388,279.791 289.461,279.895 289.524,280 289.575,280.108 289.615,280.216 289.644,280.326 289.661,280.436 289.667,280.546 289.667,280.546 289.673,280.657 289.69,280.767 289.719,280.877 289.759,280.985 289.81,281.092 289.873,281.198 289.946,281.302 290.03,281.403 290.125,281.502 290.23,281.599 290.344,281.692 290.468,281.781 290.602,281.868 290.744,281.95 290.894,282.028 291.053,282.102 291.218,282.171 291.391,282.236 291.57,282.295 291.756,282.35 291.946,282.399 292.142,282.442 292.342,282.48 292.545,282.513 292.751,282.54 292.96,282.56 293.171,282.575 293.383,282.584 293.596,282.587 297.525,282.587 297.525,267.876 294.753,267.876 294.753,269.262 291.981,269.262 291.981,263.718 294.753,263.718 294.753,265.104 297.525,265.104 297.525,265.104 293.94,257.107 293.908,257.034 293.878,256.96 293.849,256.886 293.821,256.811 293.796,256.736 293.771,256.66 293.749,256.583 293.727,256.506 293.708,256.429 293.69,256.352 293.673,256.274 293.658,256.195 293.645,256.117 293.633,256.038 293.623,255.959 293.615,255.88 293.608,255.8 293.602,255.721 293.599,255.641 293.597,255.562 293.596,255.482 293.597,255.402 293.6,255.323 293.604,255.243 293.61,255.164 293.618,255.084 293.627,255.005 293.638,254.926 293.651,254.847 297.744,230.518 299.376,230.586 300.999,230.76 302.607,231.039 304.194,231.424 305.752,231.911 307.275,232.498 308.757,233.184 310.19,233.965 311.57,234.839 312.889,235.8 314.143,236.846 315.326,237.971 316.433,239.171 317.459,240.441 318.4,241.775 319.251,243.167 320.011,244.613 320.674,246.105 321.238,247.637 321.701,249.202 322.06,250.795 322.315,252.407 322.464,254.033 322.507,255.665 322.443,257.296 322.272,258.92 321.996,260.529 321.615,262.116 321.132,263.675 309.22,259.55 310.127,256.93 311.437,257.384 312.344,254.765 307.105,252.95 306.198,255.57 307.508,256.023 306.6,258.643 306.6,258.643 306.458,259.027 306.299,259.405 306.125,259.775 305.935,260.138 305.729,260.493 305.509,260.838 305.274,261.174 305.025,261.499 304.762,261.814 304.486,262.117 304.197,262.408 303.896,262.686 303.584,262.951 303.261,263.203 302.927,263.44 302.583,263.664 302.23,263.872 301.869,264.065 301.5,264.242 301.123,264.404 300.74,264.549 300.351,264.678 299.957,264.791 299.559,264.886 299.156,264.964 298.751,265.025 298.344,265.069 297.935,265.095 297.525,265.104 293.94,257.107 293.917,257.054 293.895,257.002 293.873,256.949 293.853,256.896 293.833,256.842 293.814,256.788 293.795,256.734 293.778,256.68 293.761,256.625 293.745,256.571 293.73,256.516 293.715,256.46 293.702,256.405 293.689,256.349 293.677,256.293 293.666,256.237 293.656,256.181 293.646,256.125 293.638,256.068 293.63,256.012 293.623,255.955 293.616,255.898 293.611,255.842 293.606,255.785 293.603,255.728 293.6,255.671 293.598,255.614 293.597,255.557 293.596,255.499 297.744,230.518" fill="none" stroke="#000000" stroke-linejoin="round"/>
   <polyline stroke-width="0.5" stroke-linecap="butt" points="298.763,255.928 298.784,255.86 298.802,255.792 298.816,255.722 298.826,255.652 298.832,255.581 298.835,255.51 298.833,255.44 298.828,255.369 298.819,255.298 298.806,255.229 298.79,255.16 298.77,255.092 298.746,255.025 298.718,254.96 298.687,254.896 298.653,254.834 298.615,254.774 298.574,254.716 298.53,254.66 298.483,254.607 298.434,254.556 298.381,254.508 298.326,254.464 298.269,254.422 298.21,254.383 298.148,254.348 298.085,254.316 298.02,254.287 297.954,254.262 297.954,254.262 297.886,254.241 297.817,254.223 297.748,254.209 297.678,254.199 297.607,254.192 297.536,254.19 297.465,254.191 297.394,254.196 297.324,254.205 297.254,254.218 297.185,254.235 297.117,254.255 297.051,254.279 296.985,254.306 296.921,254.337 296.859,254.372 296.799,254.409 296.741,254.45 296.686,254.494 296.632,254.541 296.582,254.591 296.534,254.643 296.489,254.698 296.447,254.755 296.409,254.815 296.373,254.876 296.341,254.94 296.313,255.004 296.288,255.071 296.288,255.071 296.266,255.138 296.248,255.207 296.234,255.277 296.224,255.347 296.218,255.418 296.215,255.488 296.217,255.559 296.222,255.63 296.231,255.7 296.244,255.77 296.26,255.839 296.28,255.907 296.304,255.974 296.332,256.039 296.363,256.103 296.397,256.165 296.435,256.225 296.476,256.283 296.52,256.339 296.567,256.392 296.616,256.443 296.669,256.49 296.724,256.535 296.781,256.577 296.84,256.616 296.902,256.651 296.965,256.683 297.03,256.712 297.096,256.737 297.096,256.737 297.164,256.758 297.233,256.776 297.302,256.79 297.372,256.8 297.443,256.807 297.514,256.809 297.585,256.808 297.656,256.803 297.726,256.794 297.796,256.781 297.865,256.764 297.933,256.744 298,256.72 298.065,256.693 298.129,256.662 298.191,256.627 298.251,256.59 298.309,256.549 298.364,256.505 298.418,256.458 298.468,256.408 298.516,256.356 298.561,256.301 298.603,256.243 298.642,256.184 298.677,256.123 298.709,256.059 298.738,255.994 298.763,255.928" fill="none" stroke="#000000" stroke-linejoin="round"/>
   <polyline stroke-width="0.5" stroke-linecap="butt" points="333.383,132.37 269.828,132.37 269.615,132.373 269.403,132.382 269.193,132.397 268.984,132.418 268.777,132.445 268.574,132.477 268.374,132.515 268.178,132.559 267.988,132.608 267.803,132.662 267.623,132.722 267.45,132.786 267.285,132.856 267.126,132.93 266.976,133.008 266.834,133.09 266.7,133.176 266.576,133.266 266.462,133.359 266.357,133.455 266.262,133.554 266.178,133.656 266.105,133.759 266.042,133.865 265.991,133.972 265.951,134.081 265.922,134.19 265.905,134.301 265.899,134.411 265.899,134.411 265.893,134.522 265.876,134.632 265.847,134.741 265.807,134.85 265.756,134.957 265.694,135.063 265.62,135.166 265.536,135.268 265.442,135.367 265.337,135.463 265.222,135.556 265.098,135.646 264.965,135.732 264.823,135.815 264.672,135.893 264.514,135.966 264.348,136.036 264.175,136.1 263.996,136.16 263.811,136.214 263.62,136.263 263.424,136.307 263.225,136.345 263.021,136.377 262.815,136.404 262.606,136.425 262.395,136.44 262.183,136.449 261.97,136.452 261.97,128.441 333.383,128.441 333.383,132.37" fill="none" stroke="#ff0000" stroke-linejoin="round"/>
   <polyline stroke-width="0.5" stroke-linecap="butt" points="333.383,186.546 269.828,186.546 269.615,186.543 269.403,186.534 269.193,186.519 268.984,186.498 268.777,186.472 268.574,186.439 268.374,186.401 268.178,186.357 267.988,186.308 267.803,186.254 267.623,186.194 267.45,186.13 267.285,186.061 267.126,185.987 266.976,185.909 266.834,185.826 266.7,185.74 266.576,185.65 266.462,185.557 266.357,185.461 266.262,185.362 266.178,185.261 266.105,185.157 266.042,185.051 265.991,184.944 265.951,184.835 265.922,184.726 265.905,184.616 265.899,184.505 265.899,184.505 265.893,184.395 265.876,184.284 265.847,184.175 265.807,184.066 265.756,183.959 265.694,183.854 265.62,183.75 265.536,183.648 265.442,183.549 265.337,183.453 265.222,183.36 265.098,183.27 264.965,183.184 264.823,183.102 264.672,183.024 264.514,182.95 264.348,182.88 264.175,182.816 263.996,182.756 263.811,182.702 263.62,182.653 263.424,182.609 263.225,182.571 263.021,182.539 262.815,182.512 262.606,182.491 262.395,182.476 262.183,182.467 261.97,182.464 261.97,190.475 333.383,190.475 333.383,186.546" fill="none" stroke="#ff0000" stroke-linejoin="round"/>
   <polyline stroke-width="0.5" stroke-linecap="butt" points="297.744,134.477 293.596,159.458 297.744,134.477 297.744,132.37 293.596,132.37 293.383,132.373 293.171,132.382 292.96,132.397 292.751,132.418 292.545,132.445 292.342,132.477 292.142,132.515 291.946,132.559 291.756,132.608 291.57,132.662 291.391,132.722 291.218,132.786 291.053,132.856 290.894,132.93 290.744,133.008 290.602,133.09 290.468,133.176 290.344,133.266 290.23,133.359 290.125,133.455 290.03,133.554 289.946,133.656 289.873,133.759 289.81,133.865 289.759,133.972 289.719,134.081 289.69,134.19 289.673,134.301 289.667,134.411 289.667,134.411 289.661,134.522 289.644,134.632 289.615,134.741 289.575,134.85 289.524,134.957 289.461,135.063 289.388,135.166 289.304,135.268 289.209,135.367 289.105,135.463 288.99,135.556 288.866,135.646 288.733,135.732 288.591,135.815 288.44,135.893 288.282,135.966 288.116,136.036 287.943,136.1 287.764,136.16 287.579,136.214 287.388,136.263 287.192,136.307 286.993,136.345 286.789,136.377 286.583,136.404 286.374,136.425 286.163,136.44 285.951,136.449 285.738,136.452 285.738,182.464 285.951,182.467 286.163,182.476 286.374,182.491 286.583,182.512 286.789,182.539 286.993,182.571 287.192,182.609 287.388,182.653 287.579,182.702 287.764,182.756 287.943,182.816 288.116,182.88 288.282,182.95 288.44,183.024 288.591,183.102 288.733,183.184 288.866,183.27 288.99,183.36 289.105,183.453 289.209,183.549 289.304,183.648 289.388,183.75 289.461,183.854 289.524,183.959 289.575,184.066 289.615,184.175 289.644,184.284 289.661,184.395 289.667,184.505 289.667,184.505 289.673,184.616 289.69,184.726 289.719,184.835 289.759,184.944 289.81,185.051 289.873,185.157 289.946,185.261 290.03,185.362 290.125,185.461 290.23,185.557 290.344,185.65 290.468,185.74 290.602,185.826 290.744,185.909 290.894,185.987 291.053,186.061 291.218,186.13 291.391,186.194 291.57,186.254 291.756,186.308 291.946,186.357 292.142,186.401 292.342,186.439 292.545,186.472 292.751,186.498 292.96,186.519 293.171,186.534 293.383,186.543 293.596,186.546 297.744,186.546 297.744,184.439 293.596,159.458 297.744,184.439" fill="none" stroke="#ff0000" stroke-linejoin="round"/>
   <polyline stroke-width="0.5" stroke-linecap="butt" points="305.493,135.781 305.42,135.434 305.317,135.094 305.185,134.765 305.026,134.448 304.84,134.146 304.63,133.86 304.395,133.594 304.139,133.348 303.863,133.126 303.569,132.927 303.259,132.755 302.936,132.609 302.601,132.492 302.257,132.403 301.908,132.345 301.554,132.316 301.199,132.317 300.846,132.349 300.497,132.41 300.154,132.502 299.82,132.622 299.498,132.77 299.189,132.945 298.897,133.145 298.622,133.37 298.368,133.618 298.136,133.886 297.928,134.173 297.744,134.477 293.651,158.806 293.621,159.017 293.603,159.229 293.596,159.442 293.601,159.654 293.617,159.866 293.645,160.077 293.684,160.287 293.735,160.493 293.797,160.697 293.869,160.897 293.952,161.093 294.046,161.284 294.15,161.47 294.264,161.649 294.387,161.823 294.52,161.989 294.661,162.148 294.811,162.299 294.969,162.442 295.134,162.576 295.306,162.701 295.485,162.816 295.67,162.922 295.86,163.017 296.055,163.102 296.255,163.176 296.458,163.239 296.664,163.292 296.873,163.333 296.873,163.333 297.084,163.362 297.296,163.38 297.509,163.387 297.721,163.382 297.933,163.366 298.144,163.338 298.354,163.299 298.56,163.248 298.764,163.187 298.964,163.114 299.16,163.031 299.351,162.937 299.536,162.833 299.716,162.719 299.89,162.596 300.056,162.463 300.215,162.322 300.366,162.172 300.509,162.014 300.643,161.849 300.768,161.677 300.883,161.498 300.989,161.313 301.084,161.123 301.169,160.928 301.243,160.728 301.306,160.525 301.359,160.319 301.4,160.11 305.493,135.781" fill="none" stroke="#ff0000" stroke-linejoin="round"/>
   <polyline stroke-width="0.5" stroke-linecap="butt" points="300.108,159.893 300.128,159.752 300.14,159.611 300.144,159.469 300.141,159.327 300.13,159.186 300.112,159.045 300.085,158.906 300.052,158.768 300.011,158.632 299.962,158.499 299.907,158.368 299.844,158.241 299.775,158.117 299.699,157.997 299.617,157.882 299.529,157.771 299.434,157.665 299.334,157.564 299.229,157.469 299.119,157.38 299.004,157.296 298.885,157.219 298.762,157.149 298.635,157.086 298.505,157.029 298.372,156.979 298.236,156.937 298.099,156.902 297.96,156.875 297.96,156.875 297.819,156.855 297.678,156.843 297.536,156.839 297.394,156.842 297.253,156.853 297.112,156.872 296.973,156.898 296.835,156.931 296.699,156.972 296.566,157.021 296.435,157.076 296.308,157.139 296.184,157.208 296.064,157.284 295.949,157.366 295.838,157.455 295.732,157.549 295.631,157.649 295.536,157.754 295.447,157.864 295.363,157.979 295.286,158.098 295.216,158.221 295.152,158.348 295.096,158.478 295.046,158.611 295.004,158.747 294.969,158.884 294.942,159.023 294.942,159.023 294.922,159.164 294.91,159.305 294.906,159.447 294.909,159.589 294.92,159.73 294.939,159.871 294.965,160.01 294.998,160.148 295.039,160.284 295.088,160.417 295.143,160.548 295.206,160.675 295.275,160.799 295.351,160.919 295.433,161.034 295.522,161.145 295.616,161.251 295.716,161.352 295.821,161.447 295.931,161.537 296.046,161.62 296.165,161.697 296.288,161.767 296.415,161.831 296.545,161.887 296.678,161.937 296.814,161.979 296.951,162.014 297.09,162.041 297.09,162.041 297.231,162.061 297.372,162.073 297.514,162.077 297.656,162.074 297.797,162.063 297.938,162.045 298.077,162.019 298.215,161.985 298.351,161.944 298.484,161.895 298.615,161.84 298.742,161.777 298.866,161.708 298.986,161.632 299.101,161.55 299.212,161.462 299.318,161.367 299.419,161.267 299.514,161.162 299.604,161.052 299.687,160.937 299.764,160.818 299.834,160.695 299.898,160.568 299.954,160.438 300.004,160.305 300.046,160.169 300.081,160.032 300.108,159.893" fill="none" stroke="#ff0000" stroke-linejoin="round"/>
   <polyline stroke-width="0.5" stroke-linecap="butt" points="304.092,136.215 304.112,136.075 304.124,135.933 304.129,135.792 304.125,135.65 304.114,135.508 304.096,135.368 304.07,135.228 304.036,135.091 303.995,134.955 303.947,134.821 303.891,134.691 303.829,134.563 303.759,134.44 303.683,134.32 303.601,134.204 303.513,134.093 303.418,133.987 303.319,133.887 303.213,133.791 303.103,133.702 302.988,133.619 302.869,133.542 302.746,133.472 302.619,133.408 302.489,133.351 302.356,133.302 302.221,133.26 302.083,133.225 301.944,133.198 301.944,133.198 301.803,133.178 301.662,133.166 301.52,133.161 301.378,133.165 301.237,133.176 301.096,133.194 300.957,133.22 300.819,133.254 300.683,133.295 300.55,133.343 300.419,133.399 300.292,133.461 300.168,133.531 300.048,133.607 299.933,133.689 299.822,133.777 299.716,133.871 299.615,133.971 299.52,134.077 299.431,134.187 299.348,134.302 299.271,134.421 299.2,134.544 299.137,134.671 299.08,134.801 299.031,134.934 298.988,135.069 298.954,135.207 298.926,135.346 298.926,135.346 298.907,135.486 298.894,135.628 298.89,135.77 298.893,135.911 298.904,136.053 298.923,136.194 298.949,136.333 298.982,136.471 299.024,136.607 299.072,136.74 299.127,136.87 299.19,136.998 299.259,137.122 299.335,137.241 299.417,137.357 299.506,137.468 299.6,137.574 299.7,137.675 299.805,137.77 299.915,137.859 300.03,137.942 300.149,138.019 300.273,138.09 300.399,138.153 300.53,138.21 300.662,138.259 300.798,138.302 300.935,138.336 301.075,138.364 301.075,138.364 301.215,138.383 301.356,138.395 301.498,138.4 301.64,138.397 301.781,138.386 301.922,138.367 302.062,138.341 302.199,138.307 302.335,138.266 302.469,138.218 302.599,138.162 302.726,138.1 302.85,138.031 302.97,137.955 303.086,137.873 303.197,137.784 303.303,137.69 303.403,137.59 303.498,137.485 303.588,137.375 303.671,137.26 303.748,137.14 303.818,137.017 303.882,136.89 303.938,136.76 303.988,136.627 304.03,136.492 304.065,136.354 304.092,136.215" fill="none" stroke="#ff0000" stroke-linejoin="round"/>
   <polyline stroke-width="0.5" stroke-linecap="butt" points="305.713,134.477 305.896,134.173 306.105,133.886 306.337,133.618 306.591,133.37 306.865,133.145 307.158,132.945 307.466,132.77 307.789,132.622 308.122,132.502 308.465,132.41 308.814,132.349 309.168,132.317 309.522,132.316 309.876,132.345 310.226,132.403 310.569,132.492 310.904,132.609 311.228,132.755 311.537,132.927 311.832,133.126 312.108,133.348 312.364,133.594 312.598,133.86 312.809,134.146 312.994,134.448 313.154,134.765 313.285,135.094 313.388,135.434 313.462,135.781 305.274,184.439 305.091,184.743 304.882,185.03 304.65,185.298 304.396,185.546 304.122,185.771 303.829,185.971 303.521,186.146 303.198,186.295 302.865,186.415 302.522,186.506 302.172,186.567 301.819,186.599 301.464,186.6 301.111,186.572 300.761,186.513 300.418,186.424 300.083,186.307 299.759,186.161 299.449,185.989 299.155,185.79 298.879,185.568 298.623,185.322 298.389,185.056 298.178,184.771 297.993,184.468 297.833,184.151 297.702,183.822 297.599,183.483 297.525,183.136 305.713,134.477" fill="none" stroke="#ff0000" stroke-linejoin="round"/>
   <polyline stroke-width="0.5" stroke-linecap="butt" points="304.092,183.57 304.112,183.43 304.124,183.288 304.129,183.147 304.125,183.005 304.114,182.863 304.096,182.723 304.07,182.583 304.036,182.445 303.995,182.31 303.947,182.176 303.891,182.046 303.829,181.918 303.759,181.795 303.683,181.675 303.601,181.559 303.513,181.448 303.418,181.342 303.319,181.242 303.213,181.146 303.103,181.057 302.988,180.974 302.869,180.897 302.746,180.827 302.619,180.763 302.489,180.706 302.356,180.657 302.221,180.615 302.083,180.58 301.944,180.553 301.944,180.553 301.803,180.533 301.662,180.521 301.52,180.516 301.378,180.52 301.237,180.53 301.096,180.549 300.957,180.575 300.819,180.609 300.683,180.65 300.55,180.698 300.419,180.754 300.292,180.816 300.168,180.886 300.048,180.961 299.933,181.044 299.822,181.132 299.716,181.226 299.615,181.326 299.52,181.431 299.431,181.542 299.348,181.657 299.271,181.776 299.2,181.899 299.137,182.026 299.08,182.156 299.031,182.289 298.988,182.424 298.954,182.562 298.926,182.701 298.926,182.701 298.907,182.841 298.894,182.983 298.89,183.125 298.893,183.266 298.904,183.408 298.923,183.548 298.949,183.688 298.982,183.826 299.024,183.961 299.072,184.095 299.127,184.225 299.19,184.353 299.259,184.477 299.335,184.596 299.417,184.712 299.506,184.823 299.6,184.929 299.7,185.03 299.805,185.125 299.915,185.214 300.03,185.297 300.149,185.374 300.273,185.445 300.399,185.508 300.53,185.565 300.662,185.614 300.798,185.656 300.935,185.691 301.075,185.719 301.075,185.719 301.215,185.738 301.356,185.75 301.498,185.755 301.64,185.752 301.781,185.741 301.922,185.722 302.062,185.696 302.199,185.662 302.335,185.621 302.469,185.573 302.599,185.517 302.726,185.455 302.85,185.386 302.97,185.31 303.086,185.227 303.197,185.139 303.303,185.045 303.403,184.945 303.498,184.84 303.588,184.729 303.671,184.615 303.748,184.495 303.818,184.372 303.882,184.245 303.938,184.115 303.988,183.982 304.03,183.847 304.065,183.709 304.092,183.57" fill="none" stroke="#ff0000" stroke-linejoin="round"/>
   <polyline stroke-width="0.5" stroke-linecap="butt" points="308.076,159.893 308.096,159.752 308.108,159.611 308.113,159.469 308.109,159.327 308.099,159.186 308.08,159.045 308.054,158.906 308.02,158.768 307.979,158.632 307.931,158.499 307.875,158.368 307.813,158.241 307.743,158.117 307.668,157.997 307.585,157.882 307.497,157.771 307.403,157.665 307.303,157.564 307.198,157.469 307.087,157.38 306.973,157.296 306.853,157.219 306.73,157.149 306.603,157.086 306.473,157.029 306.34,156.979 306.205,156.937 306.067,156.902 305.928,156.875 305.928,156.875 305.788,156.855 305.646,156.843 305.504,156.839 305.363,156.842 305.221,156.853 305.081,156.872 304.941,156.898 304.803,156.931 304.668,156.972 304.534,157.021 304.404,157.076 304.276,157.139 304.153,157.208 304.033,157.284 303.917,157.366 303.806,157.455 303.7,157.549 303.599,157.649 303.504,157.754 303.415,157.864 303.332,157.979 303.255,158.098 303.184,158.221 303.121,158.348 303.064,158.478 303.015,158.611 302.973,158.747 302.938,158.884 302.91,159.023 302.91,159.023 302.891,159.164 302.879,159.305 302.874,159.447 302.877,159.589 302.888,159.73 302.907,159.871 302.933,160.01 302.967,160.148 303.008,160.284 303.056,160.417 303.112,160.548 303.174,160.675 303.243,160.799 303.319,160.919 303.402,161.034 303.49,161.145 303.584,161.251 303.684,161.352 303.789,161.447 303.9,161.537 304.014,161.62 304.134,161.697 304.257,161.767 304.384,161.831 304.514,161.887 304.647,161.937 304.782,161.979 304.92,162.014 305.059,162.041 305.059,162.041 305.199,162.061 305.341,162.073 305.482,162.077 305.624,162.074 305.766,162.063 305.906,162.045 306.046,162.019 306.184,161.985 306.319,161.944 306.453,161.895 306.583,161.84 306.711,161.777 306.834,161.708 306.954,161.632 307.07,161.55 307.181,161.462 307.287,161.367 307.387,161.267 307.483,161.162 307.572,161.052 307.655,160.937 307.732,160.818 307.802,160.695 307.866,160.568 307.923,160.438 307.972,160.305 308.014,160.169 308.049,160.032 308.076,159.893" fill="none" stroke="#ff0000" stroke-linejoin="round"/>
   <polyline stroke-width="0.5" stroke-linecap="butt" points="312.061,136.215 312.08,136.075 312.092,135.933 312.097,135.792 312.094,135.65 312.083,135.508 312.064,135.368 312.038,135.228 312.004,135.091 311.963,134.955 311.915,134.821 311.859,134.691 311.797,134.563 311.728,134.44 311.652,134.32 311.57,134.204 311.481,134.093 311.387,133.987 311.287,133.887 311.182,133.791 311.072,133.702 310.957,133.619 310.837,133.542 310.714,133.472 310.587,133.408 310.457,133.351 310.324,133.302 310.189,133.26 310.052,133.225 309.912,133.198 309.912,133.198 309.772,133.178 309.63,133.166 309.489,133.161 309.347,133.165 309.205,133.176 309.065,133.194 308.925,133.22 308.788,133.254 308.652,133.295 308.518,133.343 308.388,133.399 308.26,133.461 308.137,133.531 308.017,133.607 307.901,133.689 307.79,133.777 307.684,133.871 307.584,133.971 307.488,134.077 307.399,134.187 307.316,134.302 307.239,134.421 307.169,134.544 307.105,134.671 307.048,134.801 306.999,134.934 306.957,135.069 306.922,135.207 306.895,135.346 306.895,135.346 306.875,135.486 306.863,135.628 306.858,135.77 306.862,135.911 306.873,136.053 306.891,136.194 306.917,136.333 306.951,136.471 306.992,136.607 307.04,136.74 307.096,136.87 307.158,136.998 307.228,137.122 307.304,137.241 307.386,137.357 307.474,137.468 307.568,137.574 307.668,137.675 307.774,137.77 307.884,137.859 307.999,137.942 308.118,138.019 308.241,138.09 308.368,138.153 308.498,138.21 308.631,138.259 308.766,138.302 308.904,138.336 309.043,138.364 309.043,138.364 309.184,138.383 309.325,138.395 309.467,138.4 309.608,138.397 309.75,138.386 309.891,138.367 310.03,138.341 310.168,138.307 310.304,138.266 310.437,138.218 310.567,138.162 310.695,138.1 310.819,138.031 310.938,137.955 311.054,137.873 311.165,137.784 311.271,137.69 311.372,137.59 311.467,137.485 311.556,137.375 311.639,137.26 311.716,137.14 311.787,137.017 311.85,136.89 311.907,136.76 311.956,136.627 311.999,136.492 312.033,136.354 312.061,136.215" fill="none" stroke="#ff0000" stroke-linejoin="round"/>
   <polyline stroke-width="0.5" stroke-linecap="butt" points="313.681,134.477 313.865,134.173 314.073,133.886 314.305,133.618 314.559,133.37 314.834,133.145 315.126,132.945 315.435,132.77 315.757,132.622 316.091,132.502 316.434,132.41 316.783,132.349 317.136,132.317 317.491,132.316 317.844,132.345 318.194,132.403 318.538,132.492 318.872,132.609 319.196,132.755 319.506,132.927 319.8,133.126 320.076,133.348 320.332,133.594 320.566,133.86 320.777,134.146 320.963,134.448 321.122,134.765 321.253,135.094 321.357,135.434 321.43,135.781 313.242,184.439 313.059,184.743 312.851,185.03 312.619,185.298 312.364,185.546 312.09,185.771 311.798,185.971 311.489,186.146 311.167,186.295 310.833,186.415 310.49,186.506 310.141,186.567 309.788,186.599 309.433,186.6 309.079,186.572 308.73,186.513 308.386,186.424 308.051,186.307 307.728,186.161 307.418,185.989 307.124,185.79 306.848,185.568 306.592,185.322 306.357,185.056 306.147,184.771 305.961,184.468 305.802,184.151 305.67,183.822 305.567,183.483 305.493,183.136 313.681,134.477" fill="none" stroke="#ff0000" stroke-linejoin="round"/>
   <polyline stroke-width="0.5" stroke-linecap="butt" points="312.061,183.57 312.08,183.43 312.092,183.288 312.097,183.147 312.094,183.005 312.083,182.863 312.064,182.723 312.038,182.583 312.004,182.445 311.963,182.31 311.915,182.176 311.859,182.046 311.797,181.918 311.728,181.795 311.652,181.675 311.57,181.559 311.481,181.448 311.387,181.342 311.287,181.242 311.182,181.146 311.072,181.057 310.957,180.974 310.837,180.897 310.714,180.827 310.587,180.763 310.457,180.706 310.324,180.657 310.189,180.615 310.052,180.58 309.912,180.553 309.912,180.553 309.772,180.533 309.63,180.521 309.489,180.516 309.347,180.52 309.205,180.53 309.065,180.549 308.925,180.575 308.788,180.609 308.652,180.65 308.518,180.698 308.388,180.754 308.26,180.816 308.137,180.886 308.017,180.961 307.901,181.044 307.79,181.132 307.684,181.226 307.584,181.326 307.488,181.431 307.399,181.542 307.316,181.657 307.239,181.776 307.169,181.899 307.105,182.026 307.048,182.156 306.999,182.289 306.957,182.424 306.922,182.562 306.895,182.701 306.895,182.701 306.875,182.841 306.863,182.983 306.858,183.125 306.862,183.266 306.873,183.408 306.891,183.548 306.917,183.688 306.951,183.826 306.992,183.961 307.04,184.095 307.096,184.225 307.158,184.353 307.228,184.477 307.304,184.596 307.386,184.712 307.474,184.823 307.568,184.929 307.668,185.03 307.774,185.125 307.884,185.214 307.999,185.297 308.118,185.374 308.241,185.445 308.368,185.508 308.498,185.565 308.631,185.614 308.766,185.656 308.904,185.691 309.043,185.719 309.043,185.719 309.184,185.738 309.325,185.75 309.467,185.755 309.608,185.752 309.75,185.741 309.891,185.722 310.03,185.696 310.168,185.662 310.304,185.621 310.437,185.573 310.567,185.517 310.695,185.455 310.819,185.386 310.938,185.31 311.054,185.227 311.165,185.139 311.271,185.045 311.372,184.945 311.467,184.84 311.556,184.729 311.639,184.615 311.716,184.495 311.787,184.372 311.85,184.245 311.907,184.115 311.956,183.982 311.999,183.847 312.033,183.709 312.061,183.57" fill="none" stroke="#ff0000" stroke-linejoin="round"/>
   <polyline stroke-width="0.5" stroke-linecap="butt" points="316.045,159.893 316.065,159.752 316.077,159.611 316.081,159.469 316.078,159.327 316.067,159.186 316.048,159.045 316.022,158.906 315.989,158.768 315.948,158.632 315.899,158.499 315.844,158.368 315.781,158.241 315.712,158.117 315.636,157.997 315.554,157.882 315.465,157.771 315.371,157.665 315.271,157.564 315.166,157.469 315.056,157.38 314.941,157.296 314.822,157.219 314.698,157.149 314.572,157.086 314.442,157.029 314.309,156.979 314.173,156.937 314.036,156.902 313.896,156.875 313.896,156.875 313.756,156.855 313.615,156.843 313.473,156.839 313.331,156.842 313.19,156.853 313.049,156.872 312.91,156.898 312.772,156.931 312.636,156.972 312.503,157.021 312.372,157.076 312.245,157.139 312.121,157.208 312.001,157.284 311.886,157.366 311.775,157.455 311.669,157.549 311.568,157.649 311.473,157.754 311.383,157.864 311.3,157.979 311.223,158.098 311.153,158.221 311.089,158.348 311.033,158.478 310.983,158.611 310.941,158.747 310.906,158.884 310.879,159.023 310.879,159.023 310.859,159.164 310.847,159.305 310.843,159.447 310.846,159.589 310.857,159.73 310.875,159.871 310.901,160.01 310.935,160.148 310.976,160.284 311.025,160.417 311.08,160.548 311.143,160.675 311.212,160.799 311.288,160.919 311.37,161.034 311.458,161.145 311.553,161.251 311.653,161.352 311.758,161.447 311.868,161.537 311.983,161.62 312.102,161.697 312.225,161.767 312.352,161.831 312.482,161.887 312.615,161.937 312.75,161.979 312.888,162.014 313.027,162.041 313.027,162.041 313.168,162.061 313.309,162.073 313.451,162.077 313.593,162.074 313.734,162.063 313.875,162.045 314.014,162.019 314.152,161.985 314.288,161.944 314.421,161.895 314.552,161.84 314.679,161.777 314.803,161.708 314.923,161.632 315.038,161.55 315.149,161.462 315.255,161.367 315.356,161.267 315.451,161.162 315.54,161.052 315.624,160.937 315.701,160.818 315.771,160.695 315.834,160.568 315.891,160.438 315.941,160.305 315.983,160.169 316.018,160.032 316.045,159.893" fill="none" stroke="#ff0000" stroke-linejoin="round"/>
   <polyline stroke-width="0.5" stroke-linecap="butt" points="320.029,136.215 320.049,136.075 320.061,135.933 320.065,135.792 320.062,135.65 320.051,135.508 320.033,135.368 320.006,135.228 319.973,135.091 319.932,134.955 319.883,134.821 319.828,134.691 319.765,134.563 319.696,134.44 319.62,134.32 319.538,134.204 319.45,134.093 319.355,133.987 319.255,133.887 319.15,133.791 319.04,133.702 318.925,133.619 318.806,133.542 318.683,133.472 318.556,133.408 318.426,133.351 318.293,133.302 318.157,133.26 318.02,133.225 317.881,133.198 317.881,133.198 317.74,133.178 317.599,133.166 317.457,133.161 317.315,133.165 317.174,133.176 317.033,133.194 316.894,133.22 316.756,133.254 316.62,133.295 316.487,133.343 316.356,133.399 316.229,133.461 316.105,133.531 315.985,133.607 315.87,133.689 315.759,133.777 315.653,133.871 315.552,133.971 315.457,134.077 315.368,134.187 315.284,134.302 315.207,134.421 315.137,134.544 315.073,134.671 315.017,134.801 314.967,134.934 314.925,135.069 314.89,135.207 314.863,135.346 314.863,135.346 314.843,135.486 314.831,135.628 314.827,135.77 314.83,135.911 314.841,136.053 314.859,136.194 314.886,136.333 314.919,136.471 314.96,136.607 315.009,136.74 315.064,136.87 315.127,136.998 315.196,137.122 315.272,137.241 315.354,137.357 315.443,137.468 315.537,137.574 315.637,137.675 315.742,137.77 315.852,137.859 315.967,137.942 316.086,138.019 316.209,138.09 316.336,138.153 316.466,138.21 316.599,138.259 316.735,138.302 316.872,138.336 317.011,138.364 317.011,138.364 317.152,138.383 317.293,138.395 317.435,138.4 317.577,138.397 317.718,138.386 317.859,138.367 317.998,138.341 318.136,138.307 318.272,138.266 318.405,138.218 318.536,138.162 318.663,138.1 318.787,138.031 318.907,137.955 319.022,137.873 319.133,137.784 319.239,137.69 319.34,137.59 319.435,137.485 319.525,137.375 319.608,137.26 319.685,137.14 319.755,137.017 319.819,136.89 319.875,136.76 319.925,136.627 319.967,136.492 320.002,136.354 320.029,136.215" fill="none" stroke="#ff0000" stroke-linejoin="round"/>
   <polyline stroke-width="0.5" stroke-linecap="butt" points="321.65,134.477 321.833,134.173 322.041,133.886 322.273,133.618 322.528,133.37 322.802,133.145 323.094,132.945 323.403,132.77 323.725,132.622 324.059,132.502 324.402,132.41 324.751,132.349 325.105,132.317 325.459,132.316 325.813,132.345 326.163,132.403 326.506,132.492 326.841,132.609 327.164,132.755 327.474,132.927 327.768,133.126 328.044,133.348 328.301,133.594 328.535,133.86 328.745,134.146 328.931,134.448 329.09,134.765 329.222,135.094 329.325,135.434 329.399,135.781 321.211,184.439 321.028,184.743 320.819,185.03 320.587,185.298 320.333,185.546 320.059,185.771 319.766,185.971 319.458,186.146 319.135,186.295 318.801,186.415 318.459,186.506 318.109,186.567 317.756,186.599 317.401,186.6 317.048,186.572 316.698,186.513 316.354,186.424 316.02,186.307 315.696,186.161 315.386,185.989 315.092,185.79 314.816,185.568 314.56,185.322 314.326,185.056 314.115,184.771 313.929,184.468 313.77,184.151 313.639,183.822 313.536,183.483 313.462,183.136 321.65,134.477" fill="none" stroke="#ff0000" stroke-linejoin="round"/>
   <polyline stroke-width="0.5" stroke-linecap="butt" points="320.029,183.57 320.049,183.43 320.061,183.288 320.065,183.147 320.062,183.005 320.051,182.863 320.033,182.723 320.006,182.583 319.973,182.445 319.932,182.31 319.883,182.176 319.828,182.046 319.765,181.918 319.696,181.795 319.62,181.675 319.538,181.559 319.45,181.448 319.355,181.342 319.255,181.242 319.15,181.146 319.04,181.057 318.925,180.974 318.806,180.897 318.683,180.827 318.556,180.763 318.426,180.706 318.293,180.657 318.157,180.615 318.02,180.58 317.881,180.553 317.881,180.553 317.74,180.533 317.599,180.521 317.457,180.516 317.315,180.52 317.174,180.53 317.033,180.549 316.894,180.575 316.756,180.609 316.62,180.65 316.487,180.698 316.356,180.754 316.229,180.816 316.105,180.886 315.985,180.961 315.87,181.044 315.759,181.132 315.653,181.226 315.552,181.326 315.457,181.431 315.368,181.542 315.284,181.657 315.207,181.776 315.137,181.899 315.073,182.026 315.017,182.156 314.967,182.289 314.925,182.424 314.89,182.562 314.863,182.701 314.863,182.701 314.843,182.841 314.831,182.983 314.827,183.125 314.83,183.266 314.841,183.408 314.859,183.548 314.886,183.688 314.919,183.826 314.96,183.961 315.009,184.095 315.064,184.225 315.127,184.353 315.196,184.477 315.272,184.596 315.354,184.712 315.443,184.823 315.537,184.929 315.637,185.03 315.742,185.125 315.852,185.214 315.967,185.297 316.086,185.374 316.209,185.445 316.336,185.508 316.466,185.565 316.599,185.614 316.735,185.656 316.872,185.691 317.011,185.719 317.011,185.719 317.152,185.738 317.293,185.75 317.435,185.755 317.577,185.752 317.718,185.741 317.859,185.722 317.998,185.696 318.136,185.662 318.272,185.621 318.405,185.573 318.536,185.517 318.663,185.455 318.787,185.386 318.907,185.31 319.022,185.227 319.133,185.139 319.239,185.045 319.34,184.945 319.435,184.84 319.525,184.729 319.608,184.615 319.685,184.495 319.755,184.372 319.819,184.245 319.875,184.115 319.925,183.982 319.967,183.847 320.002,183.709 320.029,183.57" fill="none" stroke="#ff0000" stroke-linejoin="round"/>
   <polyline stroke-width="0.5" stroke-linecap="butt" points="324.013,159.893 324.033,159.752 324.045,159.611 324.05,159.469 324.046,159.327 324.035,159.186 324.017,159.045 323.991,158.906 323.957,158.768 323.916,158.632 323.868,158.499 323.812,158.368 323.75,158.241 323.68,158.117 323.604,157.997 323.522,157.882 323.434,157.771 323.339,157.665 323.24,157.564 323.134,157.469 323.024,157.38 322.909,157.296 322.79,157.219 322.667,157.149 322.54,157.086 322.41,157.029 322.277,156.979 322.142,156.937 322.004,156.902 321.865,156.875 321.865,156.875 321.724,156.855 321.583,156.843 321.441,156.839 321.299,156.842 321.158,156.853 321.017,156.872 320.878,156.898 320.74,156.931 320.604,156.972 320.471,157.021 320.34,157.076 320.213,157.139 320.089,157.208 319.969,157.284 319.854,157.366 319.743,157.455 319.637,157.549 319.536,157.649 319.441,157.754 319.352,157.864 319.268,157.979 319.192,158.098 319.121,158.221 319.058,158.348 319.001,158.478 318.952,158.611 318.909,158.747 318.875,158.884 318.847,159.023 318.847,159.023 318.828,159.164 318.815,159.305 318.811,159.447 318.814,159.589 318.825,159.73 318.844,159.871 318.87,160.01 318.904,160.148 318.945,160.284 318.993,160.417 319.048,160.548 319.111,160.675 319.18,160.799 319.256,160.919 319.338,161.034 319.427,161.145 319.521,161.251 319.621,161.352 319.726,161.447 319.836,161.537 319.951,161.62 320.07,161.697 320.194,161.767 320.32,161.831 320.451,161.887 320.583,161.937 320.719,161.979 320.856,162.014 320.996,162.041 320.996,162.041 321.136,162.061 321.277,162.073 321.419,162.077 321.561,162.074 321.702,162.063 321.843,162.045 321.983,162.019 322.12,161.985 322.256,161.944 322.389,161.895 322.52,161.84 322.647,161.777 322.771,161.708 322.891,161.632 323.007,161.55 323.118,161.462 323.224,161.367 323.324,161.267 323.419,161.162 323.509,161.052 323.592,160.937 323.669,160.818 323.739,160.695 323.803,160.568 323.859,160.438 323.909,160.305 323.951,160.169 323.986,160.032 324.013,159.893" fill="none" stroke="#ff0000" stroke-linejoin="round"/>
   <polyline stroke-width="0.5" stroke-linecap="butt" points="327.997,136.215 328.017,136.075 328.029,135.933 328.034,135.792 328.03,135.65 328.02,135.508 328.001,135.368 327.975,135.228 327.941,135.091 327.9,134.955 327.852,134.821 327.796,134.691 327.734,134.563 327.664,134.44 327.589,134.32 327.506,134.204 327.418,134.093 327.324,133.987 327.224,133.887 327.119,133.791 327.008,133.702 326.893,133.619 326.774,133.542 326.651,133.472 326.524,133.408 326.394,133.351 326.261,133.302 326.126,133.26 325.988,133.225 325.849,133.198 325.849,133.198 325.709,133.178 325.567,133.166 325.425,133.161 325.284,133.165 325.142,133.176 325.002,133.194 324.862,133.22 324.724,133.254 324.589,133.295 324.455,133.343 324.325,133.399 324.197,133.461 324.074,133.531 323.954,133.607 323.838,133.689 323.727,133.777 323.621,133.871 323.52,133.971 323.425,134.077 323.336,134.187 323.253,134.302 323.176,134.421 323.105,134.544 323.042,134.671 322.985,134.801 322.936,134.934 322.894,135.069 322.859,135.207 322.831,135.346 322.831,135.346 322.812,135.486 322.8,135.628 322.795,135.77 322.798,135.911 322.809,136.053 322.828,136.194 322.854,136.333 322.888,136.471 322.929,136.607 322.977,136.74 323.033,136.87 323.095,136.998 323.164,137.122 323.24,137.241 323.323,137.357 323.411,137.468 323.505,137.574 323.605,137.675 323.71,137.77 323.821,137.859 323.935,137.942 324.055,138.019 324.178,138.09 324.305,138.153 324.435,138.21 324.568,138.259 324.703,138.302 324.841,138.336 324.98,138.364 324.98,138.364 325.12,138.383 325.262,138.395 325.403,138.4 325.545,138.397 325.687,138.386 325.827,138.367 325.967,138.341 326.105,138.307 326.24,138.266 326.374,138.218 326.504,138.162 326.632,138.1 326.755,138.031 326.875,137.955 326.991,137.873 327.102,137.784 327.208,137.69 327.308,137.59 327.404,137.485 327.493,137.375 327.576,137.26 327.653,137.14 327.723,137.017 327.787,136.89 327.844,136.76 327.893,136.627 327.935,136.492 327.97,136.354 327.997,136.215" fill="none" stroke="#ff0000" stroke-linejoin="round"/>
   <polyline stroke-width="0.5" stroke-linecap="butt" points="346.68,142.332 351.237,148.734 332.871,162.502 329.179,184.439 328.996,184.743 328.788,185.03 328.555,185.298 328.301,185.546 328.027,185.771 327.734,185.971 327.426,186.146 327.104,186.295 326.77,186.415 326.427,186.506 326.078,186.567 325.724,186.599 325.37,186.6 325.016,186.572 324.666,186.513 324.323,186.424 323.988,186.307 323.665,186.161 323.355,185.989 323.061,185.79 322.785,185.568 322.528,185.322 322.294,185.056 322.083,184.771 321.898,184.468 321.739,184.151 321.607,183.822 321.504,183.483 321.43,183.136 325.524,158.806 325.543,158.701 325.565,158.597 325.59,158.494 325.617,158.391 325.648,158.289 325.681,158.188 325.716,158.088 325.755,157.988 325.796,157.89 325.84,157.793 325.886,157.698 325.935,157.603 325.987,157.51 326.041,157.418 326.097,157.328 326.156,157.24 326.217,157.153 326.281,157.067 326.347,156.984 326.415,156.902 326.485,156.822 326.558,156.744 326.632,156.668 326.709,156.594 326.787,156.523 326.868,156.453 326.95,156.385 327.034,156.32 327.12,156.257 346.68,142.332" fill="none" stroke="#ff0000" stroke-linejoin="round"/>
   <polyline stroke-width="0.5" stroke-linecap="butt" points="331.982,159.893 332.001,159.752 332.013,159.611 332.018,159.469 332.015,159.327 332.004,159.186 331.985,159.045 331.959,158.906 331.925,158.768 331.884,158.632 331.836,158.499 331.78,158.368 331.718,158.241 331.649,158.117 331.573,157.997 331.491,157.882 331.402,157.771 331.308,157.665 331.208,157.564 331.103,157.469 330.993,157.38 330.878,157.296 330.758,157.219 330.635,157.149 330.508,157.086 330.378,157.029 330.245,156.979 330.11,156.937 329.973,156.902 329.833,156.875 329.833,156.875 329.693,156.855 329.551,156.843 329.41,156.839 329.268,156.842 329.126,156.853 328.986,156.872 328.846,156.898 328.709,156.931 328.573,156.972 328.439,157.021 328.309,157.076 328.182,157.139 328.058,157.208 327.938,157.284 327.822,157.366 327.711,157.455 327.605,157.549 327.505,157.649 327.409,157.754 327.32,157.864 327.237,157.979 327.16,158.098 327.09,158.221 327.026,158.348 326.969,158.478 326.92,158.611 326.878,158.747 326.843,158.884 326.816,159.023 326.816,159.023 326.796,159.164 326.784,159.305 326.779,159.447 326.783,159.589 326.794,159.73 326.812,159.871 326.838,160.01 326.872,160.148 326.913,160.284 326.961,160.417 327.017,160.548 327.079,160.675 327.149,160.799 327.225,160.919 327.307,161.034 327.395,161.145 327.489,161.251 327.589,161.352 327.695,161.447 327.805,161.537 327.92,161.62 328.039,161.697 328.162,161.767 328.289,161.831 328.419,161.887 328.552,161.937 328.687,161.979 328.825,162.014 328.964,162.041 328.964,162.041 329.104,162.061 329.246,162.073 329.388,162.077 329.529,162.074 329.671,162.063 329.812,162.045 329.951,162.019 330.089,161.985 330.225,161.944 330.358,161.895 330.488,161.84 330.616,161.777 330.74,161.708 330.859,161.632 330.975,161.55 331.086,161.462 331.192,161.367 331.293,161.267 331.388,161.162 331.477,161.052 331.56,160.937 331.637,160.818 331.708,160.695 331.771,160.568 331.828,160.438 331.877,160.305 331.92,160.169 331.954,160.032 331.982,159.893" fill="none" stroke="#ff0000" stroke-linejoin="round"/>
   <polyline stroke-width="0.5" stroke-linecap="butt" points="327.997,183.57 328.017,183.43 328.029,183.288 328.034,183.147 328.03,183.005 328.02,182.863 328.001,182.723 327.975,182.583 327.941,182.445 327.9,182.31 327.852,182.176 327.796,182.046 327.734,181.918 327.664,181.795 327.589,181.675 327.506,181.559 327.418,181.448 327.324,181.342 327.224,181.242 327.119,181.146 327.008,181.057 326.893,180.974 326.774,180.897 326.651,180.827 326.524,180.763 326.394,180.706 326.261,180.657 326.126,180.615 325.988,180.58 325.849,180.553 325.849,180.553 325.709,180.533 325.567,180.521 325.425,180.516 325.284,180.52 325.142,180.53 325.002,180.549 324.862,180.575 324.724,180.609 324.589,180.65 324.455,180.698 324.325,180.754 324.197,180.816 324.074,180.886 323.954,180.961 323.838,181.044 323.727,181.132 323.621,181.226 323.52,181.326 323.425,181.431 323.336,181.542 323.253,181.657 323.176,181.776 323.105,181.899 323.042,182.026 322.985,182.156 322.936,182.289 322.894,182.424 322.859,182.562 322.831,182.701 322.831,182.701 322.812,182.841 322.8,182.983 322.795,183.125 322.798,183.266 322.809,183.408 322.828,183.548 322.854,183.688 322.888,183.826 322.929,183.961 322.977,184.095 323.033,184.225 323.095,184.353 323.164,184.477 323.24,184.596 323.323,184.712 323.411,184.823 323.505,184.929 323.605,185.03 323.71,185.125 323.821,185.214 323.935,185.297 324.055,185.374 324.178,185.445 324.305,185.508 324.435,185.565 324.568,185.614 324.703,185.656 324.841,185.691 324.98,185.719 324.98,185.719 325.12,185.738 325.262,185.75 325.403,185.755 325.545,185.752 325.687,185.741 325.827,185.722 325.967,185.696 326.105,185.662 326.24,185.621 326.374,185.573 326.504,185.517 326.632,185.455 326.755,185.386 326.875,185.31 326.991,185.227 327.102,185.139 327.208,185.045 327.308,184.945 327.404,184.84 327.493,184.729 327.576,184.615 327.653,184.495 327.723,184.372 327.787,184.245 327.844,184.115 327.893,183.982 327.935,183.847 327.97,183.709 327.997,183.57" fill="none" stroke="#ff0000" stroke-linejoin="round"/>
   <polyline stroke-width="0.5" stroke-linecap="butt" points="333.383,36.329 269.828,36.329 269.615,36.332 269.403,36.3409 269.193,36.3559 268.984,36.3766 268.777,36.4033 268.574,36.4358 268.374,36.4739 268.178,36.5176 267.988,36.5667 267.803,36.6211 267.623,36.6806 267.45,36.7451 267.285,36.8143 267.126,36.8882 266.976,36.9663 266.834,37.0485 266.7,37.1347 266.576,37.2245 266.462,37.3176 266.357,37.4138 266.262,37.5128 266.178,37.6143 266.105,37.7181 266.042,37.8237 265.991,37.931 265.951,38.0396 265.922,38.1491 265.905,38.2592 265.899,38.3698 265.899,38.3698 265.893,38.4802 265.876,38.5904 265.847,38.6999 265.807,38.8084 265.756,38.9157 265.694,39.0213 265.62,39.1251 265.536,39.2266 265.442,39.3256 265.337,39.4218 265.222,39.515 265.098,39.6047 264.965,39.6909 264.823,39.7732 264.672,39.8513 264.514,39.9251 264.348,39.9944 264.175,40.0589 263.996,40.1184 263.811,40.1728 263.62,40.2219 263.424,40.2656 263.225,40.3037 263.021,40.3361 262.815,40.3628 262.606,40.3836 262.395,40.3985 262.183,40.4075 261.97,40.4105 261.97,32.4 333.383,32.4 333.383,36.329" fill="none" stroke="#0000ff" stroke-linejoin="round"/>
   <polyline stroke-width="0.5" stroke-linecap="butt" points="333.383,90.5046 269.828,90.5046 269.615,90.5016 269.403,90.4926 269.193,90.4777 268.984,90.4568 268.777,90.4302 268.574,90.3978 268.374,90.3596 268.178,90.3159 267.988,90.2668 267.803,90.2125 267.623,90.1529 267.45,90.0884 267.285,90.0192 267.126,89.9454 266.976,89.8672 266.834,89.785 266.7,89.6988 266.576,89.6091 266.462,89.5159 266.357,89.4197 266.262,89.3207 266.178,89.2192 266.105,89.1154 266.042,89.0098 265.991,88.9025 265.951,88.7939 265.922,88.6844 265.905,88.5743 265.899,88.4638 265.899,88.4638 265.893,88.3533 265.876,88.2432 265.847,88.1337 265.807,88.0251 265.756,87.9178 265.694,87.8122 265.62,87.7084 265.536,87.6069 265.442,87.5079 265.337,87.4117 265.222,87.3185 265.098,87.2288 264.965,87.1426 264.823,87.0604 264.672,86.9822 264.514,86.9084 264.348,86.8392 264.175,86.7747 263.996,86.7151 263.811,86.6608 263.62,86.6116 263.424,86.568 263.225,86.5298 263.021,86.4974 262.815,86.4707 262.606,86.4499 262.395,86.435 262.183,86.426 261.97,86.423 261.97,94.4335 333.383,94.4335 333.383,90.5046" fill="none" stroke="#0000ff" stroke-linejoin="round"/>
   <polyline stroke-width="0.5" stroke-linecap="butt" points="297.744,38.4354 293.596,63.4167 297.744,38.4354 297.744,36.329 293.596,36.329 293.383,36.332 293.171,36.3409 292.96,36.3559 292.751,36.3766 292.545,36.4033 292.342,36.4358 292.142,36.4739 291.946,36.5176 291.756,36.5667 291.57,36.6211 291.391,36.6806 291.218,36.7451 291.053,36.8143 290.894,36.8882 290.744,36.9663 290.602,37.0485 290.468,37.1347 290.344,37.2245 290.23,37.3176 290.125,37.4138 290.03,37.5128 289.946,37.6143 289.873,37.7181 289.81,37.8237 289.759,37.931 289.719,38.0396 289.69,38.1491 289.673,38.2592 289.667,38.3698 289.667,38.3698 289.661,38.4802 289.644,38.5904 289.615,38.6999 289.575,38.8084 289.524,38.9157 289.461,39.0213 289.388,39.1251 289.304,39.2266 289.209,39.3256 289.105,39.4218 288.99,39.515 288.866,39.6047 288.733,39.6909 288.591,39.7732 288.44,39.8513 288.282,39.9251 288.116,39.9944 287.943,40.0589 287.764,40.1184 287.579,40.1728 287.388,40.2219 287.192,40.2656 286.993,40.3037 286.789,40.3361 286.583,40.3628 286.374,40.3836 286.163,40.3985 285.951,40.4075 285.738,40.4105 247.695,40.4105 247.545,40.4146 247.395,40.4267 247.247,40.447 247.099,40.4753 246.953,40.5115 246.81,40.5556 246.669,40.6074 246.531,40.6667 246.397,40.7334 246.266,40.8073 246.139,40.8882 246.017,40.9758 245.9,41.0698 245.789,41.17 245.682,41.2762 245.582,41.388 245.488,41.505 245.401,41.6269 245.32,41.7534 245.246,41.8841 245.179,42.0186 245.12,42.1566 245.068,42.2975 245.024,42.441 244.988,42.5867 244.959,42.7341 244.939,42.8829 244.927,43.0325 244.923,43.1826 244.923,83.6509 244.927,83.801 244.939,83.9506 244.959,84.0994 244.988,84.2469 245.024,84.3925 245.068,84.5361 245.12,84.677 245.179,84.8149 245.246,84.9494 245.32,85.0801 245.401,85.2066 245.488,85.3286 245.582,85.4456 245.682,85.5573 245.789,85.6635 245.9,85.7637 246.017,85.8578 246.139,85.9454 246.266,86.0262 246.397,86.1001 246.531,86.1668 246.669,86.2261 246.81,86.2779 246.953,86.322 247.099,86.3582 247.247,86.3865 247.395,86.4068 247.545,86.4189 247.695,86.423 285.738,86.423 285.951,86.426 286.163,86.435 286.374,86.4499 286.583,86.4707 286.789,86.4974 286.993,86.5298 287.192,86.568 287.388,86.6116 287.579,86.6608 287.764,86.7151 287.943,86.7747 288.116,86.8392 288.282,86.9084 288.44,86.9822 288.591,87.0604 288.733,87.1426 288.866,87.2288 288.99,87.3185 289.105,87.4117 289.209,87.5079 289.304,87.6069 289.388,87.7084 289.461,87.8122 289.524,87.9178 289.575,88.0251 289.615,88.1337 289.644,88.2432 289.661,88.3533 289.667,88.4638 289.667,88.4638 289.673,88.5743 289.69,88.6844 289.719,88.7939 289.759,88.9025 289.81,89.0098 289.873,89.1154 289.946,89.2192 290.03,89.3207 290.125,89.4197 290.23,89.5159 290.344,89.6091 290.468,89.6988 290.602,89.785 290.744,89.8672 290.894,89.9454 291.053,90.0192 291.218,90.0884 291.391,90.1529 291.57,90.2125 291.756,90.2668 291.946,90.3159 292.142,90.3596 292.342,90.3978 292.545,90.4302 292.751,90.4568 292.96,90.4777 293.171,90.4926 293.383,90.5016 293.596,90.5046 297.744,90.5046 297.744,88.3981 293.596,63.4167 297.744,88.3981" fill="none" stroke="#0000ff" stroke-linejoin="round"/>
   <polyline stroke-width="0.5" stroke-linecap="butt" points="250.467,45.9547 285.738,45.9547 285.738,80.8788 250.467,80.8788 250.467,45.9547" fill="none" stroke="#0000ff" stroke-linejoin="round"/>
   <polyline stroke-width="0.5" stroke-linecap="butt" points="305.493,39.7393 305.42,39.3923 305.317,39.0529 305.185,38.7235 305.026,38.4065 304.84,38.1042 304.63,37.8189 304.395,37.5526 304.139,37.3071 303.863,37.0844 303.569,36.8861 303.259,36.7135 302.936,36.568 302.601,36.4506 302.257,36.3621 301.908,36.3033 301.554,36.2744 301.199,36.2758 300.846,36.3075 300.497,36.3691 300.154,36.4603 299.82,36.5804 299.498,36.7285 299.189,36.9034 298.897,37.1041 298.622,37.329 298.368,37.5764 298.136,37.8446 297.928,38.1316 297.744,38.4354 293.651,62.7648 293.621,62.9755 293.603,63.1875 293.596,63.4002 293.601,63.6129 293.617,63.8251 293.645,64.0361 293.684,64.2452 293.735,64.4519 293.797,64.6556 293.869,64.8556 293.952,65.0515 294.046,65.2425 294.15,65.4282 294.264,65.608 294.387,65.7813 294.52,65.9477 294.661,66.1067 294.811,66.2578 294.969,66.4005 295.134,66.5345 295.306,66.6594 295.485,66.7748 295.67,66.8803 295.86,66.9756 296.055,67.0605 296.255,67.1347 296.458,67.1981 296.664,67.2503 296.873,67.2913 296.873,67.2913 297.084,67.3209 297.296,67.3391 297.509,67.3457 297.721,67.3408 297.933,67.3245 298.144,67.2966 298.354,67.2574 298.56,67.2069 298.764,67.1453 298.964,67.0728 299.16,66.9895 299.351,66.8958 299.536,66.7918 299.716,66.678 299.89,66.5546 300.056,66.4219 300.215,66.2805 300.366,66.1307 300.509,65.9729 300.643,65.8076 300.768,65.6353 300.883,65.4565 300.989,65.2717 301.084,65.0815 301.169,64.8864 301.243,64.687 301.306,64.4838 301.359,64.2775 301.4,64.0687 305.493,39.7393" fill="none" stroke="#0000ff" stroke-linejoin="round"/>
   <polyline stroke-width="0.5" stroke-linecap="butt" points="298.817,63.6341 298.826,63.5638 298.832,63.4932 298.835,63.4223 298.833,63.3514 298.828,63.2806 298.818,63.2103 298.805,63.1406 298.788,63.0717 298.768,63.0038 298.744,62.9371 298.716,62.8719 298.685,62.8082 298.65,62.7463 298.612,62.6863 298.571,62.6286 298.527,62.5731 298.48,62.5201 298.43,62.4698 298.377,62.4222 298.322,62.3775 298.265,62.3359 298.205,62.2974 298.143,62.2623 298.08,62.2305 298.015,62.2022 297.948,62.1774 297.881,62.1563 297.812,62.1389 297.742,62.1253 297.742,62.1253 297.672,62.1154 297.601,62.1093 297.531,62.1071 297.46,62.1087 297.389,62.1142 297.319,62.1235 297.249,62.1365 297.18,62.1534 297.112,62.1739 297.045,62.1981 296.98,62.2258 296.916,62.2571 296.855,62.2917 296.795,62.3297 296.737,62.3708 296.681,62.415 296.628,62.4622 296.578,62.5121 296.53,62.5647 296.486,62.6198 296.444,62.6772 296.406,62.7368 296.371,62.7985 296.339,62.8619 296.31,62.9269 296.286,62.9934 296.265,63.0611 296.247,63.1298 296.234,63.1994 296.234,63.1994 296.224,63.2697 296.218,63.3404 296.215,63.4113 296.217,63.4822 296.223,63.5529 296.232,63.6232 296.245,63.6929 296.262,63.7618 296.282,63.8297 296.306,63.8964 296.334,63.9617 296.365,64.0253 296.4,64.0872 296.438,64.1472 296.479,64.2049 296.523,64.2604 296.57,64.3134 296.62,64.3638 296.673,64.4113 296.728,64.456 296.786,64.4977 296.845,64.5361 296.907,64.5713 296.97,64.603 297.035,64.6313 297.102,64.6561 297.169,64.6772 297.238,64.6946 297.308,64.7083 297.308,64.7083 297.378,64.7181 297.449,64.7242 297.52,64.7264 297.59,64.7248 297.661,64.7193 297.732,64.71 297.801,64.697 297.87,64.6801 297.938,64.6596 298.005,64.6354 298.07,64.6077 298.134,64.5764 298.196,64.5418 298.255,64.5038 298.313,64.4627 298.369,64.4185 298.422,64.3713 298.472,64.3214 298.52,64.2688 298.564,64.2137 298.606,64.1563 298.644,64.0967 298.68,64.0351 298.711,63.9717 298.74,63.9066 298.764,63.8401 298.785,63.7725 298.803,63.7037 298.817,63.6341" fill="none" stroke="#0000ff" stroke-linejoin="round"/>
   <polyline stroke-width="0.5" stroke-linecap="butt" points="302.801,39.9566 302.811,39.8864 302.817,39.8157 302.819,39.7448 302.817,39.6739 302.812,39.6031 302.803,39.5329 302.789,39.4631 302.773,39.3942 302.752,39.3264 302.728,39.2597 302.7,39.1944 302.669,39.1307 302.634,39.0688 302.596,39.0089 302.555,38.9511 302.511,38.8957 302.464,38.8427 302.414,38.7923 302.361,38.7447 302.306,38.7 302.249,38.6584 302.189,38.62 302.128,38.5848 302.064,38.553 301.999,38.5247 301.933,38.5 301.865,38.4789 301.796,38.4615 301.727,38.4478 301.727,38.4478 301.656,38.4379 301.586,38.4319 301.515,38.4296 301.444,38.4313 301.373,38.4368 301.303,38.446 301.233,38.4591 301.164,38.4759 301.096,38.4965 301.03,38.5206 300.964,38.5484 300.901,38.5797 300.839,38.6143 300.779,38.6523 300.721,38.6934 300.666,38.7376 300.613,38.7847 300.562,38.8347 300.515,38.8873 300.47,38.9423 300.428,38.9998 300.39,39.0594 300.355,39.121 300.323,39.1844 300.295,39.2494 300.27,39.3159 300.249,39.3836 300.231,39.4524 300.218,39.522 300.218,39.522 300.208,39.5922 300.202,39.6629 300.2,39.7338 300.201,39.8047 300.207,39.8754 300.216,39.9457 300.229,40.0154 300.246,40.0844 300.266,40.1523 300.291,40.2189 300.318,40.2842 300.35,40.3478 300.384,40.4098 300.422,40.4697 300.463,40.5275 300.508,40.5829 300.555,40.6359 300.605,40.6863 300.657,40.7339 300.712,40.7786 300.77,40.8202 300.829,40.8586 300.891,40.8938 300.954,40.9256 301.019,40.9539 301.086,40.9786 301.154,40.9997 301.222,41.0172 301.292,41.0308 301.292,41.0308 301.362,41.0406 301.433,41.0467 301.504,41.049 301.575,41.0473 301.645,41.0419 301.716,41.0326 301.785,41.0195 301.854,41.0027 301.922,40.9821 301.989,40.9579 302.054,40.9302 302.118,40.899 302.18,40.8643 302.24,40.8264 302.297,40.7852 302.353,40.7411 302.406,40.6939 302.456,40.644 302.504,40.5913 302.549,40.5363 302.59,40.4788 302.629,40.4192 302.664,40.3576 302.696,40.2942 302.724,40.2292 302.749,40.1627 302.77,40.095 302.787,40.0262 302.801,39.9566" fill="none" stroke="#0000ff" stroke-linejoin="round"/>
   <polyline stroke-width="0.5" stroke-linecap="butt" points="305.713,38.4354 305.896,38.1316 306.105,37.8446 306.337,37.5764 306.591,37.329 306.865,37.1041 307.158,36.9034 307.466,36.7285 307.789,36.5804 308.122,36.4603 308.465,36.3691 308.814,36.3075 309.168,36.2758 309.522,36.2744 309.876,36.3033 310.226,36.3621 310.569,36.4506 310.904,36.568 311.228,36.7135 311.537,36.8861 311.832,37.0844 312.108,37.3071 312.364,37.5526 312.598,37.8189 312.809,38.1042 312.994,38.4065 313.154,38.7235 313.285,39.0529 313.388,39.3923 313.462,39.7393 305.274,88.3981 305.091,88.7019 304.882,88.9889 304.65,89.2571 304.396,89.5045 304.122,89.7294 303.829,89.9301 303.521,90.1051 303.198,90.2532 302.865,90.3733 302.522,90.4644 302.172,90.5261 301.819,90.5577 301.464,90.5591 301.111,90.5303 300.761,90.4714 300.418,90.3829 300.083,90.2655 299.759,90.12 299.449,89.9474 299.155,89.7491 298.879,89.5264 298.623,89.281 298.389,89.0146 298.178,88.7293 297.993,88.427 297.833,88.11 297.702,87.7806 297.599,87.4412 297.525,87.0942 305.713,38.4354" fill="none" stroke="#0000ff" stroke-linejoin="round"/>
   <polyline stroke-width="0.5" stroke-linecap="butt" points="302.801,87.3116 302.811,87.2413 302.817,87.1706 302.819,87.0997 302.817,87.0288 302.812,86.9581 302.803,86.8878 302.789,86.8181 302.773,86.7492 302.752,86.6813 302.728,86.6146 302.7,86.5493 302.669,86.4857 302.634,86.4238 302.596,86.3639 302.555,86.306 302.511,86.2506 302.464,86.1976 302.414,86.1472 302.361,86.0996 302.306,86.055 302.249,86.0134 302.189,85.9749 302.128,85.9397 302.064,85.908 301.999,85.8796 301.933,85.8549 301.865,85.8338 301.796,85.8164 301.727,85.8027 301.727,85.8027 301.656,85.7928 301.586,85.7868 301.515,85.7846 301.444,85.7862 301.373,85.7917 301.303,85.8009 301.233,85.814 301.164,85.8308 301.096,85.8514 301.03,85.8756 300.964,85.9033 300.901,85.9346 300.839,85.9692 300.779,86.0071 300.721,86.0483 300.666,86.0925 300.613,86.1396 300.562,86.1896 300.515,86.2422 300.47,86.2973 300.428,86.3547 300.39,86.4143 300.355,86.4759 300.323,86.5393 300.295,86.6044 300.27,86.6708 300.249,86.7385 300.231,86.8073 300.218,86.8769 300.218,86.8769 300.208,86.9471 300.202,87.0178 300.2,87.0887 300.201,87.1596 300.207,87.2303 300.216,87.3007 300.229,87.3704 300.246,87.4393 300.266,87.5072 300.291,87.5739 300.318,87.6391 300.35,87.7028 300.384,87.7647 300.422,87.8246 300.463,87.8824 300.508,87.9379 300.555,87.9908 300.605,88.0412 300.657,88.0888 300.712,88.1335 300.77,88.1751 300.829,88.2136 300.891,88.2487 300.954,88.2805 301.019,88.3088 301.086,88.3336 301.154,88.3546 301.222,88.3721 301.292,88.3857 301.292,88.3857 301.362,88.3956 301.433,88.4016 301.504,88.4039 301.575,88.4023 301.645,88.3968 301.716,88.3875 301.785,88.3745 301.854,88.3576 301.922,88.3371 301.989,88.3129 302.054,88.2852 302.118,88.2539 302.18,88.2193 302.24,88.1813 302.297,88.1402 302.353,88.0959 302.406,88.0488 302.456,87.9989 302.504,87.9463 302.549,87.8912 302.59,87.8337 302.629,87.7741 302.664,87.7126 302.696,87.6491 302.724,87.5841 302.749,87.5176 302.77,87.4499 302.787,87.3812 302.801,87.3116" fill="none" stroke="#0000ff" stroke-linejoin="round"/>
   <polyline stroke-width="0.5" stroke-linecap="butt" points="306.785,63.6341 306.795,63.5638 306.801,63.4932 306.803,63.4223 306.801,63.3514 306.796,63.2806 306.787,63.2103 306.774,63.1406 306.757,63.0717 306.736,63.0038 306.712,62.9371 306.684,62.8719 306.653,62.8082 306.618,62.7463 306.581,62.6863 306.539,62.6286 306.495,62.5731 306.448,62.5201 306.398,62.4698 306.346,62.4222 306.29,62.3775 306.233,62.3359 306.173,62.2974 306.112,62.2623 306.048,62.2305 305.983,62.2022 305.917,62.1774 305.849,62.1563 305.78,62.1389 305.711,62.1253 305.711,62.1253 305.641,62.1154 305.57,62.1093 305.499,62.1071 305.428,62.1087 305.357,62.1142 305.287,62.1235 305.217,62.1365 305.148,62.1534 305.081,62.1739 305.014,62.1981 304.949,62.2258 304.885,62.2571 304.823,62.2917 304.763,62.3297 304.705,62.3708 304.65,62.415 304.597,62.4622 304.546,62.5121 304.499,62.5647 304.454,62.6198 304.413,62.6772 304.374,62.7368 304.339,62.7985 304.307,62.8619 304.279,62.9269 304.254,62.9934 304.233,63.0611 304.216,63.1298 304.202,63.1994 304.202,63.1994 304.192,63.2697 304.186,63.3404 304.184,63.4113 304.185,63.4822 304.191,63.5529 304.2,63.6232 304.213,63.6929 304.23,63.7618 304.251,63.8297 304.275,63.8964 304.303,63.9617 304.334,64.0253 304.368,64.0872 304.406,64.1472 304.448,64.2049 304.492,64.2604 304.539,64.3134 304.589,64.3638 304.641,64.4113 304.697,64.456 304.754,64.4977 304.814,64.5361 304.875,64.5713 304.939,64.603 305.004,64.6313 305.07,64.6561 305.138,64.6772 305.207,64.6946 305.276,64.7083 305.276,64.7083 305.346,64.7181 305.417,64.7242 305.488,64.7264 305.559,64.7248 305.63,64.7193 305.7,64.71 305.77,64.697 305.839,64.6801 305.906,64.6596 305.973,64.6354 306.038,64.6077 306.102,64.5764 306.164,64.5418 306.224,64.5038 306.282,64.4627 306.337,64.4185 306.39,64.3713 306.44,64.3214 306.488,64.2688 306.533,64.2137 306.574,64.1563 306.613,64.0967 306.648,64.0351 306.68,63.9717 306.708,63.9066 306.733,63.8401 306.754,63.7725 306.771,63.7037 306.785,63.6341" fill="none" stroke="#0000ff" stroke-linejoin="round"/>
   <polyline stroke-width="0.5" stroke-linecap="butt" points="310.769,39.9566 310.779,39.8864 310.785,39.8157 310.787,39.7448 310.786,39.6739 310.78,39.6031 310.771,39.5329 310.758,39.4631 310.741,39.3942 310.721,39.3264 310.696,39.2597 310.669,39.1944 310.637,39.1307 310.603,39.0688 310.565,39.0089 310.524,38.9511 310.479,38.8957 310.432,38.8427 310.382,38.7923 310.33,38.7447 310.275,38.7 310.217,38.6584 310.158,38.62 310.096,38.5848 310.033,38.553 309.968,38.5247 309.901,38.5 309.833,38.4789 309.765,38.4615 309.695,38.4478 309.695,38.4478 309.625,38.4379 309.554,38.4319 309.483,38.4296 309.412,38.4313 309.342,38.4368 309.271,38.446 309.202,38.4591 309.133,38.4759 309.065,38.4965 308.998,38.5206 308.933,38.5484 308.869,38.5797 308.807,38.6143 308.747,38.6523 308.689,38.6934 308.634,38.7376 308.581,38.7847 308.531,38.8347 308.483,38.8873 308.438,38.9423 308.397,38.9998 308.358,39.0594 308.323,39.121 308.291,39.1844 308.263,39.2494 308.238,39.3159 308.217,39.3836 308.2,39.4524 308.186,39.522 308.186,39.522 308.176,39.5922 308.17,39.6629 308.168,39.7338 308.17,39.8047 308.175,39.8754 308.184,39.9457 308.197,40.0154 308.214,40.0844 308.235,40.1523 308.259,40.2189 308.287,40.2842 308.318,40.3478 308.353,40.4098 308.391,40.4697 308.432,40.5275 308.476,40.5829 308.523,40.6359 308.573,40.6863 308.626,40.7339 308.681,40.7786 308.738,40.8202 308.798,40.8586 308.859,40.8938 308.923,40.9256 308.988,40.9539 309.054,40.9786 309.122,40.9997 309.191,41.0172 309.26,41.0308 309.26,41.0308 309.331,41.0406 309.401,41.0467 309.472,41.049 309.543,41.0473 309.614,41.0419 309.684,41.0326 309.754,41.0195 309.823,41.0027 309.891,40.9821 309.957,40.9579 310.023,40.9302 310.086,40.899 310.148,40.8643 310.208,40.8264 310.266,40.7852 310.321,40.7411 310.374,40.6939 310.425,40.644 310.472,40.5913 310.517,40.5363 310.559,40.4788 310.597,40.4192 310.632,40.3576 310.664,40.2942 310.692,40.2292 310.717,40.1627 310.738,40.095 310.755,40.0262 310.769,39.9566" fill="none" stroke="#0000ff" stroke-linejoin="round"/>
   <polyline stroke-width="0.5" stroke-linecap="butt" points="313.681,38.4354 313.865,38.1316 314.073,37.8446 314.305,37.5764 314.559,37.329 314.834,37.1041 315.126,36.9034 315.435,36.7285 315.757,36.5804 316.091,36.4603 316.434,36.3691 316.783,36.3075 317.136,36.2758 317.491,36.2744 317.844,36.3033 318.194,36.3621 318.538,36.4506 318.872,36.568 319.196,36.7135 319.506,36.8861 319.8,37.0844 320.076,37.3071 320.332,37.5526 320.566,37.8189 320.777,38.1042 320.963,38.4065 321.122,38.7235 321.253,39.0529 321.357,39.3923 321.43,39.7393 313.242,88.3981 313.059,88.7019 312.851,88.9889 312.619,89.2571 312.364,89.5045 312.09,89.7294 311.798,89.9301 311.489,90.1051 311.167,90.2532 310.833,90.3733 310.49,90.4644 310.141,90.5261 309.788,90.5577 309.433,90.5591 309.079,90.5303 308.73,90.4714 308.386,90.3829 308.051,90.2655 307.728,90.12 307.418,89.9474 307.124,89.7491 306.848,89.5264 306.592,89.281 306.357,89.0146 306.147,88.7293 305.961,88.427 305.802,88.11 305.67,87.7806 305.567,87.4412 305.493,87.0942 313.681,38.4354" fill="none" stroke="#0000ff" stroke-linejoin="round"/>
   <polyline stroke-width="0.5" stroke-linecap="butt" points="310.769,87.3116 310.779,87.2413 310.785,87.1706 310.787,87.0997 310.786,87.0288 310.78,86.9581 310.771,86.8878 310.758,86.8181 310.741,86.7492 310.721,86.6813 310.696,86.6146 310.669,86.5493 310.637,86.4857 310.603,86.4238 310.565,86.3639 310.524,86.306 310.479,86.2506 310.432,86.1976 310.382,86.1472 310.33,86.0996 310.275,86.055 310.217,86.0134 310.158,85.9749 310.096,85.9397 310.033,85.908 309.968,85.8796 309.901,85.8549 309.833,85.8338 309.765,85.8164 309.695,85.8027 309.695,85.8027 309.625,85.7928 309.554,85.7868 309.483,85.7846 309.412,85.7862 309.342,85.7917 309.271,85.8009 309.202,85.814 309.133,85.8308 309.065,85.8514 308.998,85.8756 308.933,85.9033 308.869,85.9346 308.807,85.9692 308.747,86.0071 308.689,86.0483 308.634,86.0925 308.581,86.1396 308.531,86.1896 308.483,86.2422 308.438,86.2973 308.397,86.3547 308.358,86.4143 308.323,86.4759 308.291,86.5393 308.263,86.6044 308.238,86.6708 308.217,86.7385 308.2,86.8073 308.186,86.8769 308.186,86.8769 308.176,86.9471 308.17,87.0178 308.168,87.0887 308.17,87.1596 308.175,87.2303 308.184,87.3007 308.197,87.3704 308.214,87.4393 308.235,87.5072 308.259,87.5739 308.287,87.6391 308.318,87.7028 308.353,87.7647 308.391,87.8246 308.432,87.8824 308.476,87.9379 308.523,87.9908 308.573,88.0412 308.626,88.0888 308.681,88.1335 308.738,88.1751 308.798,88.2136 308.859,88.2487 308.923,88.2805 308.988,88.3088 309.054,88.3336 309.122,88.3546 309.191,88.3721 309.26,88.3857 309.26,88.3857 309.331,88.3956 309.401,88.4016 309.472,88.4039 309.543,88.4023 309.614,88.3968 309.684,88.3875 309.754,88.3745 309.823,88.3576 309.891,88.3371 309.957,88.3129 310.023,88.2852 310.086,88.2539 310.148,88.2193 310.208,88.1813 310.266,88.1402 310.321,88.0959 310.374,88.0488 310.425,87.9989 310.472,87.9463 310.517,87.8912 310.559,87.8337 310.597,87.7741 310.632,87.7126 310.664,87.6491 310.692,87.5841 310.717,87.5176 310.738,87.4499 310.755,87.3812 310.769,87.3116" fill="none" stroke="#0000ff" stroke-linejoin="round"/>
   <polyline stroke-width="0.5" stroke-linecap="butt" points="314.753,63.6341 314.763,63.5638 314.769,63.4932 314.772,63.4223 314.77,63.3514 314.764,63.2806 314.755,63.2103 314.742,63.1406 314.725,63.0717 314.705,63.0038 314.681,62.9371 314.653,62.8719 314.622,62.8082 314.587,62.7463 314.549,62.6863 314.508,62.6286 314.464,62.5731 314.416,62.5201 314.367,62.4698 314.314,62.4222 314.259,62.3775 314.201,62.3359 314.142,62.2974 314.08,62.2623 314.017,62.2305 313.952,62.2022 313.885,62.1774 313.818,62.1563 313.749,62.1389 313.679,62.1253 313.679,62.1253 313.609,62.1154 313.538,62.1093 313.467,62.1071 313.396,62.1087 313.326,62.1142 313.255,62.1235 313.186,62.1365 313.117,62.1534 313.049,62.1739 312.982,62.1981 312.917,62.2258 312.853,62.2571 312.791,62.2917 312.731,62.3297 312.674,62.3708 312.618,62.415 312.565,62.4622 312.515,62.5121 312.467,62.5647 312.423,62.6198 312.381,62.6772 312.343,62.7368 312.307,62.7985 312.276,62.8619 312.247,62.9269 312.223,62.9934 312.201,63.0611 312.184,63.1298 312.17,63.1994 312.17,63.1994 312.16,63.2697 312.154,63.3404 312.152,63.4113 312.154,63.4822 312.159,63.5529 312.169,63.6232 312.182,63.6929 312.198,63.7618 312.219,63.8297 312.243,63.8964 312.271,63.9617 312.302,64.0253 312.337,64.0872 312.375,64.1472 312.416,64.2049 312.46,64.2604 312.507,64.3134 312.557,64.3638 312.61,64.4113 312.665,64.456 312.722,64.4977 312.782,64.5361 312.844,64.5713 312.907,64.603 312.972,64.6313 313.038,64.6561 313.106,64.6772 313.175,64.6946 313.245,64.7083 313.245,64.7083 313.315,64.7181 313.385,64.7242 313.456,64.7264 313.527,64.7248 313.598,64.7193 313.668,64.71 313.738,64.697 313.807,64.6801 313.875,64.6596 313.941,64.6354 314.007,64.6077 314.07,64.5764 314.132,64.5418 314.192,64.5038 314.25,64.4627 314.306,64.4185 314.358,64.3713 314.409,64.3214 314.456,64.2688 314.501,64.2137 314.543,64.1563 314.581,64.0967 314.616,64.0351 314.648,63.9717 314.676,63.9066 314.701,63.8401 314.722,63.7725 314.74,63.7037 314.753,63.6341" fill="none" stroke="#0000ff" stroke-linejoin="round"/>
   <polyline stroke-width="0.5" stroke-linecap="butt" points="318.738,39.9566 318.747,39.8864 318.753,39.8157 318.756,39.7448 318.754,39.6739 318.749,39.6031 318.739,39.5329 318.726,39.4631 318.709,39.3942 318.689,39.3264 318.665,39.2597 318.637,39.1944 318.606,39.1307 318.571,39.0688 318.533,39.0089 318.492,38.9511 318.448,38.8957 318.401,38.8427 318.351,38.7923 318.298,38.7447 318.243,38.7 318.186,38.6584 318.126,38.62 318.064,38.5848 318.001,38.553 317.936,38.5247 317.869,38.5 317.802,38.4789 317.733,38.4615 317.663,38.4478 317.663,38.4478 317.593,38.4379 317.522,38.4319 317.452,38.4296 317.381,38.4313 317.31,38.4368 317.24,38.446 317.17,38.4591 317.101,38.4759 317.033,38.4965 316.966,38.5206 316.901,38.5484 316.837,38.5797 316.776,38.6143 316.716,38.6523 316.658,38.6934 316.602,38.7376 316.549,38.7847 316.499,38.8347 316.451,38.8873 316.407,38.9423 316.365,38.9998 316.327,39.0594 316.292,39.121 316.26,39.1844 316.231,39.2494 316.207,39.3159 316.186,39.3836 316.168,39.4524 316.155,39.522 316.155,39.522 316.145,39.5922 316.139,39.6629 316.136,39.7338 316.138,39.8047 316.143,39.8754 316.153,39.9457 316.166,40.0154 316.183,40.0844 316.203,40.1523 316.227,40.2189 316.255,40.2842 316.286,40.3478 316.321,40.4098 316.359,40.4697 316.4,40.5275 316.444,40.5829 316.491,40.6359 316.541,40.6863 316.594,40.7339 316.649,40.7786 316.707,40.8202 316.766,40.8586 316.828,40.8938 316.891,40.9256 316.956,40.9539 317.023,40.9786 317.09,40.9997 317.159,41.0172 317.229,41.0308 317.229,41.0308 317.299,41.0406 317.37,41.0467 317.441,41.049 317.511,41.0473 317.582,41.0419 317.652,41.0326 317.722,41.0195 317.791,41.0027 317.859,40.9821 317.926,40.9579 317.991,40.9302 318.055,40.899 318.117,40.8643 318.176,40.8264 318.234,40.7852 318.29,40.7411 318.343,40.6939 318.393,40.644 318.441,40.5913 318.485,40.5363 318.527,40.4788 318.565,40.4192 318.601,40.3576 318.632,40.2942 318.661,40.2292 318.685,40.1627 318.706,40.095 318.724,40.0262 318.738,39.9566" fill="none" stroke="#0000ff" stroke-linejoin="round"/>
   <polyline stroke-width="0.5" stroke-linecap="butt" points="321.65,38.4354 321.833,38.1316 322.041,37.8446 322.273,37.5764 322.528,37.329 322.802,37.1041 323.094,36.9034 323.403,36.7285 323.725,36.5804 324.059,36.4603 324.402,36.3691 324.751,36.3075 325.105,36.2758 325.459,36.2744 325.813,36.3033 326.163,36.3621 326.506,36.4506 326.841,36.568 327.164,36.7135 327.474,36.8861 327.768,37.0844 328.044,37.3071 328.301,37.5526 328.535,37.8189 328.745,38.1042 328.931,38.4065 329.09,38.7235 329.222,39.0529 329.325,39.3923 329.399,39.7393 321.211,88.3981 321.028,88.7019 320.819,88.9889 320.587,89.2571 320.333,89.5045 320.059,89.7294 319.766,89.9301 319.458,90.1051 319.135,90.2532 318.801,90.3733 318.459,90.4644 318.109,90.5261 317.756,90.5577 317.401,90.5591 317.048,90.5303 316.698,90.4714 316.354,90.3829 316.02,90.2655 315.696,90.12 315.386,89.9474 315.092,89.7491 314.816,89.5264 314.56,89.281 314.326,89.0146 314.115,88.7293 313.929,88.427 313.77,88.11 313.639,87.7806 313.536,87.4412 313.462,87.0942 321.65,38.4354" fill="none" stroke="#0000ff" stroke-linejoin="round"/>
   <polyline stroke-width="0.5" stroke-linecap="butt" points="318.738,87.3116 318.747,87.2413 318.753,87.1706 318.756,87.0997 318.754,87.0288 318.749,86.9581 318.739,86.8878 318.726,86.8181 318.709,86.7492 318.689,86.6813 318.665,86.6146 318.637,86.5493 318.606,86.4857 318.571,86.4238 318.533,86.3639 318.492,86.306 318.448,86.2506 318.401,86.1976 318.351,86.1472 318.298,86.0996 318.243,86.055 318.186,86.0134 318.126,85.9749 318.064,85.9397 318.001,85.908 317.936,85.8796 317.869,85.8549 317.802,85.8338 317.733,85.8164 317.663,85.8027 317.663,85.8027 317.593,85.7928 317.522,85.7868 317.452,85.7846 317.381,85.7862 317.31,85.7917 317.24,85.8009 317.17,85.814 317.101,85.8308 317.033,85.8514 316.966,85.8756 316.901,85.9033 316.837,85.9346 316.776,85.9692 316.716,86.0071 316.658,86.0483 316.602,86.0925 316.549,86.1396 316.499,86.1896 316.451,86.2422 316.407,86.2973 316.365,86.3547 316.327,86.4143 316.292,86.4759 316.26,86.5393 316.231,86.6044 316.207,86.6708 316.186,86.7385 316.168,86.8073 316.155,86.8769 316.155,86.8769 316.145,86.9471 316.139,87.0178 316.136,87.0887 316.138,87.1596 316.143,87.2303 316.153,87.3007 316.166,87.3704 316.183,87.4393 316.203,87.5072 316.227,87.5739 316.255,87.6391 316.286,87.7028 316.321,87.7647 316.359,87.8246 316.4,87.8824 316.444,87.9379 316.491,87.9908 316.541,88.0412 316.594,88.0888 316.649,88.1335 316.707,88.1751 316.766,88.2136 316.828,88.2487 316.891,88.2805 316.956,88.3088 317.023,88.3336 317.09,88.3546 317.159,88.3721 317.229,88.3857 317.229,88.3857 317.299,88.3956 317.37,88.4016 317.441,88.4039 317.511,88.4023 317.582,88.3968 317.652,88.3875 317.722,88.3745 317.791,88.3576 317.859,88.3371 317.926,88.3129 317.991,88.2852 318.055,88.2539 318.117,88.2193 318.176,88.1813 318.234,88.1402 318.29,88.0959 318.343,88.0488 318.393,87.9989 318.441,87.9463 318.485,87.8912 318.527,87.8337 318.565,87.7741 318.601,87.7126 318.632,87.6491 318.661,87.5841 318.685,87.5176 318.706,87.4499 318.724,87.3812 318.738,87.3116" fill="none" stroke="#0000ff" stroke-linejoin="round"/>
   <polyline stroke-width="0.5" stroke-linecap="butt" points="322.722,63.6341 322.732,63.5638 322.738,63.4932 322.74,63.4223 322.738,63.3514 322.733,63.2806 322.724,63.2103 322.71,63.1406 322.694,63.0717 322.673,63.0038 322.649,62.9371 322.621,62.8719 322.59,62.8082 322.555,62.7463 322.517,62.6863 322.476,62.6286 322.432,62.5731 322.385,62.5201 322.335,62.4698 322.282,62.4222 322.227,62.3775 322.17,62.3359 322.11,62.2974 322.049,62.2623 321.985,62.2305 321.92,62.2022 321.854,62.1774 321.786,62.1563 321.717,62.1389 321.648,62.1253 321.648,62.1253 321.577,62.1154 321.507,62.1093 321.436,62.1071 321.365,62.1087 321.294,62.1142 321.224,62.1235 321.154,62.1365 321.085,62.1534 321.017,62.1739 320.951,62.1981 320.885,62.2258 320.822,62.2571 320.76,62.2917 320.7,62.3297 320.642,62.3708 320.587,62.415 320.534,62.4622 320.483,62.5121 320.436,62.5647 320.391,62.6198 320.349,62.6772 320.311,62.7368 320.276,62.7985 320.244,62.8619 320.216,62.9269 320.191,62.9934 320.17,63.0611 320.152,63.1298 320.139,63.1994 320.139,63.1994 320.129,63.2697 320.123,63.3404 320.121,63.4113 320.122,63.4822 320.128,63.5529 320.137,63.6232 320.15,63.6929 320.167,63.7618 320.187,63.8297 320.212,63.8964 320.239,63.9617 320.271,64.0253 320.305,64.0872 320.343,64.1472 320.384,64.2049 320.429,64.2604 320.476,64.3134 320.526,64.3638 320.578,64.4113 320.633,64.456 320.691,64.4977 320.75,64.5361 320.812,64.5713 320.875,64.603 320.94,64.6313 321.007,64.6561 321.075,64.6772 321.143,64.6946 321.213,64.7083 321.213,64.7083 321.283,64.7181 321.354,64.7242 321.425,64.7264 321.496,64.7248 321.566,64.7193 321.637,64.71 321.706,64.697 321.775,64.6801 321.843,64.6596 321.91,64.6354 321.975,64.6077 322.039,64.5764 322.101,64.5418 322.161,64.5038 322.218,64.4627 322.274,64.4185 322.327,64.3713 322.377,64.3214 322.425,64.2688 322.47,64.2137 322.511,64.1563 322.55,64.0967 322.585,64.0351 322.617,63.9717 322.645,63.9066 322.67,63.8401 322.691,63.7725 322.708,63.7037 322.722,63.6341" fill="none" stroke="#0000ff" stroke-linejoin="round"/>
   <polyline stroke-width="0.5" stroke-linecap="butt" points="326.706,39.9566 326.716,39.8864 326.722,39.8157 326.724,39.7448 326.722,39.6739 326.717,39.6031 326.708,39.5329 326.695,39.4631 326.678,39.3942 326.657,39.3264 326.633,39.2597 326.605,39.1944 326.574,39.1307 326.539,39.0688 326.502,39.0089 326.46,38.9511 326.416,38.8957 326.369,38.8427 326.319,38.7923 326.267,38.7447 326.211,38.7 326.154,38.6584 326.094,38.62 326.033,38.5848 325.969,38.553 325.904,38.5247 325.838,38.5 325.77,38.4789 325.701,38.4615 325.632,38.4478 325.632,38.4478 325.562,38.4379 325.491,38.4319 325.42,38.4296 325.349,38.4313 325.278,38.4368 325.208,38.446 325.138,38.4591 325.069,38.4759 325.002,38.4965 324.935,38.5206 324.87,38.5484 324.806,38.5797 324.744,38.6143 324.684,38.6523 324.626,38.6934 324.571,38.7376 324.518,38.7847 324.467,38.8347 324.42,38.8873 324.375,38.9423 324.334,38.9998 324.295,39.0594 324.26,39.121 324.228,39.1844 324.2,39.2494 324.175,39.3159 324.154,39.3836 324.137,39.4524 324.123,39.522 324.123,39.522 324.113,39.5922 324.107,39.6629 324.105,39.7338 324.106,39.8047 324.112,39.8754 324.121,39.9457 324.134,40.0154 324.151,40.0844 324.172,40.1523 324.196,40.2189 324.224,40.2842 324.255,40.3478 324.289,40.4098 324.327,40.4697 324.369,40.5275 324.413,40.5829 324.46,40.6359 324.51,40.6863 324.562,40.7339 324.617,40.7786 324.675,40.8202 324.735,40.8586 324.796,40.8938 324.86,40.9256 324.925,40.9539 324.991,40.9786 325.059,40.9997 325.128,41.0172 325.197,41.0308 325.197,41.0308 325.267,41.0406 325.338,41.0467 325.409,41.049 325.48,41.0473 325.551,41.0419 325.621,41.0326 325.691,41.0195 325.76,41.0027 325.827,40.9821 325.894,40.9579 325.959,40.9302 326.023,40.899 326.085,40.8643 326.145,40.8264 326.203,40.7852 326.258,40.7411 326.311,40.6939 326.361,40.644 326.409,40.5913 326.454,40.5363 326.495,40.4788 326.534,40.4192 326.569,40.3576 326.601,40.2942 326.629,40.2292 326.654,40.1627 326.675,40.095 326.692,40.0262 326.706,39.9566" fill="none" stroke="#0000ff" stroke-linejoin="round"/>
   <polyline stroke-width="0.5" stroke-linecap="butt" points="346.68,46.2908 351.237,52.6922 332.871,66.4607 329.179,88.3981 328.996,88.7019 328.788,88.9889 328.555,89.2571 328.301,89.5045 328.027,89.7294 327.734,89.9301 327.426,90.1051 327.104,90.2532 326.77,90.3733 326.427,90.4644 326.078,90.5261 325.724,90.5577 325.37,90.5591 325.016,90.5303 324.666,90.4714 324.323,90.3829 323.988,90.2655 323.665,90.12 323.355,89.9474 323.061,89.7491 322.785,89.5264 322.528,89.281 322.294,89.0146 322.083,88.7293 321.898,88.427 321.739,88.11 321.607,87.7806 321.504,87.4412 321.43,87.0942 325.524,62.7648 325.543,62.6601 325.565,62.556 325.59,62.4525 325.617,62.3497 325.648,62.2477 325.681,62.1466 325.716,62.0464 325.755,61.9472 325.796,61.849 325.84,61.752 325.886,61.6563 325.935,61.5618 325.987,61.4687 326.041,61.377 326.097,61.2868 326.156,61.1982 326.217,61.1112 326.281,61.0259 326.347,60.9423 326.415,60.8606 326.485,60.7807 326.558,60.7028 326.632,60.6269 326.709,60.553 326.787,60.4812 326.868,60.4116 326.95,60.3441 327.034,60.279 327.12,60.2161 346.68,46.2908" fill="none" stroke="#0000ff" stroke-linejoin="round"/>
   <polyline stroke-width="0.5" stroke-linecap="butt" points="330.69,63.6341 330.7,63.5638 330.706,63.4932 330.708,63.4223 330.707,63.3514 330.701,63.2806 330.692,63.2103 330.679,63.1406 330.662,63.0717 330.642,63.0038 330.617,62.9371 330.59,62.8719 330.558,62.8082 330.524,62.7463 330.486,62.6863 330.445,62.6286 330.4,62.5731 330.353,62.5201 330.303,62.4698 330.251,62.4222 330.196,62.3775 330.138,62.3359 330.079,62.2974 330.017,62.2623 329.954,62.2305 329.889,62.2022 329.822,62.1774 329.754,62.1563 329.686,62.1389 329.616,62.1253 329.616,62.1253 329.546,62.1154 329.475,62.1093 329.404,62.1071 329.333,62.1087 329.263,62.1142 329.192,62.1235 329.122,62.1365 329.054,62.1534 328.986,62.1739 328.919,62.1981 328.854,62.2258 328.79,62.2571 328.728,62.2917 328.668,62.3297 328.61,62.3708 328.555,62.415 328.502,62.4622 328.452,62.5121 328.404,62.5647 328.359,62.6198 328.318,62.6772 328.279,62.7368 328.244,62.7985 328.212,62.8619 328.184,62.9269 328.159,62.9934 328.138,63.0611 328.121,63.1298 328.107,63.1994 328.107,63.1994 328.097,63.2697 328.091,63.3404 328.089,63.4113 328.091,63.4822 328.096,63.5529 328.105,63.6232 328.118,63.6929 328.135,63.7618 328.156,63.8297 328.18,63.8964 328.208,63.9617 328.239,64.0253 328.274,64.0872 328.312,64.1472 328.353,64.2049 328.397,64.2604 328.444,64.3134 328.494,64.3638 328.547,64.4113 328.602,64.456 328.659,64.4977 328.719,64.5361 328.78,64.5713 328.844,64.603 328.909,64.6313 328.975,64.6561 329.043,64.6772 329.112,64.6946 329.181,64.7083 329.181,64.7083 329.252,64.7181 329.322,64.7242 329.393,64.7264 329.464,64.7248 329.535,64.7193 329.605,64.71 329.675,64.697 329.744,64.6801 329.812,64.6596 329.878,64.6354 329.944,64.6077 330.007,64.5764 330.069,64.5418 330.129,64.5038 330.187,64.4627 330.242,64.4185 330.295,64.3713 330.346,64.3214 330.393,64.2688 330.438,64.2137 330.48,64.1563 330.518,64.0967 330.553,64.0351 330.585,63.9717 330.613,63.9066 330.638,63.8401 330.659,63.7725 330.676,63.7037 330.69,63.6341" fill="none" stroke="#0000ff" stroke-linejoin="round"/>
   <polyline stroke-width="0.5" stroke-linecap="butt" points="326.706,87.3116 326.716,87.2413 326.722,87.1706 326.724,87.0997 326.722,87.0288 326.717,86.9581 326.708,86.8878 326.695,86.8181 326.678,86.7492 326.657,86.6813 326.633,86.6146 326.605,86.5493 326.574,86.4857 326.539,86.4238 326.502,86.3639 326.46,86.306 326.416,86.2506 326.369,86.1976 326.319,86.1472 326.267,86.0996 326.211,86.055 326.154,86.0134 326.094,85.9749 326.033,85.9397 325.969,85.908 325.904,85.8796 325.838,85.8549 325.77,85.8338 325.701,85.8164 325.632,85.8027 325.632,85.8027 325.562,85.7928 325.491,85.7868 325.42,85.7846 325.349,85.7862 325.278,85.7917 325.208,85.8009 325.138,85.814 325.069,85.8308 325.002,85.8514 324.935,85.8756 324.87,85.9033 324.806,85.9346 324.744,85.9692 324.684,86.0071 324.626,86.0483 324.571,86.0925 324.518,86.1396 324.467,86.1896 324.42,86.2422 324.375,86.2973 324.334,86.3547 324.295,86.4143 324.26,86.4759 324.228,86.5393 324.2,86.6044 324.175,86.6708 324.154,86.7385 324.137,86.8073 324.123,86.8769 324.123,86.8769 324.113,86.9471 324.107,87.0178 324.105,87.0887 324.106,87.1596 324.112,87.2303 324.121,87.3007 324.134,87.3704 324.151,87.4393 324.172,87.5072 324.196,87.5739 324.224,87.6391 324.255,87.7028 324.289,87.7647 324.327,87.8246 324.369,87.8824 324.413,87.9379 324.46,87.9908 324.51,88.0412 324.562,88.0888 324.617,88.1335 324.675,88.1751 324.735,88.2136 324.796,88.2487 324.86,88.2805 324.925,88.3088 324.991,88.3336 325.059,88.3546 325.128,88.3721 325.197,88.3857 325.197,88.3857 325.267,88.3956 325.338,88.4016 325.409,88.4039 325.48,88.4023 325.551,88.3968 325.621,88.3875 325.691,88.3745 325.76,88.3576 325.827,88.3371 325.894,88.3129 325.959,88.2852 326.023,88.2539 326.085,88.2193 326.145,88.1813 326.203,88.1402 326.258,88.0959 326.311,88.0488 326.361,87.9989 326.409,87.9463 326.454,87.8912 326.495,87.8337 326.534,87.7741 326.569,87.7126 326.601,87.6491 326.629,87.5841 326.654,87.5176 326.675,87.4499 326.692,87.3812 326.706,87.3116" fill="none" stroke="#0000ff" stroke-linejoin="round"/>
  </g>
 </g>
</svg>
