<?xml version='1.0' encoding='UTF-8' standalone='no'?>
<svg xmlns="http://www.w3.org/2000/svg" xmlns:xlink="http://www.w3.org/1999/xlink" height="432pt" viewBox="0 0 576 432" width="576pt">
 <title>gl2ps_renderer figure</title>
 <desc>
Creator: GL2PS 1.4.0, (C) 1999-2017 C. Geuzaine
For: Octave
CreationDate: Wed Jul 24 23:51:49 2019
</desc>
 <defs/>
 <polygon fill="#ffffff" points="0,0 576,0 576,432 0,432"/>
 <g>
  <polygon shape-rendering="crispEdges" fill="#ffffff" points="0,432 576,432 576,0 0,0"/>
  <clipPath id="cp00576432">
   <polygon points="0,432 576,432 576,0 0,0"/>
  </clipPath>
  <g clip-path="url(#cp00576432)">
   <polyline stroke="#00ff00" stroke-width="0.5" stroke-linejoin="round" fill="none" stroke-linecap="butt" points="260.884,319.238 333.988,319.238 333.988,382.22 260.884,382.22 260.884,319.238"/>
   <polyline stroke="#00ff00" stroke-width="0.5" stroke-linejoin="round" fill="none" stroke-linecap="butt" points="298.221,350.729 298.219,350.651 298.213,350.574 298.202,350.497 298.188,350.421 298.169,350.345 298.146,350.271 298.119,350.198 298.089,350.127 298.054,350.057 298.016,349.99 297.974,349.924 297.929,349.861 297.88,349.8 297.828,349.743 297.773,349.688 297.716,349.636 297.655,349.587 297.592,349.542 297.526,349.5 297.459,349.462 297.389,349.427 297.318,349.397 297.245,349.37 297.171,349.347 297.095,349.328 297.019,349.314 296.942,349.303 296.865,349.297 296.787,349.295 296.787,349.295 296.709,349.297 296.632,349.303 296.555,349.314 296.479,349.328 296.403,349.347 296.329,349.37 296.256,349.397 296.185,349.427 296.115,349.462 296.048,349.5 295.982,349.542 295.919,349.587 295.859,349.636 295.801,349.688 295.746,349.743 295.694,349.8 295.645,349.861 295.6,349.924 295.558,349.99 295.52,350.057 295.485,350.127 295.455,350.198 295.428,350.271 295.405,350.345 295.386,350.421 295.372,350.497 295.361,350.574 295.355,350.651 295.353,350.729 295.353,350.729 295.355,350.807 295.361,350.884 295.372,350.961 295.386,351.037 295.405,351.113 295.428,351.187 295.455,351.26 295.485,351.331 295.52,351.401 295.558,351.468 295.6,351.534 295.645,351.597 295.694,351.657 295.746,351.715 295.801,351.77 295.859,351.822 295.919,351.871 295.982,351.916 296.048,351.958 296.115,351.996 296.185,352.031 296.256,352.061 296.329,352.088 296.403,352.111 296.479,352.13 296.555,352.144 296.632,352.155 296.709,352.161 296.787,352.163 296.787,352.163 296.865,352.161 296.942,352.155 297.019,352.144 297.095,352.13 297.171,352.111 297.245,352.088 297.318,352.061 297.389,352.031 297.459,351.996 297.526,351.958 297.592,351.916 297.655,351.871 297.716,351.822 297.773,351.77 297.828,351.715 297.88,351.657 297.929,351.597 297.974,351.534 298.016,351.468 298.054,351.401 298.089,351.331 298.119,351.26 298.146,351.187 298.169,351.113 298.188,351.037 298.202,350.961 298.213,350.884 298.219,350.807 298.221,350.729"/>
   <polyline stroke="#00ff00" stroke-width="0.5" stroke-linejoin="round" fill="none" stroke-linecap="butt" points="260.884,316.978 257.848,316.978 257.848,384.48 260.884,384.48 260.884,316.978"/>
   <polyline stroke="#00ff00" stroke-width="0.5" stroke-linejoin="round" fill="none" stroke-linecap="butt" points="260.884,382.22 333.988,382.22 333.988,319.238 260.884,319.238 260.884,382.22"/>
   <polyline stroke="#00ff00" stroke-width="0.5" stroke-linejoin="round" fill="none" stroke-linecap="butt" points="298.221,350.729 298.219,350.807 298.213,350.884 298.202,350.961 298.188,351.037 298.169,351.113 298.146,351.187 298.119,351.26 298.089,351.331 298.054,351.401 298.016,351.468 297.974,351.534 297.929,351.597 297.88,351.657 297.828,351.715 297.773,351.77 297.716,351.822 297.655,351.871 297.592,351.916 297.526,351.958 297.459,351.996 297.389,352.031 297.318,352.061 297.245,352.088 297.171,352.111 297.095,352.13 297.019,352.144 296.942,352.155 296.865,352.161 296.787,352.163 296.787,352.163 296.709,352.161 296.632,352.155 296.555,352.144 296.479,352.13 296.403,352.111 296.329,352.088 296.256,352.061 296.185,352.031 296.115,351.996 296.048,351.958 295.982,351.916 295.919,351.871 295.859,351.822 295.801,351.77 295.746,351.715 295.694,351.657 295.645,351.597 295.6,351.534 295.558,351.468 295.52,351.401 295.485,351.331 295.455,351.26 295.428,351.187 295.405,351.113 295.386,351.037 295.372,350.961 295.361,350.884 295.355,350.807 295.353,350.729 295.353,350.729 295.355,350.651 295.361,350.574 295.372,350.497 295.386,350.421 295.405,350.345 295.428,350.271 295.455,350.198 295.485,350.127 295.52,350.057 295.558,349.99 295.6,349.924 295.645,349.861 295.694,349.8 295.746,349.743 295.801,349.688 295.859,349.636 295.919,349.587 295.982,349.542 296.048,349.5 296.115,349.462 296.185,349.427 296.256,349.397 296.329,349.37 296.403,349.347 296.479,349.328 296.555,349.314 296.632,349.303 296.709,349.297 296.787,349.295 296.787,349.295 296.865,349.297 296.942,349.303 297.019,349.314 297.095,349.328 297.171,349.347 297.245,349.37 297.318,349.397 297.389,349.427 297.459,349.462 297.526,349.5 297.592,349.542 297.655,349.587 297.716,349.636 297.773,349.688 297.828,349.743 297.88,349.8 297.929,349.861 297.974,349.924 298.016,349.99 298.054,350.057 298.089,350.127 298.119,350.198 298.146,350.271 298.169,350.345 298.188,350.421 298.202,350.497 298.213,350.574 298.219,350.651 298.221,350.729"/>
   <polyline stroke="#00ff00" stroke-width="0.5" stroke-linejoin="round" fill="none" stroke-linecap="butt" points="260.884,384.48 257.848,384.48 257.848,316.978 260.884,316.978 260.884,384.48"/>
   <polyline stroke="#000000" stroke-width="0.5" stroke-linejoin="round" fill="none" stroke-linecap="butt" points="323.976,255.116 323.936,253.644 323.816,252.177 323.617,250.718 323.34,249.272 322.984,247.843 322.552,246.435 322.044,245.053 321.463,243.7 320.808,242.381 320.084,241.099 319.291,239.858 318.432,238.663 317.509,237.515 316.526,236.419 315.485,235.378 314.388,234.394 313.241,233.472 312.045,232.613 310.804,231.82 309.522,231.095 308.203,230.441 306.851,229.859 305.468,229.351 304.061,228.919 302.632,228.563 301.186,228.286 299.727,228.087 298.259,227.968 296.787,227.928 269.489,227.928 269.256,227.929 269.024,227.934 268.793,227.941 268.564,227.951 268.338,227.964 268.115,227.98 267.897,227.999 267.682,228.02 267.474,228.044 267.271,228.071 267.075,228.1 266.885,228.131 266.704,228.165 266.53,228.201 266.365,228.239 266.21,228.279 266.064,228.322 265.928,228.365 265.802,228.411 265.688,228.458 265.584,228.506 265.492,228.556 265.412,228.607 265.343,228.658 265.287,228.711 265.243,228.764 265.212,228.817 265.193,228.871 265.187,228.925 265.187,228.925 265.18,228.979 265.161,229.033 265.13,229.086 265.086,229.139 265.03,229.192 264.961,229.244 264.881,229.294 264.789,229.344 264.685,229.392 264.571,229.439 264.445,229.485 264.309,229.529 264.163,229.571 264.008,229.611 263.843,229.649 263.669,229.685 263.488,229.719 263.298,229.751 263.102,229.78 262.899,229.806 262.691,229.83 262.477,229.852 262.258,229.87 262.035,229.886 261.809,229.899 261.58,229.909 261.349,229.917 261.117,229.921 260.884,229.922 260.884,223.625 333.988,223.625 333.988,286.607 260.884,286.607 260.884,280.31 261.117,280.312 261.349,280.316 261.58,280.323 261.809,280.334 262.035,280.347 262.258,280.362 262.477,280.381 262.691,280.402 262.899,280.426 263.102,280.453 263.298,280.482 263.488,280.514 263.669,280.547 263.843,280.583 264.008,280.622 264.163,280.662 264.309,280.704 264.445,280.748 264.571,280.793 264.685,280.84 264.789,280.889 264.881,280.938 264.961,280.989 265.03,281.041 265.086,281.093 265.13,281.146 265.161,281.2 265.18,281.254 265.187,281.308 265.187,281.308 265.193,281.362 265.212,281.415 265.243,281.469 265.287,281.522 265.343,281.574 265.412,281.626 265.492,281.677 265.584,281.726 265.688,281.775 265.802,281.822 265.928,281.867 266.064,281.911 266.21,281.953 266.365,281.993 266.53,282.032 266.704,282.068 266.885,282.101 267.075,282.133 267.271,282.162 267.474,282.189 267.682,282.213 267.897,282.234 268.115,282.253 268.338,282.268 268.564,282.281 268.793,282.292 269.024,282.299 269.256,282.303 269.489,282.305 296.787,282.305 298.259,282.265 299.727,282.145 301.186,281.947 302.632,281.669 304.061,281.314 305.468,280.882 306.851,280.374 308.203,279.792 309.522,279.138 310.804,278.413 312.045,277.62 313.241,276.761 314.388,275.838 315.485,274.855 316.526,273.814 317.509,272.718 318.432,271.57 319.291,270.374 320.084,269.133 320.808,267.852 321.463,266.532 322.044,265.18 322.552,263.798 322.984,262.39 323.34,260.961 323.617,259.515 323.816,258.056 323.936,256.588 323.976,255.116 323.976,255.116"/>
   <polyline stroke="#000000" stroke-width="0.5" stroke-linejoin="round" fill="none" stroke-linecap="butt" points="297.08,230.042 297.08,227.928 292.484,227.928 292.252,227.929 292.019,227.934 291.788,227.941 291.56,227.951 291.333,227.964 291.111,227.98 290.892,227.999 290.678,228.02 290.469,228.044 290.266,228.071 290.07,228.1 289.881,228.131 289.699,228.165 289.526,228.201 289.361,228.239 289.205,228.279 289.059,228.322 288.923,228.365 288.798,228.411 288.683,228.458 288.58,228.506 288.487,228.556 288.407,228.607 288.339,228.658 288.282,228.711 288.239,228.764 288.207,228.817 288.188,228.871 288.182,228.925 288.182,228.925 288.176,228.979 288.157,229.033 288.125,229.086 288.081,229.139 288.025,229.192 287.957,229.244 287.876,229.294 287.784,229.344 287.681,229.392 287.566,229.439 287.441,229.485 287.305,229.529 287.159,229.571 287.003,229.611 286.838,229.649 286.665,229.685 286.483,229.719 286.294,229.751 286.098,229.78 285.895,229.806 285.686,229.83 285.472,229.852 285.253,229.87 285.03,229.886 284.804,229.899 284.575,229.909 284.345,229.917 284.112,229.921 283.879,229.922 283.879,280.31 284.112,280.312 284.345,280.316 284.575,280.323 284.804,280.334 285.03,280.347 285.253,280.362 285.472,280.381 285.686,280.402 285.895,280.426 286.098,280.453 286.294,280.482 286.483,280.514 286.665,280.547 286.838,280.583 287.003,280.622 287.159,280.662 287.305,280.704 287.441,280.748 287.566,280.793 287.681,280.84 287.784,280.889 287.876,280.938 287.957,280.989 288.025,281.041 288.081,281.093 288.125,281.146 288.157,281.2 288.176,281.254 288.182,281.308 288.182,281.308 288.188,281.362 288.207,281.415 288.239,281.469 288.282,281.522 288.339,281.574 288.407,281.626 288.487,281.677 288.58,281.726 288.683,281.775 288.798,281.822 288.923,281.867 289.059,281.911 289.205,281.953 289.361,281.993 289.526,282.032 289.699,282.068 289.881,282.101 290.07,282.133 290.266,282.162 290.469,282.189 290.678,282.213 290.892,282.234 291.111,282.253 291.333,282.268 291.56,282.281 291.788,282.292 292.019,282.299 292.252,282.303 292.484,282.305 296.787,282.305 296.787,267.713 293.751,267.713 293.751,269.231 290.716,269.231 290.716,263.16 293.751,263.16 293.751,264.678 296.787,264.678 296.787,264.678 292.945,257.052 292.902,256.966 292.862,256.878 292.823,256.79 292.787,256.7 292.752,256.61 292.72,256.519 292.689,256.427 292.661,256.335 292.634,256.242 292.61,256.149 292.588,256.055 292.568,255.96 292.55,255.865 292.534,255.77 292.521,255.674 292.509,255.579 292.5,255.482 292.493,255.386 292.488,255.29 292.485,255.193 292.484,255.097 292.486,255 292.49,254.904 292.496,254.807 292.504,254.711 292.514,254.615 292.526,254.519 292.541,254.424 292.557,254.329 297.08,230.042 298.745,230.117 300.401,230.302 302.041,230.597 303.658,231 305.244,231.509 306.793,232.123 308.298,232.838 309.752,233.652 311.149,234.56 312.483,235.56 313.747,236.645 314.936,237.812 316.045,239.056 317.069,240.37 318.004,241.75 318.845,243.188 319.588,244.68 320.231,246.217 320.77,247.793 321.204,249.402 321.529,251.037 321.746,252.689 321.852,254.352 321.847,256.018 321.732,257.68 321.507,259.331 321.172,260.964 320.73,262.57 320.182,264.144 308.539,259.651 309.632,256.819 311.048,257.365 312.141,254.533 306.477,252.348 305.384,255.18 306.8,255.726 305.707,258.558 305.707,258.558 305.557,258.925 305.391,259.285 305.211,259.639 305.017,259.984 304.808,260.321 304.585,260.649 304.349,260.967 304.1,261.276 303.838,261.574 303.565,261.86 303.279,262.136 302.983,262.399 302.675,262.649 302.358,262.887 302.031,263.111 301.695,263.322 301.351,263.518 300.999,263.7 300.639,263.867 300.273,264.019 299.901,264.156 299.524,264.278 299.141,264.383 298.755,264.473 298.366,264.546 297.973,264.604 297.579,264.645 297.183,264.669 296.787,264.678 292.945,257.052 292.914,256.99 292.884,256.928 292.856,256.865 292.828,256.801 292.802,256.737 292.776,256.673 292.751,256.608 292.728,256.543 292.705,256.478 292.684,256.412 292.664,256.345 292.645,256.279 292.626,256.212 292.609,256.145 292.593,256.078 292.578,256.01 292.564,255.942 292.552,255.874 292.54,255.806 292.53,255.737 292.52,255.669 292.512,255.6 292.505,255.531 292.498,255.462 292.493,255.393 292.489,255.324 292.487,255.255 292.485,255.186 292.484,255.116 297.08,230.042"/>
   <polyline stroke="#000000" stroke-width="0.5" stroke-linejoin="round" fill="none" stroke-linecap="butt" points="298.125,255.633 298.151,255.559 298.173,255.485 298.191,255.409 298.205,255.333 298.214,255.256 298.22,255.178 298.221,255.101 298.218,255.023 298.211,254.946 298.2,254.869 298.184,254.793 298.165,254.718 298.141,254.644 298.113,254.571 298.082,254.5 298.047,254.431 298.008,254.364 297.965,254.299 297.919,254.236 297.87,254.176 297.817,254.119 297.762,254.064 297.704,254.013 297.642,253.965 297.579,253.921 297.513,253.879 297.445,253.842 297.375,253.808 297.303,253.778 297.303,253.778 297.23,253.752 297.156,253.73 297.08,253.712 297.004,253.699 296.927,253.689 296.849,253.683 296.771,253.682 296.694,253.685 296.616,253.692 296.54,253.704 296.464,253.719 296.388,253.739 296.314,253.762 296.242,253.79 296.171,253.821 296.101,253.857 296.034,253.896 295.969,253.938 295.907,253.984 295.847,254.033 295.789,254.086 295.735,254.141 295.684,254.2 295.636,254.261 295.591,254.324 295.55,254.39 295.513,254.458 295.479,254.528 295.449,254.6 295.449,254.6 295.423,254.673 295.401,254.748 295.383,254.823 295.369,254.9 295.36,254.977 295.354,255.054 295.353,255.132 295.356,255.21 295.363,255.287 295.374,255.364 295.39,255.44 295.409,255.515 295.433,255.589 295.461,255.662 295.492,255.733 295.527,255.802 295.566,255.869 295.609,255.934 295.655,255.997 295.704,256.057 295.757,256.114 295.812,256.168 295.871,256.219 295.932,256.267 295.995,256.312 296.061,256.353 296.129,256.391 296.199,256.424 296.271,256.454 296.271,256.454 296.344,256.48 296.418,256.502 296.494,256.52 296.57,256.534 296.647,256.544 296.725,256.549 296.803,256.55 296.88,256.547 296.958,256.54 297.034,256.529 297.111,256.514 297.186,256.494 297.26,256.47 297.332,256.443 297.403,256.411 297.473,256.376 297.54,256.337 297.605,256.295 297.667,256.249 297.727,256.199 297.785,256.147 297.839,256.091 297.89,256.033 297.938,255.972 297.983,255.908 298.024,255.842 298.061,255.774 298.095,255.704 298.125,255.633"/>
   <polyline stroke="#ff0000" stroke-width="0.5" stroke-linejoin="round" fill="none" stroke-linecap="butt" points="333.988,132.315 269.489,132.315 269.256,132.317 269.024,132.321 268.793,132.328 268.564,132.339 268.338,132.352 268.115,132.367 267.897,132.386 267.682,132.407 267.474,132.431 267.271,132.458 267.075,132.487 266.885,132.519 266.704,132.552 266.53,132.588 266.365,132.627 266.21,132.667 266.064,132.709 265.928,132.753 265.802,132.798 265.688,132.845 265.584,132.894 265.492,132.943 265.412,132.994 265.343,133.046 265.287,133.098 265.243,133.151 265.212,133.205 265.193,133.259 265.187,133.312 265.187,133.312 265.18,133.366 265.161,133.42 265.13,133.474 265.086,133.527 265.03,133.579 264.961,133.631 264.881,133.682 264.789,133.731 264.685,133.78 264.571,133.827 264.445,133.872 264.309,133.916 264.163,133.958 264.008,133.998 263.843,134.036 263.669,134.073 263.488,134.106 263.298,134.138 263.102,134.167 262.899,134.194 262.691,134.218 262.477,134.239 262.258,134.258 262.035,134.273 261.809,134.286 261.58,134.297 261.349,134.304 261.117,134.308 260.884,134.31 260.884,128.013 333.988,128.013 333.988,132.315"/>
   <polyline stroke="#ff0000" stroke-width="0.5" stroke-linejoin="round" fill="none" stroke-linecap="butt" points="333.988,186.692 269.489,186.692 269.256,186.691 269.024,186.686 268.793,186.679 268.564,186.669 268.338,186.656 268.115,186.64 267.897,186.621 267.682,186.6 267.474,186.576 267.271,186.549 267.075,186.52 266.885,186.489 266.704,186.455 266.53,186.419 266.365,186.381 266.21,186.341 266.064,186.298 265.928,186.255 265.802,186.209 265.688,186.162 265.584,186.114 265.492,186.064 265.412,186.013 265.343,185.962 265.287,185.909 265.243,185.856 265.212,185.803 265.193,185.749 265.187,185.695 265.187,185.695 265.18,185.641 265.161,185.587 265.13,185.534 265.086,185.481 265.03,185.428 264.961,185.376 264.881,185.326 264.789,185.276 264.685,185.228 264.571,185.181 264.445,185.135 264.309,185.091 264.163,185.049 264.008,185.009 263.843,184.971 263.669,184.935 263.488,184.901 263.298,184.869 263.102,184.84 262.899,184.814 262.691,184.79 262.477,184.768 262.258,184.75 262.035,184.734 261.809,184.721 261.58,184.711 261.349,184.703 261.117,184.699 260.884,184.698 260.884,190.995 333.988,190.995 333.988,186.692"/>
   <polyline stroke="#ff0000" stroke-width="0.5" stroke-linejoin="round" fill="none" stroke-linecap="butt" points="297.08,134.429 292.484,159.504 297.08,134.429 297.08,132.315 292.484,132.315 292.252,132.317 292.019,132.321 291.788,132.328 291.56,132.339 291.333,132.352 291.111,132.367 290.892,132.386 290.678,132.407 290.469,132.431 290.266,132.458 290.07,132.487 289.881,132.519 289.699,132.552 289.526,132.588 289.361,132.627 289.205,132.667 289.059,132.709 288.923,132.753 288.798,132.798 288.683,132.845 288.58,132.894 288.487,132.943 288.407,132.994 288.339,133.046 288.282,133.098 288.239,133.151 288.207,133.205 288.188,133.259 288.182,133.312 288.182,133.312 288.176,133.366 288.157,133.42 288.125,133.474 288.081,133.527 288.025,133.579 287.957,133.631 287.876,133.682 287.784,133.731 287.681,133.78 287.566,133.827 287.441,133.872 287.305,133.916 287.159,133.958 287.003,133.998 286.838,134.036 286.665,134.073 286.483,134.106 286.294,134.138 286.098,134.167 285.895,134.194 285.686,134.218 285.472,134.239 285.253,134.258 285.03,134.273 284.804,134.286 284.575,134.297 284.345,134.304 284.112,134.308 283.879,134.31 283.879,184.698 284.112,184.699 284.345,184.703 284.575,184.711 284.804,184.721 285.03,184.734 285.253,184.75 285.472,184.768 285.686,184.79 285.895,184.814 286.098,184.84 286.294,184.869 286.483,184.901 286.665,184.935 286.838,184.971 287.003,185.009 287.159,185.049 287.305,185.091 287.441,185.135 287.566,185.181 287.681,185.228 287.784,185.276 287.876,185.326 287.957,185.376 288.025,185.428 288.081,185.481 288.125,185.534 288.157,185.587 288.176,185.641 288.182,185.695 288.182,185.695 288.188,185.749 288.207,185.803 288.239,185.856 288.282,185.909 288.339,185.962 288.407,186.013 288.487,186.064 288.58,186.114 288.683,186.162 288.798,186.209 288.923,186.255 289.059,186.298 289.205,186.341 289.361,186.381 289.526,186.419 289.699,186.455 289.881,186.489 290.07,186.52 290.266,186.549 290.469,186.576 290.678,186.6 290.892,186.621 291.111,186.64 291.333,186.656 291.56,186.669 291.788,186.679 292.019,186.686 292.252,186.691 292.484,186.692 297.08,186.692 297.08,184.578 292.484,159.504 297.08,184.578"/>
   <polyline stroke="#ff0000" stroke-width="0.5" stroke-linejoin="round" fill="none" stroke-linecap="butt" points="305.54,136.005 305.455,135.632 305.339,135.268 305.193,134.914 305.018,134.574 304.816,134.25 304.587,133.943 304.334,133.656 304.058,133.392 303.761,133.151 303.446,132.935 303.113,132.747 302.766,132.586 302.407,132.455 302.038,132.354 301.662,132.284 301.282,132.245 300.899,132.238 300.518,132.263 300.14,132.319 299.767,132.407 299.404,132.525 299.051,132.672 298.712,132.849 298.388,133.052 298.083,133.282 297.797,133.537 297.534,133.814 297.294,134.112 297.08,134.429 292.557,158.716 292.521,158.946 292.497,159.178 292.485,159.411 292.487,159.644 292.501,159.876 292.527,160.108 292.566,160.337 292.617,160.565 292.681,160.789 292.757,161.009 292.844,161.225 292.943,161.436 293.053,161.642 293.174,161.841 293.306,162.033 293.448,162.218 293.6,162.394 293.761,162.563 293.931,162.722 294.11,162.872 294.296,163.012 294.49,163.142 294.69,163.261 294.896,163.369 295.108,163.465 295.325,163.55 295.547,163.624 295.771,163.685 295.999,163.734 295.999,163.734 296.229,163.77 296.461,163.794 296.694,163.805 296.927,163.804 297.16,163.79 297.391,163.764 297.621,163.725 297.848,163.673 298.072,163.61 298.293,163.534 298.509,163.447 298.72,163.348 298.925,163.238 299.124,163.116 299.316,162.984 299.501,162.842 299.678,162.691 299.846,162.529 300.005,162.359 300.155,162.181 300.295,161.995 300.425,161.801 300.544,161.601 300.652,161.394 300.749,161.182 300.834,160.965 300.907,160.744 300.968,160.519 301.017,160.291 305.54,136.005"/>
   <polyline stroke="#ff0000" stroke-width="0.5" stroke-linejoin="round" fill="none" stroke-linecap="butt" points="299.607,160.029 299.631,159.875 299.647,159.721 299.655,159.566 299.654,159.41 299.645,159.255 299.627,159.101 299.601,158.948 299.567,158.796 299.524,158.647 299.474,158.5 299.416,158.356 299.35,158.215 299.276,158.078 299.195,157.946 299.108,157.818 299.013,157.694 298.912,157.577 298.804,157.464 298.691,157.358 298.572,157.258 298.448,157.165 298.319,157.078 298.185,156.999 298.047,156.927 297.906,156.863 297.762,156.806 297.614,156.757 297.464,156.716 297.312,156.684 297.312,156.684 297.159,156.66 297.004,156.644 296.849,156.636 296.694,156.637 296.539,156.646 296.384,156.664 296.231,156.69 296.08,156.724 295.93,156.766 295.783,156.817 295.639,156.875 295.499,156.941 295.362,157.014 295.229,157.095 295.101,157.183 294.978,157.278 294.86,157.379 294.748,157.487 294.642,157.6 294.542,157.719 294.448,157.843 294.362,157.972 294.282,158.106 294.21,158.243 294.146,158.385 294.089,158.529 294.04,158.677 294,158.827 293.967,158.979 293.967,158.979 293.943,159.132 293.927,159.286 293.919,159.442 293.92,159.597 293.929,159.752 293.947,159.906 293.973,160.06 294.007,160.211 294.05,160.361 294.1,160.508 294.158,160.651 294.224,160.792 294.298,160.929 294.379,161.062 294.467,161.19 294.561,161.313 294.662,161.431 294.77,161.543 294.883,161.649 295.002,161.749 295.126,161.842 295.255,161.929 295.389,162.008 295.527,162.08 295.668,162.145 295.813,162.201 295.96,162.25 296.11,162.291 296.262,162.324 296.262,162.324 296.415,162.348 296.57,162.364 296.725,162.371 296.88,162.371 297.035,162.361 297.19,162.344 297.343,162.318 297.494,162.283 297.644,162.241 297.791,162.191 297.935,162.132 298.075,162.066 298.212,161.993 298.345,161.912 298.473,161.824 298.596,161.73 298.714,161.628 298.826,161.521 298.932,161.408 299.032,161.289 299.126,161.164 299.212,161.035 299.292,160.902 299.364,160.764 299.428,160.623 299.485,160.478 299.534,160.331 299.574,160.181 299.607,160.029"/>
   <polyline stroke="#ff0000" stroke-width="0.5" stroke-linejoin="round" fill="none" stroke-linecap="butt" points="303.983,136.53 304.008,136.376 304.024,136.222 304.031,136.067 304.03,135.911 304.021,135.756 304.004,135.602 303.978,135.449 303.943,135.297 303.901,135.148 303.851,135.001 303.792,134.857 303.726,134.716 303.653,134.579 303.572,134.447 303.484,134.319 303.389,134.195 303.288,134.078 303.181,133.965 303.067,133.859 302.948,133.759 302.824,133.666 302.695,133.579 302.562,133.5 302.424,133.428 302.283,133.364 302.138,133.307 301.991,133.258 301.841,133.217 301.689,133.185 301.689,133.185 301.535,133.16 301.381,133.144 301.226,133.137 301.07,133.138 300.915,133.147 300.761,133.165 300.608,133.191 300.456,133.225 300.307,133.267 300.16,133.318 300.016,133.376 299.875,133.442 299.738,133.515 299.606,133.596 299.478,133.684 299.354,133.779 299.237,133.88 299.124,133.987 299.018,134.101 298.918,134.22 298.825,134.344 298.738,134.473 298.659,134.607 298.587,134.744 298.523,134.886 298.466,135.03 298.417,135.178 298.376,135.328 298.344,135.479 298.344,135.479 298.319,135.633 298.303,135.787 298.296,135.943 298.297,136.098 298.306,136.253 298.324,136.407 298.35,136.56 298.384,136.712 298.426,136.861 298.477,137.008 298.535,137.152 298.601,137.293 298.674,137.43 298.755,137.563 298.843,137.691 298.938,137.814 299.039,137.932 299.146,138.044 299.26,138.15 299.379,138.25 299.503,138.343 299.632,138.43 299.766,138.509 299.903,138.581 300.044,138.646 300.189,138.702 300.337,138.751 300.487,138.792 300.638,138.824 300.638,138.824 300.792,138.849 300.946,138.865 301.102,138.872 301.257,138.871 301.412,138.862 301.566,138.845 301.719,138.819 301.871,138.784 302.02,138.742 302.167,138.692 302.311,138.633 302.452,138.567 302.589,138.494 302.722,138.413 302.85,138.325 302.973,138.23 303.091,138.129 303.203,138.022 303.309,137.908 303.409,137.789 303.502,137.665 303.589,137.536 303.668,137.403 303.74,137.265 303.805,137.124 303.861,136.979 303.91,136.832 303.951,136.682 303.983,136.53"/>
   <polyline stroke="#ff0000" stroke-width="0.5" stroke-linejoin="round" fill="none" stroke-linecap="butt" points="305.834,134.429 306.048,134.112 306.287,133.814 306.55,133.537 306.836,133.282 307.141,133.052 307.465,132.849 307.804,132.672 308.157,132.525 308.52,132.407 308.893,132.319 309.271,132.263 309.652,132.238 310.035,132.245 310.415,132.284 310.791,132.354 311.16,132.455 311.519,132.586 311.866,132.747 312.199,132.935 312.515,133.151 312.811,133.392 313.087,133.656 313.34,133.943 313.569,134.25 313.771,134.574 313.946,134.914 314.092,135.268 314.208,135.632 314.293,136.005 305.247,184.578 305.033,184.895 304.793,185.193 304.53,185.471 304.245,185.725 303.939,185.955 303.616,186.159 303.276,186.335 302.924,186.483 302.56,186.601 302.188,186.688 301.809,186.744 301.428,186.769 301.046,186.762 300.665,186.723 300.289,186.653 299.92,186.552 299.561,186.421 299.214,186.261 298.882,186.072 298.566,185.857 298.269,185.616 297.993,185.351 297.74,185.064 297.511,184.758 297.309,184.433 297.135,184.093 296.989,183.74 296.873,183.375 296.787,183.003 305.834,134.429"/>
   <polyline stroke="#ff0000" stroke-width="0.5" stroke-linejoin="round" fill="none" stroke-linecap="butt" points="303.983,183.528 304.008,183.375 304.024,183.22 304.031,183.065 304.03,182.909 304.021,182.754 304.004,182.6 303.978,182.447 303.943,182.295 303.901,182.146 303.851,181.999 303.792,181.855 303.726,181.714 303.653,181.577 303.572,181.445 303.484,181.317 303.389,181.194 303.288,181.076 303.181,180.964 303.067,180.857 302.948,180.757 302.824,180.664 302.695,180.578 302.562,180.498 302.424,180.426 302.283,180.362 302.138,180.305 301.991,180.256 301.841,180.215 301.689,180.183 301.689,180.183 301.535,180.159 301.381,180.143 301.226,180.135 301.07,180.136 300.915,180.145 300.761,180.163 300.608,180.189 300.456,180.223 300.307,180.265 300.16,180.316 300.016,180.374 299.875,180.44 299.738,180.514 299.606,180.594 299.478,180.682 299.354,180.777 299.237,180.878 299.124,180.986 299.018,181.099 298.918,181.218 298.825,181.342 298.738,181.471 298.659,181.605 298.587,181.742 298.523,181.884 298.466,182.028 298.417,182.176 298.376,182.326 298.344,182.478 298.344,182.478 298.319,182.631 298.303,182.786 298.296,182.941 298.297,183.096 298.306,183.251 298.324,183.405 298.35,183.559 298.384,183.71 298.426,183.86 298.477,184.007 298.535,184.151 298.601,184.291 298.674,184.428 298.755,184.561 298.843,184.689 298.938,184.812 299.039,184.93 299.146,185.042 299.26,185.148 299.379,185.248 299.503,185.342 299.632,185.428 299.766,185.507 299.903,185.579 300.044,185.644 300.189,185.701 300.337,185.749 300.487,185.79 300.638,185.823 300.638,185.823 300.792,185.847 300.946,185.863 301.102,185.87 301.257,185.87 301.412,185.86 301.566,185.843 301.719,185.817 301.871,185.783 302.02,185.74 302.167,185.69 302.311,185.631 302.452,185.565 302.589,185.492 302.722,185.411 302.85,185.323 302.973,185.229 303.091,185.127 303.203,185.02 303.309,184.907 303.409,184.788 303.502,184.663 303.589,184.534 303.668,184.401 303.74,184.263 303.805,184.122 303.861,183.977 303.91,183.83 303.951,183.68 303.983,183.528"/>
   <polyline stroke="#ff0000" stroke-width="0.5" stroke-linejoin="round" fill="none" stroke-linecap="butt" points="308.36,160.029 308.384,159.875 308.4,159.721 308.408,159.566 308.407,159.41 308.398,159.255 308.38,159.101 308.354,158.948 308.32,158.796 308.278,158.647 308.227,158.5 308.169,158.356 308.103,158.215 308.029,158.078 307.949,157.946 307.861,157.818 307.766,157.694 307.665,157.577 307.557,157.464 307.444,157.358 307.325,157.258 307.201,157.165 307.072,157.078 306.938,156.999 306.801,156.927 306.659,156.863 306.515,156.806 306.367,156.757 306.217,156.716 306.065,156.684 306.065,156.684 305.912,156.66 305.757,156.644 305.602,156.636 305.447,156.637 305.292,156.646 305.137,156.664 304.984,156.69 304.833,156.724 304.683,156.766 304.536,156.817 304.392,156.875 304.252,156.941 304.115,157.014 303.982,157.095 303.854,157.183 303.731,157.278 303.613,157.379 303.501,157.487 303.395,157.6 303.295,157.719 303.201,157.843 303.115,157.972 303.036,158.106 302.964,158.243 302.899,158.385 302.842,158.529 302.794,158.677 302.753,158.827 302.72,158.979 302.72,158.979 302.696,159.132 302.68,159.286 302.672,159.442 302.673,159.597 302.683,159.752 302.7,159.906 302.726,160.06 302.76,160.211 302.803,160.361 302.853,160.508 302.911,160.651 302.977,160.792 303.051,160.929 303.132,161.062 303.22,161.19 303.314,161.313 303.416,161.431 303.523,161.543 303.636,161.649 303.755,161.749 303.879,161.842 304.009,161.929 304.142,162.008 304.28,162.08 304.421,162.145 304.566,162.201 304.713,162.25 304.863,162.291 305.015,162.324 305.015,162.324 305.168,162.348 305.323,162.364 305.478,162.371 305.633,162.371 305.788,162.361 305.943,162.344 306.096,162.318 306.248,162.283 306.397,162.241 306.544,162.191 306.688,162.132 306.829,162.066 306.965,161.993 307.098,161.912 307.226,161.824 307.349,161.73 307.467,161.628 307.579,161.521 307.686,161.408 307.786,161.289 307.879,161.164 307.965,161.035 308.045,160.902 308.117,160.764 308.181,160.623 308.238,160.478 308.287,160.331 308.327,160.181 308.36,160.029"/>
   <polyline stroke="#ff0000" stroke-width="0.5" stroke-linejoin="round" fill="none" stroke-linecap="butt" points="312.737,136.53 312.761,136.376 312.777,136.222 312.784,136.067 312.784,135.911 312.774,135.756 312.757,135.602 312.731,135.449 312.696,135.297 312.654,135.148 312.604,135.001 312.545,134.857 312.479,134.716 312.406,134.579 312.325,134.447 312.237,134.319 312.143,134.195 312.041,134.078 311.934,133.965 311.82,133.859 311.702,133.759 311.577,133.666 311.448,133.579 311.315,133.5 311.177,133.428 311.036,133.364 310.891,133.307 310.744,133.258 310.594,133.217 310.442,133.185 310.442,133.185 310.288,133.16 310.134,133.144 309.979,133.137 309.823,133.138 309.668,133.147 309.514,133.165 309.361,133.191 309.209,133.225 309.06,133.267 308.913,133.318 308.769,133.376 308.628,133.442 308.491,133.515 308.359,133.596 308.231,133.684 308.107,133.779 307.99,133.88 307.877,133.987 307.771,134.101 307.671,134.22 307.578,134.344 307.491,134.473 307.412,134.607 307.34,134.744 307.276,134.886 307.219,135.03 307.17,135.178 307.129,135.328 307.097,135.479 307.097,135.479 307.073,135.633 307.057,135.787 307.049,135.943 307.05,136.098 307.059,136.253 307.077,136.407 307.103,136.56 307.137,136.712 307.179,136.861 307.23,137.008 307.288,137.152 307.354,137.293 307.427,137.43 307.508,137.563 307.596,137.691 307.691,137.814 307.792,137.932 307.9,138.044 308.013,138.15 308.132,138.25 308.256,138.343 308.385,138.43 308.519,138.509 308.656,138.581 308.798,138.646 308.942,138.702 309.09,138.751 309.24,138.792 309.392,138.824 309.392,138.824 309.545,138.849 309.699,138.865 309.855,138.872 310.01,138.871 310.165,138.862 310.319,138.845 310.473,138.819 310.624,138.784 310.774,138.742 310.92,138.692 311.064,138.633 311.205,138.567 311.342,138.494 311.475,138.413 311.603,138.325 311.726,138.23 311.844,138.129 311.956,138.022 312.062,137.908 312.162,137.789 312.255,137.665 312.342,137.536 312.421,137.403 312.493,137.265 312.558,137.124 312.614,136.979 312.663,136.832 312.704,136.682 312.737,136.53"/>
   <polyline stroke="#ff0000" stroke-width="0.5" stroke-linejoin="round" fill="none" stroke-linecap="butt" points="314.587,134.429 314.801,134.112 315.04,133.814 315.303,133.537 315.589,133.282 315.894,133.052 316.218,132.849 316.557,132.672 316.91,132.525 317.274,132.407 317.646,132.319 318.024,132.263 318.406,132.238 318.788,132.245 319.168,132.284 319.544,132.354 319.913,132.455 320.272,132.586 320.619,132.747 320.952,132.935 321.268,133.151 321.565,133.392 321.84,133.656 322.094,133.943 322.322,134.25 322.524,134.574 322.699,134.914 322.845,135.268 322.961,135.632 323.046,136.005 314,184.578 313.786,184.895 313.546,185.193 313.283,185.471 312.998,185.725 312.692,185.955 312.369,186.159 312.029,186.335 311.677,186.483 311.313,186.601 310.941,186.688 310.563,186.744 310.181,186.769 309.799,186.762 309.418,186.723 309.042,186.653 308.674,186.552 308.314,186.421 307.967,186.261 307.635,186.072 307.319,185.857 307.022,185.616 306.746,185.351 306.493,185.064 306.265,184.758 306.062,184.433 305.888,184.093 305.742,183.74 305.626,183.375 305.54,183.003 314.587,134.429"/>
   <polyline stroke="#ff0000" stroke-width="0.5" stroke-linejoin="round" fill="none" stroke-linecap="butt" points="312.737,183.528 312.761,183.375 312.777,183.22 312.784,183.065 312.784,182.909 312.774,182.754 312.757,182.6 312.731,182.447 312.696,182.295 312.654,182.146 312.604,181.999 312.545,181.855 312.479,181.714 312.406,181.577 312.325,181.445 312.237,181.317 312.143,181.194 312.041,181.076 311.934,180.964 311.82,180.857 311.702,180.757 311.577,180.664 311.448,180.578 311.315,180.498 311.177,180.426 311.036,180.362 310.891,180.305 310.744,180.256 310.594,180.215 310.442,180.183 310.442,180.183 310.288,180.159 310.134,180.143 309.979,180.135 309.823,180.136 309.668,180.145 309.514,180.163 309.361,180.189 309.209,180.223 309.06,180.265 308.913,180.316 308.769,180.374 308.628,180.44 308.491,180.514 308.359,180.594 308.231,180.682 308.107,180.777 307.99,180.878 307.877,180.986 307.771,181.099 307.671,181.218 307.578,181.342 307.491,181.471 307.412,181.605 307.34,181.742 307.276,181.884 307.219,182.028 307.17,182.176 307.129,182.326 307.097,182.478 307.097,182.478 307.073,182.631 307.057,182.786 307.049,182.941 307.05,183.096 307.059,183.251 307.077,183.405 307.103,183.559 307.137,183.71 307.179,183.86 307.23,184.007 307.288,184.151 307.354,184.291 307.427,184.428 307.508,184.561 307.596,184.689 307.691,184.812 307.792,184.93 307.9,185.042 308.013,185.148 308.132,185.248 308.256,185.342 308.385,185.428 308.519,185.507 308.656,185.579 308.798,185.644 308.942,185.701 309.09,185.749 309.24,185.79 309.392,185.823 309.392,185.823 309.545,185.847 309.699,185.863 309.855,185.87 310.01,185.87 310.165,185.86 310.319,185.843 310.473,185.817 310.624,185.783 310.774,185.74 310.92,185.69 311.064,185.631 311.205,185.565 311.342,185.492 311.475,185.411 311.603,185.323 311.726,185.229 311.844,185.127 311.956,185.02 312.062,184.907 312.162,184.788 312.255,184.663 312.342,184.534 312.421,184.401 312.493,184.263 312.558,184.122 312.614,183.977 312.663,183.83 312.704,183.68 312.737,183.528"/>
   <polyline stroke="#ff0000" stroke-width="0.5" stroke-linejoin="round" fill="none" stroke-linecap="butt" points="317.113,160.029 317.137,159.875 317.153,159.721 317.161,159.566 317.16,159.41 317.151,159.255 317.133,159.101 317.107,158.948 317.073,158.796 317.031,158.647 316.98,158.5 316.922,158.356 316.856,158.215 316.782,158.078 316.702,157.946 316.614,157.818 316.519,157.694 316.418,157.577 316.31,157.464 316.197,157.358 316.078,157.258 315.954,157.165 315.825,157.078 315.691,156.999 315.554,156.927 315.412,156.863 315.268,156.806 315.12,156.757 314.97,156.716 314.818,156.684 314.818,156.684 314.665,156.66 314.51,156.644 314.355,156.636 314.2,156.637 314.045,156.646 313.891,156.664 313.737,156.69 313.586,156.724 313.436,156.766 313.289,156.817 313.145,156.875 313.005,156.941 312.868,157.014 312.735,157.095 312.607,157.183 312.484,157.278 312.366,157.379 312.254,157.487 312.148,157.6 312.048,157.719 311.954,157.843 311.868,157.972 311.789,158.106 311.717,158.243 311.652,158.385 311.595,158.529 311.547,158.677 311.506,158.827 311.473,158.979 311.473,158.979 311.449,159.132 311.433,159.286 311.426,159.442 311.426,159.597 311.436,159.752 311.453,159.906 311.479,160.06 311.513,160.211 311.556,160.361 311.606,160.508 311.665,160.651 311.731,160.792 311.804,160.929 311.885,161.062 311.973,161.19 312.067,161.313 312.169,161.431 312.276,161.543 312.389,161.649 312.508,161.749 312.633,161.842 312.762,161.929 312.895,162.008 313.033,162.08 313.174,162.145 313.319,162.201 313.466,162.25 313.616,162.291 313.768,162.324 313.768,162.324 313.921,162.348 314.076,162.364 314.231,162.371 314.387,162.371 314.542,162.361 314.696,162.344 314.849,162.318 315.001,162.283 315.15,162.241 315.297,162.191 315.441,162.132 315.582,162.066 315.719,161.993 315.851,161.912 315.979,161.824 316.102,161.73 316.22,161.628 316.333,161.521 316.439,161.408 316.539,161.289 316.632,161.164 316.718,161.035 316.798,160.902 316.87,160.764 316.934,160.623 316.991,160.478 317.04,160.331 317.081,160.181 317.113,160.029"/>
   <polyline stroke="#ff0000" stroke-width="0.5" stroke-linejoin="round" fill="none" stroke-linecap="butt" points="321.49,136.53 321.514,136.376 321.53,136.222 321.538,136.067 321.537,135.911 321.527,135.756 321.51,135.602 321.484,135.449 321.45,135.297 321.407,135.148 321.357,135.001 321.299,134.857 321.233,134.716 321.159,134.579 321.078,134.447 320.99,134.319 320.896,134.195 320.794,134.078 320.687,133.965 320.574,133.859 320.455,133.759 320.33,133.666 320.201,133.579 320.068,133.5 319.93,133.428 319.789,133.364 319.644,133.307 319.497,133.258 319.347,133.217 319.195,133.185 319.195,133.185 319.042,133.16 318.887,133.144 318.732,133.137 318.577,133.138 318.421,133.147 318.267,133.165 318.114,133.191 317.962,133.225 317.813,133.267 317.666,133.318 317.522,133.376 317.381,133.442 317.245,133.515 317.112,133.596 316.984,133.684 316.861,133.779 316.743,133.88 316.631,133.987 316.524,134.101 316.424,134.22 316.331,134.344 316.245,134.473 316.165,134.607 316.093,134.744 316.029,134.886 315.972,135.03 315.923,135.178 315.882,135.328 315.85,135.479 315.85,135.479 315.826,135.633 315.81,135.787 315.802,135.943 315.803,136.098 315.812,136.253 315.83,136.407 315.856,136.56 315.89,136.712 315.932,136.861 315.983,137.008 316.041,137.152 316.107,137.293 316.181,137.43 316.261,137.563 316.349,137.691 316.444,137.814 316.545,137.932 316.653,138.044 316.766,138.15 316.885,138.25 317.009,138.343 317.138,138.43 317.272,138.509 317.409,138.581 317.551,138.646 317.695,138.702 317.843,138.751 317.993,138.792 318.145,138.824 318.145,138.824 318.298,138.849 318.453,138.865 318.608,138.872 318.763,138.871 318.918,138.862 319.072,138.845 319.226,138.819 319.377,138.784 319.527,138.742 319.674,138.692 319.818,138.633 319.958,138.567 320.095,138.494 320.228,138.413 320.356,138.325 320.479,138.23 320.597,138.129 320.709,138.022 320.815,137.908 320.915,137.789 321.009,137.665 321.095,137.536 321.174,137.403 321.246,137.265 321.311,137.124 321.368,136.979 321.416,136.832 321.457,136.682 321.49,136.53"/>
   <polyline stroke="#ff0000" stroke-width="0.5" stroke-linejoin="round" fill="none" stroke-linecap="butt" points="323.34,134.429 323.554,134.112 323.793,133.814 324.057,133.537 324.342,133.282 324.647,133.052 324.971,132.849 325.31,132.672 325.663,132.525 326.027,132.407 326.399,132.319 326.777,132.263 327.159,132.238 327.541,132.245 327.921,132.284 328.297,132.354 328.666,132.455 329.025,132.586 329.372,132.747 329.705,132.935 330.021,133.151 330.318,133.392 330.594,133.656 330.847,133.943 331.075,134.25 331.277,134.574 331.452,134.914 331.598,135.268 331.714,135.632 331.799,136.005 322.753,184.578 322.539,184.895 322.299,185.193 322.036,185.471 321.751,185.725 321.445,185.955 321.122,186.159 320.782,186.335 320.43,186.483 320.066,186.601 319.694,186.688 319.316,186.744 318.934,186.769 318.552,186.762 318.171,186.723 317.795,186.653 317.427,186.552 317.067,186.421 316.72,186.261 316.388,186.072 316.072,185.857 315.775,185.616 315.499,185.351 315.246,185.064 315.018,184.758 314.815,184.433 314.641,184.093 314.495,183.74 314.379,183.375 314.293,183.003 323.34,134.429"/>
   <polyline stroke="#ff0000" stroke-width="0.5" stroke-linejoin="round" fill="none" stroke-linecap="butt" points="321.49,183.528 321.514,183.375 321.53,183.22 321.538,183.065 321.537,182.909 321.527,182.754 321.51,182.6 321.484,182.447 321.45,182.295 321.407,182.146 321.357,181.999 321.299,181.855 321.233,181.714 321.159,181.577 321.078,181.445 320.99,181.317 320.896,181.194 320.794,181.076 320.687,180.964 320.574,180.857 320.455,180.757 320.33,180.664 320.201,180.578 320.068,180.498 319.93,180.426 319.789,180.362 319.644,180.305 319.497,180.256 319.347,180.215 319.195,180.183 319.195,180.183 319.042,180.159 318.887,180.143 318.732,180.135 318.577,180.136 318.421,180.145 318.267,180.163 318.114,180.189 317.962,180.223 317.813,180.265 317.666,180.316 317.522,180.374 317.381,180.44 317.245,180.514 317.112,180.594 316.984,180.682 316.861,180.777 316.743,180.878 316.631,180.986 316.524,181.099 316.424,181.218 316.331,181.342 316.245,181.471 316.165,181.605 316.093,181.742 316.029,181.884 315.972,182.028 315.923,182.176 315.882,182.326 315.85,182.478 315.85,182.478 315.826,182.631 315.81,182.786 315.802,182.941 315.803,183.096 315.812,183.251 315.83,183.405 315.856,183.559 315.89,183.71 315.932,183.86 315.983,184.007 316.041,184.151 316.107,184.291 316.181,184.428 316.261,184.561 316.349,184.689 316.444,184.812 316.545,184.93 316.653,185.042 316.766,185.148 316.885,185.248 317.009,185.342 317.138,185.428 317.272,185.507 317.409,185.579 317.551,185.644 317.695,185.701 317.843,185.749 317.993,185.79 318.145,185.823 318.145,185.823 318.298,185.847 318.453,185.863 318.608,185.87 318.763,185.87 318.918,185.86 319.072,185.843 319.226,185.817 319.377,185.783 319.527,185.74 319.674,185.69 319.818,185.631 319.958,185.565 320.095,185.492 320.228,185.411 320.356,185.323 320.479,185.229 320.597,185.127 320.709,185.02 320.815,184.907 320.915,184.788 321.009,184.663 321.095,184.534 321.174,184.401 321.246,184.263 321.311,184.122 321.368,183.977 321.416,183.83 321.457,183.68 321.49,183.528"/>
   <polyline stroke="#ff0000" stroke-width="0.5" stroke-linejoin="round" fill="none" stroke-linecap="butt" points="325.866,160.029 325.891,159.875 325.906,159.721 325.914,159.566 325.913,159.41 325.904,159.255 325.886,159.101 325.86,158.948 325.826,158.796 325.784,158.647 325.733,158.5 325.675,158.356 325.609,158.215 325.536,158.078 325.455,157.946 325.367,157.818 325.272,157.694 325.171,157.577 325.064,157.464 324.95,157.358 324.831,157.258 324.707,157.165 324.578,157.078 324.444,156.999 324.307,156.927 324.165,156.863 324.021,156.806 323.873,156.757 323.723,156.716 323.572,156.684 323.572,156.684 323.418,156.66 323.264,156.644 323.108,156.636 322.953,156.637 322.798,156.646 322.644,156.664 322.49,156.69 322.339,156.724 322.189,156.766 322.043,156.817 321.899,156.875 321.758,156.941 321.621,157.014 321.488,157.095 321.36,157.183 321.237,157.278 321.119,157.379 321.007,157.487 320.901,157.6 320.801,157.719 320.708,157.843 320.621,157.972 320.542,158.106 320.47,158.243 320.405,158.385 320.349,158.529 320.3,158.677 320.259,158.827 320.226,158.979 320.226,158.979 320.202,159.132 320.186,159.286 320.179,159.442 320.179,159.597 320.189,159.752 320.206,159.906 320.232,160.06 320.267,160.211 320.309,160.361 320.359,160.508 320.418,160.651 320.484,160.792 320.557,160.929 320.638,161.062 320.726,161.19 320.82,161.313 320.922,161.431 321.029,161.543 321.143,161.649 321.261,161.749 321.386,161.842 321.515,161.929 321.648,162.008 321.786,162.08 321.927,162.145 322.072,162.201 322.219,162.25 322.369,162.291 322.521,162.324 322.521,162.324 322.675,162.348 322.829,162.364 322.984,162.371 323.14,162.371 323.295,162.361 323.449,162.344 323.602,162.318 323.754,162.283 323.903,162.241 324.05,162.191 324.194,162.132 324.335,162.066 324.472,161.993 324.604,161.912 324.732,161.824 324.856,161.73 324.973,161.628 325.086,161.521 325.192,161.408 325.292,161.289 325.385,161.164 325.472,161.035 325.551,160.902 325.623,160.764 325.687,160.623 325.744,160.478 325.793,160.331 325.834,160.181 325.866,160.029"/>
   <polyline stroke="#ff0000" stroke-width="0.5" stroke-linejoin="round" fill="none" stroke-linecap="butt" points="330.243,136.53 330.267,136.376 330.283,136.222 330.291,136.067 330.29,135.911 330.281,135.756 330.263,135.602 330.237,135.449 330.203,135.297 330.16,135.148 330.11,135.001 330.052,134.857 329.986,134.716 329.912,134.579 329.831,134.447 329.743,134.319 329.649,134.195 329.548,134.078 329.44,133.965 329.327,133.859 329.208,133.759 329.084,133.666 328.955,133.579 328.821,133.5 328.683,133.428 328.542,133.364 328.397,133.307 328.25,133.258 328.1,133.217 327.948,133.185 327.948,133.185 327.795,133.16 327.64,133.144 327.485,133.137 327.33,133.138 327.175,133.147 327.02,133.165 326.867,133.191 326.716,133.225 326.566,133.267 326.419,133.318 326.275,133.376 326.134,133.442 325.998,133.515 325.865,133.596 325.737,133.684 325.614,133.779 325.496,133.88 325.384,133.987 325.277,134.101 325.177,134.22 325.084,134.344 324.998,134.473 324.918,134.607 324.846,134.744 324.782,134.886 324.725,135.03 324.676,135.178 324.636,135.328 324.603,135.479 324.603,135.479 324.579,135.633 324.563,135.787 324.555,135.943 324.556,136.098 324.565,136.253 324.583,136.407 324.609,136.56 324.643,136.712 324.685,136.861 324.736,137.008 324.794,137.152 324.86,137.293 324.934,137.43 325.014,137.563 325.102,137.691 325.197,137.814 325.298,137.932 325.406,138.044 325.519,138.15 325.638,138.25 325.762,138.343 325.891,138.43 326.025,138.509 326.162,138.581 326.304,138.646 326.448,138.702 326.596,138.751 326.746,138.792 326.898,138.824 326.898,138.824 327.051,138.849 327.206,138.865 327.361,138.872 327.516,138.871 327.671,138.862 327.826,138.845 327.979,138.819 328.13,138.784 328.28,138.742 328.427,138.692 328.571,138.633 328.711,138.567 328.848,138.494 328.981,138.413 329.109,138.325 329.232,138.23 329.35,138.129 329.462,138.022 329.568,137.908 329.668,137.789 329.762,137.665 329.848,137.536 329.927,137.403 330,137.265 330.064,137.124 330.121,136.979 330.169,136.832 330.21,136.682 330.243,136.53"/>
   <polyline stroke="#ff0000" stroke-width="0.5" stroke-linejoin="round" fill="none" stroke-linecap="butt" points="349.077,142.434 353.944,149.53 335.543,162.903 331.506,184.578 331.292,184.895 331.053,185.193 330.789,185.471 330.504,185.725 330.198,185.955 329.875,186.159 329.536,186.335 329.183,186.483 328.819,186.601 328.447,186.688 328.069,186.744 327.687,186.769 327.305,186.762 326.924,186.723 326.549,186.653 326.18,186.552 325.821,186.421 325.473,186.261 325.141,186.072 324.825,185.857 324.528,185.616 324.252,185.351 323.999,185.064 323.771,184.758 323.569,184.433 323.394,184.093 323.248,183.74 323.132,183.375 323.046,183.003 327.57,158.716 327.592,158.602 327.618,158.488 327.648,158.375 327.68,158.263 327.715,158.152 327.753,158.042 327.794,157.933 327.838,157.825 327.885,157.718 327.935,157.613 327.987,157.509 328.043,157.407 328.101,157.306 328.162,157.206 328.225,157.109 328.291,157.013 328.36,156.919 328.431,156.826 328.505,156.736 328.581,156.648 328.66,156.562 328.741,156.478 328.824,156.396 328.909,156.317 328.996,156.24 329.086,156.165 329.177,156.093 329.27,156.023 329.366,155.956 349.077,142.434"/>
   <polyline stroke="#ff0000" stroke-width="0.5" stroke-linejoin="round" fill="none" stroke-linecap="butt" points="334.619,160.029 334.644,159.875 334.66,159.721 334.667,159.566 334.666,159.41 334.657,159.255 334.639,159.101 334.613,158.948 334.579,158.796 334.537,158.647 334.486,158.5 334.428,158.356 334.362,158.215 334.289,158.078 334.208,157.946 334.12,157.818 334.025,157.694 333.924,157.577 333.817,157.464 333.703,157.358 333.584,157.258 333.46,157.165 333.331,157.078 333.198,156.999 333.06,156.927 332.919,156.863 332.774,156.806 332.626,156.757 332.477,156.716 332.325,156.684 332.325,156.684 332.171,156.66 332.017,156.644 331.862,156.636 331.706,156.637 331.551,156.646 331.397,156.664 331.244,156.69 331.092,156.724 330.943,156.766 330.796,156.817 330.652,156.875 330.511,156.941 330.374,157.014 330.241,157.095 330.113,157.183 329.99,157.278 329.872,157.379 329.76,157.487 329.654,157.6 329.554,157.719 329.461,157.843 329.374,157.972 329.295,158.106 329.223,158.243 329.158,158.385 329.102,158.529 329.053,158.677 329.012,158.827 328.98,158.979 328.98,158.979 328.955,159.132 328.939,159.286 328.932,159.442 328.933,159.597 328.942,159.752 328.959,159.906 328.985,160.06 329.02,160.211 329.062,160.361 329.112,160.508 329.171,160.651 329.237,160.792 329.31,160.929 329.391,161.062 329.479,161.19 329.574,161.313 329.675,161.431 329.782,161.543 329.896,161.649 330.015,161.749 330.139,161.842 330.268,161.929 330.401,162.008 330.539,162.08 330.68,162.145 330.825,162.201 330.972,162.25 331.122,162.291 331.274,162.324 331.274,162.324 331.428,162.348 331.582,162.364 331.737,162.371 331.893,162.371 332.048,162.361 332.202,162.344 332.355,162.318 332.507,162.283 332.656,162.241 332.803,162.191 332.947,162.132 333.088,162.066 333.225,161.993 333.357,161.912 333.486,161.824 333.609,161.73 333.727,161.628 333.839,161.521 333.945,161.408 334.045,161.289 334.138,161.164 334.225,161.035 334.304,160.902 334.376,160.764 334.441,160.623 334.497,160.478 334.546,160.331 334.587,160.181 334.619,160.029"/>
   <polyline stroke="#ff0000" stroke-width="0.5" stroke-linejoin="round" fill="none" stroke-linecap="butt" points="330.243,183.528 330.267,183.375 330.283,183.22 330.291,183.065 330.29,182.909 330.281,182.754 330.263,182.6 330.237,182.447 330.203,182.295 330.16,182.146 330.11,181.999 330.052,181.855 329.986,181.714 329.912,181.577 329.831,181.445 329.743,181.317 329.649,181.194 329.548,181.076 329.44,180.964 329.327,180.857 329.208,180.757 329.084,180.664 328.955,180.578 328.821,180.498 328.683,180.426 328.542,180.362 328.397,180.305 328.25,180.256 328.1,180.215 327.948,180.183 327.948,180.183 327.795,180.159 327.64,180.143 327.485,180.135 327.33,180.136 327.175,180.145 327.02,180.163 326.867,180.189 326.716,180.223 326.566,180.265 326.419,180.316 326.275,180.374 326.134,180.44 325.998,180.514 325.865,180.594 325.737,180.682 325.614,180.777 325.496,180.878 325.384,180.986 325.277,181.099 325.177,181.218 325.084,181.342 324.998,181.471 324.918,181.605 324.846,181.742 324.782,181.884 324.725,182.028 324.676,182.176 324.636,182.326 324.603,182.478 324.603,182.478 324.579,182.631 324.563,182.786 324.555,182.941 324.556,183.096 324.565,183.251 324.583,183.405 324.609,183.559 324.643,183.71 324.685,183.86 324.736,184.007 324.794,184.151 324.86,184.291 324.934,184.428 325.014,184.561 325.102,184.689 325.197,184.812 325.298,184.93 325.406,185.042 325.519,185.148 325.638,185.248 325.762,185.342 325.891,185.428 326.025,185.507 326.162,185.579 326.304,185.644 326.448,185.701 326.596,185.749 326.746,185.79 326.898,185.823 326.898,185.823 327.051,185.847 327.206,185.863 327.361,185.87 327.516,185.87 327.671,185.86 327.826,185.843 327.979,185.817 328.13,185.783 328.28,185.74 328.427,185.69 328.571,185.631 328.711,185.565 328.848,185.492 328.981,185.411 329.109,185.323 329.232,185.229 329.35,185.127 329.462,185.02 329.568,184.907 329.668,184.788 329.762,184.663 329.848,184.534 329.927,184.401 330,184.263 330.064,184.122 330.121,183.977 330.169,183.83 330.21,183.68 330.243,183.528"/>
   <polyline stroke="#0000ff" stroke-width="0.5" stroke-linejoin="round" fill="none" stroke-linecap="butt" points="333.988,36.7026 269.489,36.7026 269.256,36.704 269.024,36.7084 268.793,36.7157 268.564,36.7259 268.338,36.7389 268.115,36.7548 267.897,36.7734 267.682,36.7947 267.474,36.8187 267.271,36.8453 267.075,36.8744 266.885,36.9059 266.704,36.9398 266.53,36.9758 266.365,37.014 266.21,37.0542 266.064,37.0963 265.928,37.1402 265.802,37.1857 265.688,37.2327 265.584,37.2811 265.492,37.3307 265.412,37.3814 265.343,37.433 265.287,37.4855 265.243,37.5385 265.212,37.592 265.193,37.6459 265.187,37.6999 265.187,37.6999 265.18,37.7538 265.161,37.8077 265.13,37.8612 265.086,37.9142 265.03,37.9667 264.961,38.0183 264.881,38.069 264.789,38.1187 264.685,38.167 264.571,38.214 264.445,38.2595 264.309,38.3034 264.163,38.3455 264.008,38.3857 263.843,38.4239 263.669,38.46 263.488,38.4938 263.298,38.5253 263.102,38.5544 262.899,38.581 262.691,38.605 262.477,38.6263 262.258,38.6449 262.035,38.6608 261.809,38.6738 261.58,38.684 261.349,38.6913 261.117,38.6957 260.884,38.6972 260.884,32.4 333.988,32.4 333.988,36.7026"/>
   <polyline stroke="#0000ff" stroke-width="0.5" stroke-linejoin="round" fill="none" stroke-linecap="butt" points="333.988,91.0796 269.489,91.0796 269.256,91.0781 269.024,91.0737 268.793,91.0664 268.564,91.0562 268.338,91.0432 268.115,91.0273 267.897,91.0087 267.682,90.9874 267.474,90.9634 267.271,90.9368 267.075,90.9077 266.885,90.8762 266.704,90.8424 266.53,90.8063 266.365,90.7681 266.21,90.7279 266.064,90.6858 265.928,90.6419 265.802,90.5964 265.688,90.5494 265.584,90.501 265.492,90.4514 265.412,90.4007 265.343,90.3491 265.287,90.2967 265.243,90.2436 265.212,90.1901 265.193,90.1363 265.187,90.0823 265.187,90.0823 265.18,90.0283 265.161,89.9745 265.13,89.921 265.086,89.8679 265.03,89.8155 264.961,89.7639 264.881,89.7131 264.789,89.6635 264.685,89.6151 264.571,89.5681 264.445,89.5226 264.309,89.4788 264.163,89.4366 264.008,89.3965 263.843,89.3583 263.669,89.3222 263.488,89.2884 263.298,89.2568 263.102,89.2278 262.899,89.2012 262.691,89.1772 262.477,89.1558 262.258,89.1372 262.035,89.1213 261.809,89.1083 261.58,89.0981 261.349,89.0908 261.117,89.0865 260.884,89.085 260.884,95.3821 333.988,95.3821 333.988,91.0796"/>
   <polyline stroke="#0000ff" stroke-width="0.5" stroke-linejoin="round" fill="none" stroke-linecap="butt" points="297.08,38.8164 292.484,63.8911 297.08,38.8164 297.08,36.7026 292.484,36.7026 292.252,36.704 292.019,36.7084 291.788,36.7157 291.56,36.7259 291.333,36.7389 291.111,36.7548 290.892,36.7734 290.678,36.7947 290.469,36.8187 290.266,36.8453 290.07,36.8744 289.881,36.9059 289.699,36.9398 289.526,36.9758 289.361,37.014 289.205,37.0542 289.059,37.0963 288.923,37.1402 288.798,37.1857 288.683,37.2327 288.58,37.2811 288.487,37.3307 288.407,37.3814 288.339,37.433 288.282,37.4855 288.239,37.5385 288.207,37.592 288.188,37.6459 288.182,37.6999 288.182,37.6999 288.176,37.7538 288.157,37.8077 288.125,37.8612 288.081,37.9142 288.025,37.9667 287.957,38.0183 287.876,38.069 287.784,38.1187 287.681,38.167 287.566,38.214 287.441,38.2595 287.305,38.3034 287.159,38.3455 287.003,38.3857 286.838,38.4239 286.665,38.46 286.483,38.4938 286.294,38.5253 286.098,38.5544 285.895,38.581 285.686,38.605 285.472,38.6263 285.253,38.6449 285.03,38.6608 284.804,38.6738 284.575,38.684 284.345,38.6913 284.112,38.6957 283.879,38.6972 245.251,38.6972 245.087,38.7016 244.923,38.7149 244.76,38.7371 244.599,38.7681 244.439,38.8078 244.282,38.856 244.128,38.9128 243.977,38.9777 243.829,39.0508 243.686,39.1317 243.548,39.2202 243.414,39.3162 243.286,39.4192 243.164,39.5289 243.047,39.6452 242.938,39.7676 242.835,39.8957 242.739,40.0292 242.65,40.1678 242.569,40.3109 242.496,40.4582 242.431,40.6092 242.374,40.7635 242.326,40.9207 242.287,41.0803 242.256,41.2417 242.233,41.4046 242.22,41.5685 242.216,41.7328 242.216,86.0493 242.22,86.2137 242.233,86.3775 242.256,86.5404 242.287,86.7019 242.326,86.8615 242.374,87.0186 242.431,87.1729 242.496,87.324 242.569,87.4713 242.65,87.6143 242.739,87.7529 242.835,87.8864 242.938,88.0146 243.047,88.137 243.164,88.2532 243.286,88.363 243.414,88.466 243.548,88.5619 243.686,88.6505 243.829,88.7314 243.977,88.8044 244.128,88.8694 244.282,88.9261 244.439,88.9744 244.599,89.014 244.76,89.045 244.923,89.0672 245.087,89.0805 245.251,89.085 283.879,89.085 284.112,89.0865 284.345,89.0908 284.575,89.0981 284.804,89.1083 285.03,89.1213 285.253,89.1372 285.472,89.1558 285.686,89.1772 285.895,89.2012 286.098,89.2278 286.294,89.2568 286.483,89.2884 286.665,89.3222 286.838,89.3583 287.003,89.3965 287.159,89.4366 287.305,89.4788 287.441,89.5226 287.566,89.5681 287.681,89.6151 287.784,89.6635 287.876,89.7131 287.957,89.7639 288.025,89.8155 288.081,89.8679 288.125,89.921 288.157,89.9745 288.176,90.0283 288.182,90.0823 288.182,90.0823 288.188,90.1363 288.207,90.1901 288.239,90.2436 288.282,90.2967 288.339,90.3491 288.407,90.4007 288.487,90.4514 288.58,90.501 288.683,90.5494 288.798,90.5964 288.923,90.6419 289.059,90.6858 289.205,90.7279 289.361,90.7681 289.526,90.8063 289.699,90.8424 289.881,90.8762 290.07,90.9077 290.266,90.9368 290.469,90.9634 290.678,90.9874 290.892,91.0087 291.111,91.0273 291.333,91.0432 291.56,91.0562 291.788,91.0664 292.019,91.0737 292.252,91.0781 292.484,91.0796 297.08,91.0796 297.08,88.9657 292.484,63.8911 297.08,88.9657"/>
   <polyline stroke="#0000ff" stroke-width="0.5" stroke-linejoin="round" fill="none" stroke-linecap="butt" points="248.287,44.7686 283.879,44.7686 283.879,83.0136 248.287,83.0136 248.287,44.7686"/>
   <polyline stroke="#0000ff" stroke-width="0.5" stroke-linejoin="round" fill="none" stroke-linecap="butt" points="305.54,40.392 305.455,40.0193 305.339,39.655 305.193,39.3016 305.018,38.9615 304.816,38.637 304.587,38.3303 304.334,38.0437 304.058,37.779 303.761,37.538 303.446,37.3225 303.113,37.1339 302.766,36.9735 302.407,36.8424 302.038,36.7415 301.662,36.6715 301.282,36.6329 300.899,36.6259 300.518,36.6506 300.14,36.7068 299.767,36.7942 299.404,36.912 299.051,37.0597 298.712,37.236 298.388,37.4399 298.083,37.6698 297.797,37.9243 297.534,38.2014 297.294,38.4995 297.08,38.8164 292.557,63.1033 292.521,63.3334 292.497,63.5652 292.485,63.798 292.487,64.031 292.501,64.2636 292.527,64.4951 292.566,64.7249 292.617,64.9521 292.681,65.1764 292.757,65.3968 292.844,65.6128 292.943,65.8237 293.053,66.029 293.174,66.228 293.306,66.4202 293.448,66.6049 293.6,66.7817 293.761,66.95 293.931,67.1093 294.11,67.2592 294.296,67.3992 294.49,67.5289 294.69,67.6479 294.896,67.756 295.108,67.8527 295.325,67.9377 295.547,68.0109 295.771,68.0721 295.999,68.1209 295.999,68.1209 296.229,68.1573 296.461,68.1813 296.694,68.1926 296.927,68.1913 297.16,68.1775 297.391,68.151 297.621,68.1121 297.848,68.0607 298.072,67.9972 298.293,67.9216 298.509,67.8342 298.72,67.7352 298.925,67.6249 299.124,67.5037 299.316,67.3718 299.501,67.2298 299.678,67.078 299.846,66.9169 300.005,66.7468 300.155,66.5684 300.295,66.3821 300.425,66.1885 300.544,65.9882 300.652,65.7817 300.749,65.5697 300.834,65.3528 300.907,65.1316 300.968,64.9067 301.017,64.6789 305.54,40.392"/>
   <polyline stroke="#0000ff" stroke-width="0.5" stroke-linejoin="round" fill="none" stroke-linecap="butt" points="298.197,64.1537 298.209,64.077 298.217,63.9997 298.221,63.9221 298.22,63.8444 298.216,63.7669 298.207,63.6897 298.194,63.6132 298.177,63.5374 298.156,63.4626 298.131,63.3892 298.101,63.3172 298.068,63.2469 298.032,63.1784 297.991,63.1121 297.947,63.048 297.9,62.9865 297.849,62.9276 297.796,62.8715 297.739,62.8183 297.679,62.7684 297.617,62.7217 297.553,62.6785 297.486,62.6388 297.417,62.6028 297.347,62.5706 297.274,62.5422 297.201,62.5178 297.126,62.4974 297.05,62.4811 297.05,62.4811 296.973,62.469 296.896,62.461 296.818,62.4572 296.74,62.4576 296.663,62.4623 296.586,62.4711 296.509,62.4841 296.433,62.5012 296.359,62.5224 296.285,62.5476 296.213,62.5767 296.143,62.6097 296.074,62.6465 296.008,62.6869 295.944,62.7308 295.882,62.7782 295.823,62.8288 295.767,62.8825 295.714,62.9392 295.664,62.9987 295.618,63.0607 295.574,63.1252 295.535,63.192 295.499,63.2609 295.466,63.3315 295.438,63.4038 295.414,63.4776 295.393,63.5525 295.377,63.6285 295.377,63.6285 295.365,63.7052 295.357,63.7825 295.353,63.86 295.354,63.9377 295.358,64.0153 295.367,64.0924 295.38,64.169 295.397,64.2448 295.418,64.3195 295.444,64.393 295.473,64.465 295.506,64.5353 295.542,64.6037 295.583,64.67 295.627,64.7341 295.674,64.7957 295.725,64.8546 295.778,64.9107 295.835,64.9638 295.895,65.0138 295.957,65.0604 296.021,65.1037 296.088,65.1434 296.157,65.1794 296.227,65.2116 296.3,65.24 296.374,65.2644 296.448,65.2847 296.524,65.301 296.524,65.301 296.601,65.3132 296.678,65.3211 296.756,65.325 296.834,65.3245 296.911,65.3199 296.988,65.3111 297.065,65.298 297.141,65.2809 297.215,65.2598 297.289,65.2346 297.361,65.2054 297.431,65.1724 297.5,65.1357 297.566,65.0953 297.63,65.0513 297.692,65.004 297.751,64.9534 297.807,64.8997 297.86,64.843 297.91,64.7835 297.956,64.7214 298,64.6569 298.039,64.5901 298.075,64.5213 298.108,64.4506 298.136,64.3783 298.16,64.3046 298.181,64.2296 298.197,64.1537"/>
   <polyline stroke="#0000ff" stroke-width="0.5" stroke-linejoin="round" fill="none" stroke-linecap="butt" points="302.574,40.6546 302.586,40.5779 302.594,40.5006 302.597,40.423 302.597,40.3453 302.592,40.2678 302.584,40.1906 302.571,40.1141 302.553,40.0383 302.532,39.9636 302.507,39.8901 302.478,39.8181 302.445,39.7478 302.408,39.6794 302.368,39.613 302.324,39.549 302.276,39.4874 302.226,39.4285 302.172,39.3724 302.115,39.3192 302.056,39.2693 301.994,39.2226 301.929,39.1794 301.863,39.1397 301.794,39.1037 301.723,39.0715 301.651,39.0431 301.577,39.0187 301.502,38.9984 301.426,38.9821 301.426,38.9821 301.349,38.9699 301.272,38.9619 301.195,38.9581 301.117,38.9586 301.039,38.9632 300.962,38.972 300.886,38.985 300.81,39.0021 300.735,39.0233 300.662,39.0485 300.59,39.0777 300.519,39.1106 300.451,39.1474 300.385,39.1878 300.321,39.2318 300.259,39.2791 300.2,39.3297 300.144,39.3834 300.091,39.4401 300.041,39.4996 299.994,39.5616 299.951,39.6262 299.911,39.693 299.875,39.7618 299.843,39.8324 299.815,39.9048 299.79,39.9785 299.77,40.0535 299.754,40.1294 299.754,40.1294 299.741,40.2061 299.734,40.2834 299.73,40.361 299.73,40.4387 299.735,40.5162 299.744,40.5933 299.757,40.67 299.774,40.7457 299.795,40.8204 299.82,40.8939 299.849,40.9659 299.882,41.0362 299.919,41.1046 299.959,41.171 300.003,41.235 300.051,41.2966 300.101,41.3555 300.155,41.4116 300.212,41.4647 300.271,41.5147 300.333,41.5614 300.398,41.6046 300.465,41.6443 300.533,41.6803 300.604,41.7125 300.676,41.7409 300.75,41.7653 300.825,41.7856 300.901,41.8019 300.901,41.8019 300.978,41.8141 301.055,41.822 301.133,41.8259 301.21,41.8254 301.288,41.8208 301.365,41.812 301.442,41.799 301.517,41.7819 301.592,41.7607 301.665,41.7355 301.737,41.7064 301.808,41.6733 301.876,41.6366 301.943,41.5962 302.007,41.5522 302.068,41.5049 302.127,41.4543 302.183,41.4006 302.236,41.3439 302.286,41.2844 302.333,41.2224 302.376,41.1578 302.416,41.0911 302.452,41.0222 302.484,40.9515 302.512,40.8792 302.537,40.8055 302.557,40.7306 302.574,40.6546"/>
   <polyline stroke="#0000ff" stroke-width="0.5" stroke-linejoin="round" fill="none" stroke-linecap="butt" points="305.834,38.8164 306.048,38.4995 306.287,38.2014 306.55,37.9243 306.836,37.6698 307.141,37.4399 307.465,37.236 307.804,37.0597 308.157,36.912 308.52,36.7942 308.893,36.7068 309.271,36.6506 309.652,36.6259 310.035,36.6329 310.415,36.6715 310.791,36.7415 311.16,36.8424 311.519,36.9735 311.866,37.1339 312.199,37.3225 312.515,37.538 312.811,37.779 313.087,38.0437 313.34,38.3303 313.569,38.637 313.771,38.9615 313.946,39.3016 314.092,39.655 314.208,40.0193 314.293,40.392 305.247,88.9657 305.033,89.2826 304.793,89.5807 304.53,89.8579 304.245,90.1123 303.939,90.3423 303.616,90.5461 303.276,90.7225 302.924,90.8701 302.56,90.988 302.188,91.0753 301.809,91.1316 301.428,91.1563 301.046,91.1493 300.665,91.1107 300.289,91.0407 299.92,90.9398 299.561,90.8087 299.214,90.6483 298.882,90.4596 298.566,90.2441 298.269,90.0032 297.993,89.7385 297.74,89.4518 297.511,89.1452 297.309,88.8207 297.135,88.4806 296.989,88.1271 296.873,87.7628 296.787,87.3901 305.834,38.8164"/>
   <polyline stroke="#0000ff" stroke-width="0.5" stroke-linejoin="round" fill="none" stroke-linecap="butt" points="302.574,87.6527 302.586,87.576 302.594,87.4988 302.597,87.4212 302.597,87.3435 302.592,87.266 302.584,87.1888 302.571,87.1122 302.553,87.0365 302.532,86.9617 302.507,86.8882 302.478,86.8163 302.445,86.7459 302.408,86.6775 302.368,86.6112 302.324,86.5471 302.276,86.4856 302.226,86.4266 302.172,86.3705 302.115,86.3174 302.056,86.2675 301.994,86.2208 301.929,86.1776 301.863,86.1379 301.794,86.1018 301.723,86.0696 301.651,86.0413 301.577,86.0169 301.502,85.9965 301.426,85.9802 301.426,85.9802 301.349,85.968 301.272,85.9601 301.195,85.9563 301.117,85.9567 301.039,85.9614 300.962,85.9702 300.886,85.9832 300.81,86.0002 300.735,86.0215 300.662,86.0466 300.59,86.0758 300.519,86.1088 300.451,86.1455 300.385,86.186 300.321,86.2299 300.259,86.2772 300.2,86.3279 300.144,86.3816 300.091,86.4382 300.041,86.4977 299.994,86.5598 299.951,86.6243 299.911,86.6911 299.875,86.7599 299.843,86.8306 299.815,86.9029 299.79,86.9767 299.77,87.0516 299.754,87.1275 299.754,87.1275 299.741,87.2043 299.734,87.2816 299.73,87.3591 299.73,87.4368 299.735,87.5143 299.744,87.5915 299.757,87.6681 299.774,87.7438 299.795,87.8186 299.82,87.8921 299.849,87.9641 299.882,88.0344 299.919,88.1028 299.959,88.1691 300.003,88.2332 300.051,88.2947 300.101,88.3537 300.155,88.4098 300.212,88.4629 300.271,88.5128 300.333,88.5595 300.398,88.6028 300.465,88.6425 300.533,88.6784 300.604,88.7107 300.676,88.739 300.75,88.7634 300.825,88.7838 300.901,88.8001 300.901,88.8001 300.978,88.8122 301.055,88.8202 301.133,88.824 301.21,88.8236 301.288,88.819 301.365,88.8102 301.442,88.7971 301.517,88.78 301.592,88.7589 301.665,88.7336 301.737,88.7045 301.808,88.6715 301.876,88.6348 301.943,88.5944 302.007,88.5504 302.068,88.5031 302.127,88.4525 302.183,88.3987 302.236,88.342 302.286,88.2826 302.333,88.2205 302.376,88.1559 302.416,88.0892 302.452,88.0204 302.484,87.9497 302.512,87.8774 302.537,87.8036 302.557,87.7287 302.574,87.6527"/>
   <polyline stroke="#0000ff" stroke-width="0.5" stroke-linejoin="round" fill="none" stroke-linecap="butt" points="306.95,64.1537 306.962,64.077 306.97,63.9997 306.974,63.9221 306.974,63.8444 306.969,63.7669 306.96,63.6897 306.947,63.6132 306.93,63.5374 306.909,63.4626 306.884,63.3892 306.854,63.3172 306.822,63.2469 306.785,63.1784 306.744,63.1121 306.7,63.048 306.653,62.9865 306.602,62.9276 306.549,62.8715 306.492,62.8183 306.433,62.7684 306.37,62.7217 306.306,62.6785 306.239,62.6388 306.17,62.6028 306.1,62.5706 306.027,62.5422 305.954,62.5178 305.879,62.4974 305.803,62.4811 305.803,62.4811 305.726,62.469 305.649,62.461 305.571,62.4572 305.493,62.4576 305.416,62.4623 305.339,62.4711 305.262,62.4841 305.186,62.5012 305.112,62.5224 305.038,62.5476 304.966,62.5767 304.896,62.6097 304.827,62.6465 304.761,62.6869 304.697,62.7308 304.636,62.7782 304.577,62.8288 304.521,62.8825 304.467,62.9392 304.417,62.9987 304.371,63.0607 304.328,63.1252 304.288,63.192 304.252,63.2609 304.22,63.3315 304.191,63.4038 304.167,63.4776 304.146,63.5525 304.13,63.6285 304.13,63.6285 304.118,63.7052 304.11,63.7825 304.106,63.86 304.107,63.9377 304.111,64.0153 304.12,64.0924 304.133,64.169 304.15,64.2448 304.171,64.3195 304.197,64.393 304.226,64.465 304.259,64.5353 304.296,64.6037 304.336,64.67 304.38,64.7341 304.427,64.7957 304.478,64.8546 304.532,64.9107 304.588,64.9638 304.648,65.0138 304.71,65.0604 304.774,65.1037 304.841,65.1434 304.91,65.1794 304.981,65.2116 305.053,65.24 305.127,65.2644 305.202,65.2847 305.278,65.301 305.278,65.301 305.354,65.3132 305.432,65.3211 305.509,65.325 305.587,65.3245 305.664,65.3199 305.741,65.3111 305.818,65.298 305.894,65.2809 305.969,65.2598 306.042,65.2346 306.114,65.2054 306.184,65.1724 306.253,65.1357 306.319,65.0953 306.383,65.0513 306.445,65.004 306.504,64.9534 306.56,64.8997 306.613,64.843 306.663,64.7835 306.71,64.7214 306.753,64.6569 306.792,64.5901 306.828,64.5213 306.861,64.4506 306.889,64.3783 306.913,64.3046 306.934,64.2296 306.95,64.1537"/>
   <polyline stroke="#0000ff" stroke-width="0.5" stroke-linejoin="round" fill="none" stroke-linecap="butt" points="311.327,40.6546 311.339,40.5779 311.347,40.5006 311.351,40.423 311.35,40.3453 311.345,40.2678 311.337,40.1906 311.324,40.1141 311.307,40.0383 311.285,39.9636 311.26,39.8901 311.231,39.8181 311.198,39.7478 311.161,39.6794 311.121,39.613 311.077,39.549 311.03,39.4874 310.979,39.4285 310.925,39.3724 310.869,39.3192 310.809,39.2693 310.747,39.2226 310.682,39.1794 310.616,39.1397 310.547,39.1037 310.476,39.0715 310.404,39.0431 310.33,39.0187 310.255,38.9984 310.179,38.9821 310.179,38.9821 310.103,38.9699 310.025,38.9619 309.948,38.9581 309.87,38.9586 309.793,38.9632 309.715,38.972 309.639,38.985 309.563,39.0021 309.488,39.0233 309.415,39.0485 309.343,39.0777 309.272,39.1106 309.204,39.1474 309.138,39.1878 309.074,39.2318 309.012,39.2791 308.953,39.3297 308.897,39.3834 308.844,39.4401 308.794,39.4996 308.747,39.5616 308.704,39.6262 308.664,39.693 308.628,39.7618 308.596,39.8324 308.568,39.9048 308.543,39.9785 308.523,40.0535 308.507,40.1294 308.507,40.1294 308.495,40.2061 308.487,40.2834 308.483,40.361 308.483,40.4387 308.488,40.5162 308.497,40.5933 308.51,40.67 308.527,40.7457 308.548,40.8204 308.573,40.8939 308.602,40.9659 308.635,41.0362 308.672,41.1046 308.712,41.171 308.756,41.235 308.804,41.2966 308.854,41.3555 308.908,41.4116 308.965,41.4647 309.024,41.5147 309.086,41.5614 309.151,41.6046 309.218,41.6443 309.286,41.6803 309.357,41.7125 309.429,41.7409 309.503,41.7653 309.578,41.7856 309.654,41.8019 309.654,41.8019 309.731,41.8141 309.808,41.822 309.886,41.8259 309.963,41.8254 310.041,41.8208 310.118,41.812 310.195,41.799 310.27,41.7819 310.345,41.7607 310.419,41.7355 310.491,41.7064 310.561,41.6733 310.629,41.6366 310.696,41.5962 310.76,41.5522 310.821,41.5049 310.88,41.4543 310.936,41.4006 310.989,41.3439 311.039,41.2844 311.086,41.2224 311.129,41.1578 311.169,41.0911 311.205,41.0222 311.237,40.9515 311.266,40.8792 311.29,40.8055 311.31,40.7306 311.327,40.6546"/>
   <polyline stroke="#0000ff" stroke-width="0.5" stroke-linejoin="round" fill="none" stroke-linecap="butt" points="314.587,38.8164 314.801,38.4995 315.04,38.2014 315.303,37.9243 315.589,37.6698 315.894,37.4399 316.218,37.236 316.557,37.0597 316.91,36.912 317.274,36.7942 317.646,36.7068 318.024,36.6506 318.406,36.6259 318.788,36.6329 319.168,36.6715 319.544,36.7415 319.913,36.8424 320.272,36.9735 320.619,37.1339 320.952,37.3225 321.268,37.538 321.565,37.779 321.84,38.0437 322.094,38.3303 322.322,38.637 322.524,38.9615 322.699,39.3016 322.845,39.655 322.961,40.0193 323.046,40.392 314,88.9657 313.786,89.2826 313.546,89.5807 313.283,89.8579 312.998,90.1123 312.692,90.3423 312.369,90.5461 312.029,90.7225 311.677,90.8701 311.313,90.988 310.941,91.0753 310.563,91.1316 310.181,91.1563 309.799,91.1493 309.418,91.1107 309.042,91.0407 308.674,90.9398 308.314,90.8087 307.967,90.6483 307.635,90.4596 307.319,90.2441 307.022,90.0032 306.746,89.7385 306.493,89.4518 306.265,89.1452 306.062,88.8207 305.888,88.4806 305.742,88.1271 305.626,87.7628 305.54,87.3901 314.587,38.8164"/>
   <polyline stroke="#0000ff" stroke-width="0.5" stroke-linejoin="round" fill="none" stroke-linecap="butt" points="311.327,87.6527 311.339,87.576 311.347,87.4988 311.351,87.4212 311.35,87.3435 311.345,87.266 311.337,87.1888 311.324,87.1122 311.307,87.0365 311.285,86.9617 311.26,86.8882 311.231,86.8163 311.198,86.7459 311.161,86.6775 311.121,86.6112 311.077,86.5471 311.03,86.4856 310.979,86.4266 310.925,86.3705 310.869,86.3174 310.809,86.2675 310.747,86.2208 310.682,86.1776 310.616,86.1379 310.547,86.1018 310.476,86.0696 310.404,86.0413 310.33,86.0169 310.255,85.9965 310.179,85.9802 310.179,85.9802 310.103,85.968 310.025,85.9601 309.948,85.9563 309.87,85.9567 309.793,85.9614 309.715,85.9702 309.639,85.9832 309.563,86.0002 309.488,86.0215 309.415,86.0466 309.343,86.0758 309.272,86.1088 309.204,86.1455 309.138,86.186 309.074,86.2299 309.012,86.2772 308.953,86.3279 308.897,86.3816 308.844,86.4382 308.794,86.4977 308.747,86.5598 308.704,86.6243 308.664,86.6911 308.628,86.7599 308.596,86.8306 308.568,86.9029 308.543,86.9767 308.523,87.0516 308.507,87.1275 308.507,87.1275 308.495,87.2043 308.487,87.2816 308.483,87.3591 308.483,87.4368 308.488,87.5143 308.497,87.5915 308.51,87.6681 308.527,87.7438 308.548,87.8186 308.573,87.8921 308.602,87.9641 308.635,88.0344 308.672,88.1028 308.712,88.1691 308.756,88.2332 308.804,88.2947 308.854,88.3537 308.908,88.4098 308.965,88.4629 309.024,88.5128 309.086,88.5595 309.151,88.6028 309.218,88.6425 309.286,88.6784 309.357,88.7107 309.429,88.739 309.503,88.7634 309.578,88.7838 309.654,88.8001 309.654,88.8001 309.731,88.8122 309.808,88.8202 309.886,88.824 309.963,88.8236 310.041,88.819 310.118,88.8102 310.195,88.7971 310.27,88.78 310.345,88.7589 310.419,88.7336 310.491,88.7045 310.561,88.6715 310.629,88.6348 310.696,88.5944 310.76,88.5504 310.821,88.5031 310.88,88.4525 310.936,88.3987 310.989,88.342 311.039,88.2826 311.086,88.2205 311.129,88.1559 311.169,88.0892 311.205,88.0204 311.237,87.9497 311.266,87.8774 311.29,87.8036 311.31,87.7287 311.327,87.6527"/>
   <polyline stroke="#0000ff" stroke-width="0.5" stroke-linejoin="round" fill="none" stroke-linecap="butt" points="315.703,64.1537 315.715,64.077 315.723,63.9997 315.727,63.9221 315.727,63.8444 315.722,63.7669 315.713,63.6897 315.7,63.6132 315.683,63.5374 315.662,63.4626 315.637,63.3892 315.608,63.3172 315.575,63.2469 315.538,63.1784 315.497,63.1121 315.453,63.048 315.406,62.9865 315.356,62.9276 315.302,62.8715 315.245,62.8183 315.186,62.7684 315.124,62.7217 315.059,62.6785 314.992,62.6388 314.923,62.6028 314.853,62.5706 314.78,62.5422 314.707,62.5178 314.632,62.4974 314.556,62.4811 314.556,62.4811 314.479,62.469 314.402,62.461 314.324,62.4572 314.247,62.4576 314.169,62.4623 314.092,62.4711 314.015,62.4841 313.94,62.5012 313.865,62.5224 313.791,62.5476 313.719,62.5767 313.649,62.6097 313.581,62.6465 313.514,62.6869 313.45,62.7308 313.389,62.7782 313.33,62.8288 313.274,62.8825 313.22,62.9392 313.171,62.9987 313.124,63.0607 313.081,63.1252 313.041,63.192 313.005,63.2609 312.973,63.3315 312.944,63.4038 312.92,63.4776 312.9,63.5525 312.883,63.6285 312.883,63.6285 312.871,63.7052 312.863,63.7825 312.859,63.86 312.86,63.9377 312.864,64.0153 312.873,64.0924 312.886,64.169 312.903,64.2448 312.925,64.3195 312.95,64.393 312.979,64.465 313.012,64.5353 313.049,64.6037 313.089,64.67 313.133,64.7341 313.18,64.7957 313.231,64.8546 313.285,64.9107 313.341,64.9638 313.401,65.0138 313.463,65.0604 313.527,65.1037 313.594,65.1434 313.663,65.1794 313.734,65.2116 313.806,65.24 313.88,65.2644 313.955,65.2847 314.031,65.301 314.031,65.301 314.107,65.3132 314.185,65.3211 314.262,65.325 314.34,65.3245 314.417,65.3199 314.495,65.3111 314.571,65.298 314.647,65.2809 314.722,65.2598 314.795,65.2346 314.867,65.2054 314.937,65.1724 315.006,65.1357 315.072,65.0953 315.136,65.0513 315.198,65.004 315.257,64.9534 315.313,64.8997 315.366,64.843 315.416,64.7835 315.463,64.7214 315.506,64.6569 315.546,64.5901 315.582,64.5213 315.614,64.4506 315.642,64.3783 315.667,64.3046 315.687,64.2296 315.703,64.1537"/>
   <polyline stroke="#0000ff" stroke-width="0.5" stroke-linejoin="round" fill="none" stroke-linecap="butt" points="320.08,40.6546 320.092,40.5779 320.1,40.5006 320.104,40.423 320.103,40.3453 320.099,40.2678 320.09,40.1906 320.077,40.1141 320.06,40.0383 320.039,39.9636 320.013,39.8901 319.984,39.8181 319.951,39.7478 319.914,39.6794 319.874,39.613 319.83,39.549 319.783,39.4874 319.732,39.4285 319.678,39.3724 319.622,39.3192 319.562,39.2693 319.5,39.2226 319.436,39.1794 319.369,39.1397 319.3,39.1037 319.229,39.0715 319.157,39.0431 319.083,39.0187 319.008,38.9984 318.932,38.9821 318.932,38.9821 318.856,38.9699 318.778,38.9619 318.701,38.9581 318.623,38.9586 318.546,38.9632 318.468,38.972 318.392,38.985 318.316,39.0021 318.241,39.0233 318.168,39.0485 318.096,39.0777 318.026,39.1106 317.957,39.1474 317.891,39.1878 317.827,39.2318 317.765,39.2791 317.706,39.3297 317.65,39.3834 317.597,39.4401 317.547,39.4996 317.5,39.5616 317.457,39.6262 317.418,39.693 317.382,39.7618 317.349,39.8324 317.321,39.9048 317.297,39.9785 317.276,40.0535 317.26,40.1294 317.26,40.1294 317.248,40.2061 317.24,40.2834 317.236,40.361 317.236,40.4387 317.241,40.5162 317.25,40.5933 317.263,40.67 317.28,40.7457 317.301,40.8204 317.326,40.8939 317.355,40.9659 317.388,41.0362 317.425,41.1046 317.466,41.171 317.51,41.235 317.557,41.2966 317.607,41.3555 317.661,41.4116 317.718,41.4647 317.777,41.5147 317.839,41.5614 317.904,41.6046 317.971,41.6443 318.04,41.6803 318.11,41.7125 318.183,41.7409 318.256,41.7653 318.331,41.7856 318.407,41.8019 318.407,41.8019 318.484,41.8141 318.561,41.822 318.639,41.8259 318.716,41.8254 318.794,41.8208 318.871,41.812 318.948,41.799 319.023,41.7819 319.098,41.7607 319.172,41.7355 319.244,41.7064 319.314,41.6733 319.382,41.6366 319.449,41.5962 319.513,41.5522 319.574,41.5049 319.633,41.4543 319.689,41.4006 319.743,41.3439 319.792,41.2844 319.839,41.2224 319.882,41.1578 319.922,41.0911 319.958,41.0222 319.99,40.9515 320.019,40.8792 320.043,40.8055 320.063,40.7306 320.08,40.6546"/>
   <polyline stroke="#0000ff" stroke-width="0.5" stroke-linejoin="round" fill="none" stroke-linecap="butt" points="323.34,38.8164 323.554,38.4995 323.793,38.2014 324.057,37.9243 324.342,37.6698 324.647,37.4399 324.971,37.236 325.31,37.0597 325.663,36.912 326.027,36.7942 326.399,36.7068 326.777,36.6506 327.159,36.6259 327.541,36.6329 327.921,36.6715 328.297,36.7415 328.666,36.8424 329.025,36.9735 329.372,37.1339 329.705,37.3225 330.021,37.538 330.318,37.779 330.594,38.0437 330.847,38.3303 331.075,38.637 331.277,38.9615 331.452,39.3016 331.598,39.655 331.714,40.0193 331.799,40.392 322.753,88.9657 322.539,89.2826 322.299,89.5807 322.036,89.8579 321.751,90.1123 321.445,90.3423 321.122,90.5461 320.782,90.7225 320.43,90.8701 320.066,90.988 319.694,91.0753 319.316,91.1316 318.934,91.1563 318.552,91.1493 318.171,91.1107 317.795,91.0407 317.427,90.9398 317.067,90.8087 316.72,90.6483 316.388,90.4596 316.072,90.2441 315.775,90.0032 315.499,89.7385 315.246,89.4518 315.018,89.1452 314.815,88.8207 314.641,88.4806 314.495,88.1271 314.379,87.7628 314.293,87.3901 323.34,38.8164"/>
   <polyline stroke="#0000ff" stroke-width="0.5" stroke-linejoin="round" fill="none" stroke-linecap="butt" points="320.08,87.6527 320.092,87.576 320.1,87.4988 320.104,87.4212 320.103,87.3435 320.099,87.266 320.09,87.1888 320.077,87.1122 320.06,87.0365 320.039,86.9617 320.013,86.8882 319.984,86.8163 319.951,86.7459 319.914,86.6775 319.874,86.6112 319.83,86.5471 319.783,86.4856 319.732,86.4266 319.678,86.3705 319.622,86.3174 319.562,86.2675 319.5,86.2208 319.436,86.1776 319.369,86.1379 319.3,86.1018 319.229,86.0696 319.157,86.0413 319.083,86.0169 319.008,85.9965 318.932,85.9802 318.932,85.9802 318.856,85.968 318.778,85.9601 318.701,85.9563 318.623,85.9567 318.546,85.9614 318.468,85.9702 318.392,85.9832 318.316,86.0002 318.241,86.0215 318.168,86.0466 318.096,86.0758 318.026,86.1088 317.957,86.1455 317.891,86.186 317.827,86.2299 317.765,86.2772 317.706,86.3279 317.65,86.3816 317.597,86.4382 317.547,86.4977 317.5,86.5598 317.457,86.6243 317.418,86.6911 317.382,86.7599 317.349,86.8306 317.321,86.9029 317.297,86.9767 317.276,87.0516 317.26,87.1275 317.26,87.1275 317.248,87.2043 317.24,87.2816 317.236,87.3591 317.236,87.4368 317.241,87.5143 317.25,87.5915 317.263,87.6681 317.28,87.7438 317.301,87.8186 317.326,87.8921 317.355,87.9641 317.388,88.0344 317.425,88.1028 317.466,88.1691 317.51,88.2332 317.557,88.2947 317.607,88.3537 317.661,88.4098 317.718,88.4629 317.777,88.5128 317.839,88.5595 317.904,88.6028 317.971,88.6425 318.04,88.6784 318.11,88.7107 318.183,88.739 318.256,88.7634 318.331,88.7838 318.407,88.8001 318.407,88.8001 318.484,88.8122 318.561,88.8202 318.639,88.824 318.716,88.8236 318.794,88.819 318.871,88.8102 318.948,88.7971 319.023,88.78 319.098,88.7589 319.172,88.7336 319.244,88.7045 319.314,88.6715 319.382,88.6348 319.449,88.5944 319.513,88.5504 319.574,88.5031 319.633,88.4525 319.689,88.3987 319.743,88.342 319.792,88.2826 319.839,88.2205 319.882,88.1559 319.922,88.0892 319.958,88.0204 319.99,87.9497 320.019,87.8774 320.043,87.8036 320.063,87.7287 320.08,87.6527"/>
   <polyline stroke="#0000ff" stroke-width="0.5" stroke-linejoin="round" fill="none" stroke-linecap="butt" points="324.456,64.1537 324.468,64.077 324.476,63.9997 324.48,63.9221 324.48,63.8444 324.475,63.7669 324.466,63.6897 324.453,63.6132 324.436,63.5374 324.415,63.4626 324.39,63.3892 324.361,63.3172 324.328,63.2469 324.291,63.1784 324.251,63.1121 324.207,63.048 324.159,62.9865 324.109,62.9276 324.055,62.8715 323.998,62.8183 323.939,62.7684 323.877,62.7217 323.812,62.6785 323.745,62.6388 323.677,62.6028 323.606,62.5706 323.534,62.5422 323.46,62.5178 323.385,62.4974 323.309,62.4811 323.309,62.4811 323.232,62.469 323.155,62.461 323.077,62.4572 323,62.4576 322.922,62.4623 322.845,62.4711 322.768,62.4841 322.693,62.5012 322.618,62.5224 322.544,62.5476 322.472,62.5767 322.402,62.6097 322.334,62.6465 322.267,62.6869 322.203,62.7308 322.142,62.7782 322.083,62.8288 322.027,62.8825 321.974,62.9392 321.924,62.9987 321.877,63.0607 321.834,63.1252 321.794,63.192 321.758,63.2609 321.726,63.3315 321.697,63.4038 321.673,63.4776 321.653,63.5525 321.636,63.6285 321.636,63.6285 321.624,63.7052 321.616,63.7825 321.612,63.86 321.613,63.9377 321.618,64.0153 321.626,64.0924 321.639,64.169 321.656,64.2448 321.678,64.3195 321.703,64.393 321.732,64.465 321.765,64.5353 321.802,64.6037 321.842,64.67 321.886,64.7341 321.933,64.7957 321.984,64.8546 322.038,64.9107 322.094,64.9638 322.154,65.0138 322.216,65.0604 322.281,65.1037 322.347,65.1434 322.416,65.1794 322.487,65.2116 322.559,65.24 322.633,65.2644 322.708,65.2847 322.784,65.301 322.784,65.301 322.86,65.3132 322.938,65.3211 323.015,65.325 323.093,65.3245 323.171,65.3199 323.248,65.3111 323.324,65.298 323.4,65.2809 323.475,65.2598 323.548,65.2346 323.62,65.2054 323.691,65.1724 323.759,65.1357 323.825,65.0953 323.889,65.0513 323.951,65.004 324.01,64.9534 324.066,64.8997 324.119,64.843 324.169,64.7835 324.216,64.7214 324.259,64.6569 324.299,64.5901 324.335,64.5213 324.367,64.4506 324.395,64.3783 324.42,64.3046 324.44,64.2296 324.456,64.1537"/>
   <polyline stroke="#0000ff" stroke-width="0.5" stroke-linejoin="round" fill="none" stroke-linecap="butt" points="328.833,40.6546 328.845,40.5779 328.853,40.5006 328.857,40.423 328.856,40.3453 328.852,40.2678 328.843,40.1906 328.83,40.1141 328.813,40.0383 328.792,39.9636 328.766,39.8901 328.737,39.8181 328.704,39.7478 328.668,39.6794 328.627,39.613 328.583,39.549 328.536,39.4874 328.485,39.4285 328.431,39.3724 328.375,39.3192 328.315,39.2693 328.253,39.2226 328.189,39.1794 328.122,39.1397 328.053,39.1037 327.982,39.0715 327.91,39.0431 327.836,39.0187 327.761,38.9984 327.685,38.9821 327.685,38.9821 327.609,38.9699 327.531,38.9619 327.454,38.9581 327.376,38.9586 327.299,38.9632 327.222,38.972 327.145,38.985 327.069,39.0021 326.994,39.0233 326.921,39.0485 326.849,39.0777 326.779,39.1106 326.71,39.1474 326.644,39.1878 326.58,39.2318 326.518,39.2791 326.459,39.3297 326.403,39.3834 326.35,39.4401 326.3,39.4996 326.254,39.5616 326.21,39.6262 326.171,39.693 326.135,39.7618 326.102,39.8324 326.074,39.9048 326.05,39.9785 326.029,40.0535 326.013,40.1294 326.013,40.1294 326.001,40.2061 325.993,40.2834 325.989,40.361 325.989,40.4387 325.994,40.5162 326.003,40.5933 326.016,40.67 326.033,40.7457 326.054,40.8204 326.079,40.8939 326.109,40.9659 326.142,41.0362 326.178,41.1046 326.219,41.171 326.263,41.235 326.31,41.2966 326.361,41.3555 326.414,41.4116 326.471,41.4647 326.53,41.5147 326.593,41.5614 326.657,41.6046 326.724,41.6443 326.793,41.6803 326.863,41.7125 326.936,41.7409 327.009,41.7653 327.084,41.7856 327.16,41.8019 327.16,41.8019 327.237,41.8141 327.314,41.822 327.392,41.8259 327.47,41.8254 327.547,41.8208 327.624,41.812 327.701,41.799 327.777,41.7819 327.851,41.7607 327.925,41.7355 327.997,41.7064 328.067,41.6733 328.136,41.6366 328.202,41.5962 328.266,41.5522 328.328,41.5049 328.386,41.4543 328.443,41.4006 328.496,41.3439 328.546,41.2844 328.592,41.2224 328.635,41.1578 328.675,41.0911 328.711,41.0222 328.743,40.9515 328.772,40.8792 328.796,40.8055 328.817,40.7306 328.833,40.6546"/>
   <polyline stroke="#0000ff" stroke-width="0.5" stroke-linejoin="round" fill="none" stroke-linecap="butt" points="349.077,46.8214 353.944,53.9174 335.543,67.2902 331.506,88.9657 331.292,89.2826 331.053,89.5807 330.789,89.8579 330.504,90.1123 330.198,90.3423 329.875,90.5461 329.536,90.7225 329.183,90.8701 328.819,90.988 328.447,91.0753 328.069,91.1316 327.687,91.1563 327.305,91.1493 326.924,91.1107 326.549,91.0407 326.18,90.9398 325.821,90.8087 325.473,90.6483 325.141,90.4596 324.825,90.2441 324.528,90.0032 324.252,89.7385 323.999,89.4518 323.771,89.1452 323.569,88.8207 323.394,88.4806 323.248,88.1271 323.132,87.7628 323.046,87.3901 327.57,63.1033 327.592,62.989 327.618,62.8755 327.648,62.7626 327.68,62.6506 327.715,62.5395 327.753,62.4294 327.794,62.3203 327.838,62.2124 327.885,62.1057 327.935,62.0004 327.987,61.8964 328.043,61.7939 328.101,61.693 328.162,61.5936 328.225,61.496 328.291,61.4 328.36,61.306 328.431,61.2138 328.505,61.1235 328.581,61.0353 328.66,60.9492 328.741,60.8653 328.824,60.7836 328.909,60.7042 328.996,60.627 329.086,60.5523 329.177,60.48 329.27,60.4103 329.366,60.3431 349.077,46.8214"/>
   <polyline stroke="#0000ff" stroke-width="0.5" stroke-linejoin="round" fill="none" stroke-linecap="butt" points="333.209,64.1537 333.222,64.077 333.23,63.9997 333.233,63.9221 333.233,63.8444 333.228,63.7669 333.219,63.6897 333.206,63.6132 333.189,63.5374 333.168,63.4626 333.143,63.3892 333.114,63.3172 333.081,63.2469 333.044,63.1784 333.004,63.1121 332.96,63.048 332.912,62.9865 332.862,62.9276 332.808,62.8715 332.751,62.8183 332.692,62.7684 332.63,62.7217 332.565,62.6785 332.499,62.6388 332.43,62.6028 332.359,62.5706 332.287,62.5422 332.213,62.5178 332.138,62.4974 332.062,62.4811 332.062,62.4811 331.985,62.469 331.908,62.461 331.83,62.4572 331.753,62.4576 331.675,62.4623 331.598,62.4711 331.522,62.4841 331.446,62.5012 331.371,62.5224 331.298,62.5476 331.226,62.5767 331.155,62.6097 331.087,62.6465 331.02,62.6869 330.956,62.7308 330.895,62.7782 330.836,62.8288 330.78,62.8825 330.727,62.9392 330.677,62.9987 330.63,63.0607 330.587,63.1252 330.547,63.192 330.511,63.2609 330.479,63.3315 330.451,63.4038 330.426,63.4776 330.406,63.5525 330.389,63.6285 330.389,63.6285 330.377,63.7052 330.369,63.7825 330.366,63.86 330.366,63.9377 330.371,64.0153 330.379,64.0924 330.392,64.169 330.41,64.2448 330.431,64.3195 330.456,64.393 330.485,64.465 330.518,64.5353 330.555,64.6037 330.595,64.67 330.639,64.7341 330.687,64.7957 330.737,64.8546 330.791,64.9107 330.848,64.9638 330.907,65.0138 330.969,65.0604 331.034,65.1037 331.1,65.1434 331.169,65.1794 331.24,65.2116 331.312,65.24 331.386,65.2644 331.461,65.2847 331.537,65.301 331.537,65.301 331.614,65.3132 331.691,65.3211 331.768,65.325 331.846,65.3245 331.924,65.3199 332.001,65.3111 332.077,65.298 332.153,65.2809 332.228,65.2598 332.301,65.2346 332.373,65.2054 332.444,65.1724 332.512,65.1357 332.578,65.0953 332.642,65.0513 332.704,65.004 332.763,64.9534 332.819,64.8997 332.872,64.843 332.922,64.7835 332.969,64.7214 333.012,64.6569 333.052,64.5901 333.088,64.5213 333.12,64.4506 333.148,64.3783 333.173,64.3046 333.193,64.2296 333.209,64.1537"/>
   <polyline stroke="#0000ff" stroke-width="0.5" stroke-linejoin="round" fill="none" stroke-linecap="butt" points="328.833,87.6527 328.845,87.576 328.853,87.4988 328.857,87.4212 328.856,87.3435 328.852,87.266 328.843,87.1888 328.83,87.1122 328.813,87.0365 328.792,86.9617 328.766,86.8882 328.737,86.8163 328.704,86.7459 328.668,86.6775 328.627,86.6112 328.583,86.5471 328.536,86.4856 328.485,86.4266 328.431,86.3705 328.375,86.3174 328.315,86.2675 328.253,86.2208 328.189,86.1776 328.122,86.1379 328.053,86.1018 327.982,86.0696 327.91,86.0413 327.836,86.0169 327.761,85.9965 327.685,85.9802 327.685,85.9802 327.609,85.968 327.531,85.9601 327.454,85.9563 327.376,85.9567 327.299,85.9614 327.222,85.9702 327.145,85.9832 327.069,86.0002 326.994,86.0215 326.921,86.0466 326.849,86.0758 326.779,86.1088 326.71,86.1455 326.644,86.186 326.58,86.2299 326.518,86.2772 326.459,86.3279 326.403,86.3816 326.35,86.4382 326.3,86.4977 326.254,86.5598 326.21,86.6243 326.171,86.6911 326.135,86.7599 326.102,86.8306 326.074,86.9029 326.05,86.9767 326.029,87.0516 326.013,87.1275 326.013,87.1275 326.001,87.2043 325.993,87.2816 325.989,87.3591 325.989,87.4368 325.994,87.5143 326.003,87.5915 326.016,87.6681 326.033,87.7438 326.054,87.8186 326.079,87.8921 326.109,87.9641 326.142,88.0344 326.178,88.1028 326.219,88.1691 326.263,88.2332 326.31,88.2947 326.361,88.3537 326.414,88.4098 326.471,88.4629 326.53,88.5128 326.593,88.5595 326.657,88.6028 326.724,88.6425 326.793,88.6784 326.863,88.7107 326.936,88.739 327.009,88.7634 327.084,88.7838 327.16,88.8001 327.16,88.8001 327.237,88.8122 327.314,88.8202 327.392,88.824 327.47,88.8236 327.547,88.819 327.624,88.8102 327.701,88.7971 327.777,88.78 327.851,88.7589 327.925,88.7336 327.997,88.7045 328.067,88.6715 328.136,88.6348 328.202,88.5944 328.266,88.5504 328.328,88.5031 328.386,88.4525 328.443,88.3987 328.496,88.342 328.546,88.2826 328.592,88.2205 328.635,88.1559 328.675,88.0892 328.711,88.0204 328.743,87.9497 328.772,87.8774 328.796,87.8036 328.817,87.7287 328.833,87.6527"/>
  </g>
 </g>
</svg>
