<?xml version="1.0" encoding="UTF-8" standalone="no"?>
<svg xmlns="http://www.w3.org/2000/svg"
     xmlns:xlink="http://www.w3.org/1999/xlink"
     width="576pt" height="432pt" viewBox="0 0 576 432">
<title>gl2ps_renderer figure</title>
<desc>
Creator: GL2PS 1.4.0, (C) 1999-2017 C. Geuzaine
For: Octave
CreationDate: Tue Jul 30 10:44:39 2019
</desc>
<defs>
</defs>
<polygon fill="#ffffff" points="0,0 576,0 576,432 0,432"/>
<g>
<polygon fill="#ffffff" points="0,432 576,432 576,0 0,0" shape-rendering="crispEdges"/>
<clipPath id="cp00576432">
  <polygon points="0,432 576,432 576,0 0,0"/>
</clipPath>
<g clip-path="url(#cp00576432)">
<polyline fill="none" stroke="#ff0000" stroke-width="0.5" stroke-linecap="square" stroke-linejoin="miter" points="295.08,255.213 301.08,255.213"/>
<polyline fill="none" stroke="#ff0000" stroke-width="0.5" stroke-linecap="square" stroke-linejoin="miter" points="298.08,252.213 298.08,258.213"/>
<polyline fill="none" stroke="#000000" stroke-width="0.5" stroke-linecap="butt" stroke-linejoin="round" points="222.835,353.96 222.835,271.934 214.474,263.574 214.474,246.853 214.477,246.4 214.486,245.949 214.502,245.5 214.523,245.055 214.55,244.616 214.583,244.183 214.622,243.758 214.667,243.342 214.717,242.936 214.773,242.542 214.834,242.161 214.9,241.793 214.971,241.44 215.047,241.103 215.127,240.783 215.211,240.481 215.299,240.197 215.391,239.933 215.487,239.689 215.585,239.466 215.687,239.265 215.791,239.086 215.897,238.93 216.005,238.797 216.115,238.688 216.226,238.602 216.338,238.541 216.451,238.504 216.564,238.492 216.564,238.492 216.677,238.504 216.79,238.541 216.902,238.602 217.013,238.688 217.123,238.797 217.232,238.93 217.338,239.086 217.442,239.265 217.543,239.466 217.642,239.689 217.737,239.933 217.829,240.197 217.917,240.481 218.002,240.783 218.082,241.103 218.157,241.44 218.228,241.793 218.294,242.161 218.355,242.542 218.411,242.936 218.461,243.342 218.506,243.758 218.545,244.183 218.578,244.616 218.605,245.055 218.627,245.5 218.642,245.949 218.651,246.4 218.654,246.853 218.654,246.853 218.654,255.213 243.736,255.213 243.736,246.853 243.736,246.853 243.739,246.4 243.748,245.949 243.764,245.5 243.785,245.055 243.812,244.616 243.846,244.183 243.885,243.758 243.929,243.342 243.98,242.936 244.035,242.542 244.096,242.161 244.162,241.793 244.233,241.44 244.309,241.103 244.389,240.783 244.473,240.481 244.561,240.197 244.653,239.933 244.749,239.689 244.847,239.466 244.949,239.265 245.053,239.086 245.159,238.93 245.267,238.797 245.377,238.688 245.488,238.602 245.6,238.541 245.713,238.504 245.826,238.492 245.826,238.492 245.939,238.504 246.052,238.541 246.164,238.602 246.276,238.688 246.385,238.797 246.494,238.93 246.6,239.086 246.704,239.265 246.805,239.466 246.904,239.689 246.999,239.933 247.091,240.197 247.179,240.481 247.264,240.783 247.344,241.103 247.419,241.44 247.49,241.793 247.556,242.161 247.617,242.542 247.673,242.936 247.723,243.342 247.768,243.758 247.807,244.183 247.84,244.616 247.868,245.055 247.889,245.5 247.904,245.949 247.913,246.4 247.916,246.853 247.916,263.574 239.556,271.934 239.556,353.96 264.638,353.96 264.638,362.321 264.638,362.321 222.835,362.321 222.835,353.96"/>
<polyline fill="none" stroke="#000000" stroke-width="0.5" stroke-linecap="butt" stroke-linejoin="round" points="235.376,276.115 235.376,353.96 227.015,353.96 227.015,276.115 235.376,276.115"/>
<polyline fill="none" stroke="#000000" stroke-width="0.5" stroke-linecap="butt" stroke-linejoin="round" points="308.531,255.213 308.531,246.853 314.801,246.853 314.801,255.213 314.801,259.394 318.981,259.394 318.981,267.754 314.801,267.754 314.801,271.934 318.981,271.934 310.621,280.295 306.441,280.295 306.441,284.475 310.621,284.475 310.621,349.78 306.441,349.78 306.441,353.96 310.621,353.96 310.621,374.862 306.441,374.862 306.441,370.682 289.719,370.682 289.719,374.862 285.539,374.862 285.539,353.96 289.719,353.96 289.719,349.78 285.539,349.78 285.539,284.475 289.719,284.475 289.719,280.295 285.539,280.295 277.178,271.934 281.359,271.934 281.359,267.754 277.178,267.754 277.178,259.394 281.359,259.394 281.359,255.213 281.359,246.853 287.629,246.853 287.629,255.213 308.531,255.213"/>
<polyline fill="none" stroke="#0000ff" stroke-width="0.5" stroke-linecap="butt" stroke-linejoin="round" points="314.801,255.213 314.801,259.394 318.981,259.394 318.981,267.754 314.801,267.754 314.801,271.934 327.342,271.934 327.342,267.754 323.162,267.754 323.162,259.394 327.342,259.394 327.342,255.213 314.801,255.213"/>
<polyline fill="none" stroke="#0000ff" stroke-width="0.5" stroke-linecap="butt" stroke-linejoin="round" points="318.981,271.934 314.801,271.934 306.441,280.295 310.621,280.295 318.981,271.934"/>
<polyline fill="none" stroke="#0000ff" stroke-width="0.5" stroke-linecap="butt" stroke-linejoin="round" points="306.441,280.295 306.441,284.475 310.621,284.475 310.621,349.78 306.441,349.78 306.441,353.96 318.981,353.96 318.981,349.78 314.801,349.78 314.801,284.475 318.981,284.475 318.981,280.295 306.441,280.295"/>
<polyline fill="none" stroke="#0000ff" stroke-width="0.5" stroke-linecap="butt" stroke-linejoin="round" points="277.178,280.295 277.178,284.475 281.359,284.475 281.359,349.78 277.178,349.78 277.178,353.96 281.359,353.96 281.359,370.682 285.539,370.682 285.539,353.96 289.719,353.96 289.719,349.78 285.539,349.78 285.539,284.475 289.719,284.475 289.719,280.295 277.178,280.295"/>
<polyline fill="none" stroke="#0000ff" stroke-width="0.5" stroke-linecap="butt" stroke-linejoin="round" points="310.621,374.862 306.441,374.862 306.441,370.682 289.719,370.682 289.719,374.862 285.539,374.862 285.539,379.042 289.719,379.042 289.719,383.223 306.441,383.223 306.441,379.042 310.621,379.042 310.621,374.862"/>
<polyline fill="none" stroke="#0000ff" stroke-width="0.5" stroke-linecap="butt" stroke-linejoin="round" points="281.359,255.213 281.359,259.394 277.178,259.394 277.178,267.754 281.359,267.754 281.359,271.934 268.818,271.934 268.818,267.754 272.998,267.754 272.998,259.394 268.818,259.394 268.818,255.213 281.359,255.213"/>
<polyline fill="none" stroke="#0000ff" stroke-width="0.5" stroke-linecap="butt" stroke-linejoin="round" points="277.178,271.934 281.359,271.934 289.719,280.295 285.539,280.295 277.178,271.934"/>
<polyline fill="none" stroke="#000000" stroke-width="0.5" stroke-linecap="butt" stroke-linejoin="round" points="375.416,255.213 375.416,246.853 381.686,246.853 381.686,255.213 381.686,259.394 385.866,259.394 385.866,267.754 381.686,267.754 381.686,271.934 385.866,271.934 377.506,280.295 373.325,280.295 373.325,284.475 377.506,284.475 377.506,349.78 373.325,349.78 373.325,353.96 377.506,353.96 377.506,374.862 373.325,374.862 373.325,370.682 356.604,370.682 356.604,374.862 352.424,374.862 352.424,353.96 356.604,353.96 356.604,349.78 352.424,349.78 352.424,284.475 356.604,284.475 356.604,280.295 352.424,280.295 344.063,271.934 348.244,271.934 348.244,267.754 344.063,267.754 344.063,259.394 348.244,259.394 348.244,255.213 348.244,246.853 354.514,246.853 354.514,255.213 375.416,255.213"/>
<polyline fill="none" stroke="#000000" stroke-width="0.5" stroke-linecap="butt" stroke-linejoin="round" points="310.621,219.681 308.531,219.681 308.531,215.5 314.801,215.5 314.801,228.041 308.531,228.041 308.531,223.861 310.621,223.861 310.621,219.681"/>
<polyline fill="none" stroke="#000000" stroke-width="0.5" stroke-linecap="butt" stroke-linejoin="round" points="285.539,219.681 285.539,223.861 287.629,223.861 287.629,228.041 281.359,228.041 281.359,215.5 287.629,215.5 287.629,219.681 285.539,219.681"/>
<polyline fill="none" stroke="#000000" stroke-width="0.5" stroke-linecap="butt" stroke-linejoin="round" points="318.981,211.32 277.178,211.32 277.178,232.222 318.981,232.222 318.981,211.32"/>
<polyline fill="none" stroke="#000000" stroke-width="0.5" stroke-linecap="butt" stroke-linejoin="round" points="306.441,221.771 306.428,221.318 306.392,220.867 306.33,220.418 306.245,219.974 306.136,219.534 306.003,219.101 305.847,218.676 305.668,218.26 305.467,217.855 305.244,217.461 305,217.079 304.736,216.711 304.452,216.358 304.15,216.021 303.83,215.701 303.493,215.399 303.14,215.115 302.772,214.851 302.39,214.607 301.996,214.384 301.591,214.183 301.175,214.004 300.75,213.848 300.317,213.715 299.877,213.606 299.433,213.52 298.984,213.459 298.533,213.423 298.08,213.41 298.08,213.41 297.627,213.423 297.176,213.459 296.727,213.52 296.283,213.606 295.843,213.715 295.41,213.848 294.985,214.004 294.569,214.183 294.164,214.384 293.77,214.607 293.388,214.851 293.02,215.115 292.667,215.399 292.33,215.701 292.01,216.021 291.708,216.358 291.424,216.711 291.16,217.079 290.916,217.461 290.693,217.855 290.492,218.26 290.313,218.676 290.157,219.101 290.024,219.534 289.915,219.974 289.83,220.418 289.768,220.867 289.732,221.318 289.719,221.771 289.719,221.771 289.732,222.224 289.768,222.675 289.83,223.123 289.915,223.568 290.024,224.008 290.157,224.44 290.313,224.865 290.492,225.281 290.693,225.687 290.916,226.081 291.16,226.463 291.424,226.831 291.708,227.183 292.01,227.52 292.33,227.841 292.667,228.143 293.02,228.427 293.388,228.691 293.77,228.935 294.164,229.158 294.569,229.359 294.985,229.538 295.41,229.694 295.843,229.827 296.283,229.936 296.727,230.021 297.176,230.082 297.627,230.119 298.08,230.131 298.08,230.131 298.533,230.119 298.984,230.082 299.433,230.021 299.877,229.936 300.317,229.827 300.75,229.694 301.175,229.538 301.591,229.359 301.996,229.158 302.39,228.935 302.772,228.691 303.14,228.427 303.493,228.143 303.83,227.841 304.15,227.52 304.452,227.183 304.736,226.831 305,226.463 305.244,226.081 305.467,225.687 305.668,225.281 305.847,224.865 306.003,224.44 306.136,224.008 306.245,223.568 306.33,223.123 306.392,222.675 306.428,222.224 306.441,221.771"/>
<polyline fill="none" stroke="#000000" stroke-width="0.5" stroke-linecap="butt" stroke-linejoin="round" points="310.621,190.419 308.531,190.419 308.531,186.238 314.801,186.238 314.801,198.779 308.531,198.779 308.531,194.599 310.621,194.599 310.621,190.419"/>
<polyline fill="none" stroke="#000000" stroke-width="0.5" stroke-linecap="butt" stroke-linejoin="round" points="285.539,190.419 285.539,194.599 287.629,194.599 287.629,198.779 281.359,198.779 281.359,186.238 287.629,186.238 287.629,190.419 285.539,190.419"/>
<polyline fill="none" stroke="#000000" stroke-width="0.5" stroke-linecap="butt" stroke-linejoin="round" points="318.981,182.058 277.178,182.058 277.178,202.96 318.981,202.96 318.981,182.058"/>
<polyline fill="none" stroke="#000000" stroke-width="0.5" stroke-linecap="butt" stroke-linejoin="round" points="306.441,192.509 306.428,192.056 306.392,191.605 306.33,191.156 306.245,190.712 306.136,190.272 306.003,189.839 305.847,189.414 305.668,188.998 305.467,188.593 305.244,188.198 305,187.817 304.736,187.449 304.452,187.096 304.15,186.759 303.83,186.439 303.493,186.137 303.14,185.853 302.772,185.589 302.39,185.345 301.996,185.122 301.591,184.921 301.175,184.742 300.75,184.586 300.317,184.453 299.877,184.344 299.433,184.258 298.984,184.197 298.533,184.16 298.08,184.148 298.08,184.148 297.627,184.16 297.176,184.197 296.727,184.258 296.283,184.344 295.843,184.453 295.41,184.586 294.985,184.742 294.569,184.921 294.164,185.122 293.77,185.345 293.388,185.589 293.02,185.853 292.667,186.137 292.33,186.439 292.01,186.759 291.708,187.096 291.424,187.449 291.16,187.817 290.916,188.198 290.693,188.593 290.492,188.998 290.313,189.414 290.157,189.839 290.024,190.272 289.915,190.712 289.83,191.156 289.768,191.605 289.732,192.056 289.719,192.509 289.719,192.509 289.732,192.961 289.768,193.413 289.83,193.861 289.915,194.306 290.024,194.745 290.157,195.178 290.313,195.603 290.492,196.019 290.693,196.425 290.916,196.819 291.16,197.201 291.424,197.568 291.708,197.921 292.01,198.258 292.33,198.579 292.667,198.881 293.02,199.165 293.388,199.429 293.77,199.673 294.164,199.895 294.569,200.097 294.985,200.276 295.41,200.432 295.843,200.565 296.283,200.674 296.727,200.759 297.176,200.82 297.627,200.857 298.08,200.869 298.08,200.869 298.533,200.857 298.984,200.82 299.433,200.759 299.877,200.674 300.317,200.565 300.75,200.432 301.175,200.276 301.591,200.097 301.996,199.895 302.39,199.673 302.772,199.429 303.14,199.165 303.493,198.881 303.83,198.579 304.15,198.258 304.452,197.921 304.736,197.568 305,197.201 305.244,196.819 305.467,196.425 305.668,196.019 305.847,195.603 306.003,195.178 306.136,194.745 306.245,194.306 306.33,193.861 306.392,193.413 306.428,192.961 306.441,192.509"/>
<polyline fill="none" stroke="#000000" stroke-width="0.5" stroke-linecap="butt" stroke-linejoin="round" points="306.738,129.804 318.981,142.048 318.981,142.048 408.841,144.435 408.841,142.345 413.022,142.345 413.022,146.526 421.382,146.526 421.382,142.345 429.743,142.345 429.743,146.526 425.563,146.526 425.563,154.886 429.743,154.886 429.743,159.066 421.382,159.066 421.382,154.886 413.022,154.886 413.022,159.066 408.841,159.066 408.841,156.976 318.981,159.363 318.981,159.363 306.738,171.607 289.422,171.607 277.178,159.363 277.178,159.363 187.319,156.976 187.319,159.066 183.138,159.066 183.138,154.886 174.778,154.886 174.778,159.066 166.417,159.066 166.417,154.886 170.597,154.886 170.597,146.526 166.417,146.526 166.417,142.345 174.778,142.345 174.778,146.526 183.138,146.526 183.138,142.345 187.319,142.345 187.319,144.435 277.178,142.048 277.178,142.048 289.422,129.804 306.738,129.804"/>
<polyline fill="none" stroke="#000000" stroke-width="0.5" stroke-linecap="butt" stroke-linejoin="round" points="306.441,150.706 306.428,150.253 306.392,149.802 306.33,149.353 306.245,148.909 306.136,148.469 306.003,148.036 305.847,147.611 305.668,147.195 305.467,146.79 305.244,146.395 305,146.014 304.736,145.646 304.452,145.293 304.15,144.956 303.83,144.636 303.493,144.334 303.14,144.05 302.772,143.786 302.39,143.542 301.996,143.319 301.591,143.118 301.175,142.939 300.75,142.783 300.317,142.65 299.877,142.541 299.433,142.455 298.984,142.394 298.533,142.357 298.08,142.345 298.08,142.345 297.627,142.357 297.176,142.394 296.727,142.455 296.283,142.541 295.843,142.65 295.41,142.783 294.985,142.939 294.569,143.118 294.164,143.319 293.77,143.542 293.388,143.786 293.02,144.05 292.667,144.334 292.33,144.636 292.01,144.956 291.708,145.293 291.424,145.646 291.16,146.014 290.916,146.395 290.693,146.79 290.492,147.195 290.313,147.611 290.157,148.036 290.024,148.469 289.915,148.909 289.83,149.353 289.768,149.802 289.732,150.253 289.719,150.706 289.719,150.706 289.732,151.158 289.768,151.61 289.83,152.058 289.915,152.503 290.024,152.943 290.157,153.375 290.313,153.8 290.492,154.216 290.693,154.622 290.916,155.016 291.16,155.398 291.424,155.765 291.708,156.118 292.01,156.455 292.33,156.776 292.667,157.078 293.02,157.362 293.388,157.626 293.77,157.87 294.164,158.092 294.569,158.294 294.985,158.473 295.41,158.629 295.843,158.762 296.283,158.871 296.727,158.956 297.176,159.017 297.627,159.054 298.08,159.066 298.08,159.066 298.533,159.054 298.984,159.017 299.433,158.956 299.877,158.871 300.317,158.762 300.75,158.629 301.175,158.473 301.591,158.294 301.996,158.092 302.39,157.87 302.772,157.626 303.14,157.362 303.493,157.078 303.83,156.776 304.15,156.455 304.452,156.118 304.736,155.765 305,155.398 305.244,155.016 305.467,154.622 305.668,154.216 305.847,153.8 306.003,153.375 306.136,152.943 306.245,152.503 306.33,152.058 306.392,151.61 306.428,151.158 306.441,150.706"/>
<polyline fill="none" stroke="#000000" stroke-width="0.5" stroke-linecap="butt" stroke-linejoin="round" points="308.426,137.404 311.382,140.36 308.426,143.316 305.47,140.36 308.426,137.404"/>
<polyline fill="none" stroke="#000000" stroke-width="0.5" stroke-linecap="butt" stroke-linejoin="round" points="284.778,140.36 287.734,137.404 290.69,140.36 287.734,143.316 284.778,140.36"/>
<polyline fill="none" stroke="#000000" stroke-width="0.5" stroke-linecap="butt" stroke-linejoin="round" points="287.734,164.007 284.778,161.052 287.734,158.096 290.69,161.052 287.734,164.007"/>
<polyline fill="none" stroke="#000000" stroke-width="0.5" stroke-linecap="butt" stroke-linejoin="round" points="311.382,161.052 308.426,164.007 305.47,161.052 308.426,158.096 311.382,161.052"/>
<polyline fill="none" stroke="#000000" stroke-width="0.5" stroke-linecap="butt" stroke-linejoin="round" points="295.99,133.985 300.17,133.985 300.17,138.165 295.99,138.165 295.99,133.985"/>
<polyline fill="none" stroke="#000000" stroke-width="0.5" stroke-linecap="butt" stroke-linejoin="round" points="300.17,167.427 295.99,167.427 295.99,163.247 300.17,163.247 300.17,167.427"/>
<polyline fill="none" stroke="#0000ff" stroke-width="0.5" stroke-linecap="butt" stroke-linejoin="round" points="408.841,142.345 413.022,142.345 413.022,146.526 421.382,146.526 421.382,142.345 425.563,142.345 425.563,138.165 421.382,138.165 421.382,133.985 413.022,133.985 413.022,138.165 408.841,138.165 408.841,142.345"/>
<polyline fill="none" stroke="#0000ff" stroke-width="0.5" stroke-linecap="butt" stroke-linejoin="round" points="408.841,159.066 413.022,159.066 413.022,154.886 421.382,154.886 421.382,159.066 425.563,159.066 425.563,163.247 421.382,163.247 421.382,167.427 413.022,167.427 413.022,163.247 408.841,163.247 408.841,159.066"/>
<polyline fill="none" stroke="#0000ff" stroke-width="0.5" stroke-linecap="butt" stroke-linejoin="round" points="187.319,142.345 183.138,142.345 183.138,146.526 174.778,146.526 174.778,142.345 170.597,142.345 170.597,138.165 174.778,138.165 174.778,133.985 183.138,133.985 183.138,138.165 187.319,138.165 187.319,142.345"/>
<polyline fill="none" stroke="#0000ff" stroke-width="0.5" stroke-linecap="butt" stroke-linejoin="round" points="187.319,159.066 183.138,159.066 183.138,154.886 174.778,154.886 174.778,159.066 170.597,159.066 170.597,163.247 174.778,163.247 174.778,167.427 183.138,167.427 183.138,163.247 187.319,163.247 187.319,159.066"/>
<polyline fill="none" stroke="#0000ff" stroke-width="0.5" stroke-linecap="butt" stroke-linejoin="round" points="429.743,142.345 429.743,146.526 425.563,146.526 425.563,154.886 429.743,154.886 429.743,159.066 433.923,159.066 433.923,154.886 438.104,154.886 438.104,146.526 433.923,146.526 433.923,142.345 429.743,142.345"/>
<polyline fill="none" stroke="#0000ff" stroke-width="0.5" stroke-linecap="butt" stroke-linejoin="round" points="166.417,142.345 166.417,146.526 170.597,146.526 170.597,154.886 166.417,154.886 166.417,159.066 162.237,159.066 162.237,154.886 158.056,154.886 158.056,146.526 162.237,146.526 162.237,142.345 166.417,142.345"/>
<polyline fill="none" stroke="#000000" stroke-width="0.5" stroke-linecap="butt" stroke-linejoin="round" points="306.738,67.0998 318.981,79.3437 318.981,79.3437 408.841,81.7309 408.841,79.6407 413.022,79.6407 413.022,83.821 421.382,83.821 421.382,79.6407 429.743,79.6407 429.743,83.821 425.563,83.821 425.563,92.1816 429.743,92.1816 429.743,96.3619 421.382,96.3619 421.382,92.1816 413.022,92.1816 413.022,96.3619 408.841,96.3619 408.841,94.2718 318.981,96.659 318.981,96.659 306.738,108.903 289.422,108.903 277.178,96.659 277.178,96.659 187.319,94.2718 187.319,96.3619 183.138,96.3619 183.138,92.1816 174.778,92.1816 174.778,96.3619 166.417,96.3619 166.417,92.1816 170.597,92.1816 170.597,83.821 166.417,83.821 166.417,79.6407 174.778,79.6407 174.778,83.821 183.138,83.821 183.138,79.6407 187.319,79.6407 187.319,81.7309 277.178,79.3437 277.178,79.3437 289.422,67.0998 306.738,67.0998"/>
<polyline fill="none" stroke="#000000" stroke-width="0.5" stroke-linecap="butt" stroke-linejoin="round" points="306.441,88.0013 306.428,87.5487 306.392,87.0974 306.33,86.6487 306.245,86.204 306.136,85.7646 306.003,85.3318 305.847,84.9067 305.668,84.4908 305.467,84.0851 305.244,83.691 305,83.3095 304.736,82.9417 304.452,82.5888 304.15,82.2517 303.83,81.9316 303.493,81.6292 303.14,81.3455 302.772,81.0814 302.39,80.8375 301.996,80.6146 301.591,80.4135 301.175,80.2345 300.75,80.0784 300.317,79.9455 299.877,79.8362 299.433,79.7509 298.984,79.6897 298.533,79.653 298.08,79.6407 298.08,79.6407 297.627,79.653 297.176,79.6897 296.727,79.7509 296.283,79.8362 295.843,79.9455 295.41,80.0784 294.985,80.2345 294.569,80.4135 294.164,80.6146 293.77,80.8375 293.388,81.0814 293.02,81.3455 292.667,81.6292 292.33,81.9316 292.01,82.2517 291.708,82.5888 291.424,82.9417 291.16,83.3095 290.916,83.691 290.693,84.0851 290.492,84.4908 290.313,84.9067 290.157,85.3318 290.024,85.7646 289.915,86.204 289.83,86.6487 289.768,87.0974 289.732,87.5487 289.719,88.0013 289.719,88.0013 289.732,88.4539 289.768,88.9053 289.83,89.3539 289.915,89.7986 290.024,90.238 290.157,90.6709 290.313,91.0959 290.492,91.5118 290.693,91.9175 290.916,92.3117 291.16,92.6932 291.424,93.0609 291.708,93.4138 292.01,93.7509 292.33,94.0711 292.667,94.3734 293.02,94.6571 293.388,94.9213 293.77,95.1652 294.164,95.388 294.569,95.5892 294.985,95.7681 295.41,95.9243 295.843,96.0572 296.283,96.1664 296.727,96.2518 297.176,96.3129 297.627,96.3497 298.08,96.3619 298.08,96.3619 298.533,96.3497 298.984,96.3129 299.433,96.2518 299.877,96.1664 300.317,96.0572 300.75,95.9243 301.175,95.7681 301.591,95.5892 301.996,95.388 302.39,95.1652 302.772,94.9213 303.14,94.6571 303.493,94.3734 303.83,94.0711 304.15,93.7509 304.452,93.4138 304.736,93.0609 305,92.6932 305.244,92.3117 305.467,91.9175 305.668,91.5118 305.847,91.0959 306.003,90.6709 306.136,90.238 306.245,89.7986 306.33,89.3539 306.392,88.9053 306.428,88.4539 306.441,88.0013"/>
<polyline fill="none" stroke="#000000" stroke-width="0.5" stroke-linecap="butt" stroke-linejoin="round" points="308.426,74.6997 311.382,77.6556 308.426,80.6115 305.47,77.6556 308.426,74.6997"/>
<polyline fill="none" stroke="#000000" stroke-width="0.5" stroke-linecap="butt" stroke-linejoin="round" points="284.778,77.6556 287.734,74.6997 290.69,77.6556 287.734,80.6115 284.778,77.6556"/>
<polyline fill="none" stroke="#000000" stroke-width="0.5" stroke-linecap="butt" stroke-linejoin="round" points="287.734,101.303 284.778,98.347 287.734,95.3911 290.69,98.347 287.734,101.303"/>
<polyline fill="none" stroke="#000000" stroke-width="0.5" stroke-linecap="butt" stroke-linejoin="round" points="311.382,98.347 308.426,101.303 305.47,98.347 308.426,95.3911 311.382,98.347"/>
<polyline fill="none" stroke="#000000" stroke-width="0.5" stroke-linecap="butt" stroke-linejoin="round" points="295.99,71.2801 300.17,71.2801 300.17,75.4604 295.99,75.4604 295.99,71.2801"/>
<polyline fill="none" stroke="#000000" stroke-width="0.5" stroke-linecap="butt" stroke-linejoin="round" points="300.17,104.723 295.99,104.723 295.99,100.542 300.17,100.542 300.17,104.723"/>
<polyline fill="none" stroke="#000000" stroke-width="0.5" stroke-linecap="butt" stroke-linejoin="round" points="306.441,46.1983 306.428,45.7457 306.392,45.2944 306.33,44.8457 306.245,44.401 306.136,43.9616 306.003,43.5288 305.847,43.1038 305.668,42.6878 305.467,42.2822 305.244,41.888 305,41.5065 304.736,41.1387 304.452,40.7858 304.15,40.4488 303.83,40.1286 303.493,39.8262 303.14,39.5425 302.772,39.2784 302.39,39.0345 301.996,38.8117 301.591,38.6105 301.175,38.4315 300.75,38.2754 300.317,38.1425 299.877,38.0332 299.433,37.9479 298.984,37.8867 298.533,37.85 298.08,37.8377 298.08,37.8377 297.627,37.85 297.176,37.8867 296.727,37.9479 296.283,38.0332 295.843,38.1425 295.41,38.2754 294.985,38.4315 294.569,38.6105 294.164,38.8117 293.77,39.0345 293.388,39.2784 293.02,39.5425 292.667,39.8262 292.33,40.1286 292.01,40.4488 291.708,40.7858 291.424,41.1387 291.16,41.5065 290.916,41.888 290.693,42.2822 290.492,42.6878 290.313,43.1038 290.157,43.5288 290.024,43.9616 289.915,44.401 289.83,44.8457 289.768,45.2944 289.732,45.7457 289.719,46.1983 289.719,46.1983 289.732,46.651 289.768,47.1023 289.83,47.5509 289.915,47.9956 290.024,48.435 290.157,48.8679 290.313,49.2929 290.492,49.7089 290.693,50.1145 290.916,50.5087 291.16,50.8902 291.424,51.258 291.708,51.6109 292.01,51.9479 292.33,52.2681 292.667,52.5705 293.02,52.8542 293.388,53.1183 293.77,53.3622 294.164,53.585 294.569,53.7862 294.985,53.9651 295.41,54.1213 295.843,54.2542 296.283,54.3635 296.727,54.4488 297.176,54.5099 297.627,54.5467 298.08,54.5589 298.08,54.5589 298.533,54.5467 298.984,54.5099 299.433,54.4488 299.877,54.3635 300.317,54.2542 300.75,54.1213 301.175,53.9651 301.591,53.7862 301.996,53.585 302.39,53.3622 302.772,53.1183 303.14,52.8542 303.493,52.5705 303.83,52.2681 304.15,51.9479 304.452,51.6109 304.736,51.258 305,50.8902 305.244,50.5087 305.467,50.1145 305.668,49.7089 305.847,49.2929 306.003,48.8679 306.136,48.435 306.245,47.9956 306.33,47.5509 306.392,47.1023 306.428,46.651 306.441,46.1983"/>
<polyline fill="none" stroke="#000000" stroke-width="0.5" stroke-linecap="butt" stroke-linejoin="round" points="310.621,46.1983 310.603,45.5194 310.547,44.8424 310.456,44.1695 310.328,43.5024 310.164,42.8433 309.964,42.194 309.73,41.5565 309.462,40.9326 309.16,40.3241 308.826,39.7328 308.46,39.1606 308.064,38.6089 307.638,38.0795 307.185,37.574 306.704,37.0937 306.199,36.6401 305.669,36.2146 305.118,35.8184 304.546,35.4526 303.954,35.1183 303.346,34.8165 302.722,34.5482 302.084,34.3139 301.435,34.1145 300.776,33.9507 300.109,33.8227 299.436,33.731 298.759,33.6758 298.08,33.6574 298.08,33.6574 297.401,33.6758 296.724,33.731 296.051,33.8227 295.384,33.9507 294.725,34.1145 294.076,34.3139 293.438,34.5482 292.814,34.8165 292.206,35.1183 291.614,35.4526 291.042,35.8184 290.491,36.2146 289.961,36.6401 289.456,37.0937 288.975,37.574 288.522,38.0795 288.096,38.6089 287.7,39.1606 287.334,39.7328 287,40.3241 286.698,40.9326 286.43,41.5565 286.196,42.194 285.996,42.8433 285.832,43.5024 285.704,44.1695 285.613,44.8424 285.557,45.5194 285.539,46.1983 285.539,46.1983 285.557,46.8773 285.613,47.5543 285.704,48.2272 285.832,48.8943 285.996,49.5534 286.196,50.2027 286.43,50.8402 286.698,51.4641 287,52.0726 287.334,52.6638 287.7,53.2361 288.096,53.7878 288.522,54.3171 288.975,54.8227 289.456,55.303 289.961,55.7565 290.491,56.1821 291.042,56.5783 291.614,56.9441 292.206,57.2784 292.814,57.5801 293.438,57.8485 294.076,58.0828 294.725,58.2821 295.384,58.446 296.051,58.574 296.724,58.6657 297.401,58.7209 298.08,58.7393 298.08,58.7393 298.759,58.7209 299.436,58.6657 300.109,58.574 300.776,58.446 301.435,58.2821 302.084,58.0828 302.722,57.8485 303.346,57.5801 303.954,57.2784 304.546,56.9441 305.118,56.5783 305.669,56.1821 306.199,55.7565 306.704,55.303 307.185,54.8227 307.638,54.3171 308.064,53.7878 308.46,53.2361 308.826,52.6638 309.16,52.0726 309.462,51.4641 309.73,50.8402 309.964,50.2027 310.164,49.5534 310.328,48.8943 310.456,48.2272 310.547,47.5543 310.603,46.8773 310.621,46.1983"/>
</g>
</g>
</svg>
