<?xml version="1.0" encoding="UTF-8" standalone="no"?>
<svg xmlns="http://www.w3.org/2000/svg"
     xmlns:xlink="http://www.w3.org/1999/xlink"
     width="576pt" height="432pt" viewBox="0 0 576 432">
<title>gl2ps_renderer figure</title>
<desc>
Creator: GL2PS 1.4.0, (C) 1999-2017 C. Geuzaine
For: Octave
CreationDate: Tue Jul 30 11:06:06 2019
</desc>
<defs>
</defs>
<polygon fill="#ffffff" points="0,0 576,0 576,432 0,432"/>
<g>
<polygon fill="#ffffff" points="0,432 576,432 576,0 0,0" shape-rendering="crispEdges"/>
<clipPath id="cp00576432">
  <polygon points="0,432 576,432 576,0 0,0"/>
</clipPath>
<g clip-path="url(#cp00576432)">
<polyline fill="none" stroke="#ff0000" stroke-width="0.5" stroke-linecap="square" stroke-linejoin="miter" points="295.08,262.824 301.08,262.824"/>
<polyline fill="none" stroke="#ff0000" stroke-width="0.5" stroke-linecap="square" stroke-linejoin="miter" points="298.08,259.824 298.08,265.824"/>
<polyline fill="none" stroke="#000000" stroke-width="0.5" stroke-linecap="butt" stroke-linejoin="round" points="226.569,356.67 226.569,278.715 218.623,270.77 218.623,254.878 218.626,254.448 218.635,254.019 218.65,253.593 218.67,253.17 218.696,252.753 218.727,252.341 218.765,251.937 218.807,251.542 218.855,251.156 218.908,250.782 218.966,250.419 219.029,250.07 219.096,249.734 219.168,249.414 219.244,249.11 219.324,248.822 219.408,248.553 219.495,248.302 219.586,248.07 219.679,247.858 219.776,247.667 219.875,247.497 219.976,247.349 220.078,247.222 220.183,247.118 220.289,247.037 220.395,246.979 220.502,246.944 220.61,246.933 220.61,246.933 220.717,246.944 220.825,246.979 220.931,247.037 221.037,247.118 221.141,247.222 221.244,247.349 221.345,247.497 221.444,247.667 221.54,247.858 221.634,248.07 221.725,248.302 221.812,248.553 221.896,248.822 221.976,249.11 222.052,249.414 222.124,249.734 222.191,250.07 222.254,250.419 222.312,250.782 222.365,251.156 222.413,251.542 222.455,251.937 222.492,252.341 222.524,252.753 222.55,253.17 222.57,253.593 222.585,254.019 222.593,254.448 222.596,254.878 222.596,254.878 222.596,262.824 246.433,262.824 246.433,254.878 246.433,254.878 246.436,254.448 246.445,254.019 246.459,253.593 246.48,253.17 246.506,252.753 246.537,252.341 246.574,251.937 246.617,251.542 246.665,251.156 246.718,250.782 246.776,250.419 246.838,250.07 246.906,249.734 246.978,249.414 247.054,249.11 247.134,248.822 247.218,248.553 247.305,248.302 247.396,248.07 247.489,247.858 247.586,247.667 247.684,247.497 247.785,247.349 247.888,247.222 247.993,247.118 248.098,247.037 248.205,246.979 248.312,246.944 248.42,246.933 248.42,246.933 248.527,246.944 248.634,246.979 248.741,247.037 248.847,247.118 248.951,247.222 249.054,247.349 249.155,247.497 249.254,247.667 249.35,247.858 249.444,248.07 249.534,248.302 249.622,248.553 249.706,248.822 249.786,249.11 249.862,249.414 249.934,249.734 250.001,250.07 250.064,250.419 250.122,250.782 250.175,251.156 250.222,251.542 250.265,251.937 250.302,252.341 250.334,252.753 250.36,253.17 250.38,253.593 250.394,254.019 250.403,254.448 250.406,254.878 250.406,270.77 242.46,278.715 242.46,356.67 266.297,356.67 266.297,364.616 266.297,364.616 226.569,364.616 226.569,356.67"/>
<polyline fill="none" stroke="#000000" stroke-width="0.5" stroke-linecap="butt" stroke-linejoin="round" points="238.488,282.688 238.488,356.67 230.542,356.67 230.542,282.688 238.488,282.688"/>
<polyline fill="none" stroke="#000000" stroke-width="0.5" stroke-linecap="butt" stroke-linejoin="round" points="308.012,262.824 308.012,254.878 313.971,254.878 313.971,262.824 313.971,266.797 317.944,266.797 317.944,274.742 313.971,274.742 313.971,278.715 317.944,278.715 309.998,286.661 306.026,286.661 306.026,290.634 309.998,290.634 309.998,352.697 306.026,352.697 306.026,356.67 309.998,356.67 309.998,376.534 306.026,376.534 306.026,372.562 290.134,372.562 290.134,376.534 286.161,376.534 286.161,356.67 290.134,356.67 290.134,352.697 286.161,352.697 286.161,290.634 290.134,290.634 290.134,286.661 286.161,286.661 278.216,278.715 282.189,278.715 282.189,274.742 278.216,274.742 278.216,266.797 282.189,266.797 282.189,262.824 282.189,254.878 288.148,254.878 288.148,262.824 308.012,262.824"/>
<polyline fill="none" stroke="#0000ff" stroke-width="0.5" stroke-linecap="butt" stroke-linejoin="round" points="313.971,262.824 313.971,266.797 317.944,266.797 317.944,274.742 313.971,274.742 313.971,278.715 325.89,278.715 325.89,274.742 321.917,274.742 321.917,266.797 325.89,266.797 325.89,262.824 313.971,262.824"/>
<polyline fill="none" stroke="#0000ff" stroke-width="0.5" stroke-linecap="butt" stroke-linejoin="round" points="317.944,278.715 313.971,278.715 306.026,286.661 309.998,286.661 317.944,278.715"/>
<polyline fill="none" stroke="#0000ff" stroke-width="0.5" stroke-linecap="butt" stroke-linejoin="round" points="306.026,286.661 306.026,290.634 309.998,290.634 309.998,352.697 306.026,352.697 306.026,356.67 317.944,356.67 317.944,352.697 313.971,352.697 313.971,290.634 317.944,290.634 317.944,286.661 306.026,286.661"/>
<polyline fill="none" stroke="#0000ff" stroke-width="0.5" stroke-linecap="butt" stroke-linejoin="round" points="278.216,286.661 278.216,290.634 282.189,290.634 282.189,352.697 278.216,352.697 278.216,356.67 282.189,356.67 282.189,372.562 286.161,372.562 286.161,356.67 290.134,356.67 290.134,352.697 286.161,352.697 286.161,290.634 290.134,290.634 290.134,286.661 278.216,286.661"/>
<polyline fill="none" stroke="#0000ff" stroke-width="0.5" stroke-linecap="butt" stroke-linejoin="round" points="309.998,376.534 306.026,376.534 306.026,372.562 290.134,372.562 290.134,376.534 286.161,376.534 286.161,380.507 290.134,380.507 290.134,384.48 306.026,384.48 306.026,380.507 309.998,380.507 309.998,376.534"/>
<polyline fill="none" stroke="#0000ff" stroke-width="0.5" stroke-linecap="butt" stroke-linejoin="round" points="282.189,262.824 282.189,266.797 278.216,266.797 278.216,274.742 282.189,274.742 282.189,278.715 270.27,278.715 270.27,274.742 274.243,274.742 274.243,266.797 270.27,266.797 270.27,262.824 282.189,262.824"/>
<polyline fill="none" stroke="#0000ff" stroke-width="0.5" stroke-linecap="butt" stroke-linejoin="round" points="278.216,278.715 282.189,278.715 290.134,286.661 286.161,286.661 278.216,278.715"/>
<polyline fill="none" stroke="#000000" stroke-width="0.5" stroke-linecap="butt" stroke-linejoin="round" points="371.577,262.824 371.577,254.878 377.536,254.878 377.536,262.824 377.536,266.797 381.509,266.797 381.509,274.742 377.536,274.742 377.536,278.715 381.509,278.715 373.564,286.661 369.591,286.661 369.591,290.634 373.564,290.634 373.564,352.697 369.591,352.697 369.591,356.67 373.564,356.67 373.564,376.534 369.591,376.534 369.591,372.562 353.7,372.562 353.7,376.534 349.727,376.534 349.727,356.67 353.7,356.67 353.7,352.697 349.727,352.697 349.727,290.634 353.7,290.634 353.7,286.661 349.727,286.661 341.781,278.715 345.754,278.715 345.754,274.742 341.781,274.742 341.781,266.797 345.754,266.797 345.754,262.824 345.754,254.878 351.713,254.878 351.713,262.824 371.577,262.824"/>
<polyline fill="none" stroke="#000000" stroke-width="0.5" stroke-linecap="butt" stroke-linejoin="round" points="309.998,229.055 308.012,229.055 308.012,225.082 313.971,225.082 313.971,237.001 308.012,237.001 308.012,233.028 309.998,233.028 309.998,229.055"/>
<polyline fill="none" stroke="#000000" stroke-width="0.5" stroke-linecap="butt" stroke-linejoin="round" points="286.161,229.055 286.161,233.028 288.148,233.028 288.148,237.001 282.189,237.001 282.189,225.082 288.148,225.082 288.148,229.055 286.161,229.055"/>
<polyline fill="none" stroke="#000000" stroke-width="0.5" stroke-linecap="butt" stroke-linejoin="round" points="317.944,221.109 278.216,221.109 278.216,240.973 317.944,240.973 317.944,221.109"/>
<polyline fill="none" stroke="#000000" stroke-width="0.5" stroke-linecap="butt" stroke-linejoin="round" points="306.026,231.041 306.014,230.611 305.979,230.182 305.921,229.756 305.84,229.333 305.736,228.916 305.61,228.504 305.461,228.1 305.291,227.705 305.1,227.32 304.888,226.945 304.657,226.582 304.405,226.233 304.136,225.897 303.849,225.577 303.544,225.273 303.224,224.985 302.888,224.716 302.539,224.465 302.176,224.233 301.802,224.021 301.416,223.83 301.021,223.66 300.617,223.512 300.206,223.385 299.788,223.281 299.365,223.2 298.939,223.142 298.51,223.107 298.08,223.096 298.08,223.096 297.65,223.107 297.221,223.142 296.795,223.2 296.372,223.281 295.954,223.385 295.543,223.512 295.139,223.66 294.744,223.83 294.358,224.021 293.984,224.233 293.621,224.465 293.271,224.716 292.936,224.985 292.616,225.273 292.311,225.577 292.024,225.897 291.755,226.233 291.503,226.582 291.272,226.945 291.06,227.32 290.869,227.705 290.699,228.1 290.55,228.504 290.424,228.916 290.32,229.333 290.239,229.756 290.181,230.182 290.146,230.611 290.134,231.041 290.134,231.041 290.146,231.471 290.181,231.9 290.239,232.327 290.32,232.749 290.424,233.167 290.55,233.578 290.699,233.982 290.869,234.378 291.06,234.763 291.272,235.138 291.503,235.5 291.755,235.85 292.024,236.185 292.311,236.506 292.616,236.81 292.936,237.097 293.271,237.367 293.621,237.618 293.984,237.85 294.358,238.061 294.744,238.253 295.139,238.423 295.543,238.571 295.954,238.697 296.372,238.801 296.795,238.882 297.221,238.94 297.65,238.975 298.08,238.987 298.08,238.987 298.51,238.975 298.939,238.94 299.365,238.882 299.788,238.801 300.206,238.697 300.617,238.571 301.021,238.423 301.416,238.253 301.802,238.061 302.176,237.85 302.539,237.618 302.888,237.367 303.224,237.097 303.544,236.81 303.849,236.506 304.136,236.185 304.405,235.85 304.657,235.5 304.888,235.138 305.1,234.763 305.291,234.378 305.461,233.982 305.61,233.578 305.736,233.167 305.84,232.749 305.921,232.327 305.979,231.9 306.014,231.471 306.026,231.041"/>
<polyline fill="none" stroke="#000000" stroke-width="0.5" stroke-linecap="butt" stroke-linejoin="round" points="309.998,201.245 308.012,201.245 308.012,197.272 313.971,197.272 313.971,209.191 308.012,209.191 308.012,205.218 309.998,205.218 309.998,201.245"/>
<polyline fill="none" stroke="#000000" stroke-width="0.5" stroke-linecap="butt" stroke-linejoin="round" points="286.161,201.245 286.161,205.218 288.148,205.218 288.148,209.191 282.189,209.191 282.189,197.272 288.148,197.272 288.148,201.245 286.161,201.245"/>
<polyline fill="none" stroke="#000000" stroke-width="0.5" stroke-linecap="butt" stroke-linejoin="round" points="317.944,193.299 278.216,193.299 278.216,213.164 317.944,213.164 317.944,193.299"/>
<polyline fill="none" stroke="#000000" stroke-width="0.5" stroke-linecap="butt" stroke-linejoin="round" points="306.026,203.232 306.014,202.801 305.979,202.372 305.921,201.946 305.84,201.523 305.736,201.106 305.61,200.694 305.461,200.291 305.291,199.895 305.1,199.51 304.888,199.135 304.657,198.773 304.405,198.423 304.136,198.088 303.849,197.767 303.544,197.463 303.224,197.176 302.888,196.906 302.539,196.655 302.176,196.423 301.802,196.211 301.416,196.02 301.021,195.85 300.617,195.702 300.206,195.576 299.788,195.472 299.365,195.391 298.939,195.332 298.51,195.298 298.08,195.286 298.08,195.286 297.65,195.298 297.221,195.332 296.795,195.391 296.372,195.472 295.954,195.576 295.543,195.702 295.139,195.85 294.744,196.02 294.358,196.211 293.984,196.423 293.621,196.655 293.271,196.906 292.936,197.176 292.616,197.463 292.311,197.767 292.024,198.088 291.755,198.423 291.503,198.773 291.272,199.135 291.06,199.51 290.869,199.895 290.699,200.291 290.55,200.694 290.424,201.106 290.32,201.523 290.239,201.946 290.181,202.372 290.146,202.801 290.134,203.232 290.134,203.232 290.146,203.662 290.181,204.091 290.239,204.517 290.32,204.94 290.424,205.357 290.55,205.769 290.699,206.173 290.869,206.568 291.06,206.953 291.272,207.328 291.503,207.691 291.755,208.04 292.024,208.375 292.311,208.696 292.616,209 292.936,209.287 293.271,209.557 293.621,209.808 293.984,210.04 294.358,210.252 294.744,210.443 295.139,210.613 295.543,210.761 295.954,210.888 296.372,210.991 296.795,211.073 297.221,211.131 297.65,211.166 298.08,211.177 298.08,211.177 298.51,211.166 298.939,211.131 299.365,211.073 299.788,210.991 300.206,210.888 300.617,210.761 301.021,210.613 301.416,210.443 301.802,210.252 302.176,210.04 302.539,209.808 302.888,209.557 303.224,209.287 303.544,209 303.849,208.696 304.136,208.375 304.405,208.04 304.657,207.691 304.888,207.328 305.1,206.953 305.291,206.568 305.461,206.173 305.61,205.769 305.736,205.357 305.84,204.94 305.921,204.517 305.979,204.091 306.014,203.662 306.026,203.232"/>
<polyline fill="none" stroke="#000000" stroke-width="0.5" stroke-linecap="butt" stroke-linejoin="round" points="306.308,123.775 317.944,135.411 317.944,135.411 403.344,137.68 403.344,135.693 407.317,135.693 407.317,139.666 415.263,139.666 415.263,135.693 423.208,135.693 423.208,139.666 419.236,139.666 419.236,147.612 423.208,147.612 423.208,151.585 415.263,151.585 415.263,147.612 407.317,147.612 407.317,151.585 403.344,151.585 403.344,149.598 317.944,151.867 317.944,151.867 306.308,163.503 289.852,163.503 278.216,151.867 278.216,151.867 192.816,149.598 192.816,151.585 188.843,151.585 188.843,147.612 180.897,147.612 180.897,151.585 172.952,151.585 172.952,147.612 176.924,147.612 176.924,139.666 172.952,139.666 172.952,135.693 180.897,135.693 180.897,139.666 188.843,139.666 188.843,135.693 192.816,135.693 192.816,137.68 278.216,135.411 278.216,135.411 289.852,123.775 306.308,123.775"/>
<polyline fill="none" stroke="#000000" stroke-width="0.5" stroke-linecap="butt" stroke-linejoin="round" points="306.026,143.639 306.014,143.209 305.979,142.78 305.921,142.354 305.84,141.931 305.736,141.513 305.61,141.102 305.461,140.698 305.291,140.303 305.1,139.917 304.888,139.543 304.657,139.18 304.405,138.831 304.136,138.495 303.849,138.175 303.544,137.871 303.224,137.583 302.888,137.314 302.539,137.063 302.176,136.831 301.802,136.619 301.416,136.428 301.021,136.258 300.617,136.109 300.206,135.983 299.788,135.879 299.365,135.798 298.939,135.74 298.51,135.705 298.08,135.693 298.08,135.693 297.65,135.705 297.221,135.74 296.795,135.798 296.372,135.879 295.954,135.983 295.543,136.109 295.139,136.258 294.744,136.428 294.358,136.619 293.984,136.831 293.621,137.063 293.271,137.314 292.936,137.583 292.616,137.871 292.311,138.175 292.024,138.495 291.755,138.831 291.503,139.18 291.272,139.543 291.06,139.917 290.869,140.303 290.699,140.698 290.55,141.102 290.424,141.513 290.32,141.931 290.239,142.354 290.181,142.78 290.146,143.209 290.134,143.639 290.134,143.639 290.146,144.069 290.181,144.498 290.239,144.925 290.32,145.347 290.424,145.765 290.55,146.176 290.699,146.58 290.869,146.975 291.06,147.361 291.272,147.736 291.503,148.098 291.755,148.448 292.024,148.783 292.311,149.103 292.616,149.408 292.936,149.695 293.271,149.965 293.621,150.216 293.984,150.447 294.358,150.659 294.744,150.85 295.139,151.02 295.543,151.169 295.954,151.295 296.372,151.399 296.795,151.48 297.221,151.538 297.65,151.573 298.08,151.585 298.08,151.585 298.51,151.573 298.939,151.538 299.365,151.48 299.788,151.399 300.206,151.295 300.617,151.169 301.021,151.02 301.416,150.85 301.802,150.659 302.176,150.447 302.539,150.216 302.888,149.965 303.224,149.695 303.544,149.408 303.849,149.103 304.136,148.783 304.405,148.448 304.657,148.098 304.888,147.736 305.1,147.361 305.291,146.975 305.461,146.58 305.61,146.176 305.736,145.765 305.84,145.347 305.921,144.925 305.979,144.498 306.014,144.069 306.026,143.639"/>
<polyline fill="none" stroke="#000000" stroke-width="0.5" stroke-linecap="butt" stroke-linejoin="round" points="307.912,130.998 310.721,133.807 307.912,136.616 305.103,133.807 307.912,130.998"/>
<polyline fill="none" stroke="#000000" stroke-width="0.5" stroke-linecap="butt" stroke-linejoin="round" points="285.439,133.807 288.248,130.998 291.057,133.807 288.248,136.616 285.439,133.807"/>
<polyline fill="none" stroke="#000000" stroke-width="0.5" stroke-linecap="butt" stroke-linejoin="round" points="288.248,156.281 285.439,153.471 288.248,150.662 291.057,153.471 288.248,156.281"/>
<polyline fill="none" stroke="#000000" stroke-width="0.5" stroke-linecap="butt" stroke-linejoin="round" points="310.721,153.471 307.912,156.281 305.103,153.471 307.912,150.662 310.721,153.471"/>
<polyline fill="none" stroke="#000000" stroke-width="0.5" stroke-linecap="butt" stroke-linejoin="round" points="296.094,127.748 300.066,127.748 300.066,131.721 296.094,131.721 296.094,127.748"/>
<polyline fill="none" stroke="#000000" stroke-width="0.5" stroke-linecap="butt" stroke-linejoin="round" points="300.066,159.53 296.094,159.53 296.094,155.558 300.066,155.558 300.066,159.53"/>
<polyline fill="none" stroke="#0000ff" stroke-width="0.5" stroke-linecap="butt" stroke-linejoin="round" points="403.344,135.693 407.317,135.693 407.317,139.666 415.263,139.666 415.263,135.693 419.236,135.693 419.236,131.721 415.263,131.721 415.263,127.748 407.317,127.748 407.317,131.721 403.344,131.721 403.344,135.693"/>
<polyline fill="none" stroke="#0000ff" stroke-width="0.5" stroke-linecap="butt" stroke-linejoin="round" points="403.344,151.585 407.317,151.585 407.317,147.612 415.263,147.612 415.263,151.585 419.236,151.585 419.236,155.558 415.263,155.558 415.263,159.53 407.317,159.53 407.317,155.558 403.344,155.558 403.344,151.585"/>
<polyline fill="none" stroke="#0000ff" stroke-width="0.5" stroke-linecap="butt" stroke-linejoin="round" points="192.816,135.693 188.843,135.693 188.843,139.666 180.897,139.666 180.897,135.693 176.924,135.693 176.924,131.721 180.897,131.721 180.897,127.748 188.843,127.748 188.843,131.721 192.816,131.721 192.816,135.693"/>
<polyline fill="none" stroke="#0000ff" stroke-width="0.5" stroke-linecap="butt" stroke-linejoin="round" points="192.816,151.585 188.843,151.585 188.843,147.612 180.897,147.612 180.897,151.585 176.924,151.585 176.924,155.558 180.897,155.558 180.897,159.53 188.843,159.53 188.843,155.558 192.816,155.558 192.816,151.585"/>
<polyline fill="none" stroke="#0000ff" stroke-width="0.5" stroke-linecap="butt" stroke-linejoin="round" points="423.208,135.693 423.208,139.666 419.236,139.666 419.236,147.612 423.208,147.612 423.208,151.585 427.181,151.585 427.181,147.612 431.154,147.612 431.154,139.666 427.181,139.666 427.181,135.693 423.208,135.693"/>
<polyline fill="none" stroke="#0000ff" stroke-width="0.5" stroke-linecap="butt" stroke-linejoin="round" points="172.952,135.693 172.952,139.666 176.924,139.666 176.924,147.612 172.952,147.612 172.952,151.585 168.979,151.585 168.979,147.612 165.006,147.612 165.006,139.666 168.979,139.666 168.979,135.693 172.952,135.693"/>
<polyline fill="none" stroke="#0000ff" stroke-width="0.5" stroke-linecap="butt" stroke-linejoin="round" points="300.066,123.775 300.066,119.802 304.039,119.802 304.039,115.829 300.066,115.829 300.066,111.857 296.094,111.857 296.094,115.829 292.121,115.829 292.121,119.802 296.094,119.802 296.094,123.775 300.066,123.775"/>
<polyline fill="none" stroke="#0000ff" stroke-width="0.5" stroke-linecap="butt" stroke-linejoin="round" points="300.066,163.503 300.066,167.476 304.039,167.476 304.039,171.449 300.066,171.449 300.066,175.422 296.094,175.422 296.094,171.449 292.121,171.449 292.121,167.476 296.094,167.476 296.094,163.503 300.066,163.503"/>
<polyline fill="none" stroke="#000000" stroke-width="0.5" stroke-linecap="butt" stroke-linejoin="round" points="306.308,64.1826 317.944,75.8188 317.944,75.8188 403.344,78.0875 403.344,76.1011 407.317,76.1011 407.317,80.0739 415.263,80.0739 415.263,76.1011 423.208,76.1011 423.208,80.0739 419.236,80.0739 419.236,88.0196 423.208,88.0196 423.208,91.9924 415.263,91.9924 415.263,88.0196 407.317,88.0196 407.317,91.9924 403.344,91.9924 403.344,90.006 317.944,92.2747 317.944,92.2747 306.308,103.911 289.852,103.911 278.216,92.2747 278.216,92.2747 192.816,90.006 192.816,91.9924 188.843,91.9924 188.843,88.0196 180.897,88.0196 180.897,91.9924 172.952,91.9924 172.952,88.0196 176.924,88.0196 176.924,80.0739 172.952,80.0739 172.952,76.1011 180.897,76.1011 180.897,80.0739 188.843,80.0739 188.843,76.1011 192.816,76.1011 192.816,78.0875 278.216,75.8188 278.216,75.8188 289.852,64.1826 306.308,64.1826"/>
<polyline fill="none" stroke="#000000" stroke-width="0.5" stroke-linecap="butt" stroke-linejoin="round" points="306.026,84.0468 306.014,83.6166 305.979,83.1877 305.921,82.7613 305.84,82.3387 305.736,81.9211 305.61,81.5097 305.461,81.1057 305.291,80.7104 305.1,80.325 304.888,79.9503 304.657,79.5877 304.405,79.2383 304.136,78.9028 303.849,78.5826 303.544,78.2783 303.224,77.9909 302.888,77.7213 302.539,77.4702 302.176,77.2385 301.802,77.0267 301.416,76.8355 301.021,76.6654 300.617,76.517 300.206,76.3907 299.788,76.2869 299.365,76.2058 298.939,76.1477 298.51,76.1128 298.08,76.1011 298.08,76.1011 297.65,76.1128 297.221,76.1477 296.795,76.2058 296.372,76.2869 295.954,76.3907 295.543,76.517 295.139,76.6654 294.744,76.8355 294.358,77.0267 293.984,77.2385 293.621,77.4702 293.271,77.7213 292.936,77.9909 292.616,78.2783 292.311,78.5826 292.024,78.9028 291.755,79.2383 291.503,79.5877 291.272,79.9503 291.06,80.325 290.869,80.7104 290.699,81.1057 290.55,81.5097 290.424,81.9211 290.32,82.3387 290.239,82.7613 290.181,83.1877 290.146,83.6166 290.134,84.0468 290.134,84.0468 290.146,84.4769 290.181,84.9058 290.239,85.3322 290.32,85.7548 290.424,86.1724 290.55,86.5838 290.699,86.9877 290.869,87.3831 291.06,87.7686 291.272,88.1432 291.503,88.5057 291.755,88.8553 292.024,89.1906 292.311,89.511 292.616,89.8152 292.936,90.1026 293.271,90.3722 293.621,90.6233 293.984,90.855 294.358,91.0668 294.744,91.258 295.139,91.4281 295.543,91.5765 295.954,91.7028 296.372,91.8066 296.795,91.8878 297.221,91.9458 297.65,91.9808 298.08,91.9924 298.08,91.9924 298.51,91.9808 298.939,91.9458 299.365,91.8878 299.788,91.8066 300.206,91.7028 300.617,91.5765 301.021,91.4281 301.416,91.258 301.802,91.0668 302.176,90.855 302.539,90.6233 302.888,90.3722 303.224,90.1026 303.544,89.8152 303.849,89.511 304.136,89.1906 304.405,88.8553 304.657,88.5057 304.888,88.1432 305.1,87.7686 305.291,87.3831 305.461,86.9877 305.61,86.5838 305.736,86.1724 305.84,85.7548 305.921,85.3322 305.979,84.9058 306.014,84.4769 306.026,84.0468"/>
<polyline fill="none" stroke="#000000" stroke-width="0.5" stroke-linecap="butt" stroke-linejoin="round" points="307.912,71.4053 310.721,74.2145 307.912,77.0237 305.103,74.2145 307.912,71.4053"/>
<polyline fill="none" stroke="#000000" stroke-width="0.5" stroke-linecap="butt" stroke-linejoin="round" points="285.439,74.2145 288.248,71.4053 291.057,74.2145 288.248,77.0237 285.439,74.2145"/>
<polyline fill="none" stroke="#000000" stroke-width="0.5" stroke-linecap="butt" stroke-linejoin="round" points="288.248,96.6882 285.439,93.879 288.248,91.0698 291.057,93.879 288.248,96.6882"/>
<polyline fill="none" stroke="#000000" stroke-width="0.5" stroke-linecap="butt" stroke-linejoin="round" points="310.721,93.879 307.912,96.6882 305.103,93.879 307.912,91.0698 310.721,93.879"/>
<polyline fill="none" stroke="#000000" stroke-width="0.5" stroke-linecap="butt" stroke-linejoin="round" points="296.094,68.1555 300.066,68.1555 300.066,72.1283 296.094,72.1283 296.094,68.1555"/>
<polyline fill="none" stroke="#000000" stroke-width="0.5" stroke-linecap="butt" stroke-linejoin="round" points="300.066,99.938 296.094,99.938 296.094,95.9652 300.066,95.9652 300.066,99.938"/>
<polyline fill="none" stroke="#000000" stroke-width="0.5" stroke-linecap="butt" stroke-linejoin="round" points="306.026,44.3185 306.014,43.8883 305.979,43.4594 305.921,43.033 305.84,42.6104 305.736,42.1928 305.61,41.7814 305.461,41.3775 305.291,40.9822 305.1,40.5967 304.888,40.2221 304.657,39.8595 304.405,39.51 304.136,39.1746 303.849,38.8543 303.544,38.55 303.224,38.2626 302.888,37.993 302.539,37.7419 302.176,37.5102 301.802,37.2984 301.416,37.1072 301.021,36.9372 300.617,36.7888 300.206,36.6625 299.788,36.5586 299.365,36.4775 298.939,36.4194 298.51,36.3845 298.08,36.3728 298.08,36.3728 297.65,36.3845 297.221,36.4194 296.795,36.4775 296.372,36.5586 295.954,36.6625 295.543,36.7888 295.139,36.9372 294.744,37.1072 294.358,37.2984 293.984,37.5102 293.621,37.7419 293.271,37.993 292.936,38.2626 292.616,38.55 292.311,38.8543 292.024,39.1746 291.755,39.51 291.503,39.8595 291.272,40.2221 291.06,40.5967 290.869,40.9822 290.699,41.3775 290.55,41.7814 290.424,42.1928 290.32,42.6104 290.239,43.033 290.181,43.4594 290.146,43.8883 290.134,44.3185 290.134,44.3185 290.146,44.7487 290.181,45.1776 290.239,45.6039 290.32,46.0266 290.424,46.4442 290.55,46.8556 290.699,47.2595 290.869,47.6548 291.06,48.0403 291.272,48.4149 291.503,48.7775 291.755,49.127 292.024,49.4624 292.311,49.7827 292.616,50.087 292.936,50.3744 293.271,50.644 293.621,50.895 293.984,51.1268 294.358,51.3386 294.744,51.5298 295.139,51.6998 295.543,51.8482 295.954,51.9745 296.372,52.0784 296.795,52.1595 297.221,52.2176 297.65,52.2525 298.08,52.2642 298.08,52.2642 298.51,52.2525 298.939,52.2176 299.365,52.1595 299.788,52.0784 300.206,51.9745 300.617,51.8482 301.021,51.6998 301.416,51.5298 301.802,51.3386 302.176,51.1268 302.539,50.895 302.888,50.644 303.224,50.3744 303.544,50.087 303.849,49.7827 304.136,49.4624 304.405,49.127 304.657,48.7775 304.888,48.4149 305.1,48.0403 305.291,47.6548 305.461,47.2595 305.61,46.8556 305.736,46.4442 305.84,46.0266 305.921,45.6039 305.979,45.1776 306.014,44.7487 306.026,44.3185"/>
<polyline fill="none" stroke="#000000" stroke-width="0.5" stroke-linecap="butt" stroke-linejoin="round" points="309.998,44.3185 309.981,43.6732 309.929,43.0299 309.841,42.3903 309.72,41.7564 309.564,41.1299 309.375,40.5129 309.152,39.907 308.897,39.3141 308.61,38.7358 308.292,38.1739 307.945,37.63 307.568,37.1057 307.164,36.6026 306.733,36.1221 306.276,35.6657 305.796,35.2347 305.293,34.8303 304.768,34.4537 304.225,34.106 303.663,33.7884 303.084,33.5016 302.491,33.2465 301.886,33.0239 301.269,32.8344 300.642,32.6786 300.008,32.557 299.369,32.4699 298.725,32.4175 298.08,32.4 298.08,32.4 297.435,32.4175 296.791,32.4699 296.152,32.557 295.518,32.6786 294.891,32.8344 294.274,33.0239 293.669,33.2465 293.076,33.5016 292.497,33.7884 291.935,34.106 291.391,34.4537 290.867,34.8303 290.364,35.2347 289.884,35.6657 289.427,36.1221 288.996,36.6026 288.592,37.1057 288.215,37.63 287.868,38.1739 287.55,38.7358 287.263,39.3141 287.008,39.907 286.785,40.5129 286.596,41.1299 286.44,41.7564 286.319,42.3903 286.231,43.0299 286.179,43.6732 286.161,44.3185 286.161,44.3185 286.179,44.9637 286.231,45.6071 286.319,46.2467 286.44,46.8806 286.596,47.507 286.785,48.1241 287.008,48.73 287.263,49.3229 287.55,49.9012 287.868,50.4631 288.215,51.007 288.592,51.5313 288.996,52.0343 289.427,52.5148 289.884,52.9713 290.364,53.4023 290.867,53.8067 291.391,54.1833 291.935,54.5309 292.497,54.8486 293.076,55.1354 293.669,55.3905 294.274,55.6131 294.891,55.8026 295.518,55.9583 296.152,56.08 296.791,56.1671 297.435,56.2195 298.08,56.237 298.08,56.237 298.725,56.2195 299.369,56.1671 300.008,56.08 300.642,55.9583 301.269,55.8026 301.886,55.6131 302.491,55.3905 303.084,55.1354 303.663,54.8486 304.225,54.5309 304.768,54.1833 305.293,53.8067 305.796,53.4023 306.276,52.9713 306.733,52.5148 307.164,52.0343 307.568,51.5313 307.945,51.007 308.292,50.4631 308.61,49.9012 308.897,49.3229 309.152,48.73 309.375,48.1241 309.564,47.507 309.72,46.8806 309.841,46.2467 309.929,45.6071 309.981,44.9637 309.998,44.3185"/>
</g>
</g>
</svg>
