<?xml version="1.0" encoding="UTF-8" standalone="no"?>
<svg xmlns="http://www.w3.org/2000/svg"
     xmlns:xlink="http://www.w3.org/1999/xlink"
     width="576pt" height="432pt" viewBox="0 0 576 432">
<title>gl2ps_renderer figure</title>
<desc>
Creator: GL2PS 1.4.0, (C) 1999-2017 C. Geuzaine
For: Octave
CreationDate: Tue Jul 30 17:41:34 2019
</desc>
<defs>
</defs>
<polygon fill="#ffffff" points="0,0 576,0 576,432 0,432"/>
<g>
<polygon fill="#ffffff" points="0,432 576,432 576,0 0,0" shape-rendering="crispEdges"/>
<clipPath id="cp00576432">
  <polygon points="0,432 576,432 576,0 0,0"/>
</clipPath>
<g clip-path="url(#cp00576432)">
<polyline fill="none" stroke="#000000" stroke-width="0.5" stroke-linecap="butt" stroke-linejoin="round" points="130.68,332.396 132.649,329.611 134.616,326.825 136.578,324.04 138.533,321.254 140.477,318.469 142.41,315.683 144.328,312.898 146.229,310.112 148.11,307.327 149.97,304.541 151.806,301.756 153.616,298.97 155.396,296.184 157.147,293.399 158.864,290.613 160.546,287.828 162.191,285.042 163.796,282.257 165.361,279.471 166.882,276.686 168.358,273.9 169.787,271.115 171.167,268.329 172.497,265.544 173.775,262.758 174.999,259.972 176.168,257.187 177.28,254.401 178.334,251.616 179.329,248.83 180.263,246.045 181.136,243.259 181.945,240.474 182.691,237.688 183.372,234.903 183.987,232.117 184.536,229.332 185.018,226.546 185.432,223.76 185.778,220.975 186.055,218.189 186.263,215.404 186.402,212.618 186.471,209.833 186.471,207.047 186.402,204.262 186.263,201.476 186.055,198.691 185.778,195.905 185.432,193.12 185.018,190.334 184.536,187.548 183.987,184.763 183.372,181.977 182.691,179.192 181.945,176.406 181.136,173.621 180.263,170.835 179.329,168.05 178.334,165.264 177.28,162.479 176.168,159.693 174.999,156.908 173.775,154.122 172.497,151.336 171.167,148.551 169.787,145.765 168.358,142.98 166.882,140.194 165.361,137.409 163.796,134.623 162.191,131.838 160.546,129.052 158.864,126.267 157.147,123.481 155.396,120.696 153.616,117.91 151.806,115.124 149.97,112.339 148.11,109.553 146.229,106.768 144.328,103.982 142.41,101.197 140.477,98.4113 138.533,95.6257 136.578,92.8402 134.616,90.0547 132.649,87.2691 130.68,84.4836 130.68,84.4836 128.711,87.2691 126.744,90.0547 124.782,92.8402 122.827,95.6257 120.883,98.4113 118.95,101.197 117.032,103.982 115.131,106.768 113.25,109.553 111.39,112.339 109.554,115.124 107.744,117.91 105.963,120.696 104.213,123.481 102.496,126.267 100.814,129.052 99.1693,131.838 97.5637,134.623 95.9994,137.409 94.4782,140.194 93.0022,142.98 91.5732,145.765 90.1928,148.551 88.8629,151.336 87.5851,154.122 86.361,156.908 85.1921,159.693 84.0798,162.479 83.0257,165.264 82.0309,168.05 81.0967,170.835 80.2242,173.621 79.4147,176.406 78.669,179.192 77.9881,181.977 77.3729,184.763 76.824,187.548 76.3423,190.334 75.9283,193.12 75.5825,195.905 75.3053,198.691 75.0971,201.476 74.9582,204.262 74.8887,207.047 74.8887,209.833 74.9582,212.618 75.0971,215.404 75.3053,218.189 75.5825,220.975 75.9283,223.76 76.3423,226.546 76.824,229.332 77.3729,232.117 77.9881,234.903 78.669,237.688 79.4147,240.474 80.2242,243.259 81.0967,246.045 82.0309,248.83 83.0257,251.616 84.0798,254.401 85.1921,257.187 86.361,259.972 87.5851,262.758 88.8629,265.544 90.1928,268.329 91.5732,271.115 93.0022,273.9 94.4782,276.686 95.9994,279.471 97.5637,282.257 99.1693,285.042 100.814,287.828 102.496,290.613 104.213,293.399 105.963,296.184 107.744,298.97 109.554,301.756 111.39,304.541 113.25,307.327 115.131,310.112 117.032,312.898 118.95,315.683 120.883,318.469 122.827,321.254 124.782,324.04 126.744,326.825 128.711,329.611 130.68,332.396"/>
<polyline fill="none" stroke="#0000ff" stroke-width="0.5" stroke-linecap="butt" stroke-linejoin="round" points="130.68,332.396 130.68,332.396"/>
<polyline fill="none" stroke="#0000ff" stroke-width="0.5" stroke-linecap="butt" stroke-linejoin="round" points="158.58,291.078 102.78,291.078"/>
<polyline fill="none" stroke="#0000ff" stroke-width="0.5" stroke-linecap="butt" stroke-linejoin="round" points="179.004,249.759 82.3558,249.759"/>
<polyline fill="none" stroke="#0000ff" stroke-width="0.5" stroke-linecap="butt" stroke-linejoin="round" points="186.48,208.44 74.88,208.44"/>
<polyline fill="none" stroke="#0000ff" stroke-width="0.5" stroke-linecap="butt" stroke-linejoin="round" points="179.004,167.121 82.3558,167.121"/>
<polyline fill="none" stroke="#0000ff" stroke-width="0.5" stroke-linecap="butt" stroke-linejoin="round" points="158.58,125.802 102.78,125.802"/>
<polyline fill="none" stroke="#0000ff" stroke-width="0.5" stroke-linecap="butt" stroke-linejoin="round" points="130.68,84.4836 130.68,84.4836"/>
<polyline fill="none" stroke="#000000" stroke-width="0.5" stroke-linecap="butt" stroke-linejoin="round" points="242.28,332.396 244.249,329.611 246.216,326.825 248.178,324.04 250.133,321.254 252.077,318.469 254.01,315.683 255.928,312.898 257.829,310.112 259.71,307.327 261.57,304.541 263.406,301.756 265.216,298.97 266.997,296.184 268.747,293.399 270.464,290.613 272.146,287.828 273.791,285.042 275.396,282.257 276.961,279.471 278.482,276.686 279.958,273.9 281.387,271.115 282.767,268.329 284.097,265.544 285.375,262.758 286.599,259.972 287.768,257.187 288.88,254.401 289.934,251.616 290.929,248.83 291.863,246.045 292.736,243.259 293.545,240.474 294.291,237.688 294.972,234.903 295.587,232.117 296.136,229.332 296.618,226.546 297.032,223.76 297.378,220.975 297.655,218.189 297.863,215.404 298.002,212.618 298.071,209.833 298.071,207.047 298.002,204.262 297.863,201.476 297.655,198.691 297.378,195.905 297.032,193.12 296.618,190.334 296.136,187.548 295.587,184.763 294.972,181.977 294.291,179.192 293.545,176.406 292.736,173.621 291.863,170.835 290.929,168.05 289.934,165.264 288.88,162.479 287.768,159.693 286.599,156.908 285.375,154.122 284.097,151.336 282.767,148.551 281.387,145.765 279.958,142.98 278.482,140.194 276.961,137.409 275.396,134.623 273.791,131.838 272.146,129.052 270.464,126.267 268.747,123.481 266.997,120.696 265.216,117.91 263.406,115.124 261.57,112.339 259.71,109.553 257.829,106.768 255.928,103.982 254.01,101.197 252.077,98.4113 250.133,95.6257 248.178,92.8402 246.216,90.0547 244.249,87.2691 242.28,84.4836 242.28,84.4836 240.311,87.2691 238.344,90.0547 236.382,92.8402 234.427,95.6257 232.483,98.4113 230.55,101.197 228.632,103.982 226.731,106.768 224.85,109.553 222.99,112.339 221.154,115.124 219.344,117.91 217.563,120.696 215.813,123.481 214.096,126.267 212.414,129.052 210.769,131.838 209.164,134.623 207.599,137.409 206.078,140.194 204.602,142.98 203.173,145.765 201.793,148.551 200.463,151.336 199.185,154.122 197.961,156.908 196.792,159.693 195.68,162.479 194.626,165.264 193.631,168.05 192.697,170.835 191.824,173.621 191.015,176.406 190.269,179.192 189.588,181.977 188.973,184.763 188.424,187.548 187.942,190.334 187.528,193.12 187.182,195.905 186.905,198.691 186.697,201.476 186.558,204.262 186.489,207.047 186.489,209.833 186.558,212.618 186.697,215.404 186.905,218.189 187.182,220.975 187.528,223.76 187.942,226.546 188.424,229.332 188.973,232.117 189.588,234.903 190.269,237.688 191.015,240.474 191.824,243.259 192.697,246.045 193.631,248.83 194.626,251.616 195.68,254.401 196.792,257.187 197.961,259.972 199.185,262.758 200.463,265.544 201.793,268.329 203.173,271.115 204.602,273.9 206.078,276.686 207.599,279.471 209.164,282.257 210.769,285.042 212.414,287.828 214.096,290.613 215.813,293.399 217.563,296.184 219.344,298.97 221.154,301.756 222.99,304.541 224.85,307.327 226.731,310.112 228.632,312.898 230.55,315.683 232.483,318.469 234.427,321.254 236.382,324.04 238.344,326.825 240.311,329.611 242.28,332.396"/>
<polyline fill="none" stroke="#0000ff" stroke-width="0.5" stroke-linecap="butt" stroke-linejoin="round" points="242.28,332.396 242.28,332.396"/>
<polyline fill="none" stroke="#0000ff" stroke-width="0.5" stroke-linecap="butt" stroke-linejoin="round" points="270.18,291.078 214.38,291.078"/>
<polyline fill="none" stroke="#0000ff" stroke-width="0.5" stroke-linecap="butt" stroke-linejoin="round" points="290.604,249.759 193.956,249.759"/>
<polyline fill="none" stroke="#0000ff" stroke-width="0.5" stroke-linecap="butt" stroke-linejoin="round" points="298.08,208.44 186.48,208.44"/>
<polyline fill="none" stroke="#0000ff" stroke-width="0.5" stroke-linecap="butt" stroke-linejoin="round" points="290.604,167.121 193.956,167.121"/>
<polyline fill="none" stroke="#0000ff" stroke-width="0.5" stroke-linecap="butt" stroke-linejoin="round" points="270.18,125.802 214.38,125.802"/>
<polyline fill="none" stroke="#0000ff" stroke-width="0.5" stroke-linecap="butt" stroke-linejoin="round" points="242.28,84.4836 242.28,84.4836"/>
<polyline fill="none" stroke="#000000" stroke-width="0.5" stroke-linecap="butt" stroke-linejoin="round" points="353.88,332.396 355.849,329.611 357.816,326.825 359.778,324.04 361.733,321.254 363.677,318.469 365.61,315.683 367.528,312.898 369.429,310.112 371.31,307.327 373.17,304.541 375.006,301.756 376.816,298.97 378.596,296.184 380.347,293.399 382.064,290.613 383.746,287.828 385.391,285.042 386.996,282.257 388.561,279.471 390.082,276.686 391.558,273.9 392.987,271.115 394.367,268.329 395.697,265.544 396.975,262.758 398.199,259.972 399.368,257.187 400.48,254.401 401.534,251.616 402.529,248.83 403.463,246.045 404.336,243.259 405.145,240.474 405.891,237.688 406.572,234.903 407.187,232.117 407.736,229.332 408.218,226.546 408.632,223.76 408.978,220.975 409.255,218.189 409.463,215.404 409.602,212.618 409.671,209.833 409.671,207.047 409.602,204.262 409.463,201.476 409.255,198.691 408.978,195.905 408.632,193.12 408.218,190.334 407.736,187.548 407.187,184.763 406.572,181.977 405.891,179.192 405.145,176.406 404.336,173.621 403.463,170.835 402.529,168.05 401.534,165.264 400.48,162.479 399.368,159.693 398.199,156.908 396.975,154.122 395.697,151.336 394.367,148.551 392.987,145.765 391.558,142.98 390.082,140.194 388.561,137.409 386.996,134.623 385.391,131.838 383.746,129.052 382.064,126.267 380.347,123.481 378.596,120.696 376.816,117.91 375.006,115.124 373.17,112.339 371.31,109.553 369.429,106.768 367.528,103.982 365.61,101.197 363.677,98.4113 361.733,95.6257 359.778,92.8402 357.816,90.0547 355.849,87.2691 353.88,84.4836 353.88,84.4836 351.911,87.2691 349.944,90.0547 347.982,92.8402 346.027,95.6257 344.083,98.4113 342.15,101.197 340.232,103.982 338.331,106.768 336.45,109.553 334.59,112.339 332.754,115.124 330.944,117.91 329.164,120.696 327.413,123.481 325.696,126.267 324.014,129.052 322.369,131.838 320.764,134.623 319.199,137.409 317.678,140.194 316.202,142.98 314.773,145.765 313.393,148.551 312.063,151.336 310.785,154.122 309.561,156.908 308.392,159.693 307.28,162.479 306.226,165.264 305.231,168.05 304.297,170.835 303.424,173.621 302.615,176.406 301.869,179.192 301.188,181.977 300.573,184.763 300.024,187.548 299.542,190.334 299.128,193.12 298.782,195.905 298.505,198.691 298.297,201.476 298.158,204.262 298.089,207.047 298.089,209.833 298.158,212.618 298.297,215.404 298.505,218.189 298.782,220.975 299.128,223.76 299.542,226.546 300.024,229.332 300.573,232.117 301.188,234.903 301.869,237.688 302.615,240.474 303.424,243.259 304.297,246.045 305.231,248.83 306.226,251.616 307.28,254.401 308.392,257.187 309.561,259.972 310.785,262.758 312.063,265.544 313.393,268.329 314.773,271.115 316.202,273.9 317.678,276.686 319.199,279.471 320.764,282.257 322.369,285.042 324.014,287.828 325.696,290.613 327.413,293.399 329.164,296.184 330.944,298.97 332.754,301.756 334.59,304.541 336.45,307.327 338.331,310.112 340.232,312.898 342.15,315.683 344.083,318.469 346.027,321.254 347.982,324.04 349.944,326.825 351.911,329.611 353.88,332.396"/>
<polyline fill="none" stroke="#0000ff" stroke-width="0.5" stroke-linecap="butt" stroke-linejoin="round" points="353.88,332.396 353.88,332.396"/>
<polyline fill="none" stroke="#0000ff" stroke-width="0.5" stroke-linecap="butt" stroke-linejoin="round" points="381.78,291.078 325.98,291.078"/>
<polyline fill="none" stroke="#0000ff" stroke-width="0.5" stroke-linecap="butt" stroke-linejoin="round" points="402.204,249.759 305.556,249.759"/>
<polyline fill="none" stroke="#0000ff" stroke-width="0.5" stroke-linecap="butt" stroke-linejoin="round" points="409.68,208.44 298.08,208.44"/>
<polyline fill="none" stroke="#0000ff" stroke-width="0.5" stroke-linecap="butt" stroke-linejoin="round" points="402.204,167.121 305.556,167.121"/>
<polyline fill="none" stroke="#0000ff" stroke-width="0.5" stroke-linecap="butt" stroke-linejoin="round" points="381.78,125.802 325.98,125.802"/>
<polyline fill="none" stroke="#0000ff" stroke-width="0.5" stroke-linecap="butt" stroke-linejoin="round" points="353.88,84.4836 353.88,84.4836"/>
<polyline fill="none" stroke="#000000" stroke-width="0.5" stroke-linecap="butt" stroke-linejoin="round" points="465.48,332.396 467.449,329.611 469.416,326.825 471.378,324.04 473.333,321.254 475.277,318.469 477.21,315.683 479.128,312.898 481.029,310.112 482.91,307.327 484.77,304.541 486.606,301.756 488.416,298.97 490.196,296.184 491.947,293.399 493.664,290.613 495.346,287.828 496.991,285.042 498.596,282.257 500.161,279.471 501.682,276.686 503.158,273.9 504.587,271.115 505.967,268.329 507.297,265.544 508.575,262.758 509.799,259.972 510.968,257.187 512.08,254.401 513.134,251.616 514.129,248.83 515.063,246.045 515.936,243.259 516.745,240.474 517.491,237.688 518.172,234.903 518.787,232.117 519.336,229.332 519.818,226.546 520.232,223.76 520.578,220.975 520.855,218.189 521.063,215.404 521.202,212.618 521.271,209.833 521.271,207.047 521.202,204.262 521.063,201.476 520.855,198.691 520.578,195.905 520.232,193.12 519.818,190.334 519.336,187.548 518.787,184.763 518.172,181.977 517.491,179.192 516.745,176.406 515.936,173.621 515.063,170.835 514.129,168.05 513.134,165.264 512.08,162.479 510.968,159.693 509.799,156.908 508.575,154.122 507.297,151.336 505.967,148.551 504.587,145.765 503.158,142.98 501.682,140.194 500.161,137.409 498.596,134.623 496.991,131.838 495.346,129.052 493.664,126.267 491.947,123.481 490.196,120.696 488.416,117.91 486.606,115.124 484.77,112.339 482.91,109.553 481.029,106.768 479.128,103.982 477.21,101.197 475.277,98.4113 473.333,95.6257 471.378,92.8402 469.416,90.0547 467.449,87.2691 465.48,84.4836 465.48,84.4836 463.511,87.2691 461.544,90.0547 459.582,92.8402 457.627,95.6257 455.683,98.4113 453.75,101.197 451.832,103.982 449.931,106.768 448.05,109.553 446.19,112.339 444.354,115.124 442.544,117.91 440.763,120.696 439.013,123.481 437.296,126.267 435.614,129.052 433.969,131.838 432.364,134.623 430.799,137.409 429.278,140.194 427.802,142.98 426.373,145.765 424.993,148.551 423.663,151.336 422.385,154.122 421.161,156.908 419.992,159.693 418.88,162.479 417.826,165.264 416.831,168.05 415.897,170.835 415.024,173.621 414.215,176.406 413.469,179.192 412.788,181.977 412.173,184.763 411.624,187.548 411.142,190.334 410.728,193.12 410.382,195.905 410.105,198.691 409.897,201.476 409.758,204.262 409.689,207.047 409.689,209.833 409.758,212.618 409.897,215.404 410.105,218.189 410.382,220.975 410.728,223.76 411.142,226.546 411.624,229.332 412.173,232.117 412.788,234.903 413.469,237.688 414.215,240.474 415.024,243.259 415.897,246.045 416.831,248.83 417.826,251.616 418.88,254.401 419.992,257.187 421.161,259.972 422.385,262.758 423.663,265.544 424.993,268.329 426.373,271.115 427.802,273.9 429.278,276.686 430.799,279.471 432.364,282.257 433.969,285.042 435.614,287.828 437.296,290.613 439.013,293.399 440.763,296.184 442.544,298.97 444.354,301.756 446.19,304.541 448.05,307.327 449.931,310.112 451.832,312.898 453.75,315.683 455.683,318.469 457.627,321.254 459.582,324.04 461.544,326.825 463.511,329.611 465.48,332.396"/>
<polyline fill="none" stroke="#0000ff" stroke-width="0.5" stroke-linecap="butt" stroke-linejoin="round" points="465.48,332.396 465.48,332.396"/>
<polyline fill="none" stroke="#0000ff" stroke-width="0.5" stroke-linecap="butt" stroke-linejoin="round" points="493.38,291.078 437.58,291.078"/>
<polyline fill="none" stroke="#0000ff" stroke-width="0.5" stroke-linecap="butt" stroke-linejoin="round" points="513.804,249.759 417.156,249.759"/>
<polyline fill="none" stroke="#0000ff" stroke-width="0.5" stroke-linecap="butt" stroke-linejoin="round" points="521.28,208.44 409.68,208.44"/>
<polyline fill="none" stroke="#0000ff" stroke-width="0.5" stroke-linecap="butt" stroke-linejoin="round" points="513.804,167.121 417.156,167.121"/>
<polyline fill="none" stroke="#0000ff" stroke-width="0.5" stroke-linecap="butt" stroke-linejoin="round" points="493.38,125.802 437.58,125.802"/>
<polyline fill="none" stroke="#0000ff" stroke-width="0.5" stroke-linecap="butt" stroke-linejoin="round" points="465.48,84.4836 465.48,84.4836"/>
<polyline fill="none" stroke="#0000ff" stroke-width="0.5" stroke-linecap="butt" stroke-linejoin="round" points="74.88,332.396 521.28,332.396"/>
<polyline fill="none" stroke="#0000ff" stroke-width="0.5" stroke-linecap="butt" stroke-linejoin="round" points="74.88,291.078 521.28,291.078"/>
<polyline fill="none" stroke="#0000ff" stroke-width="0.5" stroke-linecap="butt" stroke-linejoin="round" points="74.88,249.759 521.28,249.759"/>
<polyline fill="none" stroke="#0000ff" stroke-width="0.5" stroke-linecap="butt" stroke-linejoin="round" points="74.88,208.44 521.28,208.44"/>
<polyline fill="none" stroke="#0000ff" stroke-width="0.5" stroke-linecap="butt" stroke-linejoin="round" points="74.88,167.121 521.28,167.121"/>
<polyline fill="none" stroke="#0000ff" stroke-width="0.5" stroke-linecap="butt" stroke-linejoin="round" points="74.88,125.802 521.28,125.802"/>
<polyline fill="none" stroke="#0000ff" stroke-width="0.5" stroke-linecap="butt" stroke-linejoin="round" points="74.88,84.4836 521.28,84.4836"/>
<polyline fill="none" stroke="#0000ff" stroke-width="0.5" stroke-linecap="butt" stroke-linejoin="round" points="74.88,332.396 521.28,332.396"/>
<polyline fill="none" stroke="#0000ff" stroke-width="0.5" stroke-linecap="butt" stroke-linejoin="round" points="74.88,291.078 521.28,291.078"/>
<polyline fill="none" stroke="#0000ff" stroke-width="0.5" stroke-linecap="butt" stroke-linejoin="round" points="74.88,249.759 521.28,249.759"/>
<polyline fill="none" stroke="#0000ff" stroke-width="0.5" stroke-linecap="butt" stroke-linejoin="round" points="74.88,208.44 521.28,208.44"/>
<polyline fill="none" stroke="#0000ff" stroke-width="0.5" stroke-linecap="butt" stroke-linejoin="round" points="74.88,167.121 521.28,167.121"/>
<polyline fill="none" stroke="#0000ff" stroke-width="0.5" stroke-linecap="butt" stroke-linejoin="round" points="74.88,125.802 521.28,125.802"/>
<polyline fill="none" stroke="#0000ff" stroke-width="0.5" stroke-linecap="butt" stroke-linejoin="round" points="74.88,84.4836 521.28,84.4836"/>
<polyline fill="none" stroke="#0000ff" stroke-width="0.5" stroke-linecap="butt" stroke-linejoin="round" points="74.88,332.396 521.28,332.396"/>
<polyline fill="none" stroke="#0000ff" stroke-width="0.5" stroke-linecap="butt" stroke-linejoin="round" points="74.88,291.078 521.28,291.078"/>
<polyline fill="none" stroke="#0000ff" stroke-width="0.5" stroke-linecap="butt" stroke-linejoin="round" points="74.88,249.759 521.28,249.759"/>
<polyline fill="none" stroke="#0000ff" stroke-width="0.5" stroke-linecap="butt" stroke-linejoin="round" points="74.88,208.44 521.28,208.44"/>
<polyline fill="none" stroke="#0000ff" stroke-width="0.5" stroke-linecap="butt" stroke-linejoin="round" points="74.88,167.121 521.28,167.121"/>
<polyline fill="none" stroke="#0000ff" stroke-width="0.5" stroke-linecap="butt" stroke-linejoin="round" points="74.88,125.802 521.28,125.802"/>
<polyline fill="none" stroke="#0000ff" stroke-width="0.5" stroke-linecap="butt" stroke-linejoin="round" points="74.88,84.4836 521.28,84.4836"/>
<polyline fill="none" stroke="#0000ff" stroke-width="0.5" stroke-linecap="butt" stroke-linejoin="round" points="74.88,332.396 521.28,332.396"/>
<polyline fill="none" stroke="#0000ff" stroke-width="0.5" stroke-linecap="butt" stroke-linejoin="round" points="74.88,291.078 521.28,291.078"/>
<polyline fill="none" stroke="#0000ff" stroke-width="0.5" stroke-linecap="butt" stroke-linejoin="round" points="74.88,249.759 521.28,249.759"/>
<polyline fill="none" stroke="#0000ff" stroke-width="0.5" stroke-linecap="butt" stroke-linejoin="round" points="74.88,208.44 521.28,208.44"/>
<polyline fill="none" stroke="#0000ff" stroke-width="0.5" stroke-linecap="butt" stroke-linejoin="round" points="74.88,167.121 521.28,167.121"/>
<polyline fill="none" stroke="#0000ff" stroke-width="0.5" stroke-linecap="butt" stroke-linejoin="round" points="74.88,125.802 521.28,125.802"/>
<polyline fill="none" stroke="#0000ff" stroke-width="0.5" stroke-linecap="butt" stroke-linejoin="round" points="74.88,84.4836 521.28,84.4836"/>
<polyline fill="none" stroke="#0000ff" stroke-width="0.5" stroke-linecap="butt" stroke-linejoin="round" points="74.88,332.396 521.28,332.396"/>
<polyline fill="none" stroke="#0000ff" stroke-width="0.5" stroke-linecap="butt" stroke-linejoin="round" points="74.88,291.078 521.28,291.078"/>
<polyline fill="none" stroke="#0000ff" stroke-width="0.5" stroke-linecap="butt" stroke-linejoin="round" points="74.88,249.759 521.28,249.759"/>
<polyline fill="none" stroke="#0000ff" stroke-width="0.5" stroke-linecap="butt" stroke-linejoin="round" points="74.88,208.44 521.28,208.44"/>
<polyline fill="none" stroke="#0000ff" stroke-width="0.5" stroke-linecap="butt" stroke-linejoin="round" points="74.88,167.121 521.28,167.121"/>
<polyline fill="none" stroke="#0000ff" stroke-width="0.5" stroke-linecap="butt" stroke-linejoin="round" points="74.88,125.802 521.28,125.802"/>
<polyline fill="none" stroke="#0000ff" stroke-width="0.5" stroke-linecap="butt" stroke-linejoin="round" points="74.88,84.4836 521.28,84.4836"/>
<polyline fill="none" stroke="#0000ff" stroke-width="0.5" stroke-linecap="butt" stroke-linejoin="round" points="74.88,332.396 521.28,332.396"/>
<polyline fill="none" stroke="#0000ff" stroke-width="0.5" stroke-linecap="butt" stroke-linejoin="round" points="74.88,291.078 521.28,291.078"/>
<polyline fill="none" stroke="#0000ff" stroke-width="0.5" stroke-linecap="butt" stroke-linejoin="round" points="74.88,249.759 521.28,249.759"/>
<polyline fill="none" stroke="#0000ff" stroke-width="0.5" stroke-linecap="butt" stroke-linejoin="round" points="74.88,208.44 521.28,208.44"/>
<polyline fill="none" stroke="#0000ff" stroke-width="0.5" stroke-linecap="butt" stroke-linejoin="round" points="74.88,167.121 521.28,167.121"/>
<polyline fill="none" stroke="#0000ff" stroke-width="0.5" stroke-linecap="butt" stroke-linejoin="round" points="74.88,125.802 521.28,125.802"/>
<polyline fill="none" stroke="#0000ff" stroke-width="0.5" stroke-linecap="butt" stroke-linejoin="round" points="74.88,84.4836 521.28,84.4836"/>
<polyline fill="none" stroke="#0000ff" stroke-width="0.5" stroke-linecap="butt" stroke-linejoin="round" points="74.88,332.396 521.28,332.396"/>
<polyline fill="none" stroke="#0000ff" stroke-width="0.5" stroke-linecap="butt" stroke-linejoin="round" points="74.88,291.078 521.28,291.078"/>
<polyline fill="none" stroke="#0000ff" stroke-width="0.5" stroke-linecap="butt" stroke-linejoin="round" points="74.88,249.759 521.28,249.759"/>
<polyline fill="none" stroke="#0000ff" stroke-width="0.5" stroke-linecap="butt" stroke-linejoin="round" points="74.88,208.44 521.28,208.44"/>
<polyline fill="none" stroke="#0000ff" stroke-width="0.5" stroke-linecap="butt" stroke-linejoin="round" points="74.88,167.121 521.28,167.121"/>
<polyline fill="none" stroke="#0000ff" stroke-width="0.5" stroke-linecap="butt" stroke-linejoin="round" points="74.88,125.802 521.28,125.802"/>
<polyline fill="none" stroke="#0000ff" stroke-width="0.5" stroke-linecap="butt" stroke-linejoin="round" points="74.88,84.4836 521.28,84.4836"/>
<polyline fill="none" stroke="#000000" stroke-width="0.5" stroke-linecap="butt" stroke-linejoin="round" points="74.88,332.396 74.88,84.4836 521.28,84.4836 521.28,332.396 74.88,332.396"/>
<polyline fill="none" stroke="#ff0000" stroke-width="0.5" stroke-linecap="butt" stroke-linejoin="round" points="74.88,116.049 521.28,116.049"/>
</g>
</g>
</svg>
