<?xml version='1.0' encoding='UTF-8' standalone='no'?>
<svg viewBox="0 0 576 432" xmlns="http://www.w3.org/2000/svg" height="432pt" xmlns:xlink="http://www.w3.org/1999/xlink" width="576pt">
 <title>gl2ps_renderer figure</title>
 <desc>
Creator: GL2PS 1.4.0, (C) 1999-2017 C. Geuzaine
For: Octave
CreationDate: Fri Aug 02 00:07:20 2019
</desc>
 <defs/>
 <polygon fill="#ffffff" points="0,0 576,0 576,432 0,432"/>
 <g>
  <polygon fill="#ffffff" shape-rendering="crispEdges" points="0,432 576,432 576,0 0,0"/>
  <clipPath id="cp00576432">
   <polygon points="0,432 576,432 576,0 0,0"/>
  </clipPath>
  <g clip-path="url(#cp00576432)">
   <polyline stroke-linejoin="round" fill="none" stroke="#000000" stroke-linecap="butt" stroke-width="0.5" points="119.52,327.736 121.095,325.055 122.669,322.374 124.238,319.693 125.802,317.013 127.358,314.332 128.904,311.651 130.438,308.97 131.959,306.289 133.464,303.609 134.952,300.928 136.421,298.247 137.868,295.566 139.293,292.885 140.693,290.205 142.067,287.524 143.413,284.843 144.729,282.162 146.013,279.481 147.264,276.801 148.481,274.12 149.662,271.439 150.805,268.758 151.91,266.077 152.974,263.397 153.996,260.716 154.975,258.035 155.91,255.354 156.8,252.673 157.643,249.992 158.439,247.312 159.187,244.631 159.885,241.95 160.532,239.269 161.129,236.588 161.673,233.908 162.166,231.227 162.605,228.546 162.99,225.865 163.321,223.184 163.598,220.504 163.82,217.823 163.986,215.142 164.097,212.461 164.153,209.78 164.153,207.1 164.097,204.419 163.986,201.738 163.82,199.057 163.598,196.376 163.321,193.696 162.99,191.015 162.605,188.334 162.166,185.653 161.673,182.972 161.129,180.292 160.532,177.611 159.885,174.93 159.187,172.249 158.439,169.568 157.643,166.888 156.8,164.207 155.91,161.526 154.975,158.845 153.996,156.164 152.974,153.483 151.91,150.803 150.805,148.122 149.662,145.441 148.481,142.76 147.264,140.079 146.013,137.399 144.729,134.718 143.413,132.037 142.067,129.356 140.693,126.675 139.293,123.995 137.868,121.314 136.421,118.633 134.952,115.952 133.464,113.271 131.959,110.591 130.438,107.91 128.904,105.229 127.358,102.548 125.802,99.8674 124.238,97.1866 122.669,94.5057 121.095,91.825 119.52,89.1442 119.52,89.1442 117.945,91.825 116.371,94.5057 114.802,97.1866 113.238,99.8674 111.682,102.548 110.136,105.229 108.602,107.91 107.081,110.591 105.576,113.271 104.088,115.952 102.619,118.633 101.172,121.314 99.7468,123.995 98.3466,126.675 96.9729,129.356 95.6273,132.037 94.3114,134.718 93.0269,137.399 91.7755,140.079 90.5586,142.76 89.3778,145.441 88.2345,148.122 87.1302,150.803 86.0663,153.483 85.0441,156.164 84.0648,158.845 83.1296,161.526 82.2398,164.207 81.3965,166.888 80.6007,169.568 79.8533,172.249 79.1554,174.93 78.5077,177.611 77.9112,180.292 77.3665,182.972 76.8743,185.653 76.4352,188.334 76.0498,191.015 75.7186,193.696 75.442,196.376 75.2202,199.057 75.0537,201.738 74.9425,204.419 74.8869,207.1 74.8869,209.78 74.9425,212.461 75.0537,215.142 75.2202,217.823 75.442,220.504 75.7186,223.184 76.0498,225.865 76.4352,228.546 76.8743,231.227 77.3665,233.908 77.9112,236.588 78.5077,239.269 79.1554,241.95 79.8533,244.631 80.6007,247.312 81.3965,249.992 82.2398,252.673 83.1296,255.354 84.0648,258.035 85.0441,260.716 86.0663,263.397 87.1302,266.077 88.2345,268.758 89.3778,271.439 90.5586,274.12 91.7755,276.801 93.0269,279.481 94.3114,282.162 95.6273,284.843 96.9729,287.524 98.3466,290.205 99.7468,292.885 101.172,295.566 102.619,298.247 104.088,300.928 105.576,303.609 107.081,306.289 108.602,308.97 110.136,311.651 111.682,314.332 113.238,317.013 114.802,319.693 116.371,322.374 117.945,325.055 119.52,327.736"/>
   <polyline stroke-linejoin="round" fill="none" stroke="#0000ff" stroke-linecap="butt" stroke-width="0.5" points="119.52,327.736 119.52,327.736"/>
   <polyline stroke-linejoin="round" fill="none" stroke="#0000ff" stroke-linecap="butt" stroke-width="0.5" points="141.84,287.971 97.2,287.971"/>
   <polyline stroke-linejoin="round" fill="none" stroke="#0000ff" stroke-linecap="butt" stroke-width="0.5" points="158.179,248.205 80.8606,248.205"/>
   <polyline stroke-linejoin="round" fill="none" stroke="#0000ff" stroke-linecap="butt" stroke-width="0.5" points="164.16,208.44 74.88,208.44"/>
   <polyline stroke-linejoin="round" fill="none" stroke="#0000ff" stroke-linecap="butt" stroke-width="0.5" points="158.179,168.675 80.8606,168.675"/>
   <polyline stroke-linejoin="round" fill="none" stroke="#0000ff" stroke-linecap="butt" stroke-width="0.5" points="141.84,128.909 97.2,128.909"/>
   <polyline stroke-linejoin="round" fill="none" stroke="#0000ff" stroke-linecap="butt" stroke-width="0.5" points="119.52,89.1442 119.52,89.1442"/>
   <polyline stroke-linejoin="round" fill="none" stroke="#000000" stroke-linecap="butt" stroke-width="0.5" points="208.8,327.736 210.375,325.055 211.949,322.374 213.518,319.693 215.082,317.013 216.638,314.332 218.184,311.651 219.718,308.97 221.239,306.289 222.744,303.609 224.232,300.928 225.701,298.247 227.148,295.566 228.573,292.885 229.973,290.205 231.347,287.524 232.693,284.843 234.009,282.162 235.293,279.481 236.544,276.801 237.761,274.12 238.942,271.439 240.085,268.758 241.19,266.077 242.254,263.397 243.276,260.716 244.255,258.035 245.19,255.354 246.08,252.673 246.923,249.992 247.719,247.312 248.467,244.631 249.165,241.95 249.812,239.269 250.409,236.588 250.953,233.908 251.446,231.227 251.885,228.546 252.27,225.865 252.601,223.184 252.878,220.504 253.1,217.823 253.266,215.142 253.377,212.461 253.433,209.78 253.433,207.1 253.377,204.419 253.266,201.738 253.1,199.057 252.878,196.376 252.601,193.696 252.27,191.015 251.885,188.334 251.446,185.653 250.953,182.972 250.409,180.292 249.812,177.611 249.165,174.93 248.467,172.249 247.719,169.568 246.923,166.888 246.08,164.207 245.19,161.526 244.255,158.845 243.276,156.164 242.254,153.483 241.19,150.803 240.085,148.122 238.942,145.441 237.761,142.76 236.544,140.079 235.293,137.399 234.009,134.718 232.693,132.037 231.347,129.356 229.973,126.675 228.573,123.995 227.148,121.314 225.701,118.633 224.232,115.952 222.744,113.271 221.239,110.591 219.718,107.91 218.184,105.229 216.638,102.548 215.082,99.8674 213.518,97.1866 211.949,94.5057 210.375,91.825 208.8,89.1442 208.8,89.1442 207.225,91.825 205.651,94.5057 204.082,97.1866 202.518,99.8674 200.962,102.548 199.416,105.229 197.882,107.91 196.361,110.591 194.856,113.271 193.368,115.952 191.899,118.633 190.452,121.314 189.027,123.995 187.627,126.675 186.253,129.356 184.907,132.037 183.591,134.718 182.307,137.399 181.055,140.079 179.839,142.76 178.658,145.441 177.515,148.122 176.41,150.803 175.346,153.483 174.324,156.164 173.345,158.845 172.41,161.526 171.52,164.207 170.677,166.888 169.881,169.568 169.133,172.249 168.435,174.93 167.788,177.611 167.191,180.292 166.646,182.972 166.154,185.653 165.715,188.334 165.33,191.015 164.999,193.696 164.722,196.376 164.5,199.057 164.334,201.738 164.223,204.419 164.167,207.1 164.167,209.78 164.223,212.461 164.334,215.142 164.5,217.823 164.722,220.504 164.999,223.184 165.33,225.865 165.715,228.546 166.154,231.227 166.646,233.908 167.191,236.588 167.788,239.269 168.435,241.95 169.133,244.631 169.881,247.312 170.677,249.992 171.52,252.673 172.41,255.354 173.345,258.035 174.324,260.716 175.346,263.397 176.41,266.077 177.515,268.758 178.658,271.439 179.839,274.12 181.055,276.801 182.307,279.481 183.591,282.162 184.907,284.843 186.253,287.524 187.627,290.205 189.027,292.885 190.452,295.566 191.899,298.247 193.368,300.928 194.856,303.609 196.361,306.289 197.882,308.97 199.416,311.651 200.962,314.332 202.518,317.013 204.082,319.693 205.651,322.374 207.225,325.055 208.8,327.736"/>
   <polyline stroke-linejoin="round" fill="none" stroke="#0000ff" stroke-linecap="butt" stroke-width="0.5" points="208.8,327.736 208.8,327.736"/>
   <polyline stroke-linejoin="round" fill="none" stroke="#0000ff" stroke-linecap="butt" stroke-width="0.5" points="231.12,287.971 186.48,287.971"/>
   <polyline stroke-linejoin="round" fill="none" stroke="#0000ff" stroke-linecap="butt" stroke-width="0.5" points="247.459,248.205 170.141,248.205"/>
   <polyline stroke-linejoin="round" fill="none" stroke="#0000ff" stroke-linecap="butt" stroke-width="0.5" points="253.44,208.44 164.16,208.44"/>
   <polyline stroke-linejoin="round" fill="none" stroke="#0000ff" stroke-linecap="butt" stroke-width="0.5" points="247.459,168.675 170.141,168.675"/>
   <polyline stroke-linejoin="round" fill="none" stroke="#0000ff" stroke-linecap="butt" stroke-width="0.5" points="231.12,128.909 186.48,128.909"/>
   <polyline stroke-linejoin="round" fill="none" stroke="#0000ff" stroke-linecap="butt" stroke-width="0.5" points="208.8,89.1442 208.8,89.1442"/>
   <polyline stroke-linejoin="round" fill="none" stroke="#000000" stroke-linecap="butt" stroke-width="0.5" points="298.08,327.736 299.655,325.055 301.229,322.374 302.798,319.693 304.362,317.013 305.918,314.332 307.464,311.651 308.998,308.97 310.519,306.289 312.024,303.609 313.512,300.928 314.981,298.247 316.428,295.566 317.853,292.885 319.253,290.205 320.627,287.524 321.973,284.843 323.289,282.162 324.573,279.481 325.824,276.801 327.041,274.12 328.222,271.439 329.365,268.758 330.47,266.077 331.534,263.397 332.556,260.716 333.535,258.035 334.47,255.354 335.36,252.673 336.203,249.992 336.999,247.312 337.747,244.631 338.445,241.95 339.092,239.269 339.689,236.588 340.233,233.908 340.726,231.227 341.165,228.546 341.55,225.865 341.881,223.184 342.158,220.504 342.38,217.823 342.546,215.142 342.657,212.461 342.713,209.78 342.713,207.1 342.657,204.419 342.546,201.738 342.38,199.057 342.158,196.376 341.881,193.696 341.55,191.015 341.165,188.334 340.726,185.653 340.233,182.972 339.689,180.292 339.092,177.611 338.445,174.93 337.747,172.249 336.999,169.568 336.203,166.888 335.36,164.207 334.47,161.526 333.535,158.845 332.556,156.164 331.534,153.483 330.47,150.803 329.365,148.122 328.222,145.441 327.041,142.76 325.824,140.079 324.573,137.399 323.289,134.718 321.973,132.037 320.627,129.356 319.253,126.675 317.853,123.995 316.428,121.314 314.981,118.633 313.512,115.952 312.024,113.271 310.519,110.591 308.998,107.91 307.464,105.229 305.918,102.548 304.362,99.8674 302.798,97.1866 301.229,94.5057 299.655,91.825 298.08,89.1442 298.08,89.1442 296.505,91.825 294.931,94.5057 293.362,97.1866 291.798,99.8674 290.242,102.548 288.696,105.229 287.162,107.91 285.641,110.591 284.136,113.271 282.648,115.952 281.179,118.633 279.732,121.314 278.307,123.995 276.907,126.675 275.533,129.356 274.187,132.037 272.871,134.718 271.587,137.399 270.335,140.079 269.119,142.76 267.938,145.441 266.795,148.122 265.69,150.803 264.626,153.483 263.604,156.164 262.625,158.845 261.69,161.526 260.8,164.207 259.957,166.888 259.161,169.568 258.413,172.249 257.715,174.93 257.068,177.611 256.471,180.292 255.926,182.972 255.434,185.653 254.995,188.334 254.61,191.015 254.279,193.696 254.002,196.376 253.78,199.057 253.614,201.738 253.503,204.419 253.447,207.1 253.447,209.78 253.503,212.461 253.614,215.142 253.78,217.823 254.002,220.504 254.279,223.184 254.61,225.865 254.995,228.546 255.434,231.227 255.926,233.908 256.471,236.588 257.068,239.269 257.715,241.95 258.413,244.631 259.161,247.312 259.957,249.992 260.8,252.673 261.69,255.354 262.625,258.035 263.604,260.716 264.626,263.397 265.69,266.077 266.795,268.758 267.938,271.439 269.119,274.12 270.335,276.801 271.587,279.481 272.871,282.162 274.187,284.843 275.533,287.524 276.907,290.205 278.307,292.885 279.732,295.566 281.179,298.247 282.648,300.928 284.136,303.609 285.641,306.289 287.162,308.97 288.696,311.651 290.242,314.332 291.798,317.013 293.362,319.693 294.931,322.374 296.505,325.055 298.08,327.736"/>
   <polyline stroke-linejoin="round" fill="none" stroke="#0000ff" stroke-linecap="butt" stroke-width="0.5" points="298.08,327.736 298.08,327.736"/>
   <polyline stroke-linejoin="round" fill="none" stroke="#0000ff" stroke-linecap="butt" stroke-width="0.5" points="320.4,287.971 275.76,287.971"/>
   <polyline stroke-linejoin="round" fill="none" stroke="#0000ff" stroke-linecap="butt" stroke-width="0.5" points="336.739,248.205 259.421,248.205"/>
   <polyline stroke-linejoin="round" fill="none" stroke="#0000ff" stroke-linecap="butt" stroke-width="0.5" points="342.72,208.44 253.44,208.44"/>
   <polyline stroke-linejoin="round" fill="none" stroke="#0000ff" stroke-linecap="butt" stroke-width="0.5" points="336.739,168.675 259.421,168.675"/>
   <polyline stroke-linejoin="round" fill="none" stroke="#0000ff" stroke-linecap="butt" stroke-width="0.5" points="320.4,128.909 275.76,128.909"/>
   <polyline stroke-linejoin="round" fill="none" stroke="#0000ff" stroke-linecap="butt" stroke-width="0.5" points="298.08,89.1442 298.08,89.1442"/>
   <polyline stroke-linejoin="round" fill="none" stroke="#000000" stroke-linecap="butt" stroke-width="0.5" points="387.36,327.736 388.935,325.055 390.509,322.374 392.078,319.693 393.642,317.013 395.198,314.332 396.744,311.651 398.278,308.97 399.799,306.289 401.304,303.609 402.792,300.928 404.261,298.247 405.708,295.566 407.133,292.885 408.533,290.205 409.907,287.524 411.253,284.843 412.569,282.162 413.853,279.481 415.104,276.801 416.321,274.12 417.502,271.439 418.645,268.758 419.75,266.077 420.814,263.397 421.836,260.716 422.815,258.035 423.75,255.354 424.64,252.673 425.483,249.992 426.279,247.312 427.027,244.631 427.725,241.95 428.372,239.269 428.969,236.588 429.513,233.908 430.006,231.227 430.445,228.546 430.83,225.865 431.161,223.184 431.438,220.504 431.66,217.823 431.826,215.142 431.937,212.461 431.993,209.78 431.993,207.1 431.937,204.419 431.826,201.738 431.66,199.057 431.438,196.376 431.161,193.696 430.83,191.015 430.445,188.334 430.006,185.653 429.513,182.972 428.969,180.292 428.372,177.611 427.725,174.93 427.027,172.249 426.279,169.568 425.483,166.888 424.64,164.207 423.75,161.526 422.815,158.845 421.836,156.164 420.814,153.483 419.75,150.803 418.645,148.122 417.502,145.441 416.321,142.76 415.104,140.079 413.853,137.399 412.569,134.718 411.253,132.037 409.907,129.356 408.533,126.675 407.133,123.995 405.708,121.314 404.261,118.633 402.792,115.952 401.304,113.271 399.799,110.591 398.278,107.91 396.744,105.229 395.198,102.548 393.642,99.8674 392.078,97.1866 390.509,94.5057 388.935,91.825 387.36,89.1442 387.36,89.1442 385.785,91.825 384.211,94.5057 382.642,97.1866 381.078,99.8674 379.522,102.548 377.976,105.229 376.442,107.91 374.921,110.591 373.416,113.271 371.928,115.952 370.459,118.633 369.012,121.314 367.587,123.995 366.187,126.675 364.813,129.356 363.467,132.037 362.151,134.718 360.867,137.399 359.615,140.079 358.399,142.76 357.218,145.441 356.074,148.122 354.97,150.803 353.906,153.483 352.884,156.164 351.905,158.845 350.97,161.526 350.08,164.207 349.237,166.888 348.441,169.568 347.693,172.249 346.995,174.93 346.348,177.611 345.751,180.292 345.206,182.972 344.714,185.653 344.275,188.334 343.89,191.015 343.559,193.696 343.282,196.376 343.06,199.057 342.894,201.738 342.783,204.419 342.727,207.1 342.727,209.78 342.783,212.461 342.894,215.142 343.06,217.823 343.282,220.504 343.559,223.184 343.89,225.865 344.275,228.546 344.714,231.227 345.206,233.908 345.751,236.588 346.348,239.269 346.995,241.95 347.693,244.631 348.441,247.312 349.237,249.992 350.08,252.673 350.97,255.354 351.905,258.035 352.884,260.716 353.906,263.397 354.97,266.077 356.074,268.758 357.218,271.439 358.399,274.12 359.615,276.801 360.867,279.481 362.151,282.162 363.467,284.843 364.813,287.524 366.187,290.205 367.587,292.885 369.012,295.566 370.459,298.247 371.928,300.928 373.416,303.609 374.921,306.289 376.442,308.97 377.976,311.651 379.522,314.332 381.078,317.013 382.642,319.693 384.211,322.374 385.785,325.055 387.36,327.736"/>
   <polyline stroke-linejoin="round" fill="none" stroke="#0000ff" stroke-linecap="butt" stroke-width="0.5" points="387.36,327.736 387.36,327.736"/>
   <polyline stroke-linejoin="round" fill="none" stroke="#0000ff" stroke-linecap="butt" stroke-width="0.5" points="409.68,287.971 365.04,287.971"/>
   <polyline stroke-linejoin="round" fill="none" stroke="#0000ff" stroke-linecap="butt" stroke-width="0.5" points="426.019,248.205 348.701,248.205"/>
   <polyline stroke-linejoin="round" fill="none" stroke="#0000ff" stroke-linecap="butt" stroke-width="0.5" points="432,208.44 342.72,208.44"/>
   <polyline stroke-linejoin="round" fill="none" stroke="#0000ff" stroke-linecap="butt" stroke-width="0.5" points="426.019,168.675 348.701,168.675"/>
   <polyline stroke-linejoin="round" fill="none" stroke="#0000ff" stroke-linecap="butt" stroke-width="0.5" points="409.68,128.909 365.04,128.909"/>
   <polyline stroke-linejoin="round" fill="none" stroke="#0000ff" stroke-linecap="butt" stroke-width="0.5" points="387.36,89.1442 387.36,89.1442"/>
   <polyline stroke-linejoin="round" fill="none" stroke="#000000" stroke-linecap="butt" stroke-width="0.5" points="476.64,327.736 478.215,325.055 479.789,322.374 481.358,319.693 482.922,317.013 484.478,314.332 486.024,311.651 487.558,308.97 489.079,306.289 490.584,303.609 492.072,300.928 493.541,298.247 494.988,295.566 496.413,292.885 497.813,290.205 499.187,287.524 500.533,284.843 501.849,282.162 503.133,279.481 504.384,276.801 505.601,274.12 506.782,271.439 507.925,268.758 509.03,266.077 510.094,263.397 511.116,260.716 512.095,258.035 513.03,255.354 513.92,252.673 514.763,249.992 515.559,247.312 516.307,244.631 517.005,241.95 517.652,239.269 518.249,236.588 518.793,233.908 519.286,231.227 519.725,228.546 520.11,225.865 520.441,223.184 520.718,220.504 520.94,217.823 521.106,215.142 521.217,212.461 521.273,209.78 521.273,207.1 521.217,204.419 521.106,201.738 520.94,199.057 520.718,196.376 520.441,193.696 520.11,191.015 519.725,188.334 519.286,185.653 518.793,182.972 518.249,180.292 517.652,177.611 517.005,174.93 516.307,172.249 515.559,169.568 514.763,166.888 513.92,164.207 513.03,161.526 512.095,158.845 511.116,156.164 510.094,153.483 509.03,150.803 507.925,148.122 506.782,145.441 505.601,142.76 504.384,140.079 503.133,137.399 501.849,134.718 500.533,132.037 499.187,129.356 497.813,126.675 496.413,123.995 494.988,121.314 493.541,118.633 492.072,115.952 490.584,113.271 489.079,110.591 487.558,107.91 486.024,105.229 484.478,102.548 482.922,99.8674 481.358,97.1866 479.789,94.5057 478.215,91.825 476.64,89.1442 476.64,89.1442 475.065,91.825 473.491,94.5057 471.922,97.1866 470.358,99.8674 468.802,102.548 467.256,105.229 465.722,107.91 464.201,110.591 462.696,113.271 461.208,115.952 459.739,118.633 458.292,121.314 456.867,123.995 455.467,126.675 454.093,129.356 452.747,132.037 451.431,134.718 450.147,137.399 448.895,140.079 447.679,142.76 446.498,145.441 445.355,148.122 444.25,150.803 443.186,153.483 442.164,156.164 441.185,158.845 440.25,161.526 439.36,164.207 438.517,166.888 437.721,169.568 436.973,172.249 436.275,174.93 435.628,177.611 435.031,180.292 434.487,182.972 433.994,185.653 433.555,188.334 433.17,191.015 432.839,193.696 432.562,196.376 432.34,199.057 432.174,201.738 432.063,204.419 432.007,207.1 432.007,209.78 432.063,212.461 432.174,215.142 432.34,217.823 432.562,220.504 432.839,223.184 433.17,225.865 433.555,228.546 433.994,231.227 434.487,233.908 435.031,236.588 435.628,239.269 436.275,241.95 436.973,244.631 437.721,247.312 438.517,249.992 439.36,252.673 440.25,255.354 441.185,258.035 442.164,260.716 443.186,263.397 444.25,266.077 445.355,268.758 446.498,271.439 447.679,274.12 448.895,276.801 450.147,279.481 451.431,282.162 452.747,284.843 454.093,287.524 455.467,290.205 456.867,292.885 458.292,295.566 459.739,298.247 461.208,300.928 462.696,303.609 464.201,306.289 465.722,308.97 467.256,311.651 468.802,314.332 470.358,317.013 471.922,319.693 473.491,322.374 475.065,325.055 476.64,327.736"/>
   <polyline stroke-linejoin="round" fill="none" stroke="#0000ff" stroke-linecap="butt" stroke-width="0.5" points="476.64,327.736 476.64,327.736"/>
   <polyline stroke-linejoin="round" fill="none" stroke="#0000ff" stroke-linecap="butt" stroke-width="0.5" points="498.96,287.971 454.32,287.971"/>
   <polyline stroke-linejoin="round" fill="none" stroke="#0000ff" stroke-linecap="butt" stroke-width="0.5" points="515.299,248.205 437.981,248.205"/>
   <polyline stroke-linejoin="round" fill="none" stroke="#0000ff" stroke-linecap="butt" stroke-width="0.5" points="521.28,208.44 432,208.44"/>
   <polyline stroke-linejoin="round" fill="none" stroke="#0000ff" stroke-linecap="butt" stroke-width="0.5" points="515.299,168.675 437.981,168.675"/>
   <polyline stroke-linejoin="round" fill="none" stroke="#0000ff" stroke-linecap="butt" stroke-width="0.5" points="498.96,128.909 454.32,128.909"/>
   <polyline stroke-linejoin="round" fill="none" stroke="#0000ff" stroke-linecap="butt" stroke-width="0.5" points="476.64,89.1442 476.64,89.1442"/>
   <polyline stroke-linejoin="round" fill="none" stroke="#0000ff" stroke-linecap="butt" stroke-width="0.5" points="74.88,327.736 521.28,327.736"/>
   <polyline stroke-linejoin="round" fill="none" stroke="#0000ff" stroke-linecap="butt" stroke-width="0.5" points="74.88,287.971 521.28,287.971"/>
   <polyline stroke-linejoin="round" fill="none" stroke="#0000ff" stroke-linecap="butt" stroke-width="0.5" points="74.88,248.205 521.28,248.205"/>
   <polyline stroke-linejoin="round" fill="none" stroke="#0000ff" stroke-linecap="butt" stroke-width="0.5" points="74.88,208.44 521.28,208.44"/>
   <polyline stroke-linejoin="round" fill="none" stroke="#0000ff" stroke-linecap="butt" stroke-width="0.5" points="74.88,168.675 521.28,168.675"/>
   <polyline stroke-linejoin="round" fill="none" stroke="#0000ff" stroke-linecap="butt" stroke-width="0.5" points="74.88,128.909 521.28,128.909"/>
   <polyline stroke-linejoin="round" fill="none" stroke="#0000ff" stroke-linecap="butt" stroke-width="0.5" points="74.88,89.1442 521.28,89.1442"/>
   <polyline stroke-linejoin="round" fill="none" stroke="#0000ff" stroke-linecap="butt" stroke-width="0.5" points="74.88,327.736 521.28,327.736"/>
   <polyline stroke-linejoin="round" fill="none" stroke="#0000ff" stroke-linecap="butt" stroke-width="0.5" points="74.88,287.971 521.28,287.971"/>
   <polyline stroke-linejoin="round" fill="none" stroke="#0000ff" stroke-linecap="butt" stroke-width="0.5" points="74.88,248.205 521.28,248.205"/>
   <polyline stroke-linejoin="round" fill="none" stroke="#0000ff" stroke-linecap="butt" stroke-width="0.5" points="74.88,208.44 521.28,208.44"/>
   <polyline stroke-linejoin="round" fill="none" stroke="#0000ff" stroke-linecap="butt" stroke-width="0.5" points="74.88,168.675 521.28,168.675"/>
   <polyline stroke-linejoin="round" fill="none" stroke="#0000ff" stroke-linecap="butt" stroke-width="0.5" points="74.88,128.909 521.28,128.909"/>
   <polyline stroke-linejoin="round" fill="none" stroke="#0000ff" stroke-linecap="butt" stroke-width="0.5" points="74.88,89.1442 521.28,89.1442"/>
   <polyline stroke-linejoin="round" fill="none" stroke="#0000ff" stroke-linecap="butt" stroke-width="0.5" points="74.88,327.736 521.28,327.736"/>
   <polyline stroke-linejoin="round" fill="none" stroke="#0000ff" stroke-linecap="butt" stroke-width="0.5" points="74.88,287.971 521.28,287.971"/>
   <polyline stroke-linejoin="round" fill="none" stroke="#0000ff" stroke-linecap="butt" stroke-width="0.5" points="74.88,248.205 521.28,248.205"/>
   <polyline stroke-linejoin="round" fill="none" stroke="#0000ff" stroke-linecap="butt" stroke-width="0.5" points="74.88,208.44 521.28,208.44"/>
   <polyline stroke-linejoin="round" fill="none" stroke="#0000ff" stroke-linecap="butt" stroke-width="0.5" points="74.88,168.675 521.28,168.675"/>
   <polyline stroke-linejoin="round" fill="none" stroke="#0000ff" stroke-linecap="butt" stroke-width="0.5" points="74.88,128.909 521.28,128.909"/>
   <polyline stroke-linejoin="round" fill="none" stroke="#0000ff" stroke-linecap="butt" stroke-width="0.5" points="74.88,89.1442 521.28,89.1442"/>
   <polyline stroke-linejoin="round" fill="none" stroke="#0000ff" stroke-linecap="butt" stroke-width="0.5" points="74.88,327.736 521.28,327.736"/>
   <polyline stroke-linejoin="round" fill="none" stroke="#0000ff" stroke-linecap="butt" stroke-width="0.5" points="74.88,287.971 521.28,287.971"/>
   <polyline stroke-linejoin="round" fill="none" stroke="#0000ff" stroke-linecap="butt" stroke-width="0.5" points="74.88,248.205 521.28,248.205"/>
   <polyline stroke-linejoin="round" fill="none" stroke="#0000ff" stroke-linecap="butt" stroke-width="0.5" points="74.88,208.44 521.28,208.44"/>
   <polyline stroke-linejoin="round" fill="none" stroke="#0000ff" stroke-linecap="butt" stroke-width="0.5" points="74.88,168.675 521.28,168.675"/>
   <polyline stroke-linejoin="round" fill="none" stroke="#0000ff" stroke-linecap="butt" stroke-width="0.5" points="74.88,128.909 521.28,128.909"/>
   <polyline stroke-linejoin="round" fill="none" stroke="#0000ff" stroke-linecap="butt" stroke-width="0.5" points="74.88,89.1442 521.28,89.1442"/>
   <polyline stroke-linejoin="round" fill="none" stroke="#0000ff" stroke-linecap="butt" stroke-width="0.5" points="74.88,327.736 521.28,327.736"/>
   <polyline stroke-linejoin="round" fill="none" stroke="#0000ff" stroke-linecap="butt" stroke-width="0.5" points="74.88,287.971 521.28,287.971"/>
   <polyline stroke-linejoin="round" fill="none" stroke="#0000ff" stroke-linecap="butt" stroke-width="0.5" points="74.88,248.205 521.28,248.205"/>
   <polyline stroke-linejoin="round" fill="none" stroke="#0000ff" stroke-linecap="butt" stroke-width="0.5" points="74.88,208.44 521.28,208.44"/>
   <polyline stroke-linejoin="round" fill="none" stroke="#0000ff" stroke-linecap="butt" stroke-width="0.5" points="74.88,168.675 521.28,168.675"/>
   <polyline stroke-linejoin="round" fill="none" stroke="#0000ff" stroke-linecap="butt" stroke-width="0.5" points="74.88,128.909 521.28,128.909"/>
   <polyline stroke-linejoin="round" fill="none" stroke="#0000ff" stroke-linecap="butt" stroke-width="0.5" points="74.88,89.1442 521.28,89.1442"/>
   <polyline stroke-linejoin="round" fill="none" stroke="#0000ff" stroke-linecap="butt" stroke-width="0.5" points="74.88,327.736 521.28,327.736"/>
   <polyline stroke-linejoin="round" fill="none" stroke="#0000ff" stroke-linecap="butt" stroke-width="0.5" points="74.88,287.971 521.28,287.971"/>
   <polyline stroke-linejoin="round" fill="none" stroke="#0000ff" stroke-linecap="butt" stroke-width="0.5" points="74.88,248.205 521.28,248.205"/>
   <polyline stroke-linejoin="round" fill="none" stroke="#0000ff" stroke-linecap="butt" stroke-width="0.5" points="74.88,208.44 521.28,208.44"/>
   <polyline stroke-linejoin="round" fill="none" stroke="#0000ff" stroke-linecap="butt" stroke-width="0.5" points="74.88,168.675 521.28,168.675"/>
   <polyline stroke-linejoin="round" fill="none" stroke="#0000ff" stroke-linecap="butt" stroke-width="0.5" points="74.88,128.909 521.28,128.909"/>
   <polyline stroke-linejoin="round" fill="none" stroke="#0000ff" stroke-linecap="butt" stroke-width="0.5" points="74.88,89.1442 521.28,89.1442"/>
   <polyline stroke-linejoin="round" fill="none" stroke="#0000ff" stroke-linecap="butt" stroke-width="0.5" points="74.88,327.736 521.28,327.736"/>
   <polyline stroke-linejoin="round" fill="none" stroke="#0000ff" stroke-linecap="butt" stroke-width="0.5" points="74.88,287.971 521.28,287.971"/>
   <polyline stroke-linejoin="round" fill="none" stroke="#0000ff" stroke-linecap="butt" stroke-width="0.5" points="74.88,248.205 521.28,248.205"/>
   <polyline stroke-linejoin="round" fill="none" stroke="#0000ff" stroke-linecap="butt" stroke-width="0.5" points="74.88,208.44 521.28,208.44"/>
   <polyline stroke-linejoin="round" fill="none" stroke="#0000ff" stroke-linecap="butt" stroke-width="0.5" points="74.88,168.675 521.28,168.675"/>
   <polyline stroke-linejoin="round" fill="none" stroke="#0000ff" stroke-linecap="butt" stroke-width="0.5" points="74.88,128.909 521.28,128.909"/>
   <polyline stroke-linejoin="round" fill="none" stroke="#0000ff" stroke-linecap="butt" stroke-width="0.5" points="74.88,89.1442 521.28,89.1442"/>
   <polyline stroke-linejoin="round" fill="none" stroke="#000000" stroke-linecap="butt" stroke-width="0.5" points="74.88,327.736 74.88,89.1442 521.28,89.1442 521.28,327.736 74.88,327.736"/>
   <polyline stroke-linejoin="round" fill="none" stroke="#ff0000" stroke-linecap="butt" stroke-width="0.5" points="74.88,119.523 521.28,119.523"/>
  </g>
 </g>
</svg>
