<?xml version='1.0' encoding='UTF-8' standalone='no'?>
<svg width="418pt" xmlns="http://www.w3.org/2000/svg" height="314pt" viewBox="0 0 418 314" xmlns:xlink="http://www.w3.org/1999/xlink">
 <title>gl2ps_renderer figure</title>
 <desc>
Creator: GL2PS 1.4.2, (C) 1999-2020 C. Geuzaine
For: Octave
CreationDate: Sat Nov 23 10:40:31 2024
</desc>
 <defs/>
 <polygon fill="#ffffff" points="0,0 418,0 418,314 0,314"/>
 <g>
  <polygon fill="#ffffff" points="0,314 418,314 418,0 0,0" shape-rendering="crispEdges"/>
  <clipPath id="cp00418314">
   <polygon points="0,314 418,314 418,0 0,0"/>
  </clipPath>
  <g clip-path="url(#cp00418314)">
   <polyline fill="none" stroke-width="0.5" stroke="#0000ff" points="175.873,125.085 174.188,125.382" stroke-linejoin="round" stroke-linecap="butt"/>
   <polyline fill="none" stroke-width="0.5" stroke="#0000ff" points="180.295,150.17 180.077,150.204 181.825,161.49" stroke-linejoin="round" stroke-linecap="butt"/>
   <polyline fill="none" stroke-width="0.5" stroke="#0000ff" points="182.278,161.42 181.825,161.49" stroke-linejoin="round" stroke-linecap="butt"/>
   <polyline fill="none" stroke-width="0.5" stroke="#0000ff" points="185.264,222.251 183.516,233.538 181.825,233.276" stroke-linejoin="round" stroke-linecap="butt"/>
   <polyline fill="none" stroke-width="0.5" stroke="#0000ff" points="174.188,125.382 173.126,119.359" stroke-linejoin="round" stroke-linecap="butt"/>
   <polyline fill="none" stroke-width="0.5" stroke="#0000ff" points="127.585,127.39 176.279,127.39" stroke-linejoin="round" stroke-linecap="butt"/>
   <polyline fill="none" stroke-width="0.5" stroke="#0000ff" points="181.825,233.276 180.077,244.562 181.768,244.824 180.02,256.11 178.329,255.848 176.581,267.135 178.272,267.396" stroke-linejoin="round" stroke-linecap="butt"/>
   <polyline fill="none" stroke-width="0.5" stroke="#0000ff" points="200.961,267.396 178.272,267.396" stroke-linejoin="round" stroke-linecap="butt"/>
   <polyline fill="none" stroke-width="0.5" stroke="#0000ff" points="193.002,222.251 185.264,222.251 185.264,222.251" stroke-linejoin="round" stroke-linecap="butt"/>
   <polyline fill="none" stroke-width="0.5" stroke="#0000ff" points="183.532,174.24 183.76,172.545 172.44,171.029 172.213,172.724 160.893,171.208 161.12,169.513 149.8,167.997 149.573,169.692 138.254,168.176 138.254,226.589 149.573,225.073 149.8,226.769 161.12,225.253 160.893,223.557 172.213,222.041 172.44,223.737 183.76,222.221 183.532,220.525 183.532,220.525 183.532,211.268 185.243,211.268 185.243,202.011 183.532,202.011 183.532,192.754 185.243,192.754 185.243,183.497 183.532,183.497 183.532,174.24 183.532,174.24" stroke-linejoin="round" stroke-linecap="butt"/>
   <polyline fill="none" stroke-width="0.5" stroke="#0000ff" points="184.234,172.514 183.532,172.514 183.532,174.225 183.532,183.488 185.243,183.488 185.243,192.751 183.532,192.751 183.532,202.014 185.243,202.014 185.243,211.278 183.532,211.278 183.532,220.541 183.532,222.251 185.243,222.251" stroke-linejoin="round" stroke-linecap="butt"/>
   <polyline fill="none" stroke-width="0.5" stroke="#0000ff" points="193.002,222.251 185.243,222.251" stroke-linejoin="round" stroke-linecap="butt"/>
   <polyline fill="none" stroke-width="0.5" stroke="#0000ff" points="173.126,119.359 174.811,119.062" stroke-linejoin="round" stroke-linecap="butt"/>
   <polyline fill="none" stroke-width="0.5" stroke="#0000ff" points="173.234,114.731 171.753,115.586 168.695,110.29 170.177,109.435" stroke-linejoin="round" stroke-linecap="butt"/>
   <polyline fill="none" stroke-width="0.5" stroke="#0000ff" points="148.251,96.7762 148.251,98.487 142.136,98.487 142.136,96.7762 140.097,96.7762 139.512,96.8794 137.597,97.5766" stroke-linejoin="round" stroke-linecap="butt"/>
   <polyline fill="none" stroke-width="0.5" stroke="#0000ff" points="150.875,96.8794 150.29,96.7762 148.251,96.7762" stroke-linejoin="round" stroke-linecap="butt"/>
   <polyline fill="none" stroke-width="0.5" stroke="#0000ff" points="137.597,97.5766 138.182,99.1842 132.435,101.276 131.85,99.6683 129.934,100.365 129.42,100.663 127.858,101.973 128.958,103.283 124.273,107.214 123.173,105.904 121.612,107.214 121.23,107.669 120.21,109.435 121.692,110.29 118.634,115.586 117.153,114.731 116.133,116.496 115.93,117.055 115.576,119.062 117.261,119.359 116.199,125.382 114.514,125.085 114.16,127.092 114.108,127.39" stroke-linejoin="round" stroke-linecap="butt"/>
   <polyline fill="none" stroke-width="0.5" stroke="#0000ff" points="127.585,127.39 114.108,127.39 114.108,127.39 113.4,123.374 115.085,123.077 114.731,121.07 113.046,121.367 112.338,117.352 112.338,117.352 110.299,113.821 111.781,112.966 110.762,111.2 109.28,112.056 107.242,108.525 107.242,108.525 104.119,105.904 105.218,104.594 103.657,103.283 102.557,104.594 99.4337,101.973 99.4337,101.973 95.6025,100.579 96.1877,98.9711 94.2721,98.2738 93.687,99.8814 89.8558,98.487 89.8558,98.487 85.7788,98.487 85.7788,96.7762 83.7402,96.7762 83.7402,98.487 79.6632,98.487 79.6632,98.487 75.832,99.8814 75.2469,98.2738 73.3313,98.9711 73.9164,100.579 70.0853,101.973 70.0853,101.973 66.9621,104.594 65.8624,103.283 64.3008,104.594 65.4005,105.904 62.2773,108.525 62.2773,108.525 60.2388,112.056 58.7572,111.2 57.738,112.966 59.2195,113.821 57.181,117.352 57.181,117.352 56.473,121.367 54.7883,121.07 54.4343,123.077 56.119,123.374 55.4111,127.39 55.4111,127.39 59.891,127.39 61.3908,118.884 65.7092,111.404 72.3253,105.853 80.4411,102.899 89.0779,102.899 97.1937,105.853 103.81,111.404 108.128,118.884 109.628,127.39 114.108,127.39" stroke-linejoin="round" stroke-linecap="butt"/>
   <polyline fill="none" stroke-width="0.5" stroke="#0000ff" points="152.205,99.1842 152.79,97.5766" stroke-linejoin="round" stroke-linecap="butt"/>
   <polyline fill="none" stroke-width="0.5" stroke="#0000ff" points="157.952,101.276 152.205,99.1842" stroke-linejoin="round" stroke-linecap="butt"/>
   <polyline fill="none" stroke-width="0.5" stroke="#0000ff" points="158.537,99.6683 157.952,101.276" stroke-linejoin="round" stroke-linecap="butt"/>
   <polyline fill="none" stroke-width="0.5" stroke="#0000ff" points="166.114,107.214 161.429,103.283" stroke-linejoin="round" stroke-linecap="butt"/>
   <polyline fill="none" stroke-width="0.5" stroke="#0000ff" points="167.214,105.904 166.114,107.214" stroke-linejoin="round" stroke-linecap="butt"/>
   <polyline fill="none" stroke-width="0.5" stroke="#0000ff" points="161.429,103.283 162.529,101.973" stroke-linejoin="round" stroke-linecap="butt"/>
   <polyline fill="none" stroke-width="0.5" stroke="#0000ff" points="152.79,97.5766 150.875,96.8794" stroke-linejoin="round" stroke-linecap="butt"/>
   <polyline fill="none" stroke-width="0.5" stroke="#0000ff" points="160.453,100.365 158.537,99.6683" stroke-linejoin="round" stroke-linecap="butt"/>
   <polyline fill="none" stroke-width="0.5" stroke="#0000ff" points="160.967,100.663 160.453,100.365" stroke-linejoin="round" stroke-linecap="butt"/>
   <polyline fill="none" stroke-width="0.5" stroke="#0000ff" points="162.529,101.973 160.967,100.663" stroke-linejoin="round" stroke-linecap="butt"/>
   <polyline fill="none" stroke-width="0.5" stroke="#0000ff" points="168.775,107.214 167.214,105.904" stroke-linejoin="round" stroke-linecap="butt"/>
   <polyline fill="none" stroke-width="0.5" stroke="#0000ff" points="169.157,107.669 168.775,107.214" stroke-linejoin="round" stroke-linecap="butt"/>
   <polyline fill="none" stroke-width="0.5" stroke="#0000ff" points="170.177,109.435 169.157,107.669" stroke-linejoin="round" stroke-linecap="butt"/>
   <polyline fill="none" stroke-width="0.5" stroke="#0000ff" points="174.254,116.496 173.234,114.731" stroke-linejoin="round" stroke-linecap="butt"/>
   <polyline fill="none" stroke-width="0.5" stroke="#0000ff" points="174.457,117.055 174.254,116.496" stroke-linejoin="round" stroke-linecap="butt"/>
   <polyline fill="none" stroke-width="0.5" stroke="#0000ff" points="176.227,127.092 175.873,125.085" stroke-linejoin="round" stroke-linecap="butt"/>
   <polyline fill="none" stroke-width="0.5" stroke="#0000ff" points="174.811,119.062 174.457,117.055" stroke-linejoin="round" stroke-linecap="butt"/>
   <polyline fill="none" stroke-width="0.5" stroke="#0000ff" points="176.279,127.39 176.227,127.092" stroke-linejoin="round" stroke-linecap="butt"/>
   <polyline fill="none" stroke-width="0.5" stroke="#0000ff" points="257.102,127.39 257.154,127.092" stroke-linejoin="round" stroke-linecap="butt"/>
   <polyline fill="none" stroke-width="0.5" stroke="#0000ff" points="255.391,127.39 255.391,125.351 257.102,125.351" stroke-linejoin="round" stroke-linecap="butt"/>
   <polyline fill="none" stroke-width="0.5" stroke="#0000ff" points="257.102,125.013 257.102,125.351" stroke-linejoin="round" stroke-linecap="butt"/>
   <polyline fill="none" stroke-width="0.5" stroke="#0000ff" points="212.774,117.197 177.99,117.197 177.99,119.235" stroke-linejoin="round" stroke-linecap="butt"/>
   <polyline fill="none" stroke-width="0.5" stroke="#0000ff" points="257.154,127.092 257.508,125.085" stroke-linejoin="round" stroke-linecap="butt"/>
   <polyline fill="none" stroke-width="0.5" stroke="#0000ff" points="270.578,127.39 257.102,127.39" stroke-linejoin="round" stroke-linecap="butt"/>
   <polyline fill="none" stroke-width="0.5" stroke="#0000ff" points="177.99,119.235 176.279,119.235 176.279,125.351 177.99,125.351 177.99,127.39 255.391,127.39" stroke-linejoin="round" stroke-linecap="butt"/>
   <polyline fill="none" stroke-width="0.5" stroke="#0000ff" points="217.546,121.274 217.546,123.313 215.835,123.313 215.835,121.274 217.546,121.274" stroke-linejoin="round" stroke-linecap="butt"/>
   <polyline fill="none" stroke-width="0.5" stroke="#0000ff" points="176.279,110.762 176.279,115.158 177.99,115.158 177.99,117.197" stroke-linejoin="round" stroke-linecap="butt"/>
   <polyline fill="none" stroke-width="0.5" stroke="#0000ff" points="212.774,117.197 177.99,117.197" stroke-linejoin="round" stroke-linecap="butt"/>
   <polyline fill="none" stroke-width="0.5" stroke="#0000ff" points="248.117,172.514 249.865,161.228 251.556,161.49 253.303,150.204 251.613,149.942 253.361,138.656 255.051,138.917 256.799,127.631 255.109,127.369 178.272,127.369 176.581,127.631 178.329,138.917 180.02,138.656 181.768,149.942" stroke-linejoin="round" stroke-linecap="butt"/>
   <polyline fill="none" stroke-width="0.5" stroke="#0000ff" points="180.295,150.17 181.768,149.942" stroke-linejoin="round" stroke-linecap="butt"/>
   <polyline fill="none" stroke-width="0.5" stroke="#0000ff" points="182.278,161.42 183.516,161.228 185.264,172.514 185.264,172.514 197.834,172.514 197.834,174.225 210.405,174.225 210.405,172.514 222.976,172.514 222.976,174.225 235.546,174.225 235.546,172.514 248.117,172.514 248.117,172.514" stroke-linejoin="round" stroke-linecap="butt"/>
   <polyline fill="none" stroke-width="0.5" stroke="#0000ff" points="200.961,267.396 255.109,267.396 256.799,267.135 255.051,255.848 253.361,256.11 251.613,244.824 253.303,244.562 251.556,233.276 249.865,233.538 248.117,222.251 248.117,222.251 235.546,222.251 235.546,220.541 222.976,220.541 222.976,222.251 210.405,222.251 210.405,220.541 197.834,220.541 197.834,222.251" stroke-linejoin="round" stroke-linecap="butt"/>
   <polyline fill="none" stroke-width="0.5" stroke="#0000ff" points="193.002,222.251 197.834,222.251" stroke-linejoin="round" stroke-linecap="butt"/>
   <polyline fill="none" stroke-width="0.5" stroke="#0000ff" points="249.848,220.525 249.621,222.221 260.941,223.737 261.168,222.041 272.488,223.557 272.261,225.253 283.58,226.769 283.807,225.073 295.127,226.589 295.127,168.176 283.807,169.692 283.58,167.997 272.261,169.513 272.488,171.208 261.168,172.724 260.941,171.029 249.621,172.545 249.848,174.24 249.848,174.24 249.848,183.497 248.137,183.497 248.137,192.754 249.848,192.754 249.848,202.011 248.137,202.011 248.137,211.268 249.848,211.268 249.848,220.525 249.848,220.525" stroke-linejoin="round" stroke-linecap="butt"/>
   <polyline fill="none" stroke-width="0.5" stroke="#0000ff" points="249.848,222.251 249.848,220.541 249.848,211.278 248.138,211.278 248.138,202.014 249.848,202.014 249.848,192.751 248.138,192.751 248.138,183.488 249.848,183.488 249.848,174.225 249.848,172.514 248.138,172.514 235.559,172.514 235.559,174.225 222.98,174.225 222.98,172.514 210.401,172.514 210.401,174.225 197.822,174.225 197.822,172.514 185.243,172.514" stroke-linejoin="round" stroke-linecap="butt"/>
   <polyline fill="none" stroke-width="0.5" stroke="#0000ff" points="184.234,172.514 185.243,172.514" stroke-linejoin="round" stroke-linecap="butt"/>
   <polyline fill="none" stroke-width="0.5" stroke="#0000ff" points="193.002,222.251 197.822,222.251 197.822,220.541 210.401,220.541 210.401,222.251 222.98,222.251 222.98,220.541 235.559,220.541 235.559,222.251 248.138,222.251 249.848,222.251" stroke-linejoin="round" stroke-linecap="butt"/>
   <polyline fill="none" stroke-width="0.5" stroke="#ff0000" points="216.69,127.39 219.384,127.39" stroke-linejoin="round" stroke-linecap="butt"/>
   <polyline fill="none" stroke-width="0.5" stroke="#00ff00" points="216.69,127.39 216.69,124.695" stroke-linejoin="round" stroke-linecap="butt"/>
   <polyline fill="none" stroke-width="0.5" stroke="#0000ff" points="216.69,127.39 216.69,127.39" stroke-linejoin="round" stroke-linecap="butt"/>
   <polyline fill="none" stroke-width="0.5" stroke="#0000ff" points="257.508,125.085 259.193,125.382" stroke-linejoin="round" stroke-linecap="butt"/>
   <polyline fill="none" stroke-width="0.5" stroke="#0000ff" points="255.391,119.235 255.391,117.197" stroke-linejoin="round" stroke-linecap="butt"/>
   <polyline fill="none" stroke-width="0.5" stroke="#0000ff" points="212.774,117.197 255.391,117.197 255.391,115.158 257.102,115.158 257.102,109.043 255.391,109.043" stroke-linejoin="round" stroke-linecap="butt"/>
   <polyline fill="none" stroke-width="0.5" stroke="#0000ff" points="257.102,125.013 257.102,119.235 255.391,119.235" stroke-linejoin="round" stroke-linecap="butt"/>
   <polyline fill="none" stroke-width="0.5" stroke="#0000ff" points="255.391,109.043 255.391,107.004 177.99,107.004 177.99,109.043 176.279,109.043" stroke-linejoin="round" stroke-linecap="butt"/>
   <polyline fill="none" stroke-width="0.5" stroke="#0000ff" points="176.279,110.762 176.279,109.043" stroke-linejoin="round" stroke-linecap="butt"/>
   <polyline fill="none" stroke-width="0.5" stroke="#0000ff" points="212.774,117.197 255.391,117.197" stroke-linejoin="round" stroke-linecap="butt"/>
   <polyline fill="none" stroke-width="0.5" stroke="#0000ff" points="217.546,111.081 217.546,113.12 215.835,113.12 215.835,111.081 217.546,111.081" stroke-linejoin="round" stroke-linecap="butt"/>
   <polyline fill="none" stroke-width="0.5" stroke="#0000ff" points="255.391,107.004 255.391,104.966 257.102,104.966 257.102,98.8503 255.391,98.8503 255.391,96.8117 177.99,96.8117 177.99,98.8503 176.279,98.8503 176.279,104.966 177.99,104.966 177.99,107.004 255.391,107.004" stroke-linejoin="round" stroke-linecap="butt"/>
   <polyline fill="none" stroke-width="0.5" stroke="#0000ff" points="217.546,100.889 217.546,102.927 215.835,102.927 215.835,100.889 217.546,100.889" stroke-linejoin="round" stroke-linecap="butt"/>
   <polyline fill="none" stroke-width="0.5" stroke="#0000ff" points="255.391,96.8117 255.391,94.7732 257.102,94.7732 257.102,88.6577 255.391,88.6577 255.391,86.6191 177.99,86.6191 177.99,88.6577 176.279,88.6577 176.279,94.7732 177.99,94.7732 177.99,96.8117 255.391,96.8117" stroke-linejoin="round" stroke-linecap="butt"/>
   <polyline fill="none" stroke-width="0.5" stroke="#0000ff" points="217.546,90.6962 217.546,92.7347 215.835,92.7347 215.835,90.6962 217.546,90.6962" stroke-linejoin="round" stroke-linecap="butt"/>
   <polyline fill="none" stroke-width="0.5" stroke="#0000ff" points="255.391,86.6191 255.391,84.5806 257.102,84.5806 257.102,78.465 255.391,78.465 255.391,76.4265 177.99,76.4265 177.99,78.465 176.279,78.465 176.279,84.5806 177.99,84.5806 177.99,86.6191 255.391,86.6191" stroke-linejoin="round" stroke-linecap="butt"/>
   <polyline fill="none" stroke-width="0.5" stroke="#0000ff" points="217.546,80.5036 217.546,82.5421 215.835,82.5421 215.835,80.5036 217.546,80.5036" stroke-linejoin="round" stroke-linecap="butt"/>
   <polyline fill="none" stroke-width="0.5" stroke="#0000ff" points="255.391,76.4265 255.391,74.388 257.102,74.388 257.102,68.2724 255.391,68.2724 255.391,66.2339 177.99,66.2339 177.99,68.2724 176.279,68.2724 176.279,74.388 177.99,74.388 177.99,76.4265 255.391,76.4265" stroke-linejoin="round" stroke-linecap="butt"/>
   <polyline fill="none" stroke-width="0.5" stroke="#0000ff" points="217.546,70.311 217.546,72.3495 215.835,72.3495 215.835,70.311 217.546,70.311" stroke-linejoin="round" stroke-linecap="butt"/>
   <polyline fill="none" stroke-width="0.5" stroke="#0000ff" points="255.391,66.2339 255.391,64.1954 257.102,64.1954 257.102,58.0798 255.391,58.0798 255.391,56.0413 177.99,56.0413 177.99,58.0798 176.279,58.0798 176.279,64.1954 177.99,64.1954 177.99,66.2339 255.391,66.2339" stroke-linejoin="round" stroke-linecap="butt"/>
   <polyline fill="none" stroke-width="0.5" stroke="#0000ff" points="217.546,60.1183 217.546,62.1569 215.835,62.1569 215.835,60.1183 217.546,60.1183" stroke-linejoin="round" stroke-linecap="butt"/>
   <polyline fill="none" stroke-width="0.5" stroke="#0000ff" points="255.391,56.0413 255.391,54.0028 257.102,54.0028 257.102,47.8872 255.391,47.8872 255.391,45.8487 177.99,45.8487 177.99,47.8872 176.279,47.8872 176.279,54.0028 177.99,54.0028 177.99,56.0413 255.391,56.0413" stroke-linejoin="round" stroke-linecap="butt"/>
   <polyline fill="none" stroke-width="0.5" stroke="#0000ff" points="217.546,49.9258 217.546,51.9643 215.835,51.9643 215.835,49.9258 217.546,49.9258" stroke-linejoin="round" stroke-linecap="butt"/>
   <polyline fill="none" stroke-width="0.5" stroke="#0000ff" points="255.391,45.8487 255.391,43.8102 257.102,43.8102 257.102,37.6946 255.391,37.6946 255.391,35.6561 177.99,35.6561 177.99,37.6946 176.279,37.6946 176.279,43.8102 177.99,43.8102 177.99,45.8487 255.391,45.8487" stroke-linejoin="round" stroke-linecap="butt"/>
   <polyline fill="none" stroke-width="0.5" stroke="#0000ff" points="217.546,39.7332 217.546,41.7717 215.835,41.7717 215.835,39.7332 217.546,39.7332" stroke-linejoin="round" stroke-linecap="butt"/>
   <polyline fill="none" stroke-width="0.5" stroke="#0000ff" points="258.57,119.062 258.924,117.055 259.127,116.496 260.146,114.731" stroke-linejoin="round" stroke-linecap="butt"/>
   <polyline fill="none" stroke-width="0.5" stroke="#0000ff" points="263.204,109.435 264.223,107.669 264.605,107.214" stroke-linejoin="round" stroke-linecap="butt"/>
   <polyline fill="none" stroke-width="0.5" stroke="#0000ff" points="270.852,101.973 272.413,100.663" stroke-linejoin="round" stroke-linecap="butt"/>
   <polyline fill="none" stroke-width="0.5" stroke="#0000ff" points="264.605,107.214 266.167,105.904" stroke-linejoin="round" stroke-linecap="butt"/>
   <polyline fill="none" stroke-width="0.5" stroke="#0000ff" points="259.193,125.382 260.255,119.359" stroke-linejoin="round" stroke-linecap="butt"/>
   <polyline fill="none" stroke-width="0.5" stroke="#0000ff" points="284.195,127.39 270.578,127.39" stroke-linejoin="round" stroke-linecap="butt"/>
   <polyline fill="none" stroke-width="0.5" stroke="#0000ff" points="260.255,119.359 258.57,119.062" stroke-linejoin="round" stroke-linecap="butt"/>
   <polyline fill="none" stroke-width="0.5" stroke="#0000ff" points="260.146,114.731 261.628,115.586 264.686,110.29 263.204,109.435" stroke-linejoin="round" stroke-linecap="butt"/>
   <polyline fill="none" stroke-width="0.5" stroke="#0000ff" points="266.167,105.904 267.267,107.214" stroke-linejoin="round" stroke-linecap="butt"/>
   <polyline fill="none" stroke-width="0.5" stroke="#0000ff" points="274.843,99.6683 275.429,101.276 281.175,99.1842 280.59,97.5766" stroke-linejoin="round" stroke-linecap="butt"/>
   <polyline fill="none" stroke-width="0.5" stroke="#0000ff" points="285.129,96.7762 285.129,98.487" stroke-linejoin="round" stroke-linecap="butt"/>
   <polyline fill="none" stroke-width="0.5" stroke="#0000ff" points="267.267,107.214 271.951,103.283" stroke-linejoin="round" stroke-linecap="butt"/>
   <polyline fill="none" stroke-width="0.5" stroke="#0000ff" points="285.129,98.487 291.245,98.487" stroke-linejoin="round" stroke-linecap="butt"/>
   <polyline fill="none" stroke-width="0.5" stroke="#0000ff" points="271.951,103.283 270.852,101.973" stroke-linejoin="round" stroke-linecap="butt"/>
   <polyline fill="none" stroke-width="0.5" stroke="#0000ff" points="283.091,96.7762 285.129,96.7762" stroke-linejoin="round" stroke-linecap="butt"/>
   <polyline fill="none" stroke-width="0.5" stroke="#0000ff" points="291.245,98.487 291.245,96.7762 293.283,96.7762 293.869,96.8794 295.784,97.5766 295.199,99.1842 300.946,101.276 301.531,99.6683 303.446,100.365 303.961,100.663 305.523,101.973 304.423,103.283 309.108,107.214 310.207,105.904 311.769,107.214 312.151,107.669 313.17,109.435 311.689,110.29 314.746,115.586 316.228,114.731 317.247,116.496 317.45,117.055 317.804,119.062 316.12,119.359 317.182,125.382 318.866,125.085 319.22,127.092 319.273,127.39" stroke-linejoin="round" stroke-linecap="butt"/>
   <polyline fill="none" stroke-width="0.5" stroke="#0000ff" points="284.195,127.39 319.273,127.39 319.273,127.39 319.981,123.374 318.296,123.077 318.65,121.07 320.335,121.367 321.043,117.352 321.043,117.352 323.081,113.821 321.6,112.966 322.619,111.2 324.1,112.056 326.139,108.525 326.139,108.525 329.262,105.904 328.163,104.594 329.724,103.283 330.824,104.594 333.947,101.973 333.947,101.973 337.778,100.579 337.193,98.9711 339.109,98.2738 339.694,99.8814 343.525,98.487 343.525,98.487 347.602,98.487 347.602,96.7762 349.64,96.7762 349.64,98.487 353.717,98.487 353.717,98.487 357.549,99.8814 358.134,98.2738 360.049,98.9711 359.464,100.579 363.295,101.973 363.295,101.973 366.419,104.594 367.518,103.283 369.08,104.594 367.98,105.904 371.103,108.525 371.103,108.525 373.142,112.056 374.623,111.2 375.643,112.966 374.161,113.821 376.2,117.352 376.2,117.352 376.908,121.367 378.592,121.07 378.946,123.077 377.262,123.374 377.97,127.39 377.97,127.39 373.49,127.39 371.99,118.884 367.672,111.404 361.055,105.853 352.94,102.899 344.303,102.899 336.187,105.853 329.571,111.404 325.252,118.884 323.753,127.39 319.273,127.39" stroke-linejoin="round" stroke-linecap="butt"/>
   <polyline fill="none" stroke-width="0.5" stroke="#0000ff" points="282.506,96.8794 283.091,96.7762" stroke-linejoin="round" stroke-linecap="butt"/>
   <polyline fill="none" stroke-width="0.5" stroke="#0000ff" points="280.59,97.5766 282.506,96.8794" stroke-linejoin="round" stroke-linecap="butt"/>
   <polyline fill="none" stroke-width="0.5" stroke="#0000ff" points="272.928,100.365 274.843,99.6683" stroke-linejoin="round" stroke-linecap="butt"/>
   <polyline fill="none" stroke-width="0.5" stroke="#0000ff" points="272.413,100.663 272.928,100.365" stroke-linejoin="round" stroke-linecap="butt"/>
  </g>
 </g>
</svg>
