<?xml version="1.0" encoding="UTF-8" standalone="no"?>
<svg xmlns="http://www.w3.org/2000/svg"
     xmlns:xlink="http://www.w3.org/1999/xlink"
     width="576pt" height="432pt" viewBox="0 0 576 432">
<title>gl2ps_renderer figure</title>
<desc>
Creator: GL2PS 1.4.0, (C) 1999-2017 C. Geuzaine
For: Octave
CreationDate: Fri Mar 22 23:54:00 2019
</desc>
<defs>
</defs>
<polygon fill="#ffffff" points="0,0 576,0 576,432 0,432"/>
<g>
<polygon fill="#ffffff" points="0,432 576,432 576,0 0,0" shape-rendering="crispEdges"/>
<clipPath id="cp00576432">
  <polygon points="0,432 576,432 576,0 0,0"/>
</clipPath>
<g clip-path="url(#cp00576432)">
<polyline fill="none" stroke="#0000ff" stroke-width="0.5" stroke-linecap="butt" stroke-linejoin="round" points="242.49,175.238 242.418,174.829 241.931,172.067 239.614,172.476 238.153,164.191 240.47,163.783 239.983,161.021 239.704,160.253 238.302,157.824 236.264,159.001 232.057,151.716 234.095,150.539 232.693,148.11 232.168,147.484 230.02,145.682 228.507,147.485 222.063,142.077 223.575,140.274 221.427,138.472 220.719,138.063 218.084,137.104 217.28,139.315 209.374,136.438 210.179,134.227 207.544,133.268 206.739,133.126 203.935,133.126 203.935,135.479 195.522,135.479 195.522,133.126 192.718,133.126 191.913,133.268 189.278,134.227 190.083,136.438 182.178,139.315 181.373,137.104 178.738,138.063 178.03,138.472 175.882,140.274 177.395,142.077 170.95,147.485 169.438,145.682 167.289,147.484 166.764,148.11 165.362,150.539 167.4,151.716 163.194,159.001 161.156,157.824 159.754,160.253 159.474,161.021 158.987,163.783 161.305,164.191 159.844,172.476 157.526,172.067 157.039,174.829 156.967,175.238 242.49,175.238"/>
<polyline fill="none" stroke="#0000ff" stroke-width="0.5" stroke-linecap="butt" stroke-linejoin="round" points="353.67,175.238 353.742,174.829 354.229,172.067 356.546,172.476 358.007,164.191 355.69,163.783 356.177,161.021 356.456,160.253 357.858,157.824 359.896,159.001 364.103,151.716 362.065,150.539 363.467,148.11 363.992,147.484 366.14,145.682 367.653,147.485 374.097,142.077 372.585,140.274 374.733,138.472 375.44,138.063 378.076,137.104 378.88,139.315 386.786,136.438 385.981,134.227 388.616,133.268 389.421,133.126 392.225,133.126 392.225,135.479 400.638,135.479 400.638,133.126 403.442,133.126 404.247,133.268 406.882,134.227 406.077,136.438 413.982,139.315 414.787,137.104 417.422,138.063 418.13,138.472 420.278,140.274 418.765,142.077 425.21,147.485 426.722,145.682 428.871,147.484 429.396,148.11 430.798,150.539 428.76,151.716 432.966,159.001 435.004,157.824 436.406,160.253 436.686,161.021 437.173,163.783 434.855,164.191 436.316,172.476 438.634,172.067 439.121,174.829 439.193,175.238 353.67,175.238"/>
<polyline fill="none" stroke="#0000ff" stroke-width="0.5" stroke-linecap="butt" stroke-linejoin="round" points="156.967,175.238 156.967,175.238 155.993,169.714 158.311,169.306 157.824,166.544 155.506,166.953 154.533,161.43 154.533,161.43 151.728,156.573 153.766,155.396 152.364,152.967 150.326,154.144 147.522,149.287 147.522,149.287 143.226,145.682 144.738,143.879 142.59,142.077 141.078,143.88 136.781,140.275 136.781,140.275 131.511,138.356 132.316,136.145 129.681,135.186 128.876,137.397 123.606,135.479 123.606,135.479 117.998,135.479 117.998,133.126 115.193,133.126 115.193,135.479 109.585,135.479 109.585,135.479 104.315,137.397 103.51,135.186 100.875,136.145 101.68,138.356 96.4095,140.275 96.4095,140.275 92.1133,143.88 90.6006,142.077 88.4525,143.879 89.9651,145.682 85.6689,149.287 85.6689,149.287 82.8647,154.144 80.8266,152.967 79.4245,155.396 81.4626,156.573 78.6584,161.43 78.6584,161.43 77.6845,166.953 75.3669,166.544 74.88,169.306 77.1975,169.714 76.2236,175.238 76.2236,175.238 82.3863,175.238 84.4494,163.537 90.3898,153.248 99.4909,145.612 110.655,141.548 122.536,141.548 133.7,145.612 142.801,153.248 148.742,163.537 150.805,175.238 156.967,175.238"/>
<polyline fill="none" stroke="#0000ff" stroke-width="0.5" stroke-linecap="butt" stroke-linejoin="round" points="439.193,175.238 439.193,175.238 440.167,169.714 437.849,169.306 438.336,166.544 440.654,166.953 441.627,161.43 441.627,161.43 444.432,156.573 442.394,155.396 443.796,152.967 445.834,154.144 448.638,149.287 448.638,149.287 452.934,145.682 451.422,143.879 453.57,142.077 455.082,143.88 459.379,140.275 459.379,140.275 464.649,138.356 463.844,136.145 466.479,135.186 467.284,137.397 472.554,135.479 472.554,135.479 478.162,135.479 478.162,133.126 480.967,133.126 480.967,135.479 486.575,135.479 486.575,135.479 491.845,137.397 492.65,135.186 495.285,136.145 494.48,138.356 499.75,140.275 499.75,140.275 504.047,143.88 505.559,142.077 507.708,143.879 506.195,145.682 510.491,149.287 510.491,149.287 513.295,154.144 515.333,152.967 516.735,155.396 514.697,156.573 517.502,161.43 517.502,161.43 518.475,166.953 520.793,166.544 521.28,169.306 518.962,169.714 519.936,175.238 519.936,175.238 513.774,175.238 511.711,163.537 505.77,153.248 496.669,145.612 485.505,141.548 473.624,141.548 462.46,145.612 453.359,153.248 447.418,163.537 445.355,175.238 439.193,175.238"/>
<polyline fill="none" stroke="#0000ff" stroke-width="0.5" stroke-linecap="butt" stroke-linejoin="round" points="351.317,175.238 351.317,172.433 353.67,172.433 353.67,164.021 351.317,164.021 351.317,161.217 244.843,161.217 244.843,164.021 242.49,164.021 242.49,172.433 244.843,172.433 244.843,175.238 351.317,175.238"/>
<polyline fill="none" stroke="#0000ff" stroke-width="0.5" stroke-linecap="butt" stroke-linejoin="round" points="299.257,166.825 299.257,169.629 296.903,169.629 296.903,166.825 299.257,166.825"/>
<polyline fill="none" stroke="#0000ff" stroke-width="0.5" stroke-linecap="butt" stroke-linejoin="round" points="351.317,161.217 351.317,158.412 353.67,158.412 353.67,150 351.317,150 351.317,147.196 244.843,147.196 244.843,150 242.49,150 242.49,158.412 244.843,158.412 244.843,161.217 351.317,161.217"/>
<polyline fill="none" stroke="#0000ff" stroke-width="0.5" stroke-linecap="butt" stroke-linejoin="round" points="299.257,152.804 299.257,155.608 296.903,155.608 296.903,152.804 299.257,152.804"/>
<polyline fill="none" stroke="#0000ff" stroke-width="0.5" stroke-linecap="butt" stroke-linejoin="round" points="351.317,147.196 351.317,144.391 353.67,144.391 353.67,135.979 351.317,135.979 351.317,133.175 244.843,133.175 244.843,135.979 242.49,135.979 242.49,144.391 244.843,144.391 244.843,147.196 351.317,147.196"/>
<polyline fill="none" stroke="#0000ff" stroke-width="0.5" stroke-linecap="butt" stroke-linejoin="round" points="299.257,138.783 299.257,141.587 296.903,141.587 296.903,138.783 299.257,138.783"/>
<polyline fill="none" stroke="#0000ff" stroke-width="0.5" stroke-linecap="butt" stroke-linejoin="round" points="351.317,133.175 351.317,130.37 353.67,130.37 353.67,121.958 351.317,121.958 351.317,119.154 244.843,119.154 244.843,121.958 242.49,121.958 242.49,130.37 244.843,130.37 244.843,133.175 351.317,133.175"/>
<polyline fill="none" stroke="#0000ff" stroke-width="0.5" stroke-linecap="butt" stroke-linejoin="round" points="299.257,124.762 299.257,127.566 296.903,127.566 296.903,124.762 299.257,124.762"/>
<polyline fill="none" stroke="#0000ff" stroke-width="0.5" stroke-linecap="butt" stroke-linejoin="round" points="351.317,119.154 351.317,116.349 353.67,116.349 353.67,107.937 351.317,107.937 351.317,105.133 244.843,105.133 244.843,107.937 242.49,107.937 242.49,116.349 244.843,116.349 244.843,119.154 351.317,119.154"/>
<polyline fill="none" stroke="#0000ff" stroke-width="0.5" stroke-linecap="butt" stroke-linejoin="round" points="299.257,110.741 299.257,113.545 296.903,113.545 296.903,110.741 299.257,110.741"/>
<polyline fill="none" stroke="#0000ff" stroke-width="0.5" stroke-linecap="butt" stroke-linejoin="round" points="351.317,105.133 351.317,102.328 353.67,102.328 353.67,93.9158 351.317,93.9158 351.317,91.1116 244.843,91.1116 244.843,93.9158 242.49,93.9158 242.49,102.328 244.843,102.328 244.843,105.133 351.317,105.133"/>
<polyline fill="none" stroke="#0000ff" stroke-width="0.5" stroke-linecap="butt" stroke-linejoin="round" points="299.257,96.72 299.257,99.5242 296.903,99.5242 296.903,96.72 299.257,96.72"/>
<polyline fill="none" stroke="#0000ff" stroke-width="0.5" stroke-linecap="butt" stroke-linejoin="round" points="351.317,91.1116 351.317,88.3074 353.67,88.3074 353.67,79.8948 351.317,79.8948 351.317,77.0906 244.843,77.0906 244.843,79.8948 242.49,79.8948 242.49,88.3074 244.843,88.3074 244.843,91.1116 351.317,91.1116"/>
<polyline fill="none" stroke="#0000ff" stroke-width="0.5" stroke-linecap="butt" stroke-linejoin="round" points="299.257,82.699 299.257,85.5032 296.903,85.5032 296.903,82.699 299.257,82.699"/>
<polyline fill="none" stroke="#0000ff" stroke-width="0.5" stroke-linecap="butt" stroke-linejoin="round" points="351.317,77.0906 351.317,74.2864 353.67,74.2864 353.67,65.8738 351.317,65.8738 351.317,63.0696 244.843,63.0696 244.843,65.8738 242.49,65.8738 242.49,74.2864 244.843,74.2864 244.843,77.0906 351.317,77.0906"/>
<polyline fill="none" stroke="#0000ff" stroke-width="0.5" stroke-linecap="butt" stroke-linejoin="round" points="299.257,68.678 299.257,71.4822 296.903,71.4822 296.903,68.678 299.257,68.678"/>
<polyline fill="none" stroke="#0000ff" stroke-width="0.5" stroke-linecap="butt" stroke-linejoin="round" points="351.317,63.0696 351.317,60.2654 353.67,60.2654 353.67,51.8529 351.317,51.8529 351.317,49.0487 244.843,49.0487 244.843,51.8529 242.49,51.8529 242.49,60.2654 244.843,60.2654 244.843,63.0696 351.317,63.0696"/>
<polyline fill="none" stroke="#0000ff" stroke-width="0.5" stroke-linecap="butt" stroke-linejoin="round" points="299.257,54.6571 299.257,57.4612 296.903,57.4612 296.903,54.6571 299.257,54.6571"/>
<polyline fill="none" stroke="#0000ff" stroke-width="0.5" stroke-linecap="butt" stroke-linejoin="round" points="341.311,237.311 343.715,221.786 346.041,222.146 348.445,206.621 346.12,206.261 348.524,190.735 350.85,191.095 353.254,175.57 350.928,175.21 245.232,175.21 242.906,175.57 245.31,191.095 247.636,190.735 250.04,206.261 247.715,206.621 250.119,222.146 252.445,221.786 254.849,237.311 254.849,237.311 272.141,237.311 272.141,239.665 289.434,239.665 289.434,237.311 306.726,237.311 306.726,239.665 324.018,239.665 324.018,237.311 341.311,237.311 341.311,237.311"/>
<polyline fill="none" stroke="#0000ff" stroke-width="0.5" stroke-linecap="butt" stroke-linejoin="round" points="254.849,305.73 252.445,321.255 250.119,320.895 247.715,336.42 250.04,336.781 247.636,352.306 245.31,351.946 242.906,367.471 245.232,367.831 350.928,367.831 353.254,367.471 350.85,351.946 348.524,352.306 346.12,336.781 348.445,336.42 346.041,320.895 343.715,321.255 341.311,305.73 341.311,305.73 324.018,305.73 324.018,303.376 306.726,303.376 306.726,305.73 289.434,305.73 289.434,303.376 272.141,303.376 272.141,305.73 254.849,305.73 254.849,305.73"/>
<polyline fill="none" stroke="#0000ff" stroke-width="0.5" stroke-linecap="butt" stroke-linejoin="round" points="343.692,303.355 343.38,305.688 358.951,307.773 359.264,305.441 374.835,307.526 374.523,309.859 390.094,311.944 390.406,309.612 405.978,311.697 405.978,231.344 390.406,233.429 390.094,231.097 374.523,233.182 374.835,235.515 359.264,237.6 358.951,235.268 343.38,237.353 343.692,239.686 343.692,239.686 343.692,252.42 341.339,252.42 341.339,265.154 343.692,265.154 343.692,277.888 341.339,277.888 341.339,290.621 343.692,290.621 343.692,303.355 343.692,303.355"/>
<polyline fill="none" stroke="#0000ff" stroke-width="0.5" stroke-linecap="butt" stroke-linejoin="round" points="252.468,239.686 252.78,237.353 237.209,235.268 236.896,237.6 221.325,235.515 221.637,233.182 206.066,231.097 205.753,233.429 190.182,231.344 190.182,311.697 205.753,309.612 206.066,311.944 221.637,309.859 221.325,307.526 236.896,305.441 237.209,307.773 252.78,305.688 252.468,303.355 252.468,303.355 252.468,290.621 254.821,290.621 254.821,277.888 252.468,277.888 252.468,265.154 254.821,265.154 254.821,252.42 252.468,252.42 252.468,239.686 252.468,239.686"/>
<polyline fill="none" stroke="#0000ff" stroke-width="0.5" stroke-linecap="butt" stroke-linejoin="round" points="343.692,305.73 343.692,303.376 343.692,290.634 341.339,290.634 341.339,277.892 343.692,277.892 343.692,265.149 341.339,265.149 341.339,252.407 343.692,252.407 343.692,239.665 343.692,237.311 341.339,237.311 324.035,237.311 324.035,239.665 306.732,239.665 306.732,237.311 289.428,237.311 289.428,239.665 272.125,239.665 272.125,237.311 254.821,237.311 252.468,237.311 252.468,239.665 252.468,252.407 254.821,252.407 254.821,265.149 252.468,265.149 252.468,277.892 254.821,277.892 254.821,290.634 252.468,290.634 252.468,303.376 252.468,305.73 254.821,305.73 272.125,305.73 272.125,303.376 289.428,303.376 289.428,305.73 306.732,305.73 306.732,303.376 324.035,303.376 324.035,305.73 341.339,305.73 343.692,305.73"/>
</g>
</g>
</svg>
