<?xml version="1.0" encoding="UTF-8" standalone="no"?>
<!-- Created with sK1/UniConvertor (http://sk1project.org/) -->

<svg
   xmlns:dc="http://purl.org/dc/elements/1.1/"
   xmlns:cc="http://creativecommons.org/ns#"
   xmlns:rdf="http://www.w3.org/1999/02/22-rdf-syntax-ns#"
   xmlns:svg="http://www.w3.org/2000/svg"
   xmlns="http://www.w3.org/2000/svg"
   xmlns:sodipodi="http://sodipodi.sourceforge.net/DTD/sodipodi-0.dtd"
   xmlns:inkscape="http://www.inkscape.org/namespaces/inkscape"
   width="92cm"
   height="69cm"
   viewBox="0 0 2607.8739 1955.9053"
   id="svg2"
   version="1.1"
   inkscape:version="0.91 r13725"
   sodipodi:docname="Treasure-Chest_quarter-inch_plywood.svg"
   style="fill-rule:evenodd">
  <metadata
     id="metadata266">
    <rdf:RDF>
      <cc:Work
         rdf:about="">
        <dc:format>image/svg+xml</dc:format>
        <dc:type
           rdf:resource="http://purl.org/dc/dcmitype/StillImage" />
        <dc:title></dc:title>
      </cc:Work>
    </rdf:RDF>
  </metadata>
  <defs
     id="defs264" />
  <sodipodi:namedview
     pagecolor="#ffffff"
     bordercolor="#666666"
     borderopacity="1"
     objecttolerance="10"
     gridtolerance="10"
     guidetolerance="10"
     inkscape:pageopacity="0"
     inkscape:pageshadow="2"
     inkscape:window-width="640"
     inkscape:window-height="480"
     id="namedview262"
     showgrid="false"
     units="cm"
     inkscape:current-layer="layer2"
     inkscape:document-units="cm" />
  <g
     id="g4"
     transform="translate(27.3094,-817.68479)">
    <path
       style="fill:none;stroke:#373531;stroke-width:1"
       d="m 2551.18,2542.68 -2551.180524,0 0,-1700.789 2551.180524,0 0,1700.789 z"
       id="path6"
       inkscape:connector-curvature="0" />
    <path
       style="fill:none;stroke:#373531;stroke-width:1"
       d="m 2571.59,2556.28 -2591.9994,0 0,-1727.997 2591.9994,0 0,1727.997 z"
       id="path8"
       inkscape:connector-curvature="0" />
    <g
       id="g10">
      <path
         style="fill:#373531;stroke:none"
         d="m -20.4094,2590.27 11.08836,0 0,19.95 20.44774,0 0,-19.95 11.0879,0 0,50.4 -11.0879,0 0,-20.23 -20.44774,0 0,20.23 -11.08836,0 0,-50.4 z"
         id="path12"
         inkscape:connector-curvature="0" />
      <path
         style="fill:#373531;stroke:none"
         d="m 66.905,2641.54 c -3.8877,0 -7.4643,-0.69 -10.728,-2.05 -3.2646,-1.37 -6.084,-3.22 -8.46,-5.55 -2.3759,-2.33 -4.2241,-5.06 -5.5439,-8.21 -1.3208,-3.14 -1.98,-6.51 -1.98,-10.11 l 0,-0.15 c 0,-3.6 0.6719,-6.97 2.0161,-10.11 1.3433,-3.15 3.2041,-5.91 5.5801,-8.28 2.376,-2.38 5.2075,-4.25 8.4961,-5.62 3.2871,-1.37 6.876,-2.05 10.7637,-2.05 3.8882,0 7.4634,0.68 10.728,2.05 3.2637,1.37 6.084,3.22 8.46,5.55 2.3759,2.32 4.2236,5.06 5.5439,8.2 1.3203,3.15 1.9805,6.52 1.9805,10.12 l 0,0.14 c 0,3.6 -0.6729,6.98 -2.0157,10.12 -1.3457,3.14 -3.205,5.9 -5.58,8.28 -2.377,2.38 -5.209,4.25 -8.4961,5.62 -3.2891,1.36 -6.8765,2.05 -10.7647,2.05 z m 0.1441,-10.23 c 2.2075,0 4.248,-0.4 6.1201,-1.22 1.8716,-0.82 3.4673,-1.94 4.7876,-3.38 1.3203,-1.44 2.3515,-3.11 3.0957,-5.01 0.7441,-1.89 1.1172,-3.92 1.1172,-6.08 l 0,-0.15 c 0,-2.16 -0.3731,-4.2 -1.1172,-6.12 -0.7442,-1.92 -1.7988,-3.6 -3.168,-5.04 -1.3672,-1.44 -2.9873,-2.58 -4.8594,-3.42 -1.872,-0.84 -3.9126,-1.26 -6.1201,-1.26 -2.2563,0 -4.3086,0.41 -6.1557,1.23 -1.8487,0.81 -3.4326,1.94 -4.752,3.38 -1.3208,1.44 -2.3525,3.11 -3.0962,5.01 -0.7446,1.89 -1.1157,3.92 -1.1157,6.08 l 0,0.14 c 0,2.16 0.3711,4.2 1.1157,6.12 0.7437,1.92 1.8003,3.6 3.168,5.04 1.3682,1.44 2.9756,2.58 4.8242,3.42 1.8472,0.84 3.8989,1.26 6.1558,1.26 z"
         id="path14"
         inkscape:connector-curvature="0" />
      <path
         style="fill:#373531;stroke:none"
         d="m 127.162,2600.5 -15.336,0 0,-10.23 41.76,0 0,10.23 -15.336,0 0,40.17 -11.088,0 0,-40.17 z"
         id="path16"
         inkscape:connector-curvature="0" />
      <path
         style="fill:#373531;stroke:none"
         d="m -20.2424,2669.69 20.592254,0 c 3.023926,0 5.723636,0.42 8.100096,1.26 2.37595,0.84 4.39165,2.03 6.04785,3.56 1.6558,1.54 2.9272,3.38 3.8159,5.51 0.8877,2.14 1.3321,4.5 1.3321,7.09 l 0,0.15 c 0,2.93 -0.5289,5.49 -1.584,7.7 -1.0567,2.21 -2.5088,4.06 -4.356,5.55 -1.8486,1.48 -4.00829,2.6 -6.47997,3.34 -2.47266,0.75 -5.12451,1.12 -7.956055,1.12 l -8.423825,0 0,15.12 -11.08835,0 0,-50.4 z m 19.872039,25.42 c 2.783201,0 4.943361,-0.74 6.479981,-2.2 1.53564,-1.46 2.3042,-3.28 2.3042,-5.44 l 0,-0.14 c 0,-2.5 -0.80469,-4.39 -2.41211,-5.69 -1.60889,-1.29 -3.80469,-1.94 -6.587892,-1.94 l -8.567868,0 0,15.41 8.783689,0 z"
         id="path18"
         inkscape:connector-curvature="0" />
      <path
         style="fill:#373531;stroke:none"
         d="m 113.758,2669.69 20.591,0 c 3.025,0 5.725,0.42 8.101,1.26 2.376,0.84 4.392,2.03 6.048,3.56 1.656,1.54 2.928,3.38 3.816,5.51 0.887,2.14 1.332,4.5 1.332,7.09 l 0,0.15 c 0,2.93 -0.529,5.49 -1.584,7.7 -1.056,2.21 -2.509,4.06 -4.356,5.55 -1.849,1.48 -4.009,2.6 -6.48,3.34 -2.472,0.75 -5.125,1.12 -7.957,1.12 l -8.424,0 0,15.12 -11.087,0 0,-50.4 z m 19.872,25.42 c 2.783,0 4.943,-0.74 6.479,-2.2 1.536,-1.46 2.305,-3.28 2.305,-5.44 l 0,-0.14 c 0,-2.5 -0.805,-4.39 -2.412,-5.69 -1.61,-1.29 -3.805,-1.94 -6.588,-1.94 l -8.569,0 0,15.41 8.785,0 z"
         id="path20"
         inkscape:connector-curvature="0" />
      <path
         style="fill:#373531;stroke:none"
         d="m 66.5706,2720.95 c -3.8877,0 -7.4644,-0.68 -10.7281,-2.05 -3.2646,-1.37 -6.084,-3.21 -8.4599,-5.54 -2.376,-2.33 -4.2242,-5.07 -5.544,-8.21 -1.3208,-3.14 -1.98,-6.52 -1.98,-10.12 l 0,-0.14 c 0,-3.6 0.6719,-6.97 2.0162,-10.12 1.3432,-3.14 3.2041,-5.9 5.58,-8.28 2.376,-2.37 5.2076,-4.24 8.4961,-5.61 3.2871,-1.37 6.876,-2.05 10.7637,-2.05 3.8882,0 7.4634,0.68 10.7285,2.05 3.2637,1.37 6.084,3.21 8.459,5.54 2.377,2.33 4.2236,5.07 5.5449,8.21 1.3194,3.14 1.9795,6.52 1.9795,10.12 l 0,0.14 c 0,3.6 -0.6728,6.97 -2.0156,10.12 -1.3447,3.14 -3.2041,5.9 -5.5801,8.28 -2.376,2.37 -5.209,4.24 -8.4961,5.61 -3.2886,1.37 -6.876,2.05 -10.7641,2.05 z m 0.144,-10.22 c 2.2075,0 4.248,-0.41 6.1201,-1.22 1.8721,-0.82 3.4678,-1.95 4.7881,-3.39 1.3193,-1.44 2.3516,-3.11 3.0957,-5 0.7441,-1.9 1.1162,-3.93 1.1162,-6.09 l 0,-0.14 c 0,-2.16 -0.3721,-4.2 -1.1162,-6.12 -0.7441,-1.92 -1.7998,-3.6 -3.168,-5.04 -1.3672,-1.44 -2.9882,-2.58 -4.8598,-3.42 -1.8721,-0.84 -3.9126,-1.26 -6.1201,-1.26 -2.2564,0 -4.3086,0.41 -6.1558,1.22 -1.8486,0.82 -3.4326,1.95 -4.752,3.39 -1.3208,1.44 -2.3525,3.11 -3.0961,5 -0.7447,1.9 -1.1158,3.93 -1.1158,6.09 l 0,0.14 c 0,2.16 0.3711,4.2 1.1158,6.12 0.7436,1.92 1.8002,3.6 3.1679,5.04 1.3682,1.44 2.9756,2.58 4.8242,3.42 1.8472,0.84 3.899,1.26 6.1558,1.26 z"
         id="path22"
         inkscape:connector-curvature="0" />
      <g
         id="g24">
        <path
           style="fill:#373531;stroke:none"
           d="m -20.3992,2748.5 12.79202,0 0,3.34 -9.09622,0 0,3.62 8.01614,0 0,3.34 -8.01614,0 0,6.5 -3.6958,0 0,-16.8 z"
           id="path26"
           inkscape:connector-curvature="0" />
        <path
           style="fill:#373531;stroke:none"
           d="m 10.0022,2748.38 3.4082,0 7.1997,16.92 -3.8638,0 -1.5361,-3.77 -7.104,0 -1.53564,3.77 -3.76807,0 7.19971,-16.92 z m 3.8882,9.89 -2.232,-5.45 -2.23189,5.45 4.46389,0 z"
           id="path28"
           inkscape:connector-curvature="0" />
        <path
           style="fill:#373531;stroke:none"
           d="m 39.9724,2765.59 c -1.2324,0 -2.376,-0.22 -3.4321,-0.67 -1.0562,-0.45 -1.9683,-1.06 -2.7359,-1.84 -0.768,-0.77 -1.3681,-1.69 -1.8002,-2.75 -0.4322,-1.05 -0.648,-2.18 -0.648,-3.38 l 0,-0.05 c 0,-1.2 0.2158,-2.32 0.648,-3.37 0.4321,-1.05 1.0322,-1.97 1.8002,-2.76 0.7676,-0.79 1.6875,-1.42 2.7598,-1.87 1.0718,-0.46 2.2559,-0.69 3.5523,-0.69 0.7836,0 1.5,0.07 2.1479,0.2 0.648,0.12 1.2358,0.3 1.7637,0.52 0.5283,0.23 1.0161,0.5 1.4643,0.82 0.4478,0.32 0.8638,0.67 1.2476,1.06 l -2.3516,2.71 c -0.6562,-0.59 -1.3242,-1.06 -2.0044,-1.39 -0.6801,-0.34 -1.4438,-0.51 -2.292,-0.51 -0.7041,0 -1.3559,0.14 -1.956,0.41 -0.5996,0.27 -1.1157,0.65 -1.5479,1.13 -0.4321,0.48 -0.768,1.03 -1.0078,1.67 -0.2402,0.63 -0.3598,1.3 -0.3598,2.02 l 0,0.05 c 0,0.72 0.1196,1.4 0.3598,2.04 0.2398,0.64 0.5718,1.2 0.9961,1.68 0.4234,0.48 0.9361,0.86 1.5357,1.14 0.6001,0.28 1.2602,0.42 1.9799,0.42 0.96,0 1.772,-0.17 2.4361,-0.53 0.664,-0.35 1.3237,-0.83 1.98,-1.44 l 2.352,2.38 c -0.4316,0.46 -0.8799,0.88 -1.3437,1.25 -0.4644,0.37 -0.9722,0.68 -1.524,0.95 -0.5522,0.26 -1.1562,0.46 -1.812,0.6 -0.6562,0.13 -1.3921,0.2 -2.208,0.2 z"
           id="path30"
           inkscape:connector-curvature="0" />
        <path
           style="fill:#373531;stroke:none"
           d="m 62.6223,2751.91 -5.1123,0 0,-3.41 13.9199,0 0,3.41 -5.1118,0 0,13.39 -3.6958,0 0,-13.39 z"
           id="path32"
           inkscape:connector-curvature="0" />
        <path
           style="fill:#373531;stroke:none"
           d="m 91.3191,2765.59 c -1.2959,0 -2.4883,-0.23 -3.5762,-0.68 -1.0879,-0.46 -2.0273,-1.08 -2.8193,-1.85 -0.792,-0.78 -1.4082,-1.69 -1.8486,-2.74 -0.4395,-1.05 -0.6592,-2.17 -0.6592,-3.37 l 0,-0.05 c 0,-1.2 0.2236,-2.32 0.6718,-3.37 0.4473,-1.05 1.0674,-1.97 1.8594,-2.76 0.792,-0.79 1.7363,-1.42 2.8321,-1.87 1.0957,-0.46 2.2919,-0.69 3.5878,-0.69 1.2959,0 2.4883,0.23 3.5762,0.69 1.0879,0.45 2.0283,1.07 2.8203,1.85 0.792,0.77 1.4073,1.68 1.8477,2.73 0.4399,1.05 0.6599,2.17 0.6599,3.37 l 0,0.05 c 0,1.2 -0.224,2.33 -0.6716,3.37 -0.4483,1.05 -1.0684,1.97 -1.8604,2.76 -0.792,0.8 -1.7363,1.42 -2.832,1.88 -1.0957,0.45 -2.292,0.68 -3.5879,0.68 z m 0.0478,-3.41 c 0.7364,0 1.4161,-0.13 2.0401,-0.41 0.624,-0.27 1.1562,-0.64 1.5967,-1.12 0.4394,-0.48 0.7832,-1.04 1.0312,-1.67 0.2481,-0.63 0.3721,-1.31 0.3721,-2.03 l 0,-0.05 c 0,-0.72 -0.124,-1.4 -0.3721,-2.04 -0.248,-0.64 -0.5996,-1.2 -1.0557,-1.68 -0.456,-0.48 -0.996,-0.86 -1.6201,-1.14 -0.624,-0.28 -1.3037,-0.42 -2.04,-0.42 -0.752,0 -1.4356,0.14 -2.0518,0.41 -0.6162,0.27 -1.1445,0.65 -1.584,1.13 -0.4404,0.48 -0.7841,1.03 -1.0322,1.67 -0.248,0.63 -0.372,1.3 -0.372,2.02 l 0,0.05 c 0,0.72 0.124,1.4 0.372,2.04 0.2481,0.64 0.6006,1.2 1.0567,1.68 0.455,0.48 0.9912,0.86 1.6074,1.14 0.6162,0.28 1.2998,0.42 2.0517,0.42 z"
           id="path34"
           inkscape:connector-curvature="0" />
        <path
           style="fill:#373531;stroke:none"
           d="m 112.457,2748.5 7.68,0 c 2.128,0 3.76,0.57 4.896,1.71 0.96,0.96 1.44,2.24 1.44,3.84 l 0,0.04 c 0,1.36 -0.332,2.47 -0.996,3.33 -0.664,0.85 -1.532,1.48 -2.604,1.88 l 4.104,6 -4.32,0 -3.6,-5.37 -0.048,0 -2.856,0 0,5.37 -3.696,0 0,-16.8 z m 7.44,8.16 c 0.912,0 1.611,-0.21 2.1,-0.65 0.488,-0.43 0.732,-1 0.732,-1.72 l 0,-0.05 c 0,-0.8 -0.256,-1.4 -0.768,-1.8 -0.512,-0.4 -1.224,-0.6 -2.136,-0.6 l -3.672,0 0,4.82 3.744,0 z"
           id="path36"
           inkscape:connector-curvature="0" />
        <path
           style="fill:#373531;stroke:none"
           d="m 143.435,2758.68 -6.456,-10.18 4.321,0 4.007,6.75 4.08,-6.75 4.201,0 -6.456,10.11 0,6.69 -3.697,0 0,-6.62 z"
           id="path38"
           inkscape:connector-curvature="0" />
      </g>
    </g>
    <g
       id="g40">
      <path
         style="fill:#373531;stroke:none"
         d="m 2230.43,2590.99 2.93,0 0,14.14 8.83,0 0,2.66 -11.76,0 0,-16.8 z"
         id="path42"
         inkscape:connector-curvature="0" />
      <path
         style="fill:#373531;stroke:none"
         d="m 2251.24,2590.87 2.74,0 7.39,16.92 -3.12,0 -1.7,-4.05 -7.95,0 -1.73,4.05 -3.02,0 7.39,-16.92 z m 4.23,10.25 -2.91,-6.72 -2.88,6.72 5.79,0 z"
         id="path44"
         inkscape:connector-curvature="0" />
      <path
         style="fill:#373531;stroke:none"
         d="m 2270.15,2608.03 c -1.29,0 -2.53,-0.22 -3.72,-0.66 -1.18,-0.44 -2.28,-1.11 -3.28,-2.03 l 1.77,-2.11 c 0.82,0.71 1.64,1.25 2.47,1.62 0.84,0.38 1.78,0.57 2.84,0.57 0.91,0 1.63,-0.2 2.17,-0.58 0.53,-0.38 0.8,-0.89 0.8,-1.54 l 0,-0.04 c 0,-0.31 -0.05,-0.57 -0.15,-0.81 -0.11,-0.23 -0.3,-0.45 -0.58,-0.66 -0.28,-0.21 -0.67,-0.4 -1.16,-0.57 -0.49,-0.18 -1.12,-0.35 -1.91,-0.53 -0.9,-0.21 -1.7,-0.44 -2.39,-0.71 -0.7,-0.26 -1.29,-0.58 -1.76,-0.96 -0.47,-0.37 -0.83,-0.83 -1.08,-1.38 -0.25,-0.54 -0.38,-1.2 -0.38,-1.97 l 0,-0.05 c 0,-0.71 0.15,-1.37 0.43,-1.98 0.29,-0.6 0.68,-1.11 1.18,-1.53 0.5,-0.42 1.1,-0.76 1.8,-1 0.71,-0.24 1.47,-0.36 2.31,-0.36 1.23,0 2.34,0.18 3.32,0.54 0.98,0.36 1.91,0.89 2.77,1.58 l -1.58,2.23 c -0.77,-0.56 -1.53,-0.99 -2.28,-1.29 -0.75,-0.29 -1.51,-0.44 -2.28,-0.44 -0.87,0 -1.54,0.19 -2.02,0.58 -0.48,0.38 -0.72,0.85 -0.72,1.41 l 0,0.05 c 0,0.32 0.06,0.6 0.17,0.85 0.11,0.25 0.32,0.47 0.61,0.67 0.3,0.2 0.71,0.39 1.23,0.57 0.52,0.17 1.18,0.36 1.99,0.55 0.88,0.22 1.66,0.47 2.34,0.74 0.68,0.28 1.25,0.61 1.7,1 0.45,0.39 0.79,0.85 1.02,1.37 0.23,0.52 0.35,1.12 0.35,1.81 l 0,0.05 c 0,0.78 -0.15,1.48 -0.44,2.11 -0.29,0.62 -0.7,1.15 -1.23,1.58 -0.52,0.43 -1.15,0.76 -1.88,0.99 -0.74,0.22 -1.55,0.33 -2.43,0.33 z"
         id="path46"
         inkscape:connector-curvature="0" />
      <path
         style="fill:#373531;stroke:none"
         d="m 2279.61,2590.99 12.43,0 0,2.67 -9.5,0 0,4.32 8.42,0 0,2.66 -8.42,0 0,4.49 9.62,0 0,2.66 -12.55,0 0,-16.8 z"
         id="path48"
         inkscape:connector-curvature="0" />
      <path
         style="fill:#373531;stroke:none"
         d="m 2295.69,2590.99 7.49,0 c 1.05,0 1.99,0.15 2.81,0.45 0.81,0.29 1.49,0.7 2.04,1.23 0.44,0.47 0.79,1 1.03,1.61 0.24,0.61 0.36,1.28 0.36,2.02 l 0,0.04 c 0,0.69 -0.1,1.31 -0.3,1.87 -0.2,0.55 -0.48,1.04 -0.83,1.46 -0.35,0.42 -0.77,0.78 -1.26,1.08 -0.49,0.29 -1.03,0.52 -1.62,0.68 l 4.54,6.36 -3.48,0 -4.14,-5.85 -0.05,0 -3.66,0 0,5.85 -2.93,0 0,-16.8 z m 7.26,8.33 c 1.06,0 1.9,-0.25 2.53,-0.76 0.63,-0.5 0.94,-1.19 0.94,-2.06 l 0,-0.05 c 0,-0.91 -0.31,-1.61 -0.92,-2.08 -0.61,-0.48 -1.46,-0.71 -2.57,-0.71 l -4.31,0 0,5.66 4.33,0 z"
         id="path50"
         inkscape:connector-curvature="0" />
      <path
         style="fill:#373531;stroke:none"
         d="m 2328.07,2608.08 c -1.24,0 -2.37,-0.22 -3.41,-0.67 -1.04,-0.45 -1.95,-1.06 -2.71,-1.84 -0.76,-0.77 -1.37,-1.69 -1.8,-2.74 -0.44,-1.06 -0.65,-2.19 -0.65,-3.39 l 0,-0.05 c 0,-1.2 0.21,-2.32 0.64,-3.37 0.43,-1.05 1.03,-1.97 1.8,-2.76 0.77,-0.79 1.68,-1.42 2.74,-1.87 1.06,-0.46 2.23,-0.68 3.5,-0.68 0.77,0 1.47,0.06 2.11,0.19 0.63,0.13 1.21,0.31 1.74,0.54 0.52,0.23 1.01,0.51 1.46,0.82 0.45,0.32 0.87,0.68 1.27,1.06 l -1.89,2.18 c -0.68,-0.62 -1.39,-1.12 -2.14,-1.51 -0.75,-0.38 -1.61,-0.57 -2.57,-0.57 -0.8,0 -1.54,0.15 -2.22,0.46 -0.68,0.32 -1.27,0.74 -1.76,1.28 -0.5,0.53 -0.88,1.16 -1.15,1.88 -0.28,0.72 -0.41,1.49 -0.41,2.3 l 0,0.05 c 0,0.82 0.13,1.59 0.41,2.32 0.27,0.73 0.65,1.36 1.15,1.91 0.49,0.54 1.08,0.97 1.76,1.28 0.68,0.31 1.42,0.47 2.22,0.47 1.02,0 1.9,-0.2 2.64,-0.59 0.74,-0.39 1.46,-0.92 2.19,-1.6 l 1.89,1.92 c -0.43,0.47 -0.88,0.88 -1.35,1.24 -0.48,0.36 -0.99,0.67 -1.53,0.94 -0.54,0.26 -1.14,0.46 -1.79,0.6 -0.64,0.13 -1.36,0.2 -2.14,0.2 z"
         id="path52"
         inkscape:connector-curvature="0" />
      <path
         style="fill:#373531;stroke:none"
         d="m 2344.84,2608.06 c -1.09,0 -2.07,-0.16 -2.95,-0.47 -0.88,-0.31 -1.63,-0.78 -2.26,-1.41 -0.62,-0.62 -1.1,-1.39 -1.44,-2.31 -0.33,-0.92 -0.5,-1.99 -0.5,-3.2 l 0,-9.68 2.93,0 0,9.55 c 0,1.57 0.38,2.76 1.13,3.58 0.76,0.82 1.8,1.22 3.14,1.22 1.32,0 2.36,-0.39 3.11,-1.17 0.76,-0.79 1.14,-1.95 1.14,-3.5 l 0,-9.68 2.93,0 0,9.53 c 0,1.25 -0.18,2.35 -0.52,3.29 -0.34,0.94 -0.83,1.73 -1.45,2.36 -0.63,0.64 -1.38,1.11 -2.27,1.42 -0.89,0.31 -1.88,0.47 -2.99,0.47 z"
         id="path54"
         inkscape:connector-curvature="0" />
      <path
         style="fill:#373531;stroke:none"
         d="m 2360.25,2593.73 -5.33,0 0,-2.74 13.63,0 0,2.74 -5.33,0 0,14.06 -2.97,0 0,-14.06 z"
         id="path56"
         inkscape:connector-curvature="0" />
      <path
         style="fill:#373531;stroke:none"
         d="m 2375.8,2593.73 -5.33,0 0,-2.74 13.63,0 0,2.74 -5.32,0 0,14.06 -2.98,0 0,-14.06 z"
         id="path58"
         inkscape:connector-curvature="0" />
      <path
         style="fill:#373531;stroke:none"
         d="m 2387.39,2590.99 2.93,0 0,16.8 -2.93,0 0,-16.8 z"
         id="path60"
         inkscape:connector-curvature="0" />
      <path
         style="fill:#373531;stroke:none"
         d="m 2394.83,2590.99 2.73,0 8.98,11.62 0,-11.62 2.93,0 0,16.8 -2.47,0 -9.24,-11.95 0,11.95 -2.93,0 0,-16.8 z"
         id="path62"
         inkscape:connector-curvature="0" />
      <path
         style="fill:#373531;stroke:none"
         d="m 2421.76,2608.08 c -1.31,0 -2.5,-0.22 -3.58,-0.66 -1.07,-0.44 -1.98,-1.05 -2.74,-1.82 -0.76,-0.78 -1.35,-1.69 -1.77,-2.74 -0.41,-1.05 -0.62,-2.19 -0.62,-3.42 l 0,-0.05 c 0,-1.16 0.21,-2.28 0.64,-3.33 0.43,-1.06 1.03,-1.98 1.8,-2.77 0.77,-0.8 1.69,-1.42 2.75,-1.89 1.07,-0.46 2.23,-0.69 3.5,-0.69 0.73,0 1.4,0.05 2,0.15 0.6,0.1 1.16,0.25 1.67,0.44 0.51,0.2 0.99,0.43 1.45,0.71 0.46,0.28 0.9,0.61 1.33,0.98 l -1.87,2.23 c -0.32,-0.27 -0.65,-0.52 -0.98,-0.75 -0.34,-0.22 -0.69,-0.41 -1.06,-0.56 -0.37,-0.15 -0.77,-0.27 -1.21,-0.36 -0.44,-0.09 -0.93,-0.13 -1.45,-0.13 -0.77,0 -1.49,0.16 -2.15,0.48 -0.67,0.32 -1.24,0.75 -1.73,1.28 -0.49,0.54 -0.87,1.17 -1.15,1.89 -0.28,0.72 -0.42,1.49 -0.42,2.29 l 0,0.05 c 0,0.86 0.13,1.66 0.41,2.4 0.27,0.74 0.65,1.37 1.16,1.9 0.5,0.53 1.1,0.95 1.79,1.25 0.7,0.3 1.47,0.46 2.34,0.46 0.79,0 1.54,-0.12 2.23,-0.35 0.7,-0.24 1.3,-0.55 1.81,-0.93 l 0,-3.16 -4.29,0 0,-2.57 7.15,0 0,7.05 c -0.42,0.36 -0.88,0.69 -1.38,1.01 -0.51,0.32 -1.05,0.6 -1.63,0.84 -0.59,0.24 -1.22,0.43 -1.89,0.57 -0.67,0.13 -1.37,0.2 -2.11,0.2 z"
         id="path64"
         inkscape:connector-curvature="0" />
      <path
         style="fill:#373531;stroke:none"
         d="m 2443.94,2593.73 -5.33,0 0,-2.74 13.63,0 0,2.74 -5.33,0 0,14.06 -2.97,0 0,-14.06 z"
         id="path66"
         inkscape:connector-curvature="0" />
      <path
         style="fill:#373531;stroke:none"
         d="m 2455.36,2590.99 12.43,0 0,2.67 -9.5,0 0,4.32 8.42,0 0,2.66 -8.42,0 0,4.49 9.62,0 0,2.66 -12.55,0 0,-16.8 z"
         id="path68"
         inkscape:connector-curvature="0" />
      <path
         style="fill:#373531;stroke:none"
         d="m 2471.44,2590.99 3.14,0 5.12,7.95 5.11,-7.95 3.14,0 0,16.8 -2.93,0 0,-12.04 -5.3,7.92 -0.1,0 -5.25,-7.88 0,12 -2.93,0 0,-16.8 z"
         id="path70"
         inkscape:connector-curvature="0" />
      <path
         style="fill:#373531;stroke:none"
         d="m 2492.27,2590.99 6.63,0 c 0.97,0 1.85,0.13 2.65,0.4 0.79,0.26 1.46,0.64 2.01,1.14 0.56,0.5 0.98,1.09 1.27,1.77 0.3,0.69 0.45,1.46 0.45,2.31 l 0,0.05 c 0,0.94 -0.18,1.77 -0.53,2.48 -0.35,0.71 -0.83,1.31 -1.44,1.79 -0.61,0.48 -1.33,0.84 -2.14,1.09 -0.82,0.25 -1.7,0.37 -2.63,0.37 l -3.34,0 0,5.4 -2.93,0 0,-16.8 z m 6.37,8.74 c 1.13,0 2.01,-0.28 2.66,-0.84 0.65,-0.57 0.98,-1.29 0.98,-2.17 l 0,-0.05 c 0,-1 -0.33,-1.75 -0.99,-2.25 -0.66,-0.51 -1.54,-0.76 -2.65,-0.76 l -3.44,0 0,6.07 3.44,0 z"
         id="path72"
         inkscape:connector-curvature="0" />
      <path
         style="fill:#373531;stroke:none"
         d="m 2508.3,2590.99 2.93,0 0,14.14 8.83,0 0,2.66 -11.76,0 0,-16.8 z"
         id="path74"
         inkscape:connector-curvature="0" />
      <path
         style="fill:#373531;stroke:none"
         d="m 2529.11,2590.87 2.74,0 7.39,16.92 -3.12,0 -1.7,-4.05 -7.95,0 -1.73,4.05 -3.02,0 7.39,-16.92 z m 4.22,10.25 -2.9,-6.72 -2.88,6.72 5.78,0 z"
         id="path76"
         inkscape:connector-curvature="0" />
      <path
         style="fill:#373531;stroke:none"
         d="m 2546.25,2593.73 -5.33,0 0,-2.74 13.63,0 0,2.74 -5.33,0 0,14.06 -2.97,0 0,-14.06 z"
         id="path78"
         inkscape:connector-curvature="0" />
      <path
         style="fill:#373531;stroke:none"
         d="m 2557.67,2590.99 12.43,0 0,2.67 -9.5,0 0,4.32 8.42,0 0,2.66 -8.42,0 0,4.49 9.62,0 0,2.66 -12.55,0 0,-16.8 z"
         id="path80"
         inkscape:connector-curvature="0" />
      <path
         style="fill:#373531;stroke:none"
         d="m 2304.95,2619.67 2.74,0 7.39,16.92 -3.12,0 -1.7,-4.05 -7.95,0 -1.72,4.05 -3.03,0 7.39,-16.92 z m 4.23,10.25 -2.91,-6.72 -2.88,6.72 5.79,0 z"
         id="path82"
         inkscape:connector-curvature="0" />
      <path
         style="fill:#373531;stroke:none"
         d="m 2317.96,2619.79 6.27,0 c 1.31,0 2.51,0.22 3.61,0.64 1.09,0.42 2.04,1.01 2.83,1.76 0.79,0.76 1.4,1.64 1.84,2.66 0.43,1.01 0.64,2.11 0.64,3.3 l 0,0.04 c 0,1.19 -0.21,2.29 -0.64,3.32 -0.44,1.02 -1.05,1.91 -1.84,2.66 -0.79,0.75 -1.74,1.34 -2.83,1.78 -1.1,0.43 -2.3,0.64 -3.61,0.64 l -6.27,0 0,-16.8 z m 6.24,14.14 c 0.88,0 1.68,-0.14 2.4,-0.42 0.72,-0.28 1.33,-0.68 1.84,-1.18 0.5,-0.51 0.89,-1.11 1.17,-1.81 0.28,-0.7 0.42,-1.46 0.42,-2.28 l 0,-0.05 c 0,-0.82 -0.14,-1.58 -0.42,-2.29 -0.28,-0.7 -0.67,-1.31 -1.17,-1.82 -0.51,-0.5 -1.12,-0.9 -1.84,-1.19 -0.72,-0.29 -1.52,-0.43 -2.4,-0.43 l -3.31,0 0,11.47 3.31,0 z"
         id="path84"
         inkscape:connector-curvature="0" />
      <path
         style="fill:#373531;stroke:none"
         d="m 2344.75,2636.88 c -1.3,0 -2.49,-0.23 -3.56,-0.68 -1.07,-0.46 -1.99,-1.08 -2.76,-1.86 -0.76,-0.79 -1.36,-1.7 -1.8,-2.75 -0.43,-1.05 -0.64,-2.16 -0.64,-3.35 l 0,-0.05 c 0,-1.18 0.21,-2.3 0.64,-3.34 0.44,-1.05 1.04,-1.97 1.83,-2.76 0.78,-0.8 1.71,-1.42 2.78,-1.89 1.07,-0.46 2.26,-0.69 3.55,-0.69 1.3,0 2.48,0.22 3.56,0.68 1.07,0.46 1.99,1.08 2.76,1.86 0.76,0.78 1.36,1.7 1.8,2.75 0.43,1.05 0.64,2.16 0.64,3.35 l 0,0.04 c 0,1.19 -0.21,2.3 -0.64,3.35 -0.44,1.05 -1.04,1.97 -1.83,2.76 -0.78,0.79 -1.71,1.42 -2.78,1.89 -1.07,0.46 -2.26,0.69 -3.55,0.69 z m 0.04,-2.71 c 0.83,0 1.59,-0.16 2.29,-0.47 0.69,-0.31 1.28,-0.73 1.78,-1.27 0.49,-0.54 0.88,-1.16 1.15,-1.88 0.28,-0.72 0.42,-1.49 0.42,-2.31 l 0,-0.05 c 0,-0.81 -0.14,-1.58 -0.42,-2.31 -0.27,-0.73 -0.66,-1.36 -1.17,-1.9 -0.5,-0.53 -1.1,-0.96 -1.8,-1.28 -0.7,-0.32 -1.47,-0.48 -2.29,-0.48 -0.83,0 -1.59,0.15 -2.29,0.47 -0.69,0.31 -1.28,0.73 -1.78,1.27 -0.49,0.53 -0.88,1.16 -1.16,1.88 -0.28,0.72 -0.41,1.49 -0.41,2.31 l 0,0.04 c 0,0.82 0.13,1.59 0.41,2.32 0.28,0.73 0.67,1.36 1.17,1.9 0.51,0.53 1.11,0.96 1.81,1.28 0.7,0.32 1.46,0.48 2.29,0.48 z"
         id="path86"
         inkscape:connector-curvature="0" />
      <path
         style="fill:#373531;stroke:none"
         d="m 2357.13,2619.79 7.52,0 c 1.93,0 3.39,0.5 4.39,1.49 0.75,0.75 1.12,1.68 1.12,2.79 l 0,0.04 c 0,0.52 -0.07,0.97 -0.2,1.36 -0.14,0.39 -0.31,0.74 -0.53,1.03 -0.21,0.3 -0.46,0.56 -0.76,0.78 -0.29,0.23 -0.59,0.42 -0.89,0.58 0.49,0.17 0.94,0.38 1.35,0.61 0.4,0.23 0.75,0.51 1.05,0.83 0.29,0.32 0.52,0.69 0.68,1.13 0.16,0.43 0.24,0.93 0.24,1.51 l 0,0.05 c 0,0.75 -0.15,1.41 -0.45,1.99 -0.29,0.57 -0.71,1.05 -1.25,1.44 -0.55,0.38 -1.2,0.67 -1.97,0.87 -0.77,0.2 -1.61,0.3 -2.54,0.3 l -7.76,0 0,-16.8 z m 6.95,7.08 c 0.95,0 1.72,-0.18 2.29,-0.56 0.58,-0.38 0.86,-0.95 0.86,-1.72 l 0,-0.04 c 0,-0.68 -0.25,-1.2 -0.75,-1.58 -0.5,-0.37 -1.23,-0.56 -2.19,-0.56 l -4.23,0 0,4.46 4.02,0 z m 0.86,7.11 c 1,0 1.79,-0.19 2.37,-0.58 0.57,-0.38 0.86,-0.96 0.86,-1.73 l 0,-0.04 c 0,-0.72 -0.29,-1.28 -0.85,-1.67 -0.57,-0.39 -1.43,-0.59 -2.6,-0.59 l -4.66,0 0,4.61 4.88,0 z"
         id="path88"
         inkscape:connector-curvature="0" />
      <path
         style="fill:#373531;stroke:none"
         d="m 2374.46,2619.79 12.43,0 0,2.67 -9.51,0 0,4.32 8.43,0 0,2.66 -8.43,0 0,4.49 9.63,0 0,2.66 -12.55,0 0,-16.8 z"
         id="path90"
         inkscape:connector-curvature="0" />
      <path
         style="fill:#373531;stroke:none"
         d="m 2397.9,2619.79 2.93,0 0,16.8 -2.93,0 0,-16.8 z"
         id="path92"
         inkscape:connector-curvature="0" />
      <path
         style="fill:#373531;stroke:none"
         d="m 2405.34,2619.79 2.93,0 0,14.14 8.83,0 0,2.66 -11.76,0 0,-16.8 z"
         id="path94"
         inkscape:connector-curvature="0" />
      <path
         style="fill:#373531;stroke:none"
         d="m 2420.2,2619.79 2.93,0 0,14.14 8.83,0 0,2.66 -11.76,0 0,-16.8 z"
         id="path96"
         inkscape:connector-curvature="0" />
      <path
         style="fill:#373531;stroke:none"
         d="m 2441.94,2636.86 c -1.09,0 -2.07,-0.16 -2.95,-0.47 -0.88,-0.31 -1.63,-0.78 -2.26,-1.4 -0.62,-0.63 -1.1,-1.4 -1.44,-2.32 -0.33,-0.92 -0.5,-1.99 -0.5,-3.2 l 0,-9.68 2.93,0 0,9.56 c 0,1.56 0.38,2.76 1.13,3.57 0.76,0.82 1.8,1.23 3.14,1.23 1.32,0 2.36,-0.4 3.11,-1.18 0.76,-0.78 1.14,-1.95 1.14,-3.5 l 0,-9.68 2.93,0 0,9.53 c 0,1.25 -0.18,2.35 -0.52,3.29 -0.34,0.94 -0.83,1.73 -1.45,2.36 -0.63,0.64 -1.38,1.11 -2.27,1.42 -0.89,0.31 -1.88,0.47 -2.99,0.47 z"
         id="path98"
         inkscape:connector-curvature="0" />
      <path
         style="fill:#373531;stroke:none"
         d="m 2459.13,2636.83 c -1.3,0 -2.54,-0.22 -3.72,-0.66 -1.19,-0.44 -2.28,-1.11 -3.29,-2.02 l 1.77,-2.12 c 0.82,0.71 1.64,1.25 2.48,1.62 0.83,0.38 1.77,0.57 2.83,0.57 0.91,0 1.63,-0.19 2.17,-0.58 0.54,-0.38 0.8,-0.89 0.8,-1.53 l 0,-0.05 c 0,-0.31 -0.05,-0.57 -0.15,-0.81 -0.11,-0.23 -0.3,-0.45 -0.58,-0.66 -0.28,-0.2 -0.67,-0.4 -1.16,-0.57 -0.49,-0.18 -1.12,-0.35 -1.91,-0.53 -0.9,-0.21 -1.7,-0.44 -2.39,-0.71 -0.7,-0.26 -1.29,-0.58 -1.76,-0.96 -0.47,-0.37 -0.83,-0.83 -1.08,-1.38 -0.25,-0.54 -0.37,-1.2 -0.37,-1.97 l 0,-0.04 c 0,-0.72 0.14,-1.38 0.42,-1.98 0.29,-0.6 0.68,-1.12 1.18,-1.54 0.5,-0.42 1.1,-0.76 1.81,-1 0.7,-0.24 1.47,-0.36 2.3,-0.36 1.23,0 2.34,0.18 3.32,0.54 0.99,0.36 1.91,0.89 2.77,1.58 l -1.58,2.23 c -0.77,-0.56 -1.53,-0.99 -2.28,-1.29 -0.75,-0.29 -1.51,-0.44 -2.28,-0.44 -0.86,0 -1.54,0.19 -2.02,0.58 -0.48,0.38 -0.72,0.85 -0.72,1.41 l 0,0.05 c 0,0.32 0.06,0.6 0.17,0.85 0.11,0.25 0.32,0.47 0.62,0.67 0.29,0.2 0.7,0.39 1.22,0.57 0.52,0.17 1.19,0.36 1.99,0.55 0.88,0.22 1.66,0.47 2.34,0.74 0.69,0.28 1.25,0.61 1.7,1 0.45,0.39 0.79,0.85 1.02,1.37 0.24,0.52 0.35,1.12 0.35,1.81 l 0,0.05 c 0,0.78 -0.15,1.49 -0.44,2.11 -0.29,0.62 -0.7,1.15 -1.23,1.58 -0.52,0.44 -1.15,0.76 -1.88,0.99 -0.74,0.22 -1.55,0.33 -2.42,0.33 z"
         id="path100"
         inkscape:connector-curvature="0" />
      <path
         style="fill:#373531;stroke:none"
         d="m 2472.71,2622.53 -5.33,0 0,-2.74 13.63,0 0,2.74 -5.32,0 0,14.06 -2.98,0 0,-14.06 z"
         id="path102"
         inkscape:connector-curvature="0" />
      <path
         style="fill:#373531;stroke:none"
         d="m 2484.13,2619.79 7.49,0 c 1.06,0 1.99,0.15 2.81,0.45 0.82,0.29 1.5,0.71 2.04,1.23 0.45,0.47 0.79,1 1.03,1.61 0.24,0.61 0.36,1.28 0.36,2.02 l 0,0.05 c 0,0.68 -0.1,1.3 -0.3,1.86 -0.2,0.55 -0.48,1.04 -0.83,1.46 -0.35,0.42 -0.77,0.78 -1.26,1.08 -0.48,0.3 -1.02,0.52 -1.62,0.68 l 4.54,6.36 -3.48,0 -4.14,-5.85 -0.05,0 -3.66,0 0,5.85 -2.93,0 0,-16.8 z m 7.27,8.33 c 1.05,0 1.9,-0.25 2.52,-0.76 0.63,-0.5 0.94,-1.19 0.94,-2.06 l 0,-0.05 c 0,-0.91 -0.3,-1.61 -0.91,-2.08 -0.61,-0.48 -1.47,-0.71 -2.58,-0.71 l -4.31,0 0,5.66 4.34,0 z"
         id="path104"
         inkscape:connector-curvature="0" />
      <path
         style="fill:#373531;stroke:none"
         d="m 2507.44,2619.67 2.73,0 7.4,16.92 -3.12,0 -1.71,-4.05 -7.94,0 -1.73,4.05 -3.03,0 7.4,-16.92 z m 4.22,10.25 -2.9,-6.72 -2.88,6.72 5.78,0 z"
         id="path106"
         inkscape:connector-curvature="0" />
      <path
         style="fill:#373531;stroke:none"
         d="m 2524.57,2622.53 -5.32,0 0,-2.74 13.63,0 0,2.74 -5.33,0 0,14.06 -2.98,0 0,-14.06 z"
         id="path108"
         inkscape:connector-curvature="0" />
      <path
         style="fill:#373531;stroke:none"
         d="m 2544.01,2636.88 c -1.29,0 -2.48,-0.23 -3.55,-0.68 -1.07,-0.46 -1.99,-1.08 -2.76,-1.86 -0.77,-0.79 -1.37,-1.7 -1.8,-2.75 -0.43,-1.05 -0.65,-2.16 -0.65,-3.35 l 0,-0.05 c 0,-1.18 0.22,-2.3 0.65,-3.34 0.43,-1.05 1.04,-1.97 1.82,-2.76 0.79,-0.8 1.72,-1.42 2.79,-1.89 1.07,-0.46 2.25,-0.69 3.55,-0.69 1.3,0 2.48,0.22 3.55,0.68 1.07,0.46 1.99,1.08 2.76,1.86 0.77,0.78 1.37,1.7 1.8,2.75 0.43,1.05 0.65,2.16 0.65,3.35 l 0,0.04 c 0,1.19 -0.22,2.3 -0.65,3.35 -0.43,1.05 -1.04,1.97 -1.82,2.76 -0.79,0.79 -1.71,1.42 -2.79,1.89 -1.07,0.46 -2.25,0.69 -3.55,0.69 z m 0.05,-2.71 c 0.83,0 1.59,-0.16 2.28,-0.47 0.7,-0.31 1.29,-0.73 1.78,-1.27 0.5,-0.54 0.88,-1.16 1.16,-1.88 0.28,-0.72 0.42,-1.49 0.42,-2.31 l 0,-0.05 c 0,-0.81 -0.14,-1.58 -0.42,-2.31 -0.28,-0.73 -0.67,-1.36 -1.17,-1.9 -0.5,-0.53 -1.1,-0.96 -1.8,-1.28 -0.7,-0.32 -1.47,-0.48 -2.3,-0.48 -0.83,0 -1.59,0.15 -2.28,0.47 -0.69,0.31 -1.29,0.73 -1.78,1.27 -0.49,0.53 -0.88,1.16 -1.16,1.88 -0.28,0.72 -0.42,1.49 -0.42,2.31 l 0,0.04 c 0,0.82 0.14,1.59 0.42,2.32 0.28,0.73 0.67,1.36 1.17,1.9 0.5,0.53 1.11,0.96 1.81,1.28 0.7,0.32 1.46,0.48 2.29,0.48 z"
         id="path110"
         inkscape:connector-curvature="0" />
      <path
         style="fill:#373531;stroke:none"
         d="m 2556.4,2619.79 7.48,0 c 1.06,0 2,0.15 2.81,0.45 0.82,0.29 1.5,0.71 2.04,1.23 0.45,0.47 0.79,1 1.03,1.61 0.24,0.61 0.36,1.28 0.36,2.02 l 0,0.05 c 0,0.68 -0.1,1.3 -0.3,1.86 -0.2,0.55 -0.47,1.04 -0.82,1.46 -0.36,0.42 -0.78,0.78 -1.26,1.08 -0.49,0.3 -1.03,0.52 -1.62,0.68 l 4.53,6.36 -3.48,0 -4.14,-5.85 -0.05,0 -3.66,0 0,5.85 -2.92,0 0,-16.8 z m 7.26,8.33 c 1.06,0 1.9,-0.25 2.53,-0.76 0.62,-0.5 0.93,-1.19 0.93,-2.06 l 0,-0.05 c 0,-0.91 -0.3,-1.61 -0.91,-2.08 -0.61,-0.48 -1.47,-0.71 -2.58,-0.71 l -4.31,0 0,5.66 4.34,0 z"
         id="path112"
         inkscape:connector-curvature="0" />
      <path
         style="fill:#373531;stroke:none"
         d="m 2478.62,2648.59 3.14,0 5.11,7.95 5.11,-7.95 3.15,0 0,16.8 -2.93,0 0,-12.04 -5.3,7.92 -0.1,0 -5.26,-7.88 0,12 -2.92,0 0,-16.8 z"
         id="path114"
         inkscape:connector-curvature="0" />
      <path
         style="fill:#373531;stroke:none"
         d="m 2499.45,2648.59 12.43,0 0,2.67 -9.5,0 0,4.32 8.42,0 0,2.66 -8.42,0 0,4.49 9.62,0 0,2.66 -12.55,0 0,-16.8 z"
         id="path116"
         inkscape:connector-curvature="0" />
      <path
         style="fill:#373531;stroke:none"
         d="m 2519.66,2651.33 -5.33,0 0,-2.74 13.63,0 0,2.74 -5.33,0 0,14.06 -2.97,0 0,-14.06 z"
         id="path118"
         inkscape:connector-curvature="0" />
      <path
         style="fill:#373531;stroke:none"
         d="m 2531.08,2648.59 7.49,0 c 1.05,0 1.99,0.15 2.81,0.45 0.81,0.29 1.49,0.71 2.04,1.23 0.44,0.47 0.79,1 1.03,1.61 0.24,0.61 0.36,1.28 0.36,2.02 l 0,0.05 c 0,0.68 -0.1,1.3 -0.3,1.86 -0.2,0.55 -0.48,1.04 -0.83,1.46 -0.35,0.42 -0.77,0.78 -1.26,1.08 -0.49,0.3 -1.03,0.52 -1.62,0.68 l 4.54,6.36 -3.48,0 -4.15,-5.85 -0.04,0 -3.66,0 0,5.85 -2.93,0 0,-16.8 z m 7.26,8.33 c 1.06,0 1.9,-0.25 2.53,-0.76 0.63,-0.5 0.94,-1.19 0.94,-2.06 l 0,-0.05 c 0,-0.91 -0.31,-1.61 -0.92,-2.08 -0.61,-0.48 -1.47,-0.71 -2.57,-0.71 l -4.31,0 0,5.66 4.33,0 z"
         id="path120"
         inkscape:connector-curvature="0" />
      <path
         style="fill:#373531;stroke:none"
         d="m 2548.6,2648.59 2.93,0 0,16.8 -2.93,0 0,-16.8 z"
         id="path122"
         inkscape:connector-curvature="0" />
      <path
         style="fill:#373531;stroke:none"
         d="m 2563.86,2665.68 c -1.23,0 -2.36,-0.22 -3.4,-0.67 -1.04,-0.45 -1.95,-1.06 -2.71,-1.84 -0.77,-0.77 -1.37,-1.69 -1.8,-2.74 -0.44,-1.06 -0.66,-2.19 -0.66,-3.39 l 0,-0.05 c 0,-1.2 0.22,-2.32 0.65,-3.37 0.42,-1.05 1.02,-1.97 1.8,-2.76 0.77,-0.79 1.68,-1.41 2.74,-1.87 1.06,-0.46 2.22,-0.68 3.5,-0.68 0.77,0 1.47,0.06 2.1,0.19 0.63,0.13 1.21,0.31 1.74,0.54 0.53,0.23 1.02,0.51 1.47,0.83 0.44,0.32 0.87,0.67 1.27,1.05 l -1.9,2.19 c -0.67,-0.63 -1.38,-1.13 -2.13,-1.52 -0.76,-0.38 -1.61,-0.57 -2.57,-0.57 -0.8,0 -1.54,0.15 -2.22,0.47 -0.68,0.31 -1.27,0.73 -1.77,1.27 -0.49,0.53 -0.88,1.16 -1.15,1.88 -0.27,0.72 -0.4,1.49 -0.4,2.31 l 0,0.04 c 0,0.82 0.13,1.59 0.4,2.32 0.27,0.73 0.66,1.36 1.15,1.91 0.5,0.54 1.09,0.97 1.77,1.28 0.68,0.31 1.42,0.47 2.22,0.47 1.02,0 1.9,-0.2 2.64,-0.59 0.73,-0.39 1.46,-0.92 2.18,-1.59 l 1.9,1.92 c -0.43,0.46 -0.89,0.87 -1.36,1.23 -0.47,0.36 -0.98,0.67 -1.52,0.94 -0.55,0.26 -1.14,0.46 -1.79,0.6 -0.65,0.13 -1.36,0.2 -2.15,0.2 z"
         id="path124"
         inkscape:connector-curvature="0" />
      <path
         style="fill:#373531;stroke:none"
         d="m 2520.97,2677.39 3.27,0 5.06,12.92 5.04,-12.92 3.2,0 -6.99,16.92 -2.59,0 -6.99,-16.92 z"
         id="path126"
         inkscape:connector-curvature="0" />
      <path
         style="fill:#373531;stroke:none"
         d="m 2542.53,2680.27 -3.03,0.84 -0.62,-2.4 4.51,-1.44 2.07,0 0,16.92 -2.93,0 0,-13.92 z"
         id="path128"
         inkscape:connector-curvature="0" />
      <path
         style="fill:#373531;stroke:none"
         d="m 2549.39,2690.91 3.19,0 0,3.28 -3.19,0 0,-3.28 z"
         id="path130"
         inkscape:connector-curvature="0" />
      <path
         style="fill:#373531;stroke:none"
         d="m 2562.88,2694.48 c -1.11,0 -2.11,-0.22 -3,-0.67 -0.9,-0.45 -1.67,-1.06 -2.3,-1.85 -0.65,-0.78 -1.14,-1.7 -1.48,-2.75 -0.35,-1.04 -0.52,-2.17 -0.52,-3.37 l 0,-0.05 c 0,-1.2 0.18,-2.32 0.53,-3.38 0.35,-1.06 0.85,-1.98 1.49,-2.76 0.64,-0.78 1.41,-1.4 2.32,-1.86 0.9,-0.46 1.9,-0.68 3.01,-0.68 1.1,0 2.1,0.22 3,0.67 0.89,0.45 1.66,1.06 2.29,1.84 0.63,0.79 1.12,1.71 1.48,2.75 0.35,1.05 0.52,2.17 0.52,3.38 l 0,0.04 c 0,1.2 -0.17,2.33 -0.52,3.39 -0.36,1.05 -0.85,1.97 -1.49,2.76 -0.64,0.78 -1.42,1.4 -2.32,1.86 -0.9,0.45 -1.91,0.68 -3.01,0.68 z m 0.05,-2.66 c 0.65,0 1.24,-0.16 1.76,-0.47 0.52,-0.31 0.96,-0.74 1.33,-1.27 0.37,-0.54 0.65,-1.17 0.86,-1.9 0.2,-0.73 0.29,-1.51 0.29,-2.34 l 0,-0.05 c 0,-0.83 -0.1,-1.61 -0.31,-2.34 -0.21,-0.72 -0.49,-1.36 -0.86,-1.91 -0.37,-0.54 -0.82,-0.97 -1.36,-1.29 -0.53,-0.32 -1.12,-0.48 -1.76,-0.48 -0.66,0 -1.25,0.16 -1.76,0.47 -0.53,0.31 -0.97,0.73 -1.34,1.27 -0.36,0.54 -0.65,1.17 -0.85,1.9 -0.2,0.72 -0.3,1.5 -0.3,2.34 l 0,0.04 c 0,0.83 0.1,1.62 0.3,2.34 0.2,0.73 0.49,1.37 0.86,1.91 0.38,0.55 0.83,0.98 1.36,1.3 0.53,0.32 1.12,0.48 1.78,0.48 z"
         id="path132"
         inkscape:connector-curvature="0" />
      <path
         style="fill:#373531;stroke:none"
         d="m 2190.69,2734.99 3.19,0 4.01,12.46 4.13,-12.5 2.49,0 4.13,12.5 4.01,-12.46 3.1,0 -5.86,16.92 -2.54,0 -4.13,-12.07 -4.13,12.07 -2.54,0 -5.86,-16.92 z"
         id="path134"
         inkscape:connector-curvature="0" />
      <path
         style="fill:#373531;stroke:none"
         d="m 2217.47,2734.99 3.2,0 4,12.46 4.13,-12.5 2.5,0 4.13,12.5 4,-12.46 3.1,0 -5.86,16.92 -2.54,0 -4.13,-12.07 -4.13,12.07 -2.54,0 -5.86,-16.92 z"
         id="path136"
         inkscape:connector-curvature="0" />
      <path
         style="fill:#373531;stroke:none"
         d="m 2244.26,2734.99 3.19,0 4.01,12.46 4.13,-12.5 2.49,0 4.13,12.5 4.01,-12.46 3.09,0 -5.85,16.92 -2.55,0 -4.12,-12.07 -4.13,12.07 -2.55,0 -5.85,-16.92 z"
         id="path138"
         inkscape:connector-curvature="0" />
      <path
         style="fill:#373531;stroke:none"
         d="m 2271.81,2748.5 3.19,0 0,3.29 -3.19,0 0,-3.29 z"
         id="path140"
         inkscape:connector-curvature="0" />
      <path
         style="fill:#373531;stroke:none"
         d="m 2278.79,2734.99 2.93,0 0,6.99 8.07,0 0,-6.99 2.92,0 0,16.8 -2.92,0 0,-7.08 -8.07,0 0,7.08 -2.93,0 0,-16.8 z"
         id="path142"
         inkscape:connector-curvature="0" />
      <path
         style="fill:#373531;stroke:none"
         d="m 2305.05,2752.08 c -1.3,0 -2.48,-0.23 -3.55,-0.68 -1.07,-0.46 -1.99,-1.08 -2.76,-1.86 -0.77,-0.79 -1.37,-1.7 -1.8,-2.75 -0.43,-1.05 -0.65,-2.17 -0.65,-3.35 l 0,-0.05 c 0,-1.18 0.22,-2.3 0.65,-3.35 0.43,-1.04 1.04,-1.96 1.82,-2.75 0.79,-0.8 1.71,-1.42 2.79,-1.89 1.07,-0.46 2.25,-0.69 3.55,-0.69 1.29,0 2.48,0.22 3.55,0.68 1.07,0.45 1.99,1.07 2.76,1.86 0.77,0.78 1.37,1.7 1.8,2.75 0.43,1.04 0.65,2.16 0.65,3.34 l 0,0.05 c 0,1.19 -0.22,2.3 -0.65,3.35 -0.43,1.05 -1.04,1.97 -1.82,2.76 -0.79,0.79 -1.72,1.42 -2.79,1.88 -1.07,0.47 -2.25,0.7 -3.55,0.7 z m 0.05,-2.71 c 0.83,0 1.59,-0.16 2.28,-0.47 0.69,-0.31 1.29,-0.73 1.78,-1.27 0.5,-0.54 0.88,-1.17 1.16,-1.88 0.28,-0.72 0.42,-1.49 0.42,-2.31 l 0,-0.05 c 0,-0.81 -0.14,-1.58 -0.42,-2.31 -0.28,-0.73 -0.67,-1.36 -1.17,-1.9 -0.5,-0.53 -1.1,-0.96 -1.8,-1.28 -0.71,-0.32 -1.47,-0.48 -2.3,-0.48 -0.83,0 -1.59,0.15 -2.28,0.46 -0.69,0.32 -1.29,0.74 -1.78,1.28 -0.5,0.53 -0.88,1.16 -1.16,1.88 -0.28,0.72 -0.42,1.49 -0.42,2.3 l 0,0.05 c 0,0.82 0.14,1.59 0.42,2.32 0.28,0.73 0.67,1.36 1.17,1.89 0.5,0.54 1.1,0.97 1.8,1.29 0.71,0.32 1.47,0.48 2.3,0.48 z"
         id="path144"
         inkscape:connector-curvature="0" />
      <path
         style="fill:#373531;stroke:none"
         d="m 2321.56,2737.73 -5.33,0 0,-2.74 13.64,0 0,2.74 -5.33,0 0,14.06 -2.98,0 0,-14.06 z"
         id="path146"
         inkscape:connector-curvature="0" />
      <path
         style="fill:#373531;stroke:none"
         d="m 2332.99,2734.99 6.62,0 c 0.98,0 1.86,0.13 2.65,0.4 0.79,0.26 1.47,0.64 2.02,1.14 0.55,0.5 0.97,1.09 1.27,1.77 0.3,0.69 0.44,1.46 0.44,2.31 l 0,0.05 c 0,0.94 -0.17,1.77 -0.53,2.48 -0.35,0.71 -0.83,1.31 -1.44,1.79 -0.61,0.48 -1.32,0.84 -2.14,1.09 -0.82,0.25 -1.69,0.37 -2.62,0.37 l -3.35,0 0,5.4 -2.92,0 0,-16.8 z m 6.37,8.74 c 1.12,0 2.01,-0.28 2.66,-0.84 0.65,-0.57 0.97,-1.29 0.97,-2.17 l 0,-0.05 c 0,-1 -0.32,-1.75 -0.98,-2.25 -0.66,-0.51 -1.54,-0.76 -2.65,-0.76 l -3.45,0 0,6.07 3.45,0 z"
         id="path148"
         inkscape:connector-curvature="0" />
      <path
         style="fill:#373531;stroke:none"
         d="m 2357.03,2752.08 c -1.29,0 -2.48,-0.23 -3.55,-0.68 -1.07,-0.46 -1.99,-1.08 -2.76,-1.86 -0.77,-0.79 -1.37,-1.7 -1.8,-2.75 -0.43,-1.05 -0.65,-2.17 -0.65,-3.35 l 0,-0.05 c 0,-1.18 0.22,-2.3 0.65,-3.35 0.43,-1.04 1.04,-1.96 1.83,-2.75 0.78,-0.8 1.71,-1.42 2.78,-1.89 1.07,-0.46 2.26,-0.69 3.55,-0.69 1.3,0 2.48,0.22 3.55,0.68 1.08,0.45 2,1.07 2.76,1.86 0.77,0.78 1.37,1.7 1.8,2.75 0.44,1.04 0.65,2.16 0.65,3.34 l 0,0.05 c 0,1.19 -0.21,2.3 -0.65,3.35 -0.43,1.05 -1.04,1.97 -1.82,2.76 -0.78,0.79 -1.71,1.42 -2.78,1.88 -1.08,0.47 -2.26,0.7 -3.56,0.7 z m 0.05,-2.71 c 0.83,0 1.59,-0.16 2.28,-0.47 0.7,-0.31 1.29,-0.73 1.78,-1.27 0.5,-0.54 0.88,-1.17 1.16,-1.88 0.28,-0.72 0.42,-1.49 0.42,-2.31 l 0,-0.05 c 0,-0.81 -0.14,-1.58 -0.42,-2.31 -0.28,-0.73 -0.67,-1.36 -1.17,-1.9 -0.5,-0.53 -1.1,-0.96 -1.8,-1.28 -0.7,-0.32 -1.47,-0.48 -2.3,-0.48 -0.82,0 -1.58,0.15 -2.28,0.46 -0.69,0.32 -1.28,0.74 -1.78,1.28 -0.49,0.53 -0.88,1.16 -1.16,1.88 -0.28,0.72 -0.42,1.49 -0.42,2.3 l 0,0.05 c 0,0.82 0.14,1.59 0.42,2.32 0.28,0.73 0.67,1.36 1.17,1.89 0.51,0.54 1.11,0.97 1.81,1.29 0.7,0.32 1.46,0.48 2.29,0.48 z"
         id="path150"
         inkscape:connector-curvature="0" />
      <path
         style="fill:#373531;stroke:none"
         d="m 2369.42,2734.99 6.62,0 c 0.98,0 1.86,0.13 2.65,0.4 0.8,0.26 1.47,0.64 2.02,1.14 0.55,0.5 0.98,1.09 1.27,1.77 0.3,0.69 0.45,1.46 0.45,2.31 l 0,0.05 c 0,0.94 -0.18,1.77 -0.53,2.48 -0.36,0.71 -0.84,1.31 -1.45,1.79 -0.61,0.48 -1.32,0.84 -2.14,1.09 -0.82,0.25 -1.69,0.37 -2.62,0.37 l -3.34,0 0,5.4 -2.93,0 0,-16.8 z m 6.37,8.74 c 1.12,0 2.01,-0.28 2.66,-0.84 0.65,-0.57 0.98,-1.29 0.98,-2.17 l 0,-0.05 c 0,-1 -0.33,-1.75 -0.99,-2.25 -0.66,-0.51 -1.54,-0.76 -2.65,-0.76 l -3.44,0 0,6.07 3.44,0 z"
         id="path152"
         inkscape:connector-curvature="0" />
      <path
         style="fill:#373531;stroke:none"
         d="m 2385.45,2734.99 12.48,0 0,2.67 -9.55,0 0,4.63 8.47,0 0,2.66 -8.47,0 0,6.84 -2.93,0 0,-16.8 z"
         id="path154"
         inkscape:connector-curvature="0" />
      <path
         style="fill:#373531;stroke:none"
         d="m 2407.15,2734.87 2.73,0 7.39,16.92 -3.12,0 -1.7,-4.05 -7.94,0 -1.73,4.05 -3.03,0 7.4,-16.92 z m 4.22,10.25 -2.9,-6.72 -2.88,6.72 5.78,0 z"
         id="path156"
         inkscape:connector-curvature="0" />
      <path
         style="fill:#373531;stroke:none"
         d="m 2427.98,2752.08 c -1.23,0 -2.37,-0.22 -3.41,-0.67 -1.04,-0.45 -1.94,-1.06 -2.71,-1.84 -0.76,-0.77 -1.36,-1.69 -1.8,-2.74 -0.43,-1.06 -0.65,-2.19 -0.65,-3.39 l 0,-0.05 c 0,-1.2 0.21,-2.32 0.64,-3.37 0.43,-1.05 1.03,-1.97 1.8,-2.76 0.77,-0.79 1.69,-1.42 2.74,-1.87 1.06,-0.46 2.23,-0.68 3.51,-0.68 0.77,0 1.47,0.06 2.1,0.19 0.63,0.13 1.21,0.31 1.74,0.54 0.53,0.23 1.01,0.51 1.46,0.82 0.45,0.32 0.87,0.68 1.27,1.06 l -1.89,2.18 c -0.67,-0.62 -1.39,-1.12 -2.14,-1.51 -0.75,-0.38 -1.61,-0.57 -2.57,-0.57 -0.8,0 -1.54,0.15 -2.22,0.46 -0.68,0.32 -1.26,0.74 -1.76,1.28 -0.5,0.53 -0.88,1.16 -1.15,1.88 -0.27,0.72 -0.41,1.49 -0.41,2.3 l 0,0.05 c 0,0.82 0.14,1.59 0.41,2.32 0.27,0.73 0.65,1.36 1.15,1.91 0.5,0.54 1.08,0.97 1.76,1.28 0.68,0.31 1.42,0.47 2.22,0.47 1.03,0 1.91,-0.2 2.64,-0.59 0.74,-0.39 1.47,-0.92 2.19,-1.6 l 1.89,1.92 c -0.43,0.47 -0.88,0.88 -1.35,1.24 -0.47,0.36 -0.98,0.67 -1.53,0.94 -0.54,0.26 -1.14,0.46 -1.78,0.6 -0.65,0.13 -1.37,0.2 -2.15,0.2 z"
         id="path158"
         inkscape:connector-curvature="0" />
      <path
         style="fill:#373531;stroke:none"
         d="m 2441.99,2737.73 -5.32,0 0,-2.74 13.63,0 0,2.74 -5.33,0 0,14.06 -2.98,0 0,-14.06 z"
         id="path160"
         inkscape:connector-curvature="0" />
      <path
         style="fill:#373531;stroke:none"
         d="m 2461.43,2752.08 c -1.29,0 -2.48,-0.23 -3.55,-0.68 -1.07,-0.46 -1.99,-1.08 -2.76,-1.86 -0.77,-0.79 -1.37,-1.7 -1.8,-2.75 -0.43,-1.05 -0.65,-2.17 -0.65,-3.35 l 0,-0.05 c 0,-1.18 0.22,-2.3 0.65,-3.35 0.43,-1.04 1.04,-1.96 1.83,-2.75 0.78,-0.8 1.71,-1.42 2.78,-1.89 1.07,-0.46 2.26,-0.69 3.55,-0.69 1.3,0 2.48,0.22 3.55,0.68 1.08,0.45 2,1.07 2.76,1.86 0.77,0.78 1.37,1.7 1.8,2.75 0.44,1.04 0.65,2.16 0.65,3.34 l 0,0.05 c 0,1.19 -0.21,2.3 -0.65,3.35 -0.43,1.05 -1.04,1.97 -1.82,2.76 -0.78,0.79 -1.71,1.42 -2.78,1.88 -1.08,0.47 -2.26,0.7 -3.56,0.7 z m 0.05,-2.71 c 0.83,0 1.59,-0.16 2.28,-0.47 0.7,-0.31 1.29,-0.73 1.78,-1.27 0.5,-0.54 0.88,-1.17 1.16,-1.88 0.28,-0.72 0.42,-1.49 0.42,-2.31 l 0,-0.05 c 0,-0.81 -0.14,-1.58 -0.42,-2.31 -0.28,-0.73 -0.67,-1.36 -1.17,-1.9 -0.5,-0.53 -1.1,-0.96 -1.8,-1.28 -0.7,-0.32 -1.47,-0.48 -2.3,-0.48 -0.82,0 -1.59,0.15 -2.28,0.46 -0.69,0.32 -1.28,0.74 -1.78,1.28 -0.49,0.53 -0.88,1.16 -1.16,1.88 -0.28,0.72 -0.42,1.49 -0.42,2.3 l 0,0.05 c 0,0.82 0.14,1.59 0.42,2.32 0.28,0.73 0.67,1.36 1.17,1.89 0.5,0.54 1.11,0.97 1.81,1.29 0.7,0.32 1.46,0.48 2.29,0.48 z"
         id="path162"
         inkscape:connector-curvature="0" />
      <path
         style="fill:#373531;stroke:none"
         d="m 2473.82,2734.99 7.49,0 c 1.05,0 1.99,0.15 2.8,0.45 0.82,0.29 1.5,0.7 2.04,1.23 0.45,0.47 0.8,1 1.04,1.61 0.23,0.61 0.35,1.28 0.35,2.02 l 0,0.04 c 0,0.69 -0.09,1.31 -0.29,1.87 -0.21,0.55 -0.48,1.04 -0.83,1.46 -0.35,0.42 -0.77,0.78 -1.26,1.08 -0.49,0.29 -1.03,0.52 -1.62,0.68 l 4.53,6.36 -3.48,0 -4.14,-5.85 -0.05,0 -3.65,0 0,5.85 -2.93,0 0,-16.8 z m 7.26,8.33 c 1.06,0 1.9,-0.25 2.53,-0.76 0.62,-0.5 0.93,-1.19 0.93,-2.06 l 0,-0.05 c 0,-0.91 -0.3,-1.61 -0.91,-2.08 -0.61,-0.48 -1.47,-0.71 -2.58,-0.71 l -4.3,0 0,5.66 4.33,0 z"
         id="path164"
         inkscape:connector-curvature="0" />
      <path
         style="fill:#373531;stroke:none"
         d="m 2496.11,2745.17 -6.67,-10.18 3.48,0 4.7,7.44 4.76,-7.44 3.38,0 -6.67,10.11 0,6.69 -2.98,0 0,-6.62 z"
         id="path166"
         inkscape:connector-curvature="0" />
      <path
         style="fill:#373531;stroke:none"
         d="m 2507.82,2748.5 3.2,0 0,3.29 -3.2,0 0,-3.29 z"
         id="path168"
         inkscape:connector-curvature="0" />
      <path
         style="fill:#373531;stroke:none"
         d="m 2522.63,2752.08 c -1.23,0 -2.37,-0.22 -3.41,-0.67 -1.04,-0.45 -1.94,-1.06 -2.7,-1.84 -0.77,-0.77 -1.37,-1.69 -1.8,-2.74 -0.44,-1.06 -0.66,-2.19 -0.66,-3.39 l 0,-0.05 c 0,-1.2 0.22,-2.32 0.65,-3.37 0.42,-1.05 1.02,-1.97 1.79,-2.76 0.78,-0.79 1.69,-1.42 2.75,-1.87 1.05,-0.46 2.22,-0.68 3.5,-0.68 0.77,0 1.47,0.06 2.1,0.19 0.63,0.13 1.21,0.31 1.74,0.54 0.53,0.23 1.02,0.51 1.47,0.82 0.44,0.32 0.87,0.68 1.27,1.06 l -1.9,2.18 c -0.67,-0.62 -1.38,-1.12 -2.13,-1.51 -0.76,-0.38 -1.61,-0.57 -2.57,-0.57 -0.8,0 -1.54,0.15 -2.22,0.46 -0.68,0.32 -1.27,0.74 -1.77,1.28 -0.49,0.53 -0.88,1.16 -1.15,1.88 -0.27,0.72 -0.41,1.49 -0.41,2.3 l 0,0.05 c 0,0.82 0.14,1.59 0.41,2.32 0.27,0.73 0.66,1.36 1.15,1.91 0.5,0.54 1.09,0.97 1.77,1.28 0.68,0.31 1.42,0.47 2.22,0.47 1.02,0 1.9,-0.2 2.64,-0.59 0.73,-0.39 1.46,-0.92 2.18,-1.6 l 1.9,1.92 c -0.43,0.47 -0.89,0.88 -1.36,1.24 -0.47,0.36 -0.98,0.67 -1.52,0.94 -0.55,0.26 -1.14,0.46 -1.79,0.6 -0.65,0.13 -1.36,0.2 -2.15,0.2 z"
         id="path170"
         inkscape:connector-curvature="0" />
      <path
         style="fill:#373531;stroke:none"
         d="m 2540.54,2752.08 c -1.3,0 -2.48,-0.23 -3.56,-0.68 -1.07,-0.46 -1.99,-1.08 -2.76,-1.86 -0.76,-0.79 -1.36,-1.7 -1.8,-2.75 -0.43,-1.05 -0.64,-2.17 -0.64,-3.35 l 0,-0.05 c 0,-1.18 0.21,-2.3 0.64,-3.35 0.44,-1.04 1.04,-1.96 1.83,-2.75 0.78,-0.8 1.71,-1.42 2.78,-1.89 1.07,-0.46 2.26,-0.69 3.55,-0.69 1.3,0 2.48,0.22 3.56,0.68 1.07,0.45 1.99,1.07 2.76,1.86 0.76,0.78 1.36,1.7 1.8,2.75 0.43,1.04 0.64,2.16 0.64,3.34 l 0,0.05 c 0,1.19 -0.21,2.3 -0.64,3.35 -0.44,1.05 -1.04,1.97 -1.83,2.76 -0.78,0.79 -1.71,1.42 -2.78,1.88 -1.07,0.47 -2.26,0.7 -3.55,0.7 z m 0.04,-2.71 c 0.83,0 1.59,-0.16 2.29,-0.47 0.69,-0.31 1.28,-0.73 1.78,-1.27 0.49,-0.54 0.88,-1.17 1.16,-1.88 0.27,-0.72 0.41,-1.49 0.41,-2.31 l 0,-0.05 c 0,-0.81 -0.14,-1.58 -0.41,-2.31 -0.28,-0.73 -0.67,-1.36 -1.18,-1.9 -0.5,-0.53 -1.1,-0.96 -1.8,-1.28 -0.7,-0.32 -1.47,-0.48 -2.29,-0.48 -0.83,0 -1.59,0.15 -2.29,0.46 -0.69,0.32 -1.28,0.74 -1.78,1.28 -0.49,0.53 -0.88,1.16 -1.16,1.88 -0.27,0.72 -0.41,1.49 -0.41,2.3 l 0,0.05 c 0,0.82 0.14,1.59 0.41,2.32 0.28,0.73 0.67,1.36 1.18,1.89 0.5,0.54 1.1,0.97 1.8,1.29 0.7,0.32 1.47,0.48 2.29,0.48 z"
         id="path172"
         inkscape:connector-curvature="0" />
      <path
         style="fill:#373531;stroke:none"
         d="m 2552.92,2734.99 3.14,0 5.12,7.95 5.11,-7.95 3.14,0 0,16.8 -2.93,0 0,-12.04 -5.3,7.92 -0.1,0 -5.25,-7.88 0,12 -2.93,0 0,-16.8 z"
         id="path174"
         inkscape:connector-curvature="0" />
    </g>
    <g
       id="g176">
      <path
         style="fill:#373531;stroke:none"
         d="m 1002.29,2590.99 3.14,0 5.12,7.95 5.11,-7.95 3.14,0 0,16.8 -2.92,0 0,-12.04 -5.31,7.92 -0.1,0 -5.25,-7.88 0,12 -2.93,0 0,-16.8 z"
         id="path178"
         inkscape:connector-curvature="0" />
      <path
         style="fill:#373531;stroke:none"
         d="m 1029.08,2590.87 2.73,0 7.39,16.92 -3.12,0 -1.7,-4.05 -7.95,0 -1.72,4.05 -3.03,0 7.4,-16.92 z m 4.22,10.25 -2.91,-6.72 -2.88,6.72 5.79,0 z"
         id="path180"
         inkscape:connector-curvature="0" />
      <path
         style="fill:#373531;stroke:none"
         d="m 1046.93,2599.25 -5.88,-8.26 3.48,0 4.18,6.03 4.2,-6.03 3.38,0 -5.86,8.21 6.1,8.59 -3.48,0 -4.42,-6.36 -4.43,6.36 -3.39,0 6.12,-8.54 z"
         id="path182"
         inkscape:connector-curvature="0" />
      <path
         style="fill:#373531;stroke:none"
         d="m 1074.6,2608.08 c -1.23,0 -2.37,-0.22 -3.41,-0.67 -1.04,-0.45 -1.94,-1.06 -2.7,-1.84 -0.77,-0.77 -1.37,-1.69 -1.8,-2.74 -0.44,-1.06 -0.66,-2.19 -0.66,-3.39 l 0,-0.05 c 0,-1.2 0.22,-2.32 0.64,-3.37 0.43,-1.05 1.03,-1.97 1.8,-2.76 0.78,-0.79 1.69,-1.42 2.75,-1.87 1.05,-0.46 2.22,-0.68 3.5,-0.68 0.77,0 1.47,0.06 2.1,0.19 0.63,0.13 1.21,0.31 1.74,0.54 0.53,0.23 1.02,0.51 1.47,0.82 0.44,0.32 0.87,0.68 1.27,1.06 l -1.9,2.18 c -0.67,-0.62 -1.38,-1.12 -2.13,-1.51 -0.76,-0.38 -1.61,-0.57 -2.57,-0.57 -0.8,0 -1.54,0.15 -2.22,0.46 -0.68,0.32 -1.27,0.74 -1.77,1.28 -0.49,0.53 -0.88,1.16 -1.15,1.88 -0.27,0.72 -0.41,1.49 -0.41,2.3 l 0,0.05 c 0,0.82 0.14,1.59 0.41,2.32 0.27,0.73 0.66,1.36 1.15,1.91 0.5,0.54 1.09,0.97 1.77,1.28 0.68,0.31 1.42,0.47 2.22,0.47 1.02,0 1.9,-0.2 2.64,-0.59 0.73,-0.39 1.46,-0.92 2.18,-1.6 l 1.9,1.92 c -0.43,0.47 -0.89,0.88 -1.36,1.24 -0.47,0.36 -0.98,0.67 -1.52,0.94 -0.55,0.26 -1.14,0.46 -1.79,0.6 -0.65,0.13 -1.36,0.2 -2.15,0.2 z"
         id="path184"
         inkscape:connector-curvature="0" />
      <path
         style="fill:#373531;stroke:none"
         d="m 1091.38,2608.06 c -1.09,0 -2.07,-0.16 -2.95,-0.47 -0.88,-0.31 -1.64,-0.78 -2.26,-1.41 -0.62,-0.62 -1.1,-1.39 -1.44,-2.31 -0.34,-0.92 -0.5,-1.99 -0.5,-3.2 l 0,-9.68 2.92,0 0,9.55 c 0,1.57 0.38,2.76 1.14,3.58 0.75,0.82 1.8,1.22 3.14,1.22 1.32,0 2.35,-0.39 3.11,-1.17 0.76,-0.79 1.13,-1.95 1.13,-3.5 l 0,-9.68 2.93,0 0,9.53 c 0,1.25 -0.17,2.35 -0.51,3.29 -0.35,0.94 -0.83,1.73 -1.46,2.36 -0.62,0.64 -1.38,1.11 -2.26,1.42 -0.89,0.31 -1.89,0.47 -2.99,0.47 z"
         id="path186"
         inkscape:connector-curvature="0" />
      <path
         style="fill:#373531;stroke:none"
         d="m 1106.79,2593.73 -5.33,0 0,-2.74 13.63,0 0,2.74 -5.33,0 0,14.06 -2.97,0 0,-14.06 z"
         id="path188"
         inkscape:connector-curvature="0" />
      <path
         style="fill:#373531;stroke:none"
         d="m 1122.34,2593.73 -5.33,0 0,-2.74 13.63,0 0,2.74 -5.33,0 0,14.06 -2.97,0 0,-14.06 z"
         id="path190"
         inkscape:connector-curvature="0" />
      <path
         style="fill:#373531;stroke:none"
         d="m 1133.93,2590.99 2.93,0 0,16.8 -2.93,0 0,-16.8 z"
         id="path192"
         inkscape:connector-curvature="0" />
      <path
         style="fill:#373531;stroke:none"
         d="m 1141.37,2590.99 2.73,0 8.98,11.62 0,-11.62 2.93,0 0,16.8 -2.47,0 -9.24,-11.95 0,11.95 -2.93,0 0,-16.8 z"
         id="path194"
         inkscape:connector-curvature="0" />
      <path
         style="fill:#373531;stroke:none"
         d="m 1168.3,2608.08 c -1.32,0 -2.51,-0.22 -3.58,-0.66 -1.07,-0.44 -1.99,-1.05 -2.75,-1.82 -0.76,-0.78 -1.35,-1.69 -1.76,-2.74 -0.42,-1.05 -0.63,-2.19 -0.63,-3.42 l 0,-0.05 c 0,-1.16 0.22,-2.28 0.65,-3.33 0.42,-1.06 1.02,-1.98 1.8,-2.77 0.77,-0.8 1.69,-1.42 2.75,-1.89 1.06,-0.46 2.23,-0.69 3.49,-0.69 0.74,0 1.41,0.05 2.01,0.15 0.6,0.1 1.15,0.25 1.67,0.44 0.51,0.2 0.99,0.43 1.45,0.71 0.45,0.28 0.9,0.61 1.33,0.98 l -1.87,2.23 c -0.32,-0.27 -0.65,-0.52 -0.99,-0.75 -0.33,-0.22 -0.69,-0.41 -1.05,-0.56 -0.37,-0.15 -0.78,-0.27 -1.22,-0.36 -0.43,-0.09 -0.92,-0.13 -1.45,-0.13 -0.77,0 -1.48,0.16 -2.15,0.48 -0.66,0.32 -1.24,0.75 -1.72,1.28 -0.49,0.54 -0.88,1.17 -1.16,1.89 -0.28,0.72 -0.41,1.49 -0.41,2.29 l 0,0.05 c 0,0.86 0.13,1.66 0.4,2.4 0.27,0.74 0.66,1.37 1.16,1.9 0.51,0.53 1.1,0.95 1.8,1.25 0.69,0.3 1.47,0.46 2.33,0.46 0.8,0 1.55,-0.12 2.24,-0.35 0.7,-0.24 1.3,-0.55 1.81,-0.93 l 0,-3.16 -4.3,0 0,-2.57 7.15,0 0,7.05 c -0.41,0.36 -0.87,0.69 -1.38,1.01 -0.5,0.32 -1.04,0.6 -1.63,0.84 -0.58,0.24 -1.21,0.43 -1.88,0.57 -0.67,0.13 -1.38,0.2 -2.11,0.2 z"
         id="path196"
         inkscape:connector-curvature="0" />
      <path
         style="fill:#373531;stroke:none"
         d="m 1187.23,2588.64 2.52,0 -10.84,22.23 -2.52,0 10.84,-22.23 z"
         id="path198"
         inkscape:connector-curvature="0" />
      <path
         style="fill:#373531;stroke:none"
         d="m 1191.65,2590.99 12.43,0 0,2.67 -9.5,0 0,4.32 8.42,0 0,2.66 -8.42,0 0,4.49 9.62,0 0,2.66 -12.55,0 0,-16.8 z"
         id="path200"
         inkscape:connector-curvature="0" />
      <path
         style="fill:#373531;stroke:none"
         d="m 1207.73,2590.99 2.73,0 8.98,11.62 0,-11.62 2.93,0 0,16.8 -2.47,0 -9.24,-11.95 0,11.95 -2.93,0 0,-16.8 z"
         id="path202"
         inkscape:connector-curvature="0" />
      <path
         style="fill:#373531;stroke:none"
         d="m 1234.66,2608.08 c -1.32,0 -2.51,-0.22 -3.58,-0.66 -1.07,-0.44 -1.99,-1.05 -2.75,-1.82 -0.76,-0.78 -1.34,-1.69 -1.76,-2.74 -0.42,-1.05 -0.62,-2.19 -0.62,-3.42 l 0,-0.05 c 0,-1.16 0.21,-2.28 0.64,-3.33 0.42,-1.06 1.02,-1.98 1.8,-2.77 0.77,-0.8 1.69,-1.42 2.75,-1.89 1.07,-0.46 2.23,-0.69 3.49,-0.69 0.74,0 1.41,0.05 2.01,0.15 0.6,0.1 1.15,0.25 1.67,0.44 0.51,0.2 0.99,0.43 1.45,0.71 0.45,0.28 0.9,0.61 1.33,0.98 l -1.87,2.23 c -0.32,-0.27 -0.65,-0.52 -0.99,-0.75 -0.33,-0.22 -0.69,-0.41 -1.05,-0.56 -0.37,-0.15 -0.77,-0.27 -1.22,-0.36 -0.43,-0.09 -0.92,-0.13 -1.45,-0.13 -0.76,0 -1.48,0.16 -2.14,0.48 -0.67,0.32 -1.25,0.75 -1.73,1.28 -0.49,0.54 -0.88,1.17 -1.15,1.89 -0.28,0.72 -0.42,1.49 -0.42,2.29 l 0,0.05 c 0,0.86 0.13,1.66 0.4,2.4 0.27,0.74 0.66,1.37 1.16,1.9 0.51,0.53 1.1,0.95 1.8,1.25 0.69,0.3 1.47,0.46 2.33,0.46 0.8,0 1.55,-0.12 2.24,-0.35 0.7,-0.24 1.3,-0.55 1.81,-0.93 l 0,-3.16 -4.3,0 0,-2.57 7.16,0 0,7.05 c -0.42,0.36 -0.88,0.69 -1.38,1.01 -0.51,0.32 -1.05,0.6 -1.64,0.84 -0.58,0.24 -1.21,0.43 -1.88,0.57 -0.67,0.13 -1.38,0.2 -2.11,0.2 z"
         id="path204"
         inkscape:connector-curvature="0" />
      <path
         style="fill:#373531;stroke:none"
         d="m 1245.5,2590.99 7.49,0 c 1.06,0 1.99,0.15 2.81,0.45 0.82,0.29 1.5,0.7 2.04,1.23 0.45,0.47 0.79,1 1.03,1.61 0.24,0.61 0.36,1.28 0.36,2.02 l 0,0.04 c 0,0.69 -0.1,1.31 -0.3,1.87 -0.2,0.55 -0.47,1.04 -0.83,1.46 -0.35,0.42 -0.77,0.78 -1.26,1.08 -0.48,0.29 -1.02,0.52 -1.62,0.68 l 4.54,6.36 -3.48,0 -4.14,-5.85 -0.05,0 -3.66,0 0,5.85 -2.93,0 0,-16.8 z m 7.27,8.33 c 1.06,0 1.9,-0.25 2.52,-0.76 0.63,-0.5 0.94,-1.19 0.94,-2.06 l 0,-0.05 c 0,-0.91 -0.3,-1.61 -0.91,-2.08 -0.61,-0.48 -1.47,-0.71 -2.58,-0.71 l -4.31,0 0,5.66 4.34,0 z"
         id="path206"
         inkscape:connector-curvature="0" />
      <path
         style="fill:#373531;stroke:none"
         d="m 1268.81,2590.87 2.73,0 7.4,16.92 -3.12,0 -1.71,-4.05 -7.94,0 -1.73,4.05 -3.02,0 7.39,-16.92 z m 4.22,10.25 -2.9,-6.72 -2.88,6.72 5.78,0 z"
         id="path208"
         inkscape:connector-curvature="0" />
      <path
         style="fill:#373531;stroke:none"
         d="m 1280.38,2590.99 3.26,0 5.06,12.92 5.04,-12.92 3.2,0 -6.99,16.92 -2.59,0 -6.98,-16.92 z"
         id="path210"
         inkscape:connector-curvature="0" />
      <path
         style="fill:#373531;stroke:none"
         d="m 1299.98,2590.99 2.93,0 0,16.8 -2.93,0 0,-16.8 z"
         id="path212"
         inkscape:connector-curvature="0" />
      <path
         style="fill:#373531;stroke:none"
         d="m 1307.42,2590.99 2.73,0 8.99,11.62 0,-11.62 2.92,0 0,16.8 -2.46,0 -9.25,-11.95 0,11.95 -2.93,0 0,-16.8 z"
         id="path214"
         inkscape:connector-curvature="0" />
      <path
         style="fill:#373531;stroke:none"
         d="m 1334.35,2608.08 c -1.31,0 -2.5,-0.22 -3.57,-0.66 -1.08,-0.44 -1.99,-1.05 -2.75,-1.82 -0.76,-0.78 -1.35,-1.69 -1.77,-2.74 -0.41,-1.05 -0.62,-2.19 -0.62,-3.42 l 0,-0.05 c 0,-1.16 0.21,-2.28 0.64,-3.33 0.43,-1.06 1.03,-1.98 1.8,-2.77 0.77,-0.8 1.69,-1.42 2.76,-1.89 1.06,-0.46 2.22,-0.69 3.49,-0.69 0.73,0 1.4,0.05 2,0.15 0.6,0.1 1.16,0.25 1.67,0.44 0.51,0.2 1,0.43 1.45,0.71 0.46,0.28 0.9,0.61 1.33,0.98 l -1.87,2.23 c -0.32,-0.27 -0.65,-0.52 -0.98,-0.75 -0.34,-0.22 -0.69,-0.41 -1.06,-0.56 -0.37,-0.15 -0.77,-0.27 -1.21,-0.36 -0.44,-0.09 -0.92,-0.13 -1.45,-0.13 -0.77,0 -1.49,0.16 -2.15,0.48 -0.66,0.32 -1.24,0.75 -1.73,1.28 -0.49,0.54 -0.87,1.17 -1.15,1.89 -0.28,0.72 -0.42,1.49 -0.42,2.29 l 0,0.05 c 0,0.86 0.13,1.66 0.41,2.4 0.27,0.74 0.66,1.37 1.16,1.9 0.5,0.53 1.1,0.95 1.79,1.25 0.7,0.3 1.48,0.46 2.34,0.46 0.8,0 1.54,-0.12 2.24,-0.35 0.69,-0.24 1.29,-0.55 1.8,-0.93 l 0,-3.16 -4.29,0 0,-2.57 7.15,0 0,7.05 c -0.42,0.36 -0.88,0.69 -1.38,1.01 -0.5,0.32 -1.05,0.6 -1.63,0.84 -0.59,0.24 -1.21,0.43 -1.89,0.57 -0.67,0.13 -1.37,0.2 -2.11,0.2 z"
         id="path216"
         inkscape:connector-curvature="0" />
      <path
         style="fill:#373531;stroke:none"
         d="m 1358.35,2590.87 2.74,0 7.39,16.92 -3.12,0 -1.7,-4.05 -7.95,0 -1.73,4.05 -3.02,0 7.39,-16.92 z m 4.23,10.25 -2.91,-6.72 -2.88,6.72 5.79,0 z"
         id="path218"
         inkscape:connector-curvature="0" />
      <path
         style="fill:#373531;stroke:none"
         d="m 1371.36,2590.99 7.49,0 c 1.05,0 1.99,0.15 2.81,0.45 0.81,0.29 1.49,0.7 2.04,1.23 0.44,0.47 0.79,1 1.03,1.61 0.24,0.61 0.36,1.28 0.36,2.02 l 0,0.04 c 0,0.69 -0.1,1.31 -0.3,1.87 -0.2,0.55 -0.48,1.04 -0.83,1.46 -0.35,0.42 -0.77,0.78 -1.26,1.08 -0.49,0.29 -1.03,0.52 -1.62,0.68 l 4.54,6.36 -3.49,0 -4.14,-5.85 -0.04,0 -3.66,0 0,5.85 -2.93,0 0,-16.8 z m 7.26,8.33 c 1.06,0 1.9,-0.25 2.53,-0.76 0.62,-0.5 0.94,-1.19 0.94,-2.06 l 0,-0.05 c 0,-0.91 -0.31,-1.61 -0.92,-2.08 -0.61,-0.48 -1.47,-0.71 -2.57,-0.71 l -4.31,0 0,5.66 4.33,0 z"
         id="path220"
         inkscape:connector-curvature="0" />
      <path
         style="fill:#373531;stroke:none"
         d="m 1388.71,2590.99 12.43,0 0,2.67 -9.5,0 0,4.32 8.42,0 0,2.66 -8.42,0 0,4.49 9.62,0 0,2.66 -12.55,0 0,-16.8 z"
         id="path222"
         inkscape:connector-curvature="0" />
      <path
         style="fill:#373531;stroke:none"
         d="m 1410.74,2590.87 2.74,0 7.39,16.92 -3.12,0 -1.7,-4.05 -7.95,0 -1.72,4.05 -3.03,0 7.39,-16.92 z m 4.23,10.25 -2.91,-6.72 -2.88,6.72 5.79,0 z"
         id="path224"
         inkscape:connector-curvature="0" />
    </g>
    <g
       id="g226">
      <path
         style="fill:#373531;stroke:none"
         d="m 1275.97,2642.54 3.14,0 5.12,7.95 5.11,-7.95 3.14,0 0,16.8 -2.93,0 0,-12.05 -5.3,7.92 -0.1,0 -5.25,-7.87 0,12 -2.93,0 0,-16.8 z"
         id="path228"
         inkscape:connector-curvature="0" />
      <path
         style="fill:#373531;stroke:none"
         d="m 1302.75,2642.42 2.74,0 7.39,16.92 -3.12,0 -1.7,-4.05 -7.95,0 -1.72,4.05 -3.03,0 7.39,-16.92 z m 4.23,10.25 -2.91,-6.72 -2.88,6.72 5.79,0 z"
         id="path230"
         inkscape:connector-curvature="0" />
      <path
         style="fill:#373531;stroke:none"
         d="m 1320.61,2650.8 -5.88,-8.26 3.48,0 4.18,6.03 4.2,-6.03 3.38,0 -5.86,8.21 6.1,8.59 -3.48,0 -4.42,-6.36 -4.44,6.36 -3.38,0 6.12,-8.54 z"
         id="path232"
         inkscape:connector-curvature="0" />
      <path
         style="fill:#373531;stroke:none"
         d="m 1340.46,2642.54 3.14,0 5.11,7.95 5.12,-7.95 3.14,0 0,16.8 -2.93,0 0,-12.05 -5.3,7.92 -0.1,0 -5.25,-7.87 0,12 -2.93,0 0,-16.8 z"
         id="path234"
         inkscape:connector-curvature="0" />
      <path
         style="fill:#373531;stroke:none"
         d="m 1367.24,2642.42 2.74,0 7.39,16.92 -3.12,0 -1.7,-4.05 -7.95,0 -1.73,4.05 -3.02,0 7.39,-16.92 z m 4.23,10.25 -2.91,-6.72 -2.88,6.72 5.79,0 z"
         id="path236"
         inkscape:connector-curvature="0" />
      <path
         style="fill:#373531;stroke:none"
         d="m 1384.38,2645.28 -5.33,0 0,-2.74 13.63,0 0,2.74 -5.33,0 0,14.06 -2.97,0 0,-14.06 z"
         id="path238"
         inkscape:connector-curvature="0" />
      <path
         style="fill:#373531;stroke:none"
         d="m 1395.8,2642.54 12.43,0 0,2.67 -9.5,0 0,4.31 8.42,0 0,2.67 -8.42,0 0,4.49 9.62,0 0,2.66 -12.55,0 0,-16.8 z"
         id="path240"
         inkscape:connector-curvature="0" />
      <path
         style="fill:#373531;stroke:none"
         d="m 1411.88,2642.54 7.49,0 c 1.06,0 1.99,0.15 2.81,0.45 0.81,0.29 1.49,0.7 2.04,1.23 0.45,0.47 0.79,1 1.03,1.61 0.24,0.61 0.36,1.28 0.36,2.01 l 0,0.05 c 0,0.69 -0.1,1.31 -0.3,1.86 -0.2,0.56 -0.48,1.04 -0.83,1.47 -0.35,0.42 -0.77,0.78 -1.26,1.08 -0.49,0.29 -1.03,0.52 -1.62,0.68 l 4.54,6.36 -3.48,0 -4.14,-5.85 -0.05,0 -3.66,0 0,5.85 -2.93,0 0,-16.8 z m 7.26,8.33 c 1.06,0 1.9,-0.25 2.53,-0.76 0.63,-0.51 0.94,-1.19 0.94,-2.06 l 0,-0.05 c 0,-0.92 -0.31,-1.61 -0.92,-2.08 -0.61,-0.48 -1.46,-0.71 -2.57,-0.71 l -4.31,0 0,5.66 4.33,0 z"
         id="path242"
         inkscape:connector-curvature="0" />
      <path
         style="fill:#373531;stroke:none"
         d="m 1429.4,2642.54 2.93,0 0,16.8 -2.93,0 0,-16.8 z"
         id="path244"
         inkscape:connector-curvature="0" />
      <path
         style="fill:#373531;stroke:none"
         d="m 1442.79,2642.42 2.74,0 7.39,16.92 -3.12,0 -1.7,-4.05 -7.95,0 -1.73,4.05 -3.02,0 7.39,-16.92 z m 4.23,10.25 -2.91,-6.72 -2.88,6.72 5.79,0 z"
         id="path246"
         inkscape:connector-curvature="0" />
      <path
         style="fill:#373531;stroke:none"
         d="m 1455.8,2642.54 2.93,0 0,14.14 8.83,0 0,2.66 -11.76,0 0,-16.8 z"
         id="path248"
         inkscape:connector-curvature="0" />
      <path
         style="fill:#373531;stroke:none"
         d="m 1483.76,2659.58 c -1.3,0 -2.54,-0.22 -3.72,-0.66 -1.18,-0.44 -2.28,-1.11 -3.29,-2.03 l 1.78,-2.11 c 0.81,0.71 1.64,1.25 2.47,1.62 0.83,0.38 1.78,0.57 2.83,0.57 0.91,0 1.64,-0.2 2.17,-0.58 0.54,-0.39 0.81,-0.9 0.81,-1.54 l 0,-0.04 c 0,-0.31 -0.05,-0.58 -0.16,-0.81 -0.1,-0.23 -0.3,-0.45 -0.58,-0.66 -0.28,-0.21 -0.66,-0.4 -1.15,-0.58 -0.49,-0.17 -1.13,-0.35 -1.91,-0.52 -0.9,-0.21 -1.7,-0.45 -2.4,-0.71 -0.69,-0.27 -1.28,-0.58 -1.75,-0.96 -0.48,-0.38 -0.84,-0.84 -1.09,-1.38 -0.25,-0.54 -0.37,-1.2 -0.37,-1.97 l 0,-0.05 c 0,-0.72 0.14,-1.38 0.43,-1.98 0.28,-0.6 0.68,-1.11 1.18,-1.53 0.5,-0.43 1.1,-0.76 1.8,-1 0.7,-0.24 1.47,-0.36 2.3,-0.36 1.23,0 2.34,0.18 3.33,0.54 0.98,0.36 1.9,0.89 2.77,1.57 l -1.59,2.24 c -0.76,-0.57 -1.52,-0.99 -2.28,-1.29 -0.75,-0.29 -1.51,-0.44 -2.28,-0.44 -0.86,0 -1.53,0.19 -2.01,0.57 -0.48,0.39 -0.72,0.86 -0.72,1.42 l 0,0.05 c 0,0.32 0.05,0.6 0.17,0.85 0.11,0.25 0.31,0.47 0.61,0.67 0.3,0.2 0.71,0.39 1.23,0.57 0.52,0.17 1.18,0.36 1.98,0.55 0.88,0.22 1.67,0.47 2.35,0.74 0.68,0.27 1.25,0.61 1.69,1 0.45,0.39 0.79,0.85 1.03,1.37 0.23,0.52 0.35,1.12 0.35,1.81 l 0,0.05 c 0,0.78 -0.15,1.48 -0.44,2.11 -0.3,0.62 -0.71,1.15 -1.23,1.58 -0.52,0.43 -1.15,0.76 -1.89,0.99 -0.73,0.22 -1.54,0.33 -2.42,0.33 z"
         id="path250"
         inkscape:connector-curvature="0" />
      <path
         style="fill:#373531;stroke:none"
         d="m 1493.38,2642.54 2.93,0 0,16.8 -2.93,0 0,-16.8 z"
         id="path252"
         inkscape:connector-curvature="0" />
      <path
         style="fill:#373531;stroke:none"
         d="m 1500.22,2657.16 9.92,-12 -9.6,0 0,-2.62 13.44,0 0,2.19 -9.92,12 9.92,0 0,2.61 -13.76,0 0,-2.18 z"
         id="path254"
         inkscape:connector-curvature="0" />
      <path
         style="fill:#373531;stroke:none"
         d="m 1517.67,2642.54 12.43,0 0,2.67 -9.5,0 0,4.31 8.42,0 0,2.67 -8.42,0 0,4.49 9.62,0 0,2.66 -12.55,0 0,-16.8 z"
         id="path256"
         inkscape:connector-curvature="0" />
    </g>
    <path
       style="fill:#373531;stroke:none"
       d="m 1506.81,2564.36 -5.81,-21.68 -5.81,21.68 4.81,0 0,33.53 -67,0 0,2 69,0 0,-35.53 4.81,0 z"
       id="path258"
       inkscape:connector-curvature="0" />
    <path
       style="fill:#373531;stroke:none"
       d="m 1615.48,2578.52 -5.81,-21.68 -5.81,21.68 4.81,0 0,70.04 -67,0 0,2 69,0 0,-72.04 4.81,0 z"
       id="path260"
       inkscape:connector-curvature="0" />
  </g>
  <g
     inkscape:groupmode="layer"
     id="layer1"
     inkscape:label="Cut"
     style="display:inline"
     sodipodi:insensitive="true">
    <polyline
       points="353.67,175.238 353.742,174.829 354.229,172.067 356.546,172.476 358.007,164.191 355.69,163.783 356.177,161.021 356.456,160.253 357.858,157.824 359.896,159.001 364.103,151.716 362.065,150.539 363.467,148.11 363.992,147.484 366.14,145.682 367.653,147.485 374.097,142.077 372.585,140.274 374.733,138.472 375.44,138.063 378.076,137.104 378.88,139.315 386.786,136.438 385.981,134.227 388.616,133.268 389.421,133.126 392.225,133.126 392.225,135.479 400.638,135.479 400.638,133.126 403.442,133.126 404.247,133.268 406.882,134.227 406.077,136.438 413.982,139.315 414.787,137.104 417.422,138.063 418.13,138.472 420.278,140.274 418.765,142.077 425.21,147.485 426.722,145.682 428.871,147.484 429.396,148.11 430.798,150.539 428.76,151.716 432.966,159.001 435.004,157.824 436.406,160.253 436.686,161.021 437.173,163.783 434.855,164.191 436.316,172.476 438.634,172.067 439.121,174.829 439.193,175.238 353.67,175.238"
       id="polyline23"
       style="fill:none;fill-rule:evenodd;stroke:#0000ff;stroke-width:0.08575916;stroke-linecap:butt;stroke-linejoin:round;stroke-miterlimit:4;stroke-dasharray:none"
       transform="matrix(0,7.6399993,-7.6399985,0,2491.0204,-2620.5217)" />
    <g
       id="g4336"
       transform="translate(3.1999994,0)">
      <polyline
         transform="matrix(-7.6399986,0,0,-7.6399992,3291.4178,1376.6374)"
         style="fill:none;fill-rule:evenodd;stroke:#0000ff;stroke-width:0.08575916;stroke-linecap:butt;stroke-linejoin:round;stroke-miterlimit:4;stroke-dasharray:none"
         id="polyline21"
         points="242.49,175.238 242.418,174.829 241.931,172.067 239.614,172.476 238.153,164.191 240.47,163.783 239.983,161.021 239.704,160.253 238.302,157.824 236.264,159.001 232.057,151.716 234.095,150.539 232.693,148.11 232.168,147.484 230.02,145.682 228.507,147.485 222.063,142.077 223.575,140.274 221.427,138.472 220.719,138.063 218.084,137.104 217.28,139.315 209.374,136.438 210.179,134.227 207.544,133.268 206.739,133.126 203.935,133.126 203.935,135.479 195.522,135.479 195.522,133.126 192.718,133.126 191.913,133.268 189.278,134.227 190.083,136.438 182.178,139.315 181.373,137.104 178.738,138.063 178.03,138.472 175.882,140.274 177.395,142.077 170.95,147.485 169.438,145.682 167.289,147.484 166.764,148.11 165.362,150.539 167.4,151.716 163.194,159.001 161.156,157.824 159.754,160.253 159.474,161.021 158.987,163.783 161.305,164.191 159.844,172.476 157.526,172.067 157.039,174.829 156.967,175.238 242.49,175.238" />
      <polyline
         transform="matrix(-7.6369474,-0.21590218,0.21590213,-7.636948,5385.1241,1675.8884)"
         style="fill:none;fill-rule:evenodd;stroke:#0000ff;stroke-width:0.08575916;stroke-linecap:butt;stroke-linejoin:round;stroke-miterlimit:4;stroke-dasharray:none"
         id="polyline27"
         points="439.193,175.238 439.193,175.238 440.167,169.714 437.849,169.306 438.336,166.544 440.654,166.953 441.627,161.43 441.627,161.43 444.432,156.573 442.394,155.396 443.796,152.967 445.834,154.144 448.638,149.287 448.638,149.287 452.934,145.682 451.422,143.879 453.57,142.077 455.082,143.88 459.379,140.275 459.379,140.275 464.649,138.356 463.844,136.145 466.479,135.186 467.284,137.397 472.554,135.479 472.554,135.479 478.162,135.479 478.162,133.126 480.967,133.126 480.967,135.479 486.575,135.479 486.575,135.479 491.845,137.397 492.65,135.186 495.285,136.145 494.48,138.356 499.75,140.275 499.75,140.275 504.047,143.88 505.559,142.077 507.708,143.879 506.195,145.682 510.491,149.287 510.491,149.287 513.295,154.144 515.333,152.967 516.735,155.396 514.697,156.573 517.502,161.43 517.502,161.43 518.475,166.953 520.793,166.544 521.28,169.306 518.962,169.714 519.936,175.238 519.936,175.238 513.774,175.238 511.711,163.537 505.77,153.248 496.669,145.612 485.505,141.548 473.624,141.548 462.46,145.612 453.359,153.248 447.418,163.537 445.355,175.238 439.193,175.238" />
    </g>
    <g
       id="g4316"
       transform="matrix(0,-1.0000001,0.9999999,0,-144.19353,2312.6343)">
      <polyline
         transform="matrix(0,-7.6399992,7.6399986,0,223.9057,3552.795)"
         style="fill:none;fill-rule:evenodd;stroke:#0000ff;stroke-width:0.08575916;stroke-linecap:butt;stroke-linejoin:round;stroke-miterlimit:4;stroke-dasharray:none"
         id="polyline29"
         points="351.317,175.238 351.317,172.433 353.67,172.433 353.67,164.021 351.317,164.021 351.317,161.217 244.843,161.217 244.843,164.021 242.49,164.021 242.49,172.433 244.843,172.433 244.843,175.238 351.317,175.238" />
      <polyline
         transform="matrix(0,-7.6399992,7.6399986,0,223.9057,3552.795)"
         style="fill:none;fill-rule:evenodd;stroke:#0000ff;stroke-width:0.08575916;stroke-linecap:butt;stroke-linejoin:round;stroke-miterlimit:4;stroke-dasharray:none"
         id="polyline31"
         points="299.257,166.825 299.257,169.629 296.903,169.629 296.903,166.825 299.257,166.825" />
      <polyline
         transform="matrix(0,-7.6399992,7.6399986,0,223.9057,3552.795)"
         style="fill:none;fill-rule:evenodd;stroke:#0000ff;stroke-width:0.08575916;stroke-linecap:butt;stroke-linejoin:round;stroke-miterlimit:4;stroke-dasharray:none"
         id="polyline33"
         points="351.317,161.217 351.317,158.412 353.67,158.412 353.67,150 351.317,150 351.317,147.196 244.843,147.196 244.843,150 242.49,150 242.49,158.412 244.843,158.412 244.843,161.217 351.317,161.217" />
      <polyline
         transform="matrix(0,-7.6399992,7.6399986,0,223.9057,3552.795)"
         style="fill:none;fill-rule:evenodd;stroke:#0000ff;stroke-width:0.08575916;stroke-linecap:butt;stroke-linejoin:round;stroke-miterlimit:4;stroke-dasharray:none"
         id="polyline35"
         points="299.257,152.804 299.257,155.608 296.903,155.608 296.903,152.804 299.257,152.804" />
      <polyline
         transform="matrix(0,-7.6399992,7.6399986,0,223.9057,3552.795)"
         style="fill:none;fill-rule:evenodd;stroke:#0000ff;stroke-width:0.08575916;stroke-linecap:butt;stroke-linejoin:round;stroke-miterlimit:4;stroke-dasharray:none"
         id="polyline37"
         points="351.317,147.196 351.317,144.391 353.67,144.391 353.67,135.979 351.317,135.979 351.317,133.175 244.843,133.175 244.843,135.979 242.49,135.979 242.49,144.391 244.843,144.391 244.843,147.196 351.317,147.196" />
      <polyline
         transform="matrix(0,-7.6399992,7.6399986,0,223.9057,3552.795)"
         style="fill:none;fill-rule:evenodd;stroke:#0000ff;stroke-width:0.08575916;stroke-linecap:butt;stroke-linejoin:round;stroke-miterlimit:4;stroke-dasharray:none"
         id="polyline39"
         points="299.257,138.783 299.257,141.587 296.903,141.587 296.903,138.783 299.257,138.783" />
      <polyline
         transform="matrix(0,-7.6399992,7.6399986,0,223.9057,3552.795)"
         style="fill:none;fill-rule:evenodd;stroke:#0000ff;stroke-width:0.08575916;stroke-linecap:butt;stroke-linejoin:round;stroke-miterlimit:4;stroke-dasharray:none"
         id="polyline41"
         points="351.317,133.175 351.317,130.37 353.67,130.37 353.67,121.958 351.317,121.958 351.317,119.154 244.843,119.154 244.843,121.958 242.49,121.958 242.49,130.37 244.843,130.37 244.843,133.175 351.317,133.175" />
      <polyline
         transform="matrix(0,-7.6399992,7.6399986,0,223.9057,3552.795)"
         style="fill:none;fill-rule:evenodd;stroke:#0000ff;stroke-width:0.08575916;stroke-linecap:butt;stroke-linejoin:round;stroke-miterlimit:4;stroke-dasharray:none"
         id="polyline43"
         points="299.257,124.762 299.257,127.566 296.903,127.566 296.903,124.762 299.257,124.762" />
      <polyline
         transform="matrix(0,-7.6399992,7.6399986,0,223.9057,3552.795)"
         style="fill:none;fill-rule:evenodd;stroke:#0000ff;stroke-width:0.08575916;stroke-linecap:butt;stroke-linejoin:round;stroke-miterlimit:4;stroke-dasharray:none"
         id="polyline45"
         points="351.317,119.154 351.317,116.349 353.67,116.349 353.67,107.937 351.317,107.937 351.317,105.133 244.843,105.133 244.843,107.937 242.49,107.937 242.49,116.349 244.843,116.349 244.843,119.154 351.317,119.154" />
      <polyline
         transform="matrix(0,-7.6399992,7.6399986,0,223.9057,3552.795)"
         style="fill:none;fill-rule:evenodd;stroke:#0000ff;stroke-width:0.08575916;stroke-linecap:butt;stroke-linejoin:round;stroke-miterlimit:4;stroke-dasharray:none"
         id="polyline47"
         points="299.257,110.741 299.257,113.545 296.903,113.545 296.903,110.741 299.257,110.741" />
      <polyline
         transform="matrix(0,-7.6399992,7.6399986,0,223.9057,3552.795)"
         style="fill:none;fill-rule:evenodd;stroke:#0000ff;stroke-width:0.08575916;stroke-linecap:butt;stroke-linejoin:round;stroke-miterlimit:4;stroke-dasharray:none"
         id="polyline49"
         points="351.317,105.133 351.317,102.328 353.67,102.328 353.67,93.9158 351.317,93.9158 351.317,91.1116 244.843,91.1116 244.843,93.9158 242.49,93.9158 242.49,102.328 244.843,102.328 244.843,105.133 351.317,105.133" />
      <polyline
         transform="matrix(0,-7.6399992,7.6399986,0,223.9057,3552.795)"
         style="fill:none;fill-rule:evenodd;stroke:#0000ff;stroke-width:0.08575916;stroke-linecap:butt;stroke-linejoin:round;stroke-miterlimit:4;stroke-dasharray:none"
         id="polyline51"
         points="299.257,96.72 299.257,99.5242 296.903,99.5242 296.903,96.72 299.257,96.72" />
      <polyline
         transform="matrix(0,-7.6399992,7.6399986,0,223.9057,3552.795)"
         style="fill:none;fill-rule:evenodd;stroke:#0000ff;stroke-width:0.08575916;stroke-linecap:butt;stroke-linejoin:round;stroke-miterlimit:4;stroke-dasharray:none"
         id="polyline53"
         points="351.317,91.1116 351.317,88.3074 353.67,88.3074 353.67,79.8948 351.317,79.8948 351.317,77.0906 244.843,77.0906 244.843,79.8948 242.49,79.8948 242.49,88.3074 244.843,88.3074 244.843,91.1116 351.317,91.1116" />
      <polyline
         transform="matrix(0,-7.6399992,7.6399986,0,223.9057,3552.795)"
         style="fill:none;fill-rule:evenodd;stroke:#0000ff;stroke-width:0.08575916;stroke-linecap:butt;stroke-linejoin:round;stroke-miterlimit:4;stroke-dasharray:none"
         id="polyline55"
         points="299.257,82.699 299.257,85.5032 296.903,85.5032 296.903,82.699 299.257,82.699" />
      <polyline
         transform="matrix(0,-7.6399992,7.6399986,0,223.9057,3552.795)"
         style="fill:none;fill-rule:evenodd;stroke:#0000ff;stroke-width:0.08575916;stroke-linecap:butt;stroke-linejoin:round;stroke-miterlimit:4;stroke-dasharray:none"
         id="polyline57"
         points="351.317,77.0906 351.317,74.2864 353.67,74.2864 353.67,65.8738 351.317,65.8738 351.317,63.0696 244.843,63.0696 244.843,65.8738 242.49,65.8738 242.49,74.2864 244.843,74.2864 244.843,77.0906 351.317,77.0906" />
      <polyline
         transform="matrix(0,-7.6399992,7.6399986,0,223.9057,3552.795)"
         style="fill:none;fill-rule:evenodd;stroke:#0000ff;stroke-width:0.08575916;stroke-linecap:butt;stroke-linejoin:round;stroke-miterlimit:4;stroke-dasharray:none"
         id="polyline59"
         points="299.257,68.678 299.257,71.4822 296.903,71.4822 296.903,68.678 299.257,68.678" />
      <polyline
         transform="matrix(0,-7.6399992,7.6399986,0,223.9057,3552.795)"
         style="fill:none;fill-rule:evenodd;stroke:#0000ff;stroke-width:0.08575916;stroke-linecap:butt;stroke-linejoin:round;stroke-miterlimit:4;stroke-dasharray:none"
         id="polyline61"
         points="351.317,63.0696 351.317,60.2654 353.67,60.2654 353.67,51.8529 351.317,51.8529 351.317,49.0487 244.843,49.0487 244.843,51.8529 242.49,51.8529 242.49,60.2654 244.843,60.2654 244.843,63.0696 351.317,63.0696" />
      <polyline
         transform="matrix(0,-7.6399992,7.6399986,0,223.9057,3552.795)"
         style="fill:none;fill-rule:evenodd;stroke:#0000ff;stroke-width:0.08575916;stroke-linecap:butt;stroke-linejoin:round;stroke-miterlimit:4;stroke-dasharray:none"
         id="polyline63"
         points="299.257,54.6571 299.257,57.4612 296.903,57.4612 296.903,54.6571 299.257,54.6571" />
    </g>
    <g
       id="g4308"
       transform="translate(3.1999994,1.5999998)">
      <polyline
         transform="matrix(0,7.6399991,-7.6399987,0,3893.1423,-1731.2053)"
         style="fill:none;fill-rule:evenodd;stroke:#0000ff;stroke-width:0.08575916;stroke-linecap:butt;stroke-linejoin:round;stroke-miterlimit:4;stroke-dasharray:none"
         id="polyline65"
         points="341.311,237.311 343.715,221.786 346.041,222.146 348.445,206.621 346.12,206.261 348.524,190.735 350.85,191.095 353.254,175.57 350.928,175.21 245.232,175.21 242.906,175.57 245.31,191.095 247.636,190.735 250.04,206.261 247.715,206.621 250.119,222.146 252.445,221.786 254.849,237.311 254.849,237.311 272.141,237.311 272.141,239.665 289.434,239.665 289.434,237.311 306.726,237.311 306.726,239.665 324.018,239.665 324.018,237.311 341.311,237.311 341.311,237.311" />
      <polyline
         transform="matrix(0,7.6399991,-7.6399987,0,4887.4629,-979.3909)"
         style="fill:none;fill-rule:evenodd;stroke:#0000ff;stroke-width:0.08575916;stroke-linecap:butt;stroke-linejoin:round;stroke-miterlimit:4;stroke-dasharray:none"
         id="polyline67"
         points="254.849,305.73 252.445,321.255 250.119,320.895 247.715,336.42 250.04,336.781 247.636,352.306 245.31,351.946 242.906,367.471 245.232,367.831 350.928,367.831 353.254,367.471 350.85,351.946 348.524,352.306 346.12,336.781 348.445,336.42 346.041,320.895 343.715,321.255 341.311,305.73 341.311,305.73 324.018,305.73 324.018,303.376 306.726,303.376 306.726,305.73 289.434,305.73 289.434,303.376 272.141,303.376 272.141,305.73 254.849,305.73 254.849,305.73" />
    </g>
    <g
       id="g4312"
       transform="translate(-4.7999991,1.5999998)">
      <polyline
         transform="matrix(7.6399984,0,0,7.6399994,-1039.6913,-1232.5444)"
         style="fill:none;fill-rule:evenodd;stroke:#0000ff;stroke-width:0.08575916;stroke-linecap:butt;stroke-linejoin:round;stroke-miterlimit:4;stroke-dasharray:none"
         id="polyline69"
         points="343.692,303.355 343.38,305.688 358.951,307.773 359.264,305.441 374.835,307.526 374.523,309.859 390.094,311.944 390.406,309.612 405.978,311.697 405.978,231.344 390.406,233.429 390.094,231.097 374.523,233.182 374.835,235.515 359.264,237.6 358.951,235.268 343.38,237.353 343.692,239.686 343.692,239.686 343.692,252.42 341.339,252.42 341.339,265.154 343.692,265.154 343.692,277.888 341.339,277.888 341.339,290.621 343.692,290.621 343.692,303.355 343.692,303.355" />
      <polyline
         transform="matrix(7.6399984,0,0,7.6399994,130.92178,-664.4705)"
         style="fill:none;fill-rule:evenodd;stroke:#0000ff;stroke-width:0.08575916;stroke-linecap:butt;stroke-linejoin:round;stroke-miterlimit:4;stroke-dasharray:none"
         id="polyline71"
         points="252.468,239.686 252.78,237.353 237.209,235.268 236.896,237.6 221.325,235.515 221.637,233.182 206.066,231.097 205.753,233.429 190.182,231.344 190.182,311.697 205.753,309.612 206.066,311.944 221.637,309.859 221.325,307.526 236.896,305.441 237.209,307.773 252.78,305.688 252.468,303.355 252.468,303.355 252.468,290.621 254.821,290.621 254.821,277.888 252.468,277.888 252.468,265.154 254.821,265.154 254.821,252.42 252.468,252.42 252.468,239.686 252.468,239.686" />
    </g>
    <polyline
       points="343.692,305.73 343.692,303.376 343.692,290.634 341.339,290.634 341.339,277.892 343.692,277.892 343.692,265.149 341.339,265.149 341.339,252.407 343.692,252.407 343.692,239.665 343.692,237.311 341.339,237.311 324.035,237.311 324.035,239.665 306.732,239.665 306.732,237.311 289.428,237.311 289.428,239.665 272.125,239.665 272.125,237.311 254.821,237.311 252.468,237.311 252.468,239.665 252.468,252.407 254.821,252.407 254.821,265.149 252.468,265.149 252.468,277.892 254.821,277.892 254.821,290.634 252.468,290.634 252.468,303.376 252.468,305.73 254.821,305.73 272.125,305.73 272.125,303.376 289.428,303.376 289.428,305.73 306.732,305.73 306.732,303.376 324.035,303.376 324.035,305.73 341.339,305.73 343.692,305.73"
       id="polyline73"
       style="fill:none;fill-rule:evenodd;stroke:#0000ff;stroke-width:0.08575916;stroke-linecap:butt;stroke-linejoin:round;stroke-miterlimit:4;stroke-dasharray:none"
       transform="matrix(0,-7.6399991,7.6399987,0,-1189.2443,2655.9126)" />
  </g>
  <g
     inkscape:groupmode="layer"
     id="layer2"
     inkscape:label="Score"
     style="display:inline">
    <path
       style="fill:none;fill-rule:evenodd;stroke:#ff0000;stroke-width:1.22239983;stroke-linecap:butt;stroke-linejoin:miter;stroke-miterlimit:4;stroke-dasharray:none;stroke-opacity:1"
       d="m 2315.0871,1666.1182 0,-732.23754"
       id="path4271"
       inkscape:connector-curvature="0" />
    <path
       style="fill:none;fill-rule:evenodd;stroke:#ff0000;stroke-width:1.22239983;stroke-linecap:butt;stroke-linejoin:miter;stroke-miterlimit:4;stroke-dasharray:none;stroke-opacity:1"
       d="m 1818.9675,564.75069 0,553.68711"
       id="path4273"
       inkscape:connector-curvature="0" />
    <path
       style="fill:none;fill-rule:evenodd;stroke:#ff0000;stroke-width:1.22239983;stroke-linecap:butt;stroke-linejoin:miter;stroke-miterlimit:4;stroke-dasharray:none;stroke-opacity:1"
       d="m 2321.9961,184.63546 0,728.63053"
       id="path4275"
       inkscape:connector-curvature="0" />
    <path
       style="fill:none;fill-rule:evenodd;stroke:#ff0000;stroke-width:1.22239983;stroke-linecap:butt;stroke-linejoin:miter;stroke-miterlimit:4;stroke-dasharray:none;stroke-opacity:1"
       d="m 1817.3697,1690.2596 0,-553.687"
       id="path4277"
       inkscape:connector-curvature="0" />
    <path
       style="fill:none;fill-rule:evenodd;stroke:#ff0000;stroke-width:1.22239983;stroke-linecap:butt;stroke-linejoin:miter;stroke-miterlimit:4;stroke-dasharray:none;stroke-opacity:1"
       d="m 836.46547,708.49186 0,-660.884066"
       id="path4279"
       inkscape:connector-curvature="0"
       sodipodi:nodetypes="cc" />
    <path
       style="fill:none;fill-rule:evenodd;stroke:#ff0000;stroke-width:1.22239983;stroke-linecap:butt;stroke-linejoin:miter;stroke-miterlimit:4;stroke-dasharray:none;stroke-opacity:1"
       d="m 1030.1769,709.02081 0,-660.489939"
       id="path4281"
       inkscape:connector-curvature="0"
       sodipodi:nodetypes="cc" />
  </g>
</svg>
