<?xml version='1.0' encoding='UTF-8' standalone='no'?>
<svg xmlns="http://www.w3.org/2000/svg" viewBox="0 0 428 319" xmlns:xlink="http://www.w3.org/1999/xlink" height="319pt" width="428pt">
 <title>gl2ps_renderer figure</title>
 <desc>
Creator: GL2PS 1.4.2, (C) 1999-2020 C. Geuzaine
For: Octave
CreationDate: Sat Nov 23 10:28:34 2024
</desc>
 <defs/>
 <polygon fill="#ffffff" points="0,0 428,0 428,319 0,319"/>
 <g>
  <polygon fill="#ffffff" shape-rendering="crispEdges" points="0,319 428,319 428,0 0,0"/>
  <clipPath id="cp00428319">
   <polygon points="0,319 428,319 428,0 0,0"/>
  </clipPath>
  <g clip-path="url(#cp00428319)">
   <text font-size="11" font-family="FreeSans" font-style="normal" font-weight="bold" xml:space="preserve" transform="translate(199.714,13.9846) rotate(-0,22,0)">
    <tspan fill="rgb(0,0,0)" x="0 6 9 12 15 18 25 32 38 " y="-1">all lunes</tspan>
   </text>
   <polyline stroke-linecap="butt" fill="none" stroke="#000000" stroke-width="0.5" stroke-linejoin="round" points="69.5311,238.266 70.0194,236.379 70.507,234.492 70.9934,232.605 71.478,230.718 71.9602,228.831 72.4394,226.945 72.9149,225.058 73.3862,223.171 73.8527,221.284 74.3139,219.397 74.769,217.51 75.2177,215.623 75.6592,213.737 76.0931,211.85 76.5189,209.963 76.9359,208.076 77.3438,206.189 77.7418,204.302 78.1297,202.416 78.5068,200.529 78.8728,198.642 79.2271,196.755 79.5693,194.868 79.8991,192.981 80.2159,191.094 80.5194,189.208 80.8092,187.321 81.085,185.434 81.3463,183.547 81.593,181.66 81.8246,179.773 82.0409,177.887 82.2416,176 82.4265,174.113 82.5953,172.226 82.7479,170.339 82.8839,168.452 83.0034,166.565 83.106,164.679 83.1918,162.792 83.2605,160.905 83.3121,159.018 83.3466,157.131 83.3638,155.244 83.3638,153.357 83.3466,151.471 83.3121,149.584 83.2605,147.697 83.1918,145.81 83.106,143.923 83.0034,142.036 82.8839,140.15 82.7479,138.263 82.5953,136.376 82.4265,134.489 82.2416,132.602 82.0409,130.715 81.8246,128.828 81.593,126.942 81.3463,125.055 81.085,123.168 80.8092,121.281 80.5194,119.394 80.2159,117.507 79.8991,115.621 79.5693,113.734 79.2271,111.847 78.8728,109.96 78.5068,108.073 78.1297,106.186 77.7418,104.299 77.3438,102.413 76.9359,100.526 76.5189,98.6389 76.0931,96.752 75.6592,94.8652 75.2177,92.9783 74.769,91.0915 74.3139,89.2047 73.8527,87.3178 73.3862,85.4309 72.9149,83.5441 72.4394,81.6573 71.9602,79.7704 71.478,77.8835 70.9934,75.9967 70.507,74.1099 70.0194,72.223 69.5311,70.3362 69.5311,70.3362 69.0429,72.223 68.5552,74.1099 68.0688,75.9967 67.5842,77.8835 67.102,79.7704 66.6228,81.6573 66.1473,83.5441 65.676,85.4309 65.2095,87.3178 64.7484,89.2047 64.2932,91.0915 63.8446,92.9783 63.403,94.8652 62.9691,96.752 62.5434,98.6389 62.1263,100.526 61.7185,102.413 61.3204,104.299 60.9325,106.186 60.5554,108.073 60.1895,109.96 59.8351,111.847 59.4929,113.734 59.1632,115.621 58.8463,117.507 58.5428,119.394 58.253,121.281 57.9773,123.168 57.7159,125.055 57.4693,126.942 57.2376,128.828 57.0213,130.715 56.8206,132.602 56.6357,134.489 56.4669,136.376 56.3144,138.263 56.1783,140.15 56.0589,142.036 55.9562,143.923 55.8705,145.81 55.8017,147.697 55.7501,149.584 55.7157,151.471 55.6985,153.357 55.6985,155.244 55.7157,157.131 55.7501,159.018 55.8017,160.905 55.8705,162.792 55.9562,164.679 56.0589,166.565 56.1783,168.452 56.3144,170.339 56.4669,172.226 56.6357,174.113 56.8206,176 57.0213,177.887 57.2376,179.773 57.4693,181.66 57.7159,183.547 57.9773,185.434 58.253,187.321 58.5428,189.208 58.8463,191.094 59.1632,192.981 59.4929,194.868 59.8351,196.755 60.1895,198.642 60.5554,200.529 60.9325,202.416 61.3204,204.302 61.7185,206.189 62.1263,208.076 62.5434,209.963 62.9691,211.85 63.403,213.737 63.8446,215.623 64.2932,217.51 64.7484,219.397 65.2095,221.284 65.676,223.171 66.1473,225.058 66.6228,226.945 67.102,228.831 67.5842,230.718 68.0688,232.605 68.5552,234.492 69.0429,236.379 69.5311,238.266 69.5311,238.266"/>
   <polyline stroke-linecap="butt" fill="none" stroke="#000000" stroke-width="0.5" stroke-linejoin="round" points="73.1118,224.272 65.9504,224.272"/>
   <polyline stroke-linecap="butt" fill="none" stroke="#000000" stroke-width="0.5" stroke-linejoin="round" points="76.4485,210.277 62.6137,210.277"/>
   <polyline stroke-linecap="butt" fill="none" stroke="#000000" stroke-width="0.5" stroke-linejoin="round" points="79.3138,196.283 59.7484,196.283"/>
   <polyline stroke-linecap="butt" fill="none" stroke="#000000" stroke-width="0.5" stroke-linejoin="round" points="81.5124,182.289 57.5498,182.289"/>
   <polyline stroke-linecap="butt" fill="none" stroke="#000000" stroke-width="0.5" stroke-linejoin="round" points="82.8945,168.295 56.1677,168.295"/>
   <polyline stroke-linecap="butt" fill="none" stroke="#000000" stroke-width="0.5" stroke-linejoin="round" points="83.3659,154.301 55.6963,154.301"/>
   <polyline stroke-linecap="butt" fill="none" stroke="#000000" stroke-width="0.5" stroke-linejoin="round" points="82.8945,140.307 56.1677,140.307"/>
   <polyline stroke-linecap="butt" fill="none" stroke="#000000" stroke-width="0.5" stroke-linejoin="round" points="81.5124,126.313 57.5498,126.313"/>
   <polyline stroke-linecap="butt" fill="none" stroke="#000000" stroke-width="0.5" stroke-linejoin="round" points="79.3138,112.319 59.7484,112.319"/>
   <polyline stroke-linecap="butt" fill="none" stroke="#000000" stroke-width="0.5" stroke-linejoin="round" points="76.4485,98.3244 62.6137,98.3244"/>
   <polyline stroke-linecap="butt" fill="none" stroke="#000000" stroke-width="0.5" stroke-linejoin="round" points="73.1118,84.3303 65.9504,84.3303"/>
   <polyline stroke-linecap="butt" fill="none" stroke="#000000" stroke-width="0.5" stroke-linejoin="round" points="69.5311,70.3362 69.5311,70.3362"/>
   <polyline stroke-linecap="butt" fill="none" stroke="#000000" stroke-width="0.5" stroke-linejoin="round" points="97.2007,238.266 97.689,236.379 98.1766,234.492 98.6631,232.605 99.1477,230.718 99.6299,228.831 100.109,226.945 100.585,225.058 101.056,223.171 101.522,221.284 101.983,219.397 102.439,217.51 102.887,215.623 103.329,213.737 103.763,211.85 104.189,209.963 104.606,208.076 105.013,206.189 105.411,204.302 105.799,202.416 106.176,200.529 106.542,198.642 106.897,196.755 107.239,194.868 107.569,192.981 107.886,191.094 108.189,189.208 108.479,187.321 108.755,185.434 109.016,183.547 109.263,181.66 109.494,179.773 109.711,177.887 109.911,176 110.096,174.113 110.265,172.226 110.417,170.339 110.554,168.452 110.673,166.565 110.776,164.679 110.861,162.792 110.93,160.905 110.982,159.018 111.016,157.131 111.033,155.244 111.033,153.357 111.016,151.471 110.982,149.584 110.93,147.697 110.861,145.81 110.776,143.923 110.673,142.036 110.554,140.15 110.417,138.263 110.265,136.376 110.096,134.489 109.911,132.602 109.711,130.715 109.494,128.828 109.263,126.942 109.016,125.055 108.755,123.168 108.479,121.281 108.189,119.394 107.886,117.507 107.569,115.621 107.239,113.734 106.897,111.847 106.542,109.96 106.176,108.073 105.799,106.186 105.411,104.299 105.013,102.413 104.606,100.526 104.189,98.6389 103.763,96.752 103.329,94.8652 102.887,92.9783 102.439,91.0915 101.983,89.2047 101.522,87.3178 101.056,85.4309 100.585,83.5441 100.109,81.6573 99.6299,79.7704 99.1477,77.8835 98.6631,75.9967 98.1766,74.1099 97.689,72.223 97.2007,70.3362 97.2007,70.3362 96.7125,72.223 96.2249,74.1099 95.7384,75.9967 95.2538,77.8835 94.7716,79.7704 94.2925,81.6573 93.817,83.5441 93.3456,85.4309 92.8791,87.3178 92.418,89.2047 91.9628,91.0915 91.5142,92.9783 91.0726,94.8652 90.6387,96.752 90.213,98.6389 89.7959,100.526 89.3881,102.413 88.99,104.299 88.6022,106.186 88.225,108.073 87.8591,109.96 87.5048,111.847 87.1625,113.734 86.8328,115.621 86.516,117.507 86.2125,119.394 85.9227,121.281 85.6469,123.168 85.3855,125.055 85.1389,126.942 84.9073,128.828 84.691,130.715 84.4902,132.602 84.3054,134.489 84.1365,136.376 83.984,138.263 83.8479,140.15 83.7285,142.036 83.6258,143.923 83.5401,145.81 83.4714,147.697 83.4198,149.584 83.3853,151.471 83.3681,153.357 83.3681,155.244 83.3853,157.131 83.4198,159.018 83.4714,160.905 83.5401,162.792 83.6258,164.679 83.7285,166.565 83.8479,168.452 83.984,170.339 84.1365,172.226 84.3054,174.113 84.4902,176 84.691,177.887 84.9073,179.773 85.1389,181.66 85.3855,183.547 85.6469,185.434 85.9227,187.321 86.2125,189.208 86.516,191.094 86.8328,192.981 87.1625,194.868 87.5048,196.755 87.8591,198.642 88.225,200.529 88.6022,202.416 88.99,204.302 89.3881,206.189 89.7959,208.076 90.213,209.963 90.6387,211.85 91.0726,213.737 91.5142,215.623 91.9628,217.51 92.418,219.397 92.8791,221.284 93.3456,223.171 93.817,225.058 94.2925,226.945 94.7716,228.831 95.2538,230.718 95.7384,232.605 96.2249,234.492 96.7125,236.379 97.2007,238.266 97.2007,238.266"/>
   <polyline stroke-linecap="butt" fill="none" stroke="#000000" stroke-width="0.5" stroke-linejoin="round" points="100.781,224.272 93.62,224.272"/>
   <polyline stroke-linecap="butt" fill="none" stroke="#000000" stroke-width="0.5" stroke-linejoin="round" points="104.118,210.277 90.2833,210.277"/>
   <polyline stroke-linecap="butt" fill="none" stroke="#000000" stroke-width="0.5" stroke-linejoin="round" points="106.983,196.283 87.418,196.283"/>
   <polyline stroke-linecap="butt" fill="none" stroke="#000000" stroke-width="0.5" stroke-linejoin="round" points="109.182,182.289 85.2195,182.289"/>
   <polyline stroke-linecap="butt" fill="none" stroke="#000000" stroke-width="0.5" stroke-linejoin="round" points="110.564,168.295 83.8373,168.295"/>
   <polyline stroke-linecap="butt" fill="none" stroke="#000000" stroke-width="0.5" stroke-linejoin="round" points="111.036,154.301 83.3659,154.301"/>
   <polyline stroke-linecap="butt" fill="none" stroke="#000000" stroke-width="0.5" stroke-linejoin="round" points="110.564,140.307 83.8373,140.307"/>
   <polyline stroke-linecap="butt" fill="none" stroke="#000000" stroke-width="0.5" stroke-linejoin="round" points="109.182,126.313 85.2195,126.313"/>
   <polyline stroke-linecap="butt" fill="none" stroke="#000000" stroke-width="0.5" stroke-linejoin="round" points="106.983,112.319 87.418,112.319"/>
   <polyline stroke-linecap="butt" fill="none" stroke="#000000" stroke-width="0.5" stroke-linejoin="round" points="104.118,98.3244 90.2833,98.3244"/>
   <polyline stroke-linecap="butt" fill="none" stroke="#000000" stroke-width="0.5" stroke-linejoin="round" points="100.781,84.3303 93.62,84.3303"/>
   <polyline stroke-linecap="butt" fill="none" stroke="#000000" stroke-width="0.5" stroke-linejoin="round" points="97.2007,70.3362 97.2007,70.3362"/>
   <polyline stroke-linecap="butt" fill="none" stroke="#000000" stroke-width="0.5" stroke-linejoin="round" points="124.87,238.266 125.359,236.379 125.846,234.492 126.333,232.605 126.817,230.718 127.299,228.831 127.779,226.945 128.254,225.058 128.725,223.171 129.192,221.284 129.653,219.397 130.108,217.51 130.557,215.623 130.998,213.737 131.432,211.85 131.858,209.963 132.275,208.076 132.683,206.189 133.081,204.302 133.469,202.416 133.846,200.529 134.212,198.642 134.566,196.755 134.909,194.868 135.238,192.981 135.555,191.094 135.859,189.208 136.148,187.321 136.424,185.434 136.686,183.547 136.932,181.66 137.164,179.773 137.38,177.887 137.581,176 137.766,174.113 137.935,172.226 138.087,170.339 138.223,168.452 138.343,166.565 138.445,164.679 138.531,162.792 138.6,160.905 138.651,159.018 138.686,157.131 138.703,155.244 138.703,153.357 138.686,151.471 138.651,149.584 138.6,147.697 138.531,145.81 138.445,143.923 138.343,142.036 138.223,140.15 138.087,138.263 137.935,136.376 137.766,134.489 137.581,132.602 137.38,130.715 137.164,128.828 136.932,126.942 136.686,125.055 136.424,123.168 136.148,121.281 135.859,119.394 135.555,117.507 135.238,115.621 134.909,113.734 134.566,111.847 134.212,109.96 133.846,108.073 133.469,106.186 133.081,104.299 132.683,102.413 132.275,100.526 131.858,98.6389 131.432,96.752 130.998,94.8652 130.557,92.9783 130.108,91.0915 129.653,89.2047 129.192,87.3178 128.725,85.4309 128.254,83.5441 127.779,81.6573 127.299,79.7704 126.817,77.8835 126.333,75.9967 125.846,74.1099 125.359,72.223 124.87,70.3362 124.87,70.3362 124.382,72.223 123.894,74.1099 123.408,75.9967 122.923,77.8835 122.441,79.7704 121.962,81.6573 121.487,83.5441 121.015,85.4309 120.549,87.3178 120.088,89.2047 119.632,91.0915 119.184,92.9783 118.742,94.8652 118.308,96.752 117.883,98.6389 117.466,100.526 117.058,102.413 116.66,104.299 116.272,106.186 115.895,108.073 115.529,109.96 115.174,111.847 114.832,113.734 114.502,115.621 114.186,117.507 113.882,119.394 113.592,121.281 113.317,123.168 113.055,125.055 112.809,126.942 112.577,128.828 112.361,130.715 112.16,132.602 111.975,134.489 111.806,136.376 111.654,138.263 111.518,140.15 111.398,142.036 111.295,143.923 111.21,145.81 111.141,147.697 111.089,149.584 111.055,151.471 111.038,153.357 111.038,155.244 111.055,157.131 111.089,159.018 111.141,160.905 111.21,162.792 111.295,164.679 111.398,166.565 111.518,168.452 111.654,170.339 111.806,172.226 111.975,174.113 112.16,176 112.361,177.887 112.577,179.773 112.809,181.66 113.055,183.547 113.317,185.434 113.592,187.321 113.882,189.208 114.186,191.094 114.502,192.981 114.832,194.868 115.174,196.755 115.529,198.642 115.895,200.529 116.272,202.416 116.66,204.302 117.058,206.189 117.466,208.076 117.883,209.963 118.308,211.85 118.742,213.737 119.184,215.623 119.632,217.51 120.088,219.397 120.549,221.284 121.015,223.171 121.487,225.058 121.962,226.945 122.441,228.831 122.923,230.718 123.408,232.605 123.894,234.492 124.382,236.379 124.87,238.266 124.87,238.266"/>
   <polyline stroke-linecap="butt" fill="none" stroke="#000000" stroke-width="0.5" stroke-linejoin="round" points="128.451,224.272 121.29,224.272"/>
   <polyline stroke-linecap="butt" fill="none" stroke="#000000" stroke-width="0.5" stroke-linejoin="round" points="131.788,210.277 117.953,210.277"/>
   <polyline stroke-linecap="butt" fill="none" stroke="#000000" stroke-width="0.5" stroke-linejoin="round" points="134.653,196.283 115.088,196.283"/>
   <polyline stroke-linecap="butt" fill="none" stroke="#000000" stroke-width="0.5" stroke-linejoin="round" points="136.852,182.289 112.889,182.289"/>
   <polyline stroke-linecap="butt" fill="none" stroke="#000000" stroke-width="0.5" stroke-linejoin="round" points="138.234,168.295 111.507,168.295"/>
   <polyline stroke-linecap="butt" fill="none" stroke="#000000" stroke-width="0.5" stroke-linejoin="round" points="138.705,154.301 111.036,154.301"/>
   <polyline stroke-linecap="butt" fill="none" stroke="#000000" stroke-width="0.5" stroke-linejoin="round" points="138.234,140.307 111.507,140.307"/>
   <polyline stroke-linecap="butt" fill="none" stroke="#000000" stroke-width="0.5" stroke-linejoin="round" points="136.852,126.313 112.889,126.313"/>
   <polyline stroke-linecap="butt" fill="none" stroke="#000000" stroke-width="0.5" stroke-linejoin="round" points="134.653,112.319 115.088,112.319"/>
   <polyline stroke-linecap="butt" fill="none" stroke="#000000" stroke-width="0.5" stroke-linejoin="round" points="131.788,98.3244 117.953,98.3244"/>
   <polyline stroke-linecap="butt" fill="none" stroke="#000000" stroke-width="0.5" stroke-linejoin="round" points="128.451,84.3303 121.29,84.3303"/>
   <polyline stroke-linecap="butt" fill="none" stroke="#000000" stroke-width="0.5" stroke-linejoin="round" points="124.87,70.3362 124.87,70.3362"/>
   <polyline stroke-linecap="butt" fill="none" stroke="#000000" stroke-width="0.5" stroke-linejoin="round" points="152.54,238.266 153.028,236.379 153.516,234.492 154.002,232.605 154.487,230.718 154.969,228.831 155.448,226.945 155.924,225.058 156.395,223.171 156.862,221.284 157.323,219.397 157.778,217.51 158.227,215.623 158.668,213.737 159.102,211.85 159.528,209.963 159.945,208.076 160.353,206.189 160.751,204.302 161.139,202.416 161.516,200.529 161.882,198.642 162.236,196.755 162.578,194.868 162.908,192.981 163.225,191.094 163.528,189.208 163.818,187.321 164.094,185.434 164.355,183.547 164.602,181.66 164.833,179.773 165.05,177.887 165.251,176 165.435,174.113 165.604,172.226 165.757,170.339 165.893,168.452 166.012,166.565 166.115,164.679 166.201,162.792 166.269,160.905 166.321,159.018 166.355,157.131 166.373,155.244 166.373,153.357 166.355,151.471 166.321,149.584 166.269,147.697 166.201,145.81 166.115,143.923 166.012,142.036 165.893,140.15 165.757,138.263 165.604,136.376 165.435,134.489 165.251,132.602 165.05,130.715 164.833,128.828 164.602,126.942 164.355,125.055 164.094,123.168 163.818,121.281 163.528,119.394 163.225,117.507 162.908,115.621 162.578,113.734 162.236,111.847 161.882,109.96 161.516,108.073 161.139,106.186 160.751,104.299 160.353,102.413 159.945,100.526 159.528,98.6389 159.102,96.752 158.668,94.8652 158.227,92.9783 157.778,91.0915 157.323,89.2047 156.862,87.3178 156.395,85.4309 155.924,83.5441 155.448,81.6573 154.969,79.7704 154.487,77.8835 154.002,75.9967 153.516,74.1099 153.028,72.223 152.54,70.3362 152.54,70.3362 152.052,72.223 151.564,74.1099 151.078,75.9967 150.593,77.8835 150.111,79.7704 149.632,81.6573 149.156,83.5441 148.685,85.4309 148.218,87.3178 147.757,89.2047 147.302,91.0915 146.853,92.9783 146.412,94.8652 145.978,96.752 145.552,98.6389 145.135,100.526 144.727,102.413 144.329,104.299 143.941,106.186 143.564,108.073 143.198,109.96 142.844,111.847 142.502,113.734 142.172,115.621 141.855,117.507 141.552,119.394 141.262,121.281 140.986,123.168 140.725,125.055 140.478,126.942 140.247,128.828 140.03,130.715 139.829,132.602 139.645,134.489 139.476,136.376 139.323,138.263 139.187,140.15 139.068,142.036 138.965,143.923 138.879,145.81 138.811,147.697 138.759,149.584 138.725,151.471 138.707,153.357 138.707,155.244 138.725,157.131 138.759,159.018 138.811,160.905 138.879,162.792 138.965,164.679 139.068,166.565 139.187,168.452 139.323,170.339 139.476,172.226 139.645,174.113 139.829,176 140.03,177.887 140.247,179.773 140.478,181.66 140.725,183.547 140.986,185.434 141.262,187.321 141.552,189.208 141.855,191.094 142.172,192.981 142.502,194.868 142.844,196.755 143.198,198.642 143.564,200.529 143.941,202.416 144.329,204.302 144.727,206.189 145.135,208.076 145.552,209.963 145.978,211.85 146.412,213.737 146.853,215.623 147.302,217.51 147.757,219.397 148.218,221.284 148.685,223.171 149.156,225.058 149.632,226.945 150.111,228.831 150.593,230.718 151.078,232.605 151.564,234.492 152.052,236.379 152.54,238.266 152.54,238.266"/>
   <polyline stroke-linecap="butt" fill="none" stroke="#000000" stroke-width="0.5" stroke-linejoin="round" points="156.121,224.272 148.959,224.272"/>
   <polyline stroke-linecap="butt" fill="none" stroke="#000000" stroke-width="0.5" stroke-linejoin="round" points="159.457,210.277 145.623,210.277"/>
   <polyline stroke-linecap="butt" fill="none" stroke="#000000" stroke-width="0.5" stroke-linejoin="round" points="162.323,196.283 142.757,196.283"/>
   <polyline stroke-linecap="butt" fill="none" stroke="#000000" stroke-width="0.5" stroke-linejoin="round" points="164.521,182.289 140.559,182.289"/>
   <polyline stroke-linecap="butt" fill="none" stroke="#000000" stroke-width="0.5" stroke-linejoin="round" points="165.903,168.295 139.177,168.295"/>
   <polyline stroke-linecap="butt" fill="none" stroke="#000000" stroke-width="0.5" stroke-linejoin="round" points="166.375,154.301 138.705,154.301"/>
   <polyline stroke-linecap="butt" fill="none" stroke="#000000" stroke-width="0.5" stroke-linejoin="round" points="165.903,140.307 139.177,140.307"/>
   <polyline stroke-linecap="butt" fill="none" stroke="#000000" stroke-width="0.5" stroke-linejoin="round" points="164.521,126.313 140.559,126.313"/>
   <polyline stroke-linecap="butt" fill="none" stroke="#000000" stroke-width="0.5" stroke-linejoin="round" points="162.323,112.319 142.757,112.319"/>
   <polyline stroke-linecap="butt" fill="none" stroke="#000000" stroke-width="0.5" stroke-linejoin="round" points="159.457,98.3244 145.623,98.3244"/>
   <polyline stroke-linecap="butt" fill="none" stroke="#000000" stroke-width="0.5" stroke-linejoin="round" points="156.121,84.3303 148.959,84.3303"/>
   <polyline stroke-linecap="butt" fill="none" stroke="#000000" stroke-width="0.5" stroke-linejoin="round" points="152.54,70.3362 152.54,70.3362"/>
   <polyline stroke-linecap="butt" fill="none" stroke="#000000" stroke-width="0.5" stroke-linejoin="round" points="180.21,238.266 180.698,236.379 181.186,234.492 181.672,232.605 182.157,230.718 182.639,228.831 183.118,226.945 183.593,225.058 184.065,223.171 184.531,221.284 184.992,219.397 185.448,217.51 185.896,215.623 186.338,213.737 186.772,211.85 187.197,209.963 187.614,208.076 188.022,206.189 188.42,204.302 188.808,202.416 189.185,200.529 189.551,198.642 189.906,196.755 190.248,194.868 190.578,192.981 190.894,191.094 191.198,189.208 191.488,187.321 191.763,185.434 192.025,183.547 192.271,181.66 192.503,179.773 192.719,177.887 192.92,176 193.105,174.113 193.274,172.226 193.426,170.339 193.562,168.452 193.682,166.565 193.785,164.679 193.87,162.792 193.939,160.905 193.991,159.018 194.025,157.131 194.042,155.244 194.042,153.357 194.025,151.471 193.991,149.584 193.939,147.697 193.87,145.81 193.785,143.923 193.682,142.036 193.562,140.15 193.426,138.263 193.274,136.376 193.105,134.489 192.92,132.602 192.719,130.715 192.503,128.828 192.271,126.942 192.025,125.055 191.763,123.168 191.488,121.281 191.198,119.394 190.894,117.507 190.578,115.621 190.248,113.734 189.906,111.847 189.551,109.96 189.185,108.073 188.808,106.186 188.42,104.299 188.022,102.413 187.614,100.526 187.197,98.6389 186.772,96.752 186.338,94.8652 185.896,92.9783 185.448,91.0915 184.992,89.2047 184.531,87.3178 184.065,85.4309 183.593,83.5441 183.118,81.6573 182.639,79.7704 182.157,77.8835 181.672,75.9967 181.186,74.1099 180.698,72.223 180.21,70.3362 180.21,70.3362 179.721,72.223 179.234,74.1099 178.747,75.9967 178.263,77.8835 177.781,79.7704 177.301,81.6573 176.826,83.5441 176.355,85.4309 175.888,87.3178 175.427,89.2047 174.972,91.0915 174.523,92.9783 174.082,94.8652 173.648,96.752 173.222,98.6389 172.805,100.526 172.397,102.413 171.999,104.299 171.611,106.186 171.234,108.073 170.868,109.96 170.514,111.847 170.171,113.734 169.842,115.621 169.525,117.507 169.221,119.394 168.932,121.281 168.656,123.168 168.394,125.055 168.148,126.942 167.916,128.828 167.7,130.715 167.499,132.602 167.314,134.489 167.145,136.376 166.993,138.263 166.857,140.15 166.737,142.036 166.635,143.923 166.549,145.81 166.48,147.697 166.429,149.584 166.394,151.471 166.377,153.357 166.377,155.244 166.394,157.131 166.429,159.018 166.48,160.905 166.549,162.792 166.635,164.679 166.737,166.565 166.857,168.452 166.993,170.339 167.145,172.226 167.314,174.113 167.499,176 167.7,177.887 167.916,179.773 168.148,181.66 168.394,183.547 168.656,185.434 168.932,187.321 169.221,189.208 169.525,191.094 169.842,192.981 170.171,194.868 170.514,196.755 170.868,198.642 171.234,200.529 171.611,202.416 171.999,204.302 172.397,206.189 172.805,208.076 173.222,209.963 173.648,211.85 174.082,213.737 174.523,215.623 174.972,217.51 175.427,219.397 175.888,221.284 176.355,223.171 176.826,225.058 177.301,226.945 177.781,228.831 178.263,230.718 178.747,232.605 179.234,234.492 179.721,236.379 180.21,238.266 180.21,238.266"/>
   <polyline stroke-linecap="butt" fill="none" stroke="#000000" stroke-width="0.5" stroke-linejoin="round" points="183.79,224.272 176.629,224.272"/>
   <polyline stroke-linecap="butt" fill="none" stroke="#000000" stroke-width="0.5" stroke-linejoin="round" points="187.127,210.277 173.292,210.277"/>
   <polyline stroke-linecap="butt" fill="none" stroke="#000000" stroke-width="0.5" stroke-linejoin="round" points="189.992,196.283 170.427,196.283"/>
   <polyline stroke-linecap="butt" fill="none" stroke="#000000" stroke-width="0.5" stroke-linejoin="round" points="192.191,182.289 168.228,182.289"/>
   <polyline stroke-linecap="butt" fill="none" stroke="#000000" stroke-width="0.5" stroke-linejoin="round" points="193.573,168.295 166.846,168.295"/>
   <polyline stroke-linecap="butt" fill="none" stroke="#000000" stroke-width="0.5" stroke-linejoin="round" points="194.044,154.301 166.375,154.301"/>
   <polyline stroke-linecap="butt" fill="none" stroke="#000000" stroke-width="0.5" stroke-linejoin="round" points="193.573,140.307 166.846,140.307"/>
   <polyline stroke-linecap="butt" fill="none" stroke="#000000" stroke-width="0.5" stroke-linejoin="round" points="192.191,126.313 168.228,126.313"/>
   <polyline stroke-linecap="butt" fill="none" stroke="#000000" stroke-width="0.5" stroke-linejoin="round" points="189.992,112.319 170.427,112.319"/>
   <polyline stroke-linecap="butt" fill="none" stroke="#000000" stroke-width="0.5" stroke-linejoin="round" points="187.127,98.3244 173.292,98.3244"/>
   <polyline stroke-linecap="butt" fill="none" stroke="#000000" stroke-width="0.5" stroke-linejoin="round" points="183.79,84.3303 176.629,84.3303"/>
   <polyline stroke-linecap="butt" fill="none" stroke="#000000" stroke-width="0.5" stroke-linejoin="round" points="180.21,70.3362 180.21,70.3362"/>
   <polyline stroke-linecap="butt" fill="none" stroke="#000000" stroke-width="0.5" stroke-linejoin="round" points="207.879,238.266 208.368,236.379 208.855,234.492 209.342,232.605 209.826,230.718 210.308,228.831 210.788,226.945 211.263,225.058 211.734,223.171 212.201,221.284 212.662,219.397 213.117,217.51 213.566,215.623 214.007,213.737 214.441,211.85 214.867,209.963 215.284,208.076 215.692,206.189 216.09,204.302 216.478,202.416 216.855,200.529 217.221,198.642 217.575,196.755 217.917,194.868 218.247,192.981 218.564,191.094 218.868,189.208 219.157,187.321 219.433,185.434 219.694,183.547 219.941,181.66 220.173,179.773 220.389,177.887 220.59,176 220.775,174.113 220.943,172.226 221.096,170.339 221.232,168.452 221.352,166.565 221.454,164.679 221.54,162.792 221.609,160.905 221.66,159.018 221.695,157.131 221.712,155.244 221.712,153.357 221.695,151.471 221.66,149.584 221.609,147.697 221.54,145.81 221.454,143.923 221.352,142.036 221.232,140.15 221.096,138.263 220.943,136.376 220.775,134.489 220.59,132.602 220.389,130.715 220.173,128.828 219.941,126.942 219.694,125.055 219.433,123.168 219.157,121.281 218.868,119.394 218.564,117.507 218.247,115.621 217.917,113.734 217.575,111.847 217.221,109.96 216.855,108.073 216.478,106.186 216.09,104.299 215.692,102.413 215.284,100.526 214.867,98.6389 214.441,96.752 214.007,94.8652 213.566,92.9783 213.117,91.0915 212.662,89.2047 212.201,87.3178 211.734,85.4309 211.263,83.5441 210.788,81.6573 210.308,79.7704 209.826,77.8835 209.342,75.9967 208.855,74.1099 208.368,72.223 207.879,70.3362 207.879,70.3362 207.391,72.223 206.903,74.1099 206.417,75.9967 205.932,77.8835 205.45,79.7704 204.971,81.6573 204.495,83.5441 204.024,85.4309 203.558,87.3178 203.097,89.2047 202.641,91.0915 202.193,92.9783 201.751,94.8652 201.317,96.752 200.891,98.6389 200.474,100.526 200.067,102.413 199.669,104.299 199.281,106.186 198.904,108.073 198.538,109.96 198.183,111.847 197.841,113.734 197.511,115.621 197.195,117.507 196.891,119.394 196.601,121.281 196.325,123.168 196.064,125.055 195.817,126.942 195.586,128.828 195.369,130.715 195.169,132.602 194.984,134.489 194.815,136.376 194.663,138.263 194.526,140.15 194.407,142.036 194.304,143.923 194.219,145.81 194.15,147.697 194.098,149.584 194.064,151.471 194.047,153.357 194.047,155.244 194.064,157.131 194.098,159.018 194.15,160.905 194.219,162.792 194.304,164.679 194.407,166.565 194.526,168.452 194.663,170.339 194.815,172.226 194.984,174.113 195.169,176 195.369,177.887 195.586,179.773 195.817,181.66 196.064,183.547 196.325,185.434 196.601,187.321 196.891,189.208 197.195,191.094 197.511,192.981 197.841,194.868 198.183,196.755 198.538,198.642 198.904,200.529 199.281,202.416 199.669,204.302 200.067,206.189 200.474,208.076 200.891,209.963 201.317,211.85 201.751,213.737 202.193,215.623 202.641,217.51 203.097,219.397 203.558,221.284 204.024,223.171 204.495,225.058 204.971,226.945 205.45,228.831 205.932,230.718 206.417,232.605 206.903,234.492 207.391,236.379 207.879,238.266 207.879,238.266"/>
   <polyline stroke-linecap="butt" fill="none" stroke="#000000" stroke-width="0.5" stroke-linejoin="round" points="211.46,224.272 204.299,224.272"/>
   <polyline stroke-linecap="butt" fill="none" stroke="#000000" stroke-width="0.5" stroke-linejoin="round" points="214.797,210.277 200.962,210.277"/>
   <polyline stroke-linecap="butt" fill="none" stroke="#000000" stroke-width="0.5" stroke-linejoin="round" points="217.662,196.283 198.097,196.283"/>
   <polyline stroke-linecap="butt" fill="none" stroke="#000000" stroke-width="0.5" stroke-linejoin="round" points="219.861,182.289 195.898,182.289"/>
   <polyline stroke-linecap="butt" fill="none" stroke="#000000" stroke-width="0.5" stroke-linejoin="round" points="221.243,168.295 194.516,168.295"/>
   <polyline stroke-linecap="butt" fill="none" stroke="#000000" stroke-width="0.5" stroke-linejoin="round" points="221.714,154.301 194.044,154.301"/>
   <polyline stroke-linecap="butt" fill="none" stroke="#000000" stroke-width="0.5" stroke-linejoin="round" points="221.243,140.307 194.516,140.307"/>
   <polyline stroke-linecap="butt" fill="none" stroke="#000000" stroke-width="0.5" stroke-linejoin="round" points="219.861,126.313 195.898,126.313"/>
   <polyline stroke-linecap="butt" fill="none" stroke="#000000" stroke-width="0.5" stroke-linejoin="round" points="217.662,112.319 198.097,112.319"/>
   <polyline stroke-linecap="butt" fill="none" stroke="#000000" stroke-width="0.5" stroke-linejoin="round" points="214.797,98.3244 200.962,98.3244"/>
   <polyline stroke-linecap="butt" fill="none" stroke="#000000" stroke-width="0.5" stroke-linejoin="round" points="211.46,84.3303 204.299,84.3303"/>
   <polyline stroke-linecap="butt" fill="none" stroke="#000000" stroke-width="0.5" stroke-linejoin="round" points="207.879,70.3362 207.879,70.3362"/>
   <polyline stroke-linecap="butt" fill="none" stroke="#000000" stroke-width="0.5" stroke-linejoin="round" points="235.549,238.266 236.037,236.379 236.525,234.492 237.011,232.605 237.496,230.718 237.978,228.831 238.457,226.945 238.933,225.058 239.404,223.171 239.87,221.284 240.332,219.397 240.787,217.51 241.235,215.623 241.677,213.737 242.111,211.85 242.537,209.963 242.954,208.076 243.362,206.189 243.76,204.302 244.147,202.416 244.525,200.529 244.891,198.642 245.245,196.755 245.587,194.868 245.917,192.981 246.234,191.094 246.537,189.208 246.827,187.321 247.103,185.434 247.364,183.547 247.611,181.66 247.842,179.773 248.059,177.887 248.259,176 248.444,174.113 248.613,172.226 248.766,170.339 248.902,168.452 249.021,166.565 249.124,164.679 249.21,162.792 249.278,160.905 249.33,159.018 249.364,157.131 249.382,155.244 249.382,153.357 249.364,151.471 249.33,149.584 249.278,147.697 249.21,145.81 249.124,143.923 249.021,142.036 248.902,140.15 248.766,138.263 248.613,136.376 248.444,134.489 248.259,132.602 248.059,130.715 247.842,128.828 247.611,126.942 247.364,125.055 247.103,123.168 246.827,121.281 246.537,119.394 246.234,117.507 245.917,115.621 245.587,113.734 245.245,111.847 244.891,109.96 244.525,108.073 244.147,106.186 243.76,104.299 243.362,102.413 242.954,100.526 242.537,98.6389 242.111,96.752 241.677,94.8652 241.235,92.9783 240.787,91.0915 240.332,89.2047 239.87,87.3178 239.404,85.4309 238.933,83.5441 238.457,81.6573 237.978,79.7704 237.496,77.8835 237.011,75.9967 236.525,74.1099 236.037,72.223 235.549,70.3362 235.549,70.3362 235.061,72.223 234.573,74.1099 234.087,75.9967 233.602,77.8835 233.12,79.7704 232.641,81.6573 232.165,83.5441 231.694,85.4309 231.227,87.3178 230.766,89.2047 230.311,91.0915 229.862,92.9783 229.421,94.8652 228.987,96.752 228.561,98.6389 228.144,100.526 227.736,102.413 227.338,104.299 226.95,106.186 226.573,108.073 226.207,109.96 225.853,111.847 225.511,113.734 225.181,115.621 224.864,117.507 224.561,119.394 224.271,121.281 223.995,123.168 223.734,125.055 223.487,126.942 223.255,128.828 223.039,130.715 222.838,132.602 222.654,134.489 222.485,136.376 222.332,138.263 222.196,140.15 222.077,142.036 221.974,143.923 221.888,145.81 221.82,147.697 221.768,149.584 221.733,151.471 221.716,153.357 221.716,155.244 221.733,157.131 221.768,159.018 221.82,160.905 221.888,162.792 221.974,164.679 222.077,166.565 222.196,168.452 222.332,170.339 222.485,172.226 222.654,174.113 222.838,176 223.039,177.887 223.255,179.773 223.487,181.66 223.734,183.547 223.995,185.434 224.271,187.321 224.561,189.208 224.864,191.094 225.181,192.981 225.511,194.868 225.853,196.755 226.207,198.642 226.573,200.529 226.95,202.416 227.338,204.302 227.736,206.189 228.144,208.076 228.561,209.963 228.987,211.85 229.421,213.737 229.862,215.623 230.311,217.51 230.766,219.397 231.227,221.284 231.694,223.171 232.165,225.058 232.641,226.945 233.12,228.831 233.602,230.718 234.087,232.605 234.573,234.492 235.061,236.379 235.549,238.266 235.549,238.266"/>
   <polyline stroke-linecap="butt" fill="none" stroke="#000000" stroke-width="0.5" stroke-linejoin="round" points="239.13,224.272 231.968,224.272"/>
   <polyline stroke-linecap="butt" fill="none" stroke="#000000" stroke-width="0.5" stroke-linejoin="round" points="242.466,210.277 228.632,210.277"/>
   <polyline stroke-linecap="butt" fill="none" stroke="#000000" stroke-width="0.5" stroke-linejoin="round" points="245.332,196.283 225.766,196.283"/>
   <polyline stroke-linecap="butt" fill="none" stroke="#000000" stroke-width="0.5" stroke-linejoin="round" points="247.53,182.289 223.568,182.289"/>
   <polyline stroke-linecap="butt" fill="none" stroke="#000000" stroke-width="0.5" stroke-linejoin="round" points="248.912,168.295 222.185,168.295"/>
   <polyline stroke-linecap="butt" fill="none" stroke="#000000" stroke-width="0.5" stroke-linejoin="round" points="249.384,154.301 221.714,154.301"/>
   <polyline stroke-linecap="butt" fill="none" stroke="#000000" stroke-width="0.5" stroke-linejoin="round" points="248.912,140.307 222.185,140.307"/>
   <polyline stroke-linecap="butt" fill="none" stroke="#000000" stroke-width="0.5" stroke-linejoin="round" points="247.53,126.313 223.568,126.313"/>
   <polyline stroke-linecap="butt" fill="none" stroke="#000000" stroke-width="0.5" stroke-linejoin="round" points="245.332,112.319 225.766,112.319"/>
   <polyline stroke-linecap="butt" fill="none" stroke="#000000" stroke-width="0.5" stroke-linejoin="round" points="242.466,98.3244 228.632,98.3244"/>
   <polyline stroke-linecap="butt" fill="none" stroke="#000000" stroke-width="0.5" stroke-linejoin="round" points="239.13,84.3303 231.968,84.3303"/>
   <polyline stroke-linecap="butt" fill="none" stroke="#000000" stroke-width="0.5" stroke-linejoin="round" points="235.549,70.3362 235.549,70.3362"/>
   <polyline stroke-linecap="butt" fill="none" stroke="#000000" stroke-width="0.5" stroke-linejoin="round" points="263.219,238.266 263.707,236.379 264.194,234.492 264.681,232.605 265.165,230.718 265.648,228.831 266.127,226.945 266.602,225.058 267.074,223.171 267.54,221.284 268.001,219.397 268.456,217.51 268.905,215.623 269.347,213.737 269.781,211.85 270.206,209.963 270.623,208.076 271.031,206.189 271.429,204.302 271.817,202.416 272.194,200.529 272.56,198.642 272.915,196.755 273.257,194.868 273.586,192.981 273.903,191.094 274.207,189.208 274.497,187.321 274.772,185.434 275.034,183.547 275.28,181.66 275.512,179.773 275.728,177.887 275.929,176 276.114,174.113 276.283,172.226 276.435,170.339 276.571,168.452 276.691,166.565 276.793,164.679 276.879,162.792 276.948,160.905 277,159.018 277.034,157.131 277.051,155.244 277.051,153.357 277.034,151.471 277,149.584 276.948,147.697 276.879,145.81 276.793,143.923 276.691,142.036 276.571,140.15 276.435,138.263 276.283,136.376 276.114,134.489 275.929,132.602 275.728,130.715 275.512,128.828 275.28,126.942 275.034,125.055 274.772,123.168 274.497,121.281 274.207,119.394 273.903,117.507 273.586,115.621 273.257,113.734 272.915,111.847 272.56,109.96 272.194,108.073 271.817,106.186 271.429,104.299 271.031,102.413 270.623,100.526 270.206,98.6389 269.781,96.752 269.347,94.8652 268.905,92.9783 268.456,91.0915 268.001,89.2047 267.54,87.3178 267.074,85.4309 266.602,83.5441 266.127,81.6573 265.648,79.7704 265.165,77.8835 264.681,75.9967 264.194,74.1099 263.707,72.223 263.219,70.3362 263.219,70.3362 262.73,72.223 262.243,74.1099 261.756,75.9967 261.272,77.8835 260.789,79.7704 260.31,81.6573 259.835,83.5441 259.363,85.4309 258.897,87.3178 258.436,89.2047 257.981,91.0915 257.532,92.9783 257.09,94.8652 256.656,96.752 256.231,98.6389 255.814,100.526 255.406,102.413 255.008,104.299 254.62,106.186 254.243,108.073 253.877,109.96 253.523,111.847 253.18,113.734 252.851,115.621 252.534,117.507 252.23,119.394 251.94,121.281 251.665,123.168 251.403,125.055 251.157,126.942 250.925,128.828 250.709,130.715 250.508,132.602 250.323,134.489 250.154,136.376 250.002,138.263 249.866,140.15 249.746,142.036 249.644,143.923 249.558,145.81 249.489,147.697 249.438,149.584 249.403,151.471 249.386,153.357 249.386,155.244 249.403,157.131 249.438,159.018 249.489,160.905 249.558,162.792 249.644,164.679 249.746,166.565 249.866,168.452 250.002,170.339 250.154,172.226 250.323,174.113 250.508,176 250.709,177.887 250.925,179.773 251.157,181.66 251.403,183.547 251.665,185.434 251.94,187.321 252.23,189.208 252.534,191.094 252.851,192.981 253.18,194.868 253.523,196.755 253.877,198.642 254.243,200.529 254.62,202.416 255.008,204.302 255.406,206.189 255.814,208.076 256.231,209.963 256.656,211.85 257.09,213.737 257.532,215.623 257.981,217.51 258.436,219.397 258.897,221.284 259.363,223.171 259.835,225.058 260.31,226.945 260.789,228.831 261.272,230.718 261.756,232.605 262.243,234.492 262.73,236.379 263.219,238.266 263.219,238.266"/>
   <polyline stroke-linecap="butt" fill="none" stroke="#000000" stroke-width="0.5" stroke-linejoin="round" points="266.799,224.272 259.638,224.272"/>
   <polyline stroke-linecap="butt" fill="none" stroke="#000000" stroke-width="0.5" stroke-linejoin="round" points="270.136,210.277 256.301,210.277"/>
   <polyline stroke-linecap="butt" fill="none" stroke="#000000" stroke-width="0.5" stroke-linejoin="round" points="273.001,196.283 253.436,196.283"/>
   <polyline stroke-linecap="butt" fill="none" stroke="#000000" stroke-width="0.5" stroke-linejoin="round" points="275.2,182.289 251.237,182.289"/>
   <polyline stroke-linecap="butt" fill="none" stroke="#000000" stroke-width="0.5" stroke-linejoin="round" points="276.582,168.295 249.855,168.295"/>
   <polyline stroke-linecap="butt" fill="none" stroke="#000000" stroke-width="0.5" stroke-linejoin="round" points="277.053,154.301 249.384,154.301"/>
   <polyline stroke-linecap="butt" fill="none" stroke="#000000" stroke-width="0.5" stroke-linejoin="round" points="276.582,140.307 249.855,140.307"/>
   <polyline stroke-linecap="butt" fill="none" stroke="#000000" stroke-width="0.5" stroke-linejoin="round" points="275.2,126.313 251.237,126.313"/>
   <polyline stroke-linecap="butt" fill="none" stroke="#000000" stroke-width="0.5" stroke-linejoin="round" points="273.001,112.319 253.436,112.319"/>
   <polyline stroke-linecap="butt" fill="none" stroke="#000000" stroke-width="0.5" stroke-linejoin="round" points="270.136,98.3244 256.301,98.3244"/>
   <polyline stroke-linecap="butt" fill="none" stroke="#000000" stroke-width="0.5" stroke-linejoin="round" points="266.799,84.3303 259.638,84.3303"/>
   <polyline stroke-linecap="butt" fill="none" stroke="#000000" stroke-width="0.5" stroke-linejoin="round" points="263.219,70.3362 263.219,70.3362"/>
   <polyline stroke-linecap="butt" fill="none" stroke="#000000" stroke-width="0.5" stroke-linejoin="round" points="290.888,238.266 291.376,236.379 291.864,234.492 292.35,232.605 292.835,230.718 293.317,228.831 293.796,226.945 294.272,225.058 294.743,223.171 295.21,221.284 295.671,219.397 296.126,217.51 296.575,215.623 297.016,213.737 297.45,211.85 297.876,209.963 298.293,208.076 298.701,206.189 299.099,204.302 299.487,202.416 299.864,200.529 300.23,198.642 300.584,196.755 300.926,194.868 301.256,192.981 301.573,191.094 301.876,189.208 302.166,187.321 302.442,185.434 302.703,183.547 302.95,181.66 303.182,179.773 303.398,177.887 303.599,176 303.784,174.113 303.952,172.226 304.105,170.339 304.241,168.452 304.36,166.565 304.463,164.679 304.549,162.792 304.618,160.905 304.669,159.018 304.704,157.131 304.721,155.244 304.721,153.357 304.704,151.471 304.669,149.584 304.618,147.697 304.549,145.81 304.463,143.923 304.36,142.036 304.241,140.15 304.105,138.263 303.952,136.376 303.784,134.489 303.599,132.602 303.398,130.715 303.182,128.828 302.95,126.942 302.703,125.055 302.442,123.168 302.166,121.281 301.876,119.394 301.573,117.507 301.256,115.621 300.926,113.734 300.584,111.847 300.23,109.96 299.864,108.073 299.487,106.186 299.099,104.299 298.701,102.413 298.293,100.526 297.876,98.6389 297.45,96.752 297.016,94.8652 296.575,92.9783 296.126,91.0915 295.671,89.2047 295.21,87.3178 294.743,85.4309 294.272,83.5441 293.796,81.6573 293.317,79.7704 292.835,77.8835 292.35,75.9967 291.864,74.1099 291.376,72.223 290.888,70.3362 290.888,70.3362 290.4,72.223 289.912,74.1099 289.426,75.9967 288.941,77.8835 288.459,79.7704 287.98,81.6573 287.504,83.5441 287.033,85.4309 286.567,87.3178 286.105,89.2047 285.65,91.0915 285.202,92.9783 284.76,94.8652 284.326,96.752 283.9,98.6389 283.483,100.526 283.076,102.413 282.677,104.299 282.29,106.186 281.912,108.073 281.547,109.96 281.192,111.847 280.85,113.734 280.52,115.621 280.203,117.507 279.9,119.394 279.61,121.281 279.334,123.168 279.073,125.055 278.826,126.942 278.595,128.828 278.378,130.715 278.178,132.602 277.993,134.489 277.824,136.376 277.671,138.263 277.535,140.15 277.416,142.036 277.313,143.923 277.228,145.81 277.159,147.697 277.107,149.584 277.073,151.471 277.056,153.357 277.056,155.244 277.073,157.131 277.107,159.018 277.159,160.905 277.228,162.792 277.313,164.679 277.416,166.565 277.535,168.452 277.671,170.339 277.824,172.226 277.993,174.113 278.178,176 278.378,177.887 278.595,179.773 278.826,181.66 279.073,183.547 279.334,185.434 279.61,187.321 279.9,189.208 280.203,191.094 280.52,192.981 280.85,194.868 281.192,196.755 281.547,198.642 281.912,200.529 282.29,202.416 282.677,204.302 283.076,206.189 283.483,208.076 283.9,209.963 284.326,211.85 284.76,213.737 285.202,215.623 285.65,217.51 286.105,219.397 286.567,221.284 287.033,223.171 287.504,225.058 287.98,226.945 288.459,228.831 288.941,230.718 289.426,232.605 289.912,234.492 290.4,236.379 290.888,238.266 290.888,238.266"/>
   <polyline stroke-linecap="butt" fill="none" stroke="#000000" stroke-width="0.5" stroke-linejoin="round" points="294.469,224.272 287.307,224.272"/>
   <polyline stroke-linecap="butt" fill="none" stroke="#000000" stroke-width="0.5" stroke-linejoin="round" points="297.806,210.277 283.971,210.277"/>
   <polyline stroke-linecap="butt" fill="none" stroke="#000000" stroke-width="0.5" stroke-linejoin="round" points="300.671,196.283 281.105,196.283"/>
   <polyline stroke-linecap="butt" fill="none" stroke="#000000" stroke-width="0.5" stroke-linejoin="round" points="302.869,182.289 278.907,182.289"/>
   <polyline stroke-linecap="butt" fill="none" stroke="#000000" stroke-width="0.5" stroke-linejoin="round" points="304.252,168.295 277.525,168.295"/>
   <polyline stroke-linecap="butt" fill="none" stroke="#000000" stroke-width="0.5" stroke-linejoin="round" points="304.723,154.301 277.053,154.301"/>
   <polyline stroke-linecap="butt" fill="none" stroke="#000000" stroke-width="0.5" stroke-linejoin="round" points="304.252,140.307 277.525,140.307"/>
   <polyline stroke-linecap="butt" fill="none" stroke="#000000" stroke-width="0.5" stroke-linejoin="round" points="302.869,126.313 278.907,126.313"/>
   <polyline stroke-linecap="butt" fill="none" stroke="#000000" stroke-width="0.5" stroke-linejoin="round" points="300.671,112.319 281.105,112.319"/>
   <polyline stroke-linecap="butt" fill="none" stroke="#000000" stroke-width="0.5" stroke-linejoin="round" points="297.806,98.3244 283.971,98.3244"/>
   <polyline stroke-linecap="butt" fill="none" stroke="#000000" stroke-width="0.5" stroke-linejoin="round" points="294.469,84.3303 287.307,84.3303"/>
   <polyline stroke-linecap="butt" fill="none" stroke="#000000" stroke-width="0.5" stroke-linejoin="round" points="290.888,70.3362 290.888,70.3362"/>
   <polyline stroke-linecap="butt" fill="none" stroke="#000000" stroke-width="0.5" stroke-linejoin="round" points="318.558,238.266 319.046,236.379 319.534,234.492 320.02,232.605 320.505,230.718 320.987,228.831 321.466,226.945 321.942,225.058 322.413,223.171 322.879,221.284 323.341,219.397 323.796,217.51 324.244,215.623 324.686,213.737 325.12,211.85 325.546,209.963 325.963,208.076 326.37,206.189 326.769,204.302 327.156,202.416 327.534,200.529 327.899,198.642 328.254,196.755 328.596,194.868 328.926,192.981 329.243,191.094 329.546,189.208 329.836,187.321 330.112,185.434 330.373,183.547 330.62,181.66 330.851,179.773 331.068,177.887 331.268,176 331.453,174.113 331.622,172.226 331.775,170.339 331.911,168.452 332.03,166.565 332.133,164.679 332.218,162.792 332.287,160.905 332.339,159.018 332.373,157.131 332.39,155.244 332.39,153.357 332.373,151.471 332.339,149.584 332.287,147.697 332.218,145.81 332.133,143.923 332.03,142.036 331.911,140.15 331.775,138.263 331.622,136.376 331.453,134.489 331.268,132.602 331.068,130.715 330.851,128.828 330.62,126.942 330.373,125.055 330.112,123.168 329.836,121.281 329.546,119.394 329.243,117.507 328.926,115.621 328.596,113.734 328.254,111.847 327.899,109.96 327.534,108.073 327.156,106.186 326.769,104.299 326.37,102.413 325.963,100.526 325.546,98.6389 325.12,96.752 324.686,94.8652 324.244,92.9783 323.796,91.0915 323.341,89.2047 322.879,87.3178 322.413,85.4309 321.942,83.5441 321.466,81.6573 320.987,79.7704 320.505,77.8835 320.02,75.9967 319.534,74.1099 319.046,72.223 318.558,70.3362 318.558,70.3362 318.07,72.223 317.582,74.1099 317.095,75.9967 316.611,77.8835 316.129,79.7704 315.65,81.6573 315.174,83.5441 314.703,85.4309 314.236,87.3178 313.775,89.2047 313.32,91.0915 312.871,92.9783 312.43,94.8652 311.996,96.752 311.57,98.6389 311.153,100.526 310.745,102.413 310.347,104.299 309.959,106.186 309.582,108.073 309.216,109.96 308.862,111.847 308.52,113.734 308.19,115.621 307.873,117.507 307.57,119.394 307.28,121.281 307.004,123.168 306.743,125.055 306.496,126.942 306.264,128.828 306.048,130.715 305.847,132.602 305.662,134.489 305.494,136.376 305.341,138.263 305.205,140.15 305.086,142.036 304.983,143.923 304.897,145.81 304.828,147.697 304.777,149.584 304.742,151.471 304.725,153.357 304.725,155.244 304.742,157.131 304.777,159.018 304.828,160.905 304.897,162.792 304.983,164.679 305.086,166.565 305.205,168.452 305.341,170.339 305.494,172.226 305.662,174.113 305.847,176 306.048,177.887 306.264,179.773 306.496,181.66 306.743,183.547 307.004,185.434 307.28,187.321 307.57,189.208 307.873,191.094 308.19,192.981 308.52,194.868 308.862,196.755 309.216,198.642 309.582,200.529 309.959,202.416 310.347,204.302 310.745,206.189 311.153,208.076 311.57,209.963 311.996,211.85 312.43,213.737 312.871,215.623 313.32,217.51 313.775,219.397 314.236,221.284 314.703,223.171 315.174,225.058 315.65,226.945 316.129,228.831 316.611,230.718 317.095,232.605 317.582,234.492 318.07,236.379 318.558,238.266 318.558,238.266"/>
   <polyline stroke-linecap="butt" fill="none" stroke="#000000" stroke-width="0.5" stroke-linejoin="round" points="322.139,224.272 314.977,224.272"/>
   <polyline stroke-linecap="butt" fill="none" stroke="#000000" stroke-width="0.5" stroke-linejoin="round" points="325.475,210.277 311.64,210.277"/>
   <polyline stroke-linecap="butt" fill="none" stroke="#000000" stroke-width="0.5" stroke-linejoin="round" points="328.34,196.283 308.775,196.283"/>
   <polyline stroke-linecap="butt" fill="none" stroke="#000000" stroke-width="0.5" stroke-linejoin="round" points="330.539,182.289 306.576,182.289"/>
   <polyline stroke-linecap="butt" fill="none" stroke="#000000" stroke-width="0.5" stroke-linejoin="round" points="331.921,168.295 305.194,168.295"/>
   <polyline stroke-linecap="butt" fill="none" stroke="#000000" stroke-width="0.5" stroke-linejoin="round" points="332.393,154.301 304.723,154.301"/>
   <polyline stroke-linecap="butt" fill="none" stroke="#000000" stroke-width="0.5" stroke-linejoin="round" points="331.921,140.307 305.194,140.307"/>
   <polyline stroke-linecap="butt" fill="none" stroke="#000000" stroke-width="0.5" stroke-linejoin="round" points="330.539,126.313 306.576,126.313"/>
   <polyline stroke-linecap="butt" fill="none" stroke="#000000" stroke-width="0.5" stroke-linejoin="round" points="328.34,112.319 308.775,112.319"/>
   <polyline stroke-linecap="butt" fill="none" stroke="#000000" stroke-width="0.5" stroke-linejoin="round" points="325.475,98.3244 311.64,98.3244"/>
   <polyline stroke-linecap="butt" fill="none" stroke="#000000" stroke-width="0.5" stroke-linejoin="round" points="322.139,84.3303 314.977,84.3303"/>
   <polyline stroke-linecap="butt" fill="none" stroke="#000000" stroke-width="0.5" stroke-linejoin="round" points="318.558,70.3362 318.558,70.3362"/>
   <polyline stroke-linecap="butt" fill="none" stroke="#000000" stroke-width="0.5" stroke-linejoin="round" points="346.227,238.266 346.716,236.379 347.203,234.492 347.69,232.605 348.174,230.718 348.657,228.831 349.136,226.945 349.611,225.058 350.083,223.171 350.549,221.284 351.01,219.397 351.465,217.51 351.914,215.623 352.356,213.737 352.789,211.85 353.215,209.963 353.632,208.076 354.04,206.189 354.438,204.302 354.826,202.416 355.203,200.529 355.569,198.642 355.923,196.755 356.266,194.868 356.595,192.981 356.912,191.094 357.216,189.208 357.505,187.321 357.781,185.434 358.043,183.547 358.289,181.66 358.521,179.773 358.737,177.887 358.938,176 359.123,174.113 359.292,172.226 359.444,170.339 359.58,168.452 359.7,166.565 359.802,164.679 359.888,162.792 359.957,160.905 360.008,159.018 360.043,157.131 360.06,155.244 360.06,153.357 360.043,151.471 360.008,149.584 359.957,147.697 359.888,145.81 359.802,143.923 359.7,142.036 359.58,140.15 359.444,138.263 359.292,136.376 359.123,134.489 358.938,132.602 358.737,130.715 358.521,128.828 358.289,126.942 358.043,125.055 357.781,123.168 357.505,121.281 357.216,119.394 356.912,117.507 356.595,115.621 356.266,113.734 355.923,111.847 355.569,109.96 355.203,108.073 354.826,106.186 354.438,104.299 354.04,102.413 353.632,100.526 353.215,98.6389 352.789,96.752 352.356,94.8652 351.914,92.9783 351.465,91.0915 351.01,89.2047 350.549,87.3178 350.083,85.4309 349.611,83.5441 349.136,81.6573 348.657,79.7704 348.174,77.8835 347.69,75.9967 347.203,74.1099 346.716,72.223 346.227,70.3362 346.227,70.3362 345.739,72.223 345.252,74.1099 344.765,75.9967 344.281,77.8835 343.798,79.7704 343.319,81.6573 342.844,83.5441 342.372,85.4309 341.906,87.3178 341.445,89.2047 340.99,91.0915 340.541,92.9783 340.099,94.8652 339.665,96.752 339.24,98.6389 338.823,100.526 338.415,102.413 338.017,104.299 337.629,106.186 337.252,108.073 336.886,109.96 336.531,111.847 336.189,113.734 335.859,115.621 335.543,117.507 335.239,119.394 334.949,121.281 334.674,123.168 334.412,125.055 334.166,126.942 333.934,128.828 333.718,130.715 333.517,132.602 333.332,134.489 333.163,136.376 333.011,138.263 332.875,140.15 332.755,142.036 332.653,143.923 332.567,145.81 332.498,147.697 332.446,149.584 332.412,151.471 332.395,153.357 332.395,155.244 332.412,157.131 332.446,159.018 332.498,160.905 332.567,162.792 332.653,164.679 332.755,166.565 332.875,168.452 333.011,170.339 333.163,172.226 333.332,174.113 333.517,176 333.718,177.887 333.934,179.773 334.166,181.66 334.412,183.547 334.674,185.434 334.949,187.321 335.239,189.208 335.543,191.094 335.859,192.981 336.189,194.868 336.531,196.755 336.886,198.642 337.252,200.529 337.629,202.416 338.017,204.302 338.415,206.189 338.823,208.076 339.24,209.963 339.665,211.85 340.099,213.737 340.541,215.623 340.99,217.51 341.445,219.397 341.906,221.284 342.372,223.171 342.844,225.058 343.319,226.945 343.798,228.831 344.281,230.718 344.765,232.605 345.252,234.492 345.739,236.379 346.227,238.266 346.227,238.266"/>
   <polyline stroke-linecap="butt" fill="none" stroke="#000000" stroke-width="0.5" stroke-linejoin="round" points="349.808,224.272 342.647,224.272"/>
   <polyline stroke-linecap="butt" fill="none" stroke="#000000" stroke-width="0.5" stroke-linejoin="round" points="353.145,210.277 339.31,210.277"/>
   <polyline stroke-linecap="butt" fill="none" stroke="#000000" stroke-width="0.5" stroke-linejoin="round" points="356.01,196.283 336.445,196.283"/>
   <polyline stroke-linecap="butt" fill="none" stroke="#000000" stroke-width="0.5" stroke-linejoin="round" points="358.209,182.289 334.246,182.289"/>
   <polyline stroke-linecap="butt" fill="none" stroke="#000000" stroke-width="0.5" stroke-linejoin="round" points="359.591,168.295 332.864,168.295"/>
   <polyline stroke-linecap="butt" fill="none" stroke="#000000" stroke-width="0.5" stroke-linejoin="round" points="360.062,154.301 332.393,154.301"/>
   <polyline stroke-linecap="butt" fill="none" stroke="#000000" stroke-width="0.5" stroke-linejoin="round" points="359.591,140.307 332.864,140.307"/>
   <polyline stroke-linecap="butt" fill="none" stroke="#000000" stroke-width="0.5" stroke-linejoin="round" points="358.209,126.313 334.246,126.313"/>
   <polyline stroke-linecap="butt" fill="none" stroke="#000000" stroke-width="0.5" stroke-linejoin="round" points="356.01,112.319 336.445,112.319"/>
   <polyline stroke-linecap="butt" fill="none" stroke="#000000" stroke-width="0.5" stroke-linejoin="round" points="353.145,98.3244 339.31,98.3244"/>
   <polyline stroke-linecap="butt" fill="none" stroke="#000000" stroke-width="0.5" stroke-linejoin="round" points="349.808,84.3303 342.647,84.3303"/>
   <polyline stroke-linecap="butt" fill="none" stroke="#000000" stroke-width="0.5" stroke-linejoin="round" points="346.227,70.3362 346.227,70.3362"/>
   <polyline stroke-linecap="butt" fill="none" stroke="#000000" stroke-width="0.5" stroke-linejoin="round" points="373.897,238.266 374.385,236.379 374.873,234.492 375.359,232.605 375.844,230.718 376.326,228.831 376.805,226.945 377.281,225.058 377.752,223.171 378.219,221.284 378.68,219.397 379.135,217.51 379.584,215.623 380.025,213.737 380.459,211.85 380.885,209.963 381.302,208.076 381.71,206.189 382.108,204.302 382.496,202.416 382.873,200.529 383.239,198.642 383.593,196.755 383.935,194.868 384.265,192.981 384.582,191.094 384.885,189.208 385.175,187.321 385.451,185.434 385.712,183.547 385.959,181.66 386.191,179.773 386.407,177.887 386.608,176 386.792,174.113 386.961,172.226 387.114,170.339 387.25,168.452 387.369,166.565 387.472,164.679 387.558,162.792 387.626,160.905 387.678,159.018 387.712,157.131 387.73,155.244 387.73,153.357 387.712,151.471 387.678,149.584 387.626,147.697 387.558,145.81 387.472,143.923 387.369,142.036 387.25,140.15 387.114,138.263 386.961,136.376 386.792,134.489 386.608,132.602 386.407,130.715 386.191,128.828 385.959,126.942 385.712,125.055 385.451,123.168 385.175,121.281 384.885,119.394 384.582,117.507 384.265,115.621 383.935,113.734 383.593,111.847 383.239,109.96 382.873,108.073 382.496,106.186 382.108,104.299 381.71,102.413 381.302,100.526 380.885,98.6389 380.459,96.752 380.025,94.8652 379.584,92.9783 379.135,91.0915 378.68,89.2047 378.219,87.3178 377.752,85.4309 377.281,83.5441 376.805,81.6573 376.326,79.7704 375.844,77.8835 375.359,75.9967 374.873,74.1099 374.385,72.223 373.897,70.3362 373.897,70.3362 373.409,72.223 372.921,74.1099 372.435,75.9967 371.95,77.8835 371.468,79.7704 370.989,81.6573 370.513,83.5441 370.042,85.4309 369.575,87.3178 369.114,89.2047 368.659,91.0915 368.211,92.9783 367.769,94.8652 367.335,96.752 366.909,98.6389 366.492,100.526 366.084,102.413 365.686,104.299 365.298,106.186 364.921,108.073 364.555,109.96 364.201,111.847 363.859,113.734 363.529,115.621 363.212,117.507 362.909,119.394 362.619,121.281 362.343,123.168 362.082,125.055 361.835,126.942 361.604,128.828 361.387,130.715 361.187,132.602 361.002,134.489 360.833,136.376 360.68,138.263 360.544,140.15 360.425,142.036 360.322,143.923 360.236,145.81 360.168,147.697 360.116,149.584 360.082,151.471 360.064,153.357 360.064,155.244 360.082,157.131 360.116,159.018 360.168,160.905 360.236,162.792 360.322,164.679 360.425,166.565 360.544,168.452 360.68,170.339 360.833,172.226 361.002,174.113 361.187,176 361.387,177.887 361.604,179.773 361.835,181.66 362.082,183.547 362.343,185.434 362.619,187.321 362.909,189.208 363.212,191.094 363.529,192.981 363.859,194.868 364.201,196.755 364.555,198.642 364.921,200.529 365.298,202.416 365.686,204.302 366.084,206.189 366.492,208.076 366.909,209.963 367.335,211.85 367.769,213.737 368.211,215.623 368.659,217.51 369.114,219.397 369.575,221.284 370.042,223.171 370.513,225.058 370.989,226.945 371.468,228.831 371.95,230.718 372.435,232.605 372.921,234.492 373.409,236.379 373.897,238.266 373.897,238.266"/>
   <polyline stroke-linecap="butt" fill="none" stroke="#000000" stroke-width="0.5" stroke-linejoin="round" points="377.478,224.272 370.316,224.272"/>
   <polyline stroke-linecap="butt" fill="none" stroke="#000000" stroke-width="0.5" stroke-linejoin="round" points="380.814,210.277 366.98,210.277"/>
   <polyline stroke-linecap="butt" fill="none" stroke="#000000" stroke-width="0.5" stroke-linejoin="round" points="383.68,196.283 364.114,196.283"/>
   <polyline stroke-linecap="butt" fill="none" stroke="#000000" stroke-width="0.5" stroke-linejoin="round" points="385.878,182.289 361.916,182.289"/>
   <polyline stroke-linecap="butt" fill="none" stroke="#000000" stroke-width="0.5" stroke-linejoin="round" points="387.26,168.295 360.534,168.295"/>
   <polyline stroke-linecap="butt" fill="none" stroke="#000000" stroke-width="0.5" stroke-linejoin="round" points="387.732,154.301 360.062,154.301"/>
   <polyline stroke-linecap="butt" fill="none" stroke="#000000" stroke-width="0.5" stroke-linejoin="round" points="387.26,140.307 360.534,140.307"/>
   <polyline stroke-linecap="butt" fill="none" stroke="#000000" stroke-width="0.5" stroke-linejoin="round" points="385.878,126.313 361.916,126.313"/>
   <polyline stroke-linecap="butt" fill="none" stroke="#000000" stroke-width="0.5" stroke-linejoin="round" points="383.68,112.319 364.114,112.319"/>
   <polyline stroke-linecap="butt" fill="none" stroke="#000000" stroke-width="0.5" stroke-linejoin="round" points="380.814,98.3244 366.98,98.3244"/>
   <polyline stroke-linecap="butt" fill="none" stroke="#000000" stroke-width="0.5" stroke-linejoin="round" points="377.478,84.3303 370.316,84.3303"/>
   <polyline stroke-linecap="butt" fill="none" stroke="#000000" stroke-width="0.5" stroke-linejoin="round" points="373.897,70.3362 373.897,70.3362"/>
   <polyline stroke-linecap="butt" fill="none" stroke="#00ff00" stroke-width="0.5" stroke-linejoin="round" points="55.6963,238.266 387.732,238.266"/>
   <polyline stroke-linecap="butt" fill="none" stroke="#00ff00" stroke-width="0.5" stroke-linejoin="round" points="55.6963,224.272 387.732,224.272"/>
   <polyline stroke-linecap="butt" fill="none" stroke="#00ff00" stroke-width="0.5" stroke-linejoin="round" points="55.6963,210.277 387.732,210.277"/>
   <polyline stroke-linecap="butt" fill="none" stroke="#00ff00" stroke-width="0.5" stroke-linejoin="round" points="55.6963,196.283 387.732,196.283"/>
   <polyline stroke-linecap="butt" fill="none" stroke="#00ff00" stroke-width="0.5" stroke-linejoin="round" points="55.6963,182.289 387.732,182.289"/>
   <polyline stroke-linecap="butt" fill="none" stroke="#00ff00" stroke-width="0.5" stroke-linejoin="round" points="55.6963,168.295 387.732,168.295"/>
   <polyline stroke-linecap="butt" fill="none" stroke="#00ff00" stroke-width="0.5" stroke-linejoin="round" points="55.6963,154.301 387.732,154.301"/>
   <polyline stroke-linecap="butt" fill="none" stroke="#00ff00" stroke-width="0.5" stroke-linejoin="round" points="55.6963,140.307 387.732,140.307"/>
   <polyline stroke-linecap="butt" fill="none" stroke="#00ff00" stroke-width="0.5" stroke-linejoin="round" points="55.6963,126.313 387.732,126.313"/>
   <polyline stroke-linecap="butt" fill="none" stroke="#00ff00" stroke-width="0.5" stroke-linejoin="round" points="55.6963,112.319 387.732,112.319"/>
   <polyline stroke-linecap="butt" fill="none" stroke="#00ff00" stroke-width="0.5" stroke-linejoin="round" points="55.6963,98.3244 387.732,98.3244"/>
   <polyline stroke-linecap="butt" fill="none" stroke="#00ff00" stroke-width="0.5" stroke-linejoin="round" points="55.6963,84.3303 387.732,84.3303"/>
   <polyline stroke-linecap="butt" fill="none" stroke="#00ff00" stroke-width="0.5" stroke-linejoin="round" points="55.6963,70.3362 387.732,70.3362"/>
   <polyline stroke-linecap="butt" fill="none" stroke="#00ff00" stroke-width="0.5" stroke-linejoin="round" points="55.6963,238.266 387.732,238.266"/>
   <polyline stroke-linecap="butt" fill="none" stroke="#00ff00" stroke-width="0.5" stroke-linejoin="round" points="55.6963,224.272 387.732,224.272"/>
   <polyline stroke-linecap="butt" fill="none" stroke="#00ff00" stroke-width="0.5" stroke-linejoin="round" points="55.6963,210.277 387.732,210.277"/>
   <polyline stroke-linecap="butt" fill="none" stroke="#00ff00" stroke-width="0.5" stroke-linejoin="round" points="55.6963,196.283 387.732,196.283"/>
   <polyline stroke-linecap="butt" fill="none" stroke="#00ff00" stroke-width="0.5" stroke-linejoin="round" points="55.6963,182.289 387.732,182.289"/>
   <polyline stroke-linecap="butt" fill="none" stroke="#00ff00" stroke-width="0.5" stroke-linejoin="round" points="55.6963,168.295 387.732,168.295"/>
   <polyline stroke-linecap="butt" fill="none" stroke="#00ff00" stroke-width="0.5" stroke-linejoin="round" points="55.6963,154.301 387.732,154.301"/>
   <polyline stroke-linecap="butt" fill="none" stroke="#00ff00" stroke-width="0.5" stroke-linejoin="round" points="55.6963,140.307 387.732,140.307"/>
   <polyline stroke-linecap="butt" fill="none" stroke="#00ff00" stroke-width="0.5" stroke-linejoin="round" points="55.6963,126.313 387.732,126.313"/>
   <polyline stroke-linecap="butt" fill="none" stroke="#00ff00" stroke-width="0.5" stroke-linejoin="round" points="55.6963,112.319 387.732,112.319"/>
   <polyline stroke-linecap="butt" fill="none" stroke="#00ff00" stroke-width="0.5" stroke-linejoin="round" points="55.6963,98.3244 387.732,98.3244"/>
   <polyline stroke-linecap="butt" fill="none" stroke="#00ff00" stroke-width="0.5" stroke-linejoin="round" points="55.6963,84.3303 387.732,84.3303"/>
   <polyline stroke-linecap="butt" fill="none" stroke="#00ff00" stroke-width="0.5" stroke-linejoin="round" points="55.6963,70.3362 387.732,70.3362"/>
   <polyline stroke-linecap="butt" fill="none" stroke="#00ff00" stroke-width="0.5" stroke-linejoin="round" points="55.6963,238.266 387.732,238.266"/>
   <polyline stroke-linecap="butt" fill="none" stroke="#00ff00" stroke-width="0.5" stroke-linejoin="round" points="55.6963,224.272 387.732,224.272"/>
   <polyline stroke-linecap="butt" fill="none" stroke="#00ff00" stroke-width="0.5" stroke-linejoin="round" points="55.6963,210.277 387.732,210.277"/>
   <polyline stroke-linecap="butt" fill="none" stroke="#00ff00" stroke-width="0.5" stroke-linejoin="round" points="55.6963,196.283 387.732,196.283"/>
   <polyline stroke-linecap="butt" fill="none" stroke="#00ff00" stroke-width="0.5" stroke-linejoin="round" points="55.6963,182.289 387.732,182.289"/>
   <polyline stroke-linecap="butt" fill="none" stroke="#00ff00" stroke-width="0.5" stroke-linejoin="round" points="55.6963,168.295 387.732,168.295"/>
   <polyline stroke-linecap="butt" fill="none" stroke="#00ff00" stroke-width="0.5" stroke-linejoin="round" points="55.6963,154.301 387.732,154.301"/>
   <polyline stroke-linecap="butt" fill="none" stroke="#00ff00" stroke-width="0.5" stroke-linejoin="round" points="55.6963,140.307 387.732,140.307"/>
   <polyline stroke-linecap="butt" fill="none" stroke="#00ff00" stroke-width="0.5" stroke-linejoin="round" points="55.6963,126.313 387.732,126.313"/>
   <polyline stroke-linecap="butt" fill="none" stroke="#00ff00" stroke-width="0.5" stroke-linejoin="round" points="55.6963,112.319 387.732,112.319"/>
   <polyline stroke-linecap="butt" fill="none" stroke="#00ff00" stroke-width="0.5" stroke-linejoin="round" points="55.6963,98.3244 387.732,98.3244"/>
   <polyline stroke-linecap="butt" fill="none" stroke="#00ff00" stroke-width="0.5" stroke-linejoin="round" points="55.6963,84.3303 387.732,84.3303"/>
   <polyline stroke-linecap="butt" fill="none" stroke="#00ff00" stroke-width="0.5" stroke-linejoin="round" points="55.6963,70.3362 387.732,70.3362"/>
   <polyline stroke-linecap="butt" fill="none" stroke="#00ff00" stroke-width="0.5" stroke-linejoin="round" points="55.6963,238.266 387.732,238.266"/>
   <polyline stroke-linecap="butt" fill="none" stroke="#00ff00" stroke-width="0.5" stroke-linejoin="round" points="55.6963,224.272 387.732,224.272"/>
   <polyline stroke-linecap="butt" fill="none" stroke="#00ff00" stroke-width="0.5" stroke-linejoin="round" points="55.6963,210.277 387.732,210.277"/>
   <polyline stroke-linecap="butt" fill="none" stroke="#00ff00" stroke-width="0.5" stroke-linejoin="round" points="55.6963,196.283 387.732,196.283"/>
   <polyline stroke-linecap="butt" fill="none" stroke="#00ff00" stroke-width="0.5" stroke-linejoin="round" points="55.6963,182.289 387.732,182.289"/>
   <polyline stroke-linecap="butt" fill="none" stroke="#00ff00" stroke-width="0.5" stroke-linejoin="round" points="55.6963,168.295 387.732,168.295"/>
   <polyline stroke-linecap="butt" fill="none" stroke="#00ff00" stroke-width="0.5" stroke-linejoin="round" points="55.6963,154.301 387.732,154.301"/>
   <polyline stroke-linecap="butt" fill="none" stroke="#00ff00" stroke-width="0.5" stroke-linejoin="round" points="55.6963,140.307 387.732,140.307"/>
   <polyline stroke-linecap="butt" fill="none" stroke="#00ff00" stroke-width="0.5" stroke-linejoin="round" points="55.6963,126.313 387.732,126.313"/>
   <polyline stroke-linecap="butt" fill="none" stroke="#00ff00" stroke-width="0.5" stroke-linejoin="round" points="55.6963,112.319 387.732,112.319"/>
   <polyline stroke-linecap="butt" fill="none" stroke="#00ff00" stroke-width="0.5" stroke-linejoin="round" points="55.6963,98.3244 387.732,98.3244"/>
   <polyline stroke-linecap="butt" fill="none" stroke="#00ff00" stroke-width="0.5" stroke-linejoin="round" points="55.6963,84.3303 387.732,84.3303"/>
   <polyline stroke-linecap="butt" fill="none" stroke="#00ff00" stroke-width="0.5" stroke-linejoin="round" points="55.6963,70.3362 387.732,70.3362"/>
   <polyline stroke-linecap="butt" fill="none" stroke="#00ff00" stroke-width="0.5" stroke-linejoin="round" points="55.6963,238.266 387.732,238.266"/>
   <polyline stroke-linecap="butt" fill="none" stroke="#00ff00" stroke-width="0.5" stroke-linejoin="round" points="55.6963,224.272 387.732,224.272"/>
   <polyline stroke-linecap="butt" fill="none" stroke="#00ff00" stroke-width="0.5" stroke-linejoin="round" points="55.6963,210.277 387.732,210.277"/>
   <polyline stroke-linecap="butt" fill="none" stroke="#00ff00" stroke-width="0.5" stroke-linejoin="round" points="55.6963,196.283 387.732,196.283"/>
   <polyline stroke-linecap="butt" fill="none" stroke="#00ff00" stroke-width="0.5" stroke-linejoin="round" points="55.6963,182.289 387.732,182.289"/>
   <polyline stroke-linecap="butt" fill="none" stroke="#00ff00" stroke-width="0.5" stroke-linejoin="round" points="55.6963,168.295 387.732,168.295"/>
   <polyline stroke-linecap="butt" fill="none" stroke="#00ff00" stroke-width="0.5" stroke-linejoin="round" points="55.6963,154.301 387.732,154.301"/>
   <polyline stroke-linecap="butt" fill="none" stroke="#00ff00" stroke-width="0.5" stroke-linejoin="round" points="55.6963,140.307 387.732,140.307"/>
   <polyline stroke-linecap="butt" fill="none" stroke="#00ff00" stroke-width="0.5" stroke-linejoin="round" points="55.6963,126.313 387.732,126.313"/>
   <polyline stroke-linecap="butt" fill="none" stroke="#00ff00" stroke-width="0.5" stroke-linejoin="round" points="55.6963,112.319 387.732,112.319"/>
   <polyline stroke-linecap="butt" fill="none" stroke="#00ff00" stroke-width="0.5" stroke-linejoin="round" points="55.6963,98.3244 387.732,98.3244"/>
   <polyline stroke-linecap="butt" fill="none" stroke="#00ff00" stroke-width="0.5" stroke-linejoin="round" points="55.6963,84.3303 387.732,84.3303"/>
   <polyline stroke-linecap="butt" fill="none" stroke="#00ff00" stroke-width="0.5" stroke-linejoin="round" points="55.6963,70.3362 387.732,70.3362"/>
   <polyline stroke-linecap="butt" fill="none" stroke="#00ff00" stroke-width="0.5" stroke-linejoin="round" points="55.6963,238.266 387.732,238.266"/>
   <polyline stroke-linecap="butt" fill="none" stroke="#00ff00" stroke-width="0.5" stroke-linejoin="round" points="55.6963,224.272 387.732,224.272"/>
   <polyline stroke-linecap="butt" fill="none" stroke="#00ff00" stroke-width="0.5" stroke-linejoin="round" points="55.6963,210.277 387.732,210.277"/>
   <polyline stroke-linecap="butt" fill="none" stroke="#00ff00" stroke-width="0.5" stroke-linejoin="round" points="55.6963,196.283 387.732,196.283"/>
   <polyline stroke-linecap="butt" fill="none" stroke="#00ff00" stroke-width="0.5" stroke-linejoin="round" points="55.6963,182.289 387.732,182.289"/>
   <polyline stroke-linecap="butt" fill="none" stroke="#00ff00" stroke-width="0.5" stroke-linejoin="round" points="55.6963,168.295 387.732,168.295"/>
   <polyline stroke-linecap="butt" fill="none" stroke="#00ff00" stroke-width="0.5" stroke-linejoin="round" points="55.6963,154.301 387.732,154.301"/>
   <polyline stroke-linecap="butt" fill="none" stroke="#00ff00" stroke-width="0.5" stroke-linejoin="round" points="55.6963,140.307 387.732,140.307"/>
   <polyline stroke-linecap="butt" fill="none" stroke="#00ff00" stroke-width="0.5" stroke-linejoin="round" points="55.6963,126.313 387.732,126.313"/>
   <polyline stroke-linecap="butt" fill="none" stroke="#00ff00" stroke-width="0.5" stroke-linejoin="round" points="55.6963,112.319 387.732,112.319"/>
   <polyline stroke-linecap="butt" fill="none" stroke="#00ff00" stroke-width="0.5" stroke-linejoin="round" points="55.6963,98.3244 387.732,98.3244"/>
   <polyline stroke-linecap="butt" fill="none" stroke="#00ff00" stroke-width="0.5" stroke-linejoin="round" points="55.6963,84.3303 387.732,84.3303"/>
   <polyline stroke-linecap="butt" fill="none" stroke="#00ff00" stroke-width="0.5" stroke-linejoin="round" points="55.6963,70.3362 387.732,70.3362"/>
   <polyline stroke-linecap="butt" fill="none" stroke="#00ff00" stroke-width="0.5" stroke-linejoin="round" points="55.6963,238.266 387.732,238.266"/>
   <polyline stroke-linecap="butt" fill="none" stroke="#00ff00" stroke-width="0.5" stroke-linejoin="round" points="55.6963,224.272 387.732,224.272"/>
   <polyline stroke-linecap="butt" fill="none" stroke="#00ff00" stroke-width="0.5" stroke-linejoin="round" points="55.6963,210.277 387.732,210.277"/>
   <polyline stroke-linecap="butt" fill="none" stroke="#00ff00" stroke-width="0.5" stroke-linejoin="round" points="55.6963,196.283 387.732,196.283"/>
   <polyline stroke-linecap="butt" fill="none" stroke="#00ff00" stroke-width="0.5" stroke-linejoin="round" points="55.6963,182.289 387.732,182.289"/>
   <polyline stroke-linecap="butt" fill="none" stroke="#00ff00" stroke-width="0.5" stroke-linejoin="round" points="55.6963,168.295 387.732,168.295"/>
   <polyline stroke-linecap="butt" fill="none" stroke="#00ff00" stroke-width="0.5" stroke-linejoin="round" points="55.6963,154.301 387.732,154.301"/>
   <polyline stroke-linecap="butt" fill="none" stroke="#00ff00" stroke-width="0.5" stroke-linejoin="round" points="55.6963,140.307 387.732,140.307"/>
   <polyline stroke-linecap="butt" fill="none" stroke="#00ff00" stroke-width="0.5" stroke-linejoin="round" points="55.6963,126.313 387.732,126.313"/>
   <polyline stroke-linecap="butt" fill="none" stroke="#00ff00" stroke-width="0.5" stroke-linejoin="round" points="55.6963,112.319 387.732,112.319"/>
   <polyline stroke-linecap="butt" fill="none" stroke="#00ff00" stroke-width="0.5" stroke-linejoin="round" points="55.6963,98.3244 387.732,98.3244"/>
   <polyline stroke-linecap="butt" fill="none" stroke="#00ff00" stroke-width="0.5" stroke-linejoin="round" points="55.6963,84.3303 387.732,84.3303"/>
   <polyline stroke-linecap="butt" fill="none" stroke="#00ff00" stroke-width="0.5" stroke-linejoin="round" points="55.6963,70.3362 387.732,70.3362"/>
   <polyline stroke-linecap="butt" fill="none" stroke="#00ff00" stroke-width="0.5" stroke-linejoin="round" points="55.6963,238.266 387.732,238.266"/>
   <polyline stroke-linecap="butt" fill="none" stroke="#00ff00" stroke-width="0.5" stroke-linejoin="round" points="55.6963,224.272 387.732,224.272"/>
   <polyline stroke-linecap="butt" fill="none" stroke="#00ff00" stroke-width="0.5" stroke-linejoin="round" points="55.6963,210.277 387.732,210.277"/>
   <polyline stroke-linecap="butt" fill="none" stroke="#00ff00" stroke-width="0.5" stroke-linejoin="round" points="55.6963,196.283 387.732,196.283"/>
   <polyline stroke-linecap="butt" fill="none" stroke="#00ff00" stroke-width="0.5" stroke-linejoin="round" points="55.6963,182.289 387.732,182.289"/>
   <polyline stroke-linecap="butt" fill="none" stroke="#00ff00" stroke-width="0.5" stroke-linejoin="round" points="55.6963,168.295 387.732,168.295"/>
   <polyline stroke-linecap="butt" fill="none" stroke="#00ff00" stroke-width="0.5" stroke-linejoin="round" points="55.6963,154.301 387.732,154.301"/>
   <polyline stroke-linecap="butt" fill="none" stroke="#00ff00" stroke-width="0.5" stroke-linejoin="round" points="55.6963,140.307 387.732,140.307"/>
   <polyline stroke-linecap="butt" fill="none" stroke="#00ff00" stroke-width="0.5" stroke-linejoin="round" points="55.6963,126.313 387.732,126.313"/>
   <polyline stroke-linecap="butt" fill="none" stroke="#00ff00" stroke-width="0.5" stroke-linejoin="round" points="55.6963,112.319 387.732,112.319"/>
   <polyline stroke-linecap="butt" fill="none" stroke="#00ff00" stroke-width="0.5" stroke-linejoin="round" points="55.6963,98.3244 387.732,98.3244"/>
   <polyline stroke-linecap="butt" fill="none" stroke="#00ff00" stroke-width="0.5" stroke-linejoin="round" points="55.6963,84.3303 387.732,84.3303"/>
   <polyline stroke-linecap="butt" fill="none" stroke="#00ff00" stroke-width="0.5" stroke-linejoin="round" points="55.6963,70.3362 387.732,70.3362"/>
   <polyline stroke-linecap="butt" fill="none" stroke="#00ff00" stroke-width="0.5" stroke-linejoin="round" points="55.6963,238.266 387.732,238.266"/>
   <polyline stroke-linecap="butt" fill="none" stroke="#00ff00" stroke-width="0.5" stroke-linejoin="round" points="55.6963,224.272 387.732,224.272"/>
   <polyline stroke-linecap="butt" fill="none" stroke="#00ff00" stroke-width="0.5" stroke-linejoin="round" points="55.6963,210.277 387.732,210.277"/>
   <polyline stroke-linecap="butt" fill="none" stroke="#00ff00" stroke-width="0.5" stroke-linejoin="round" points="55.6963,196.283 387.732,196.283"/>
   <polyline stroke-linecap="butt" fill="none" stroke="#00ff00" stroke-width="0.5" stroke-linejoin="round" points="55.6963,182.289 387.732,182.289"/>
   <polyline stroke-linecap="butt" fill="none" stroke="#00ff00" stroke-width="0.5" stroke-linejoin="round" points="55.6963,168.295 387.732,168.295"/>
   <polyline stroke-linecap="butt" fill="none" stroke="#00ff00" stroke-width="0.5" stroke-linejoin="round" points="55.6963,154.301 387.732,154.301"/>
   <polyline stroke-linecap="butt" fill="none" stroke="#00ff00" stroke-width="0.5" stroke-linejoin="round" points="55.6963,140.307 387.732,140.307"/>
   <polyline stroke-linecap="butt" fill="none" stroke="#00ff00" stroke-width="0.5" stroke-linejoin="round" points="55.6963,126.313 387.732,126.313"/>
   <polyline stroke-linecap="butt" fill="none" stroke="#00ff00" stroke-width="0.5" stroke-linejoin="round" points="55.6963,112.319 387.732,112.319"/>
   <polyline stroke-linecap="butt" fill="none" stroke="#00ff00" stroke-width="0.5" stroke-linejoin="round" points="55.6963,98.3244 387.732,98.3244"/>
   <polyline stroke-linecap="butt" fill="none" stroke="#00ff00" stroke-width="0.5" stroke-linejoin="round" points="55.6963,84.3303 387.732,84.3303"/>
   <polyline stroke-linecap="butt" fill="none" stroke="#00ff00" stroke-width="0.5" stroke-linejoin="round" points="55.6963,70.3362 387.732,70.3362"/>
   <polyline stroke-linecap="butt" fill="none" stroke="#00ff00" stroke-width="0.5" stroke-linejoin="round" points="55.6963,238.266 387.732,238.266"/>
   <polyline stroke-linecap="butt" fill="none" stroke="#00ff00" stroke-width="0.5" stroke-linejoin="round" points="55.6963,224.272 387.732,224.272"/>
   <polyline stroke-linecap="butt" fill="none" stroke="#00ff00" stroke-width="0.5" stroke-linejoin="round" points="55.6963,210.277 387.732,210.277"/>
   <polyline stroke-linecap="butt" fill="none" stroke="#00ff00" stroke-width="0.5" stroke-linejoin="round" points="55.6963,196.283 387.732,196.283"/>
   <polyline stroke-linecap="butt" fill="none" stroke="#00ff00" stroke-width="0.5" stroke-linejoin="round" points="55.6963,182.289 387.732,182.289"/>
   <polyline stroke-linecap="butt" fill="none" stroke="#00ff00" stroke-width="0.5" stroke-linejoin="round" points="55.6963,168.295 387.732,168.295"/>
   <polyline stroke-linecap="butt" fill="none" stroke="#00ff00" stroke-width="0.5" stroke-linejoin="round" points="55.6963,154.301 387.732,154.301"/>
   <polyline stroke-linecap="butt" fill="none" stroke="#00ff00" stroke-width="0.5" stroke-linejoin="round" points="55.6963,140.307 387.732,140.307"/>
   <polyline stroke-linecap="butt" fill="none" stroke="#00ff00" stroke-width="0.5" stroke-linejoin="round" points="55.6963,126.313 387.732,126.313"/>
   <polyline stroke-linecap="butt" fill="none" stroke="#00ff00" stroke-width="0.5" stroke-linejoin="round" points="55.6963,112.319 387.732,112.319"/>
   <polyline stroke-linecap="butt" fill="none" stroke="#00ff00" stroke-width="0.5" stroke-linejoin="round" points="55.6963,98.3244 387.732,98.3244"/>
   <polyline stroke-linecap="butt" fill="none" stroke="#00ff00" stroke-width="0.5" stroke-linejoin="round" points="55.6963,84.3303 387.732,84.3303"/>
   <polyline stroke-linecap="butt" fill="none" stroke="#00ff00" stroke-width="0.5" stroke-linejoin="round" points="55.6963,70.3362 387.732,70.3362"/>
   <polyline stroke-linecap="butt" fill="none" stroke="#00ff00" stroke-width="0.5" stroke-linejoin="round" points="55.6963,238.266 387.732,238.266"/>
   <polyline stroke-linecap="butt" fill="none" stroke="#00ff00" stroke-width="0.5" stroke-linejoin="round" points="55.6963,224.272 387.732,224.272"/>
   <polyline stroke-linecap="butt" fill="none" stroke="#00ff00" stroke-width="0.5" stroke-linejoin="round" points="55.6963,210.277 387.732,210.277"/>
   <polyline stroke-linecap="butt" fill="none" stroke="#00ff00" stroke-width="0.5" stroke-linejoin="round" points="55.6963,196.283 387.732,196.283"/>
   <polyline stroke-linecap="butt" fill="none" stroke="#00ff00" stroke-width="0.5" stroke-linejoin="round" points="55.6963,182.289 387.732,182.289"/>
   <polyline stroke-linecap="butt" fill="none" stroke="#00ff00" stroke-width="0.5" stroke-linejoin="round" points="55.6963,168.295 387.732,168.295"/>
   <polyline stroke-linecap="butt" fill="none" stroke="#00ff00" stroke-width="0.5" stroke-linejoin="round" points="55.6963,154.301 387.732,154.301"/>
   <polyline stroke-linecap="butt" fill="none" stroke="#00ff00" stroke-width="0.5" stroke-linejoin="round" points="55.6963,140.307 387.732,140.307"/>
   <polyline stroke-linecap="butt" fill="none" stroke="#00ff00" stroke-width="0.5" stroke-linejoin="round" points="55.6963,126.313 387.732,126.313"/>
   <polyline stroke-linecap="butt" fill="none" stroke="#00ff00" stroke-width="0.5" stroke-linejoin="round" points="55.6963,112.319 387.732,112.319"/>
   <polyline stroke-linecap="butt" fill="none" stroke="#00ff00" stroke-width="0.5" stroke-linejoin="round" points="55.6963,98.3244 387.732,98.3244"/>
   <polyline stroke-linecap="butt" fill="none" stroke="#00ff00" stroke-width="0.5" stroke-linejoin="round" points="55.6963,84.3303 387.732,84.3303"/>
   <polyline stroke-linecap="butt" fill="none" stroke="#00ff00" stroke-width="0.5" stroke-linejoin="round" points="55.6963,70.3362 387.732,70.3362"/>
   <polyline stroke-linecap="butt" fill="none" stroke="#00ff00" stroke-width="0.5" stroke-linejoin="round" points="55.6963,238.266 387.732,238.266"/>
   <polyline stroke-linecap="butt" fill="none" stroke="#00ff00" stroke-width="0.5" stroke-linejoin="round" points="55.6963,224.272 387.732,224.272"/>
   <polyline stroke-linecap="butt" fill="none" stroke="#00ff00" stroke-width="0.5" stroke-linejoin="round" points="55.6963,210.277 387.732,210.277"/>
   <polyline stroke-linecap="butt" fill="none" stroke="#00ff00" stroke-width="0.5" stroke-linejoin="round" points="55.6963,196.283 387.732,196.283"/>
   <polyline stroke-linecap="butt" fill="none" stroke="#00ff00" stroke-width="0.5" stroke-linejoin="round" points="55.6963,182.289 387.732,182.289"/>
   <polyline stroke-linecap="butt" fill="none" stroke="#00ff00" stroke-width="0.5" stroke-linejoin="round" points="55.6963,168.295 387.732,168.295"/>
   <polyline stroke-linecap="butt" fill="none" stroke="#00ff00" stroke-width="0.5" stroke-linejoin="round" points="55.6963,154.301 387.732,154.301"/>
   <polyline stroke-linecap="butt" fill="none" stroke="#00ff00" stroke-width="0.5" stroke-linejoin="round" points="55.6963,140.307 387.732,140.307"/>
   <polyline stroke-linecap="butt" fill="none" stroke="#00ff00" stroke-width="0.5" stroke-linejoin="round" points="55.6963,126.313 387.732,126.313"/>
   <polyline stroke-linecap="butt" fill="none" stroke="#00ff00" stroke-width="0.5" stroke-linejoin="round" points="55.6963,112.319 387.732,112.319"/>
   <polyline stroke-linecap="butt" fill="none" stroke="#00ff00" stroke-width="0.5" stroke-linejoin="round" points="55.6963,98.3244 387.732,98.3244"/>
   <polyline stroke-linecap="butt" fill="none" stroke="#00ff00" stroke-width="0.5" stroke-linejoin="round" points="55.6963,84.3303 387.732,84.3303"/>
   <polyline stroke-linecap="butt" fill="none" stroke="#00ff00" stroke-width="0.5" stroke-linejoin="round" points="55.6963,70.3362 387.732,70.3362"/>
   <polyline stroke-linecap="butt" fill="none" stroke="#00ff00" stroke-width="0.5" stroke-linejoin="round" points="55.6963,238.266 387.732,238.266"/>
   <polyline stroke-linecap="butt" fill="none" stroke="#00ff00" stroke-width="0.5" stroke-linejoin="round" points="55.6963,224.272 387.732,224.272"/>
   <polyline stroke-linecap="butt" fill="none" stroke="#00ff00" stroke-width="0.5" stroke-linejoin="round" points="55.6963,210.277 387.732,210.277"/>
   <polyline stroke-linecap="butt" fill="none" stroke="#00ff00" stroke-width="0.5" stroke-linejoin="round" points="55.6963,196.283 387.732,196.283"/>
   <polyline stroke-linecap="butt" fill="none" stroke="#00ff00" stroke-width="0.5" stroke-linejoin="round" points="55.6963,182.289 387.732,182.289"/>
   <polyline stroke-linecap="butt" fill="none" stroke="#00ff00" stroke-width="0.5" stroke-linejoin="round" points="55.6963,168.295 387.732,168.295"/>
   <polyline stroke-linecap="butt" fill="none" stroke="#00ff00" stroke-width="0.5" stroke-linejoin="round" points="55.6963,154.301 387.732,154.301"/>
   <polyline stroke-linecap="butt" fill="none" stroke="#00ff00" stroke-width="0.5" stroke-linejoin="round" points="55.6963,140.307 387.732,140.307"/>
   <polyline stroke-linecap="butt" fill="none" stroke="#00ff00" stroke-width="0.5" stroke-linejoin="round" points="55.6963,126.313 387.732,126.313"/>
   <polyline stroke-linecap="butt" fill="none" stroke="#00ff00" stroke-width="0.5" stroke-linejoin="round" points="55.6963,112.319 387.732,112.319"/>
   <polyline stroke-linecap="butt" fill="none" stroke="#00ff00" stroke-width="0.5" stroke-linejoin="round" points="55.6963,98.3244 387.732,98.3244"/>
   <polyline stroke-linecap="butt" fill="none" stroke="#00ff00" stroke-width="0.5" stroke-linejoin="round" points="55.6963,84.3303 387.732,84.3303"/>
   <polyline stroke-linecap="butt" fill="none" stroke="#00ff00" stroke-width="0.5" stroke-linejoin="round" points="55.6963,70.3362 387.732,70.3362"/>
   <polyline stroke-linecap="butt" fill="none" stroke="#000000" stroke-width="0.5" stroke-linejoin="round" points="55.6963,238.266 55.6963,70.3362 387.732,70.3362 387.732,238.266 55.6963,238.266"/>
   <polyline stroke-linecap="butt" fill="none" stroke="#ff0000" stroke-width="0.5" stroke-linejoin="round" points="55.6963,186.954 387.732,186.954"/>
  </g>
 </g>
</svg>
