<?xml version="1.0" encoding="UTF-8" standalone="no"?>
<svg xmlns="http://www.w3.org/2000/svg"
     xmlns:xlink="http://www.w3.org/1999/xlink"
     width="576pt" height="432pt" viewBox="0 0 576 432">
<title>gl2ps_renderer figure</title>
<desc>
Creator: GL2PS 1.4.0, (C) 1999-2017 C. Geuzaine
For: Octave
CreationDate: Wed Mar 20 17:14:15 2019
</desc>
<defs>
</defs>
<polygon fill="#ffffff" points="0,0 576,0 576,432 0,432"/>
<g>
<polygon fill="#ffffff" points="0,432 576,432 576,0 0,0" shape-rendering="crispEdges"/>
<clipPath id="cp00576432">
  <polygon points="0,432 576,432 576,0 0,0"/>
</clipPath>
<g clip-path="url(#cp00576432)">
<polyline fill="none" stroke="#000000" stroke-width="0.5" stroke-linecap="butt" stroke-linejoin="round" points="298.08,383.223 299.096,379.295 300.111,375.367 301.124,371.439 302.133,367.512 303.136,363.584 304.134,359.656 305.124,355.729 306.105,351.801 307.076,347.873 308.036,343.946 308.983,340.018 309.917,336.09 310.836,332.163 311.74,328.235 312.626,324.307 313.494,320.379 314.343,316.452 315.172,312.524 315.979,308.596 316.764,304.669 317.526,300.741 318.263,296.813 318.976,292.886 319.662,288.958 320.322,285.03 320.953,281.102 321.557,277.175 322.131,273.247 322.675,269.319 323.188,265.392 323.67,261.464 324.121,257.536 324.538,253.609 324.923,249.681 325.275,245.753 325.592,241.825 325.875,237.898 326.124,233.97 326.338,230.042 326.516,226.115 326.659,222.187 326.767,218.259 326.838,214.332 326.874,210.404 326.874,206.476 326.838,202.548 326.767,198.621 326.659,194.693 326.516,190.765 326.338,186.838 326.124,182.91 325.875,178.982 325.592,175.055 325.275,171.127 324.923,167.199 324.538,163.271 324.121,159.344 323.67,155.416 323.188,151.488 322.675,147.561 322.131,143.633 321.557,139.705 320.953,135.778 320.322,131.85 319.662,127.922 318.976,123.995 318.263,120.067 317.526,116.139 316.764,112.211 315.979,108.284 315.172,104.356 314.343,100.428 313.494,96.5006 312.626,92.5729 311.74,88.6452 310.836,84.7175 309.917,80.7898 308.983,76.8621 308.036,72.9344 307.076,69.0067 306.105,65.079 305.124,61.1513 304.134,57.2236 303.136,53.2959 302.133,49.3682 301.124,45.4405 300.111,41.5128 299.096,37.5851 298.08,33.6574 298.08,33.6574 297.064,37.5851 296.049,41.5128 295.036,45.4405 294.027,49.3682 293.024,53.2959 292.026,57.2236 291.036,61.1513 290.055,65.079 289.084,69.0067 288.124,72.9344 287.177,76.8621 286.243,80.7898 285.324,84.7175 284.42,88.6452 283.534,92.5729 282.666,96.5006 281.817,100.428 280.988,104.356 280.181,108.284 279.396,112.211 278.634,116.139 277.897,120.067 277.184,123.995 276.498,127.922 275.838,131.85 275.207,135.778 274.603,139.705 274.029,143.633 273.485,147.561 272.972,151.488 272.49,155.416 272.039,159.344 271.622,163.271 271.237,167.199 270.885,171.127 270.568,175.055 270.285,178.982 270.036,182.91 269.822,186.838 269.644,190.765 269.501,194.693 269.393,198.621 269.322,202.548 269.286,206.476 269.286,210.404 269.322,214.332 269.393,218.259 269.501,222.187 269.644,226.115 269.822,230.042 270.036,233.97 270.285,237.898 270.568,241.825 270.885,245.753 271.237,249.681 271.622,253.609 272.039,257.536 272.49,261.464 272.972,265.392 273.485,269.319 274.029,273.247 274.603,277.175 275.207,281.102 275.838,285.03 276.498,288.958 277.184,292.886 277.897,296.813 278.634,300.741 279.396,304.669 280.181,308.596 280.988,312.524 281.817,316.452 282.666,320.379 283.534,324.307 284.42,328.235 285.324,332.163 286.243,336.09 287.177,340.018 288.124,343.946 289.084,347.873 290.055,351.801 291.036,355.729 292.026,359.656 293.024,363.584 294.027,367.512 295.036,371.439 296.049,375.367 297.064,379.295 298.08,383.223 298.08,383.223"/>
<polyline fill="none" stroke="#000000" stroke-width="0.5" stroke-linecap="butt" stroke-linejoin="round" points="305.534,354.092 290.626,354.092"/>
<polyline fill="none" stroke="#000000" stroke-width="0.5" stroke-linecap="butt" stroke-linejoin="round" points="312.479,324.962 283.681,324.962"/>
<polyline fill="none" stroke="#000000" stroke-width="0.5" stroke-linecap="butt" stroke-linejoin="round" points="318.444,295.831 277.716,295.831"/>
<polyline fill="none" stroke="#000000" stroke-width="0.5" stroke-linecap="butt" stroke-linejoin="round" points="323.02,266.701 273.139,266.701"/>
<polyline fill="none" stroke="#000000" stroke-width="0.5" stroke-linecap="butt" stroke-linejoin="round" points="325.897,237.57 270.262,237.57"/>
<polyline fill="none" stroke="#000000" stroke-width="0.5" stroke-linecap="butt" stroke-linejoin="round" points="326.879,208.44 269.281,208.44"/>
<polyline fill="none" stroke="#000000" stroke-width="0.5" stroke-linecap="butt" stroke-linejoin="round" points="325.897,179.31 270.262,179.31"/>
<polyline fill="none" stroke="#000000" stroke-width="0.5" stroke-linecap="butt" stroke-linejoin="round" points="323.02,150.179 273.139,150.179"/>
<polyline fill="none" stroke="#000000" stroke-width="0.5" stroke-linecap="butt" stroke-linejoin="round" points="318.444,121.049 277.716,121.049"/>
<polyline fill="none" stroke="#000000" stroke-width="0.5" stroke-linecap="butt" stroke-linejoin="round" points="312.479,91.9183 283.681,91.9183"/>
<polyline fill="none" stroke="#000000" stroke-width="0.5" stroke-linecap="butt" stroke-linejoin="round" points="305.534,62.7878 290.626,62.7878"/>
<polyline fill="none" stroke="#000000" stroke-width="0.5" stroke-linecap="butt" stroke-linejoin="round" points="298.08,33.6574 298.08,33.6574"/>
<polyline fill="none" stroke="#ff0000" stroke-width="0.5" stroke-linecap="butt" stroke-linejoin="round" points="269.281,276.411 326.879,276.411"/>
</g>
</g>
</svg>
